<svg width="185" height="185" viewBox="0 0 185 185" fill="none" xmlns="http://www.w3.org/2000/svg">
<path d="M18.4952 124.779C18.4952 124.779 11.2472 125.291 12.3808 141.096C13.5143 156.902 38.9661 185.186 102.465 182.152C165.965 179.119 178.098 145.919 178.271 138.409C178.445 130.898 168.717 126.789 168.717 126.789L18.4952 124.779Z" fill="#FAA82F"/>
<path d="M101.421 160.098C94.0058 160.302 74.2743 161.405 53.7509 153.784C46.9519 151.259 39.8122 148.138 33.2657 144.962C30.3465 143.546 19.024 138.319 20.6954 145.994C22.0138 152.047 28.1671 153.986 32.5403 155.696C35.8174 156.977 39.0757 158.153 42.3754 159.396C46.8501 161.082 69.7617 165.073 76.75 165.259C79.1352 165.322 81.5016 165.37 83.8866 165.414C89.0475 165.507 93.6544 163.822 98.6256 162.444C100.45 161.939 102.256 161.547 103.726 160.09C102.997 160.048 102.169 159.999 101.421 160.098Z" fill="#FFC042"/>
<path opacity="0.15" d="M168.717 126.789L18.495 124.779C18.495 124.779 24.4271 141.421 64.9752 152.874C68.8407 153.966 73.1592 155.301 77.0984 155.802C81.4596 156.356 85.9296 154.688 90.4001 155.206C98.43 156.136 106.088 153.918 113.988 152.773C120.101 151.887 126.007 150.579 132.039 149.164C137.164 147.962 143.199 145.681 148.511 146.583C152.869 147.324 158.612 152.307 156.751 158.307C154.747 164.769 146.667 166.416 141.695 167.505C134.513 169.078 127.638 170.971 120.334 171.768C97.3959 174.273 73.671 173.49 50.8578 169.193C41.3581 167.404 30.6942 164.598 22.9763 157.362C19.591 154.188 16.329 150.12 13.4726 146.181C19.0019 162.257 45.3295 184.883 102.465 182.153C165.965 179.119 178.098 145.919 178.271 138.409C178.445 130.898 168.717 126.789 168.717 126.789Z" fill="#F91E00"/>
<path d="M18.4952 124.779C18.4952 124.779 5.92078 112.676 16.7489 99.2086L97.0307 112.276L163.653 106.116C163.653 106.116 175.658 108.581 168.717 126.789C168.717 126.789 86.7413 177.04 18.4952 124.779Z" fill="#782800"/>
<path d="M167.479 115.76C167.929 115.747 168.282 115.308 168.267 114.778C168.253 114.248 167.876 113.829 167.426 113.841C166.976 113.853 166.623 114.293 166.637 114.823C166.652 115.353 167.029 115.772 167.479 115.76Z" fill="#632100"/>
<path d="M162.619 119.681C163.314 119.662 163.859 118.983 163.837 118.165C163.815 117.346 163.233 116.698 162.538 116.717C161.842 116.736 161.297 117.415 161.319 118.234C161.342 119.052 161.924 119.7 162.619 119.681Z" fill="#632100"/>
<path d="M157.744 119.961C157.76 120.564 157.359 121.063 156.847 121.077C156.336 121.091 155.908 120.614 155.891 120.012C155.875 119.41 156.276 118.911 156.787 118.897C157.299 118.883 157.727 119.359 157.744 119.961Z" fill="#632100"/>
<path d="M153.525 125.463C153.54 126.025 153.166 126.491 152.689 126.504C152.212 126.517 151.813 126.073 151.797 125.511C151.782 124.949 152.156 124.483 152.633 124.47C153.11 124.457 153.509 124.902 153.525 125.463Z" fill="#632100"/>
<path d="M146.36 120.843C147.126 120.822 147.728 120.073 147.703 119.17C147.678 118.268 147.037 117.553 146.27 117.574C145.503 117.595 144.902 118.344 144.927 119.247C144.952 120.149 145.593 120.864 146.36 120.843Z" fill="#632100"/>
<path d="M143.584 124.18C143.598 124.681 143.264 125.096 142.839 125.108C142.413 125.12 142.057 124.723 142.043 124.222C142.029 123.721 142.363 123.305 142.789 123.294C143.214 123.282 143.571 123.678 143.584 124.18Z" fill="#632100"/>
<path d="M139.375 125.903C139.834 125.89 140.194 125.442 140.179 124.902C140.164 124.362 139.78 123.934 139.322 123.946C138.863 123.959 138.503 124.407 138.518 124.947C138.532 125.488 138.916 125.915 139.375 125.903Z" fill="#632100"/>
<path d="M136.561 128.73C136.576 129.273 136.214 129.723 135.753 129.735C135.292 129.748 134.906 129.318 134.891 128.776C134.877 128.233 135.238 127.783 135.699 127.77C136.16 127.757 136.546 128.187 136.561 128.73Z" fill="#632100"/>
<path d="M131.898 131.307C132.706 131.285 133.34 130.495 133.314 129.544C133.288 128.592 132.611 127.839 131.803 127.861C130.995 127.883 130.361 128.672 130.387 129.624C130.413 130.575 131.089 131.329 131.898 131.307Z" fill="#632100"/>
<path d="M126.986 126.802C127.525 126.787 127.947 126.261 127.93 125.627C127.912 124.993 127.462 124.491 126.923 124.506C126.385 124.521 125.962 125.047 125.98 125.681C125.997 126.315 126.448 126.816 126.986 126.802Z" fill="#632100"/>
<path d="M121.18 121.079C121.902 121.06 122.469 120.354 122.446 119.504C122.422 118.654 121.818 117.981 121.096 118C120.374 118.02 119.807 118.726 119.83 119.576C119.854 120.426 120.458 121.099 121.18 121.079Z" fill="#632100"/>
<path d="M120.644 134.456C120.66 135.056 120.261 135.553 119.752 135.567C119.242 135.581 118.816 135.107 118.8 134.507C118.783 133.907 119.183 133.41 119.692 133.396C120.201 133.382 120.627 133.857 120.644 134.456Z" fill="#632100"/>
<path d="M114.355 124.373C114.374 125.086 113.899 125.678 113.293 125.694C112.687 125.711 112.18 125.146 112.16 124.433C112.141 123.72 112.616 123.128 113.222 123.112C113.828 123.095 114.335 123.659 114.355 124.373Z" fill="#632100"/>
<path d="M111.171 128.521C111.196 129.414 110.601 130.154 109.843 130.175C109.085 130.195 108.451 129.489 108.426 128.597C108.402 127.704 108.996 126.964 109.754 126.943C110.512 126.922 111.147 127.629 111.171 128.521Z" fill="#632100"/>
<path d="M106.863 135.225C106.884 135.999 106.368 136.642 105.71 136.66C105.052 136.678 104.502 136.065 104.481 135.29C104.459 134.516 104.975 133.873 105.633 133.855C106.291 133.837 106.842 134.45 106.863 135.225Z" fill="#632100"/>
<path d="M102.158 133.532C102.175 134.176 101.746 134.711 101.198 134.726C100.651 134.741 100.193 134.231 100.175 133.586C100.157 132.942 100.587 132.407 101.134 132.392C101.682 132.377 102.14 132.887 102.158 133.532Z" fill="#632100"/>
<path d="M96.9726 136.245C96.9897 136.868 96.5746 137.384 96.0459 137.399C95.5172 137.413 95.0744 136.92 95.0573 136.298C95.0402 135.675 95.4553 135.158 95.984 135.144C96.5127 135.129 96.9555 135.622 96.9726 136.245Z" fill="#632100"/>
<path d="M91.2673 138.02C91.8624 138.004 92.3292 137.423 92.31 136.722C92.2908 136.022 91.7928 135.467 91.1977 135.483C90.6025 135.499 90.1357 136.081 90.1549 136.781C90.1742 137.482 90.6722 138.037 91.2673 138.02Z" fill="#632100"/>
<path d="M88.2504 133.724C88.2741 134.586 87.6998 135.301 86.9673 135.321C86.2349 135.341 85.6222 134.659 85.5985 133.797C85.5748 132.934 86.1492 132.219 86.8816 132.199C87.6137 132.179 88.2267 132.861 88.2504 133.724Z" fill="#632100"/>
<path d="M83.0938 125.407C83.5667 125.394 83.9376 124.933 83.9223 124.376C83.907 123.819 83.5113 123.378 83.0385 123.391C82.5657 123.404 82.1948 123.866 82.21 124.423C82.2253 124.98 82.621 125.42 83.0938 125.407Z" fill="#632100"/>
<path d="M81.0953 132.352C81.1223 133.336 80.4668 134.152 79.6315 134.175C78.7961 134.198 78.0969 133.419 78.0699 132.435C78.0429 131.452 78.6984 130.636 79.5337 130.613C80.369 130.59 81.0683 131.369 81.0953 132.352Z" fill="#632100"/>
<path d="M75.2229 134.57C75.2377 135.11 74.8776 135.558 74.4186 135.571C73.9595 135.584 73.5754 135.156 73.5605 134.616C73.5457 134.075 73.9058 133.627 74.3649 133.615C74.8239 133.602 75.2081 134.03 75.2229 134.57Z" fill="#632100"/>
<path d="M72.6881 124.345C72.7145 125.305 72.0747 126.101 71.2595 126.123C70.4442 126.146 69.7618 125.386 69.7355 124.426C69.7091 123.466 70.3488 122.669 71.1641 122.647C71.9797 122.625 72.6618 123.385 72.6881 124.345Z" fill="#632100"/>
<path d="M67.4599 120.451C67.4793 121.155 67.0099 121.74 66.4119 121.756C65.8135 121.773 65.3131 121.215 65.2938 120.511C65.2745 119.806 65.7439 119.222 66.3419 119.206C66.9399 119.189 67.4406 119.747 67.4599 120.451Z" fill="#632100"/>
<path d="M62.7245 124.789C63.4821 124.768 64.0764 124.028 64.0519 123.137C64.0274 122.245 63.3934 121.538 62.6359 121.559C61.8783 121.58 61.284 122.32 61.3085 123.212C61.333 124.104 61.9669 124.81 62.7245 124.789Z" fill="#632100"/>
<path d="M60.8481 119.996C60.8677 120.71 60.3916 121.303 59.7849 121.32C59.1779 121.336 58.6704 120.77 58.6507 120.056C58.6311 119.342 59.1072 118.749 59.7139 118.732C60.3206 118.716 60.8285 119.281 60.8481 119.996Z" fill="#632100"/>
<path d="M58.4847 118.988C58.5105 119.931 57.8822 120.713 57.0812 120.735C56.2801 120.757 55.6099 120.01 55.584 119.067C55.5581 118.124 56.1864 117.342 56.9874 117.32C57.7885 117.298 58.4588 118.044 58.4847 118.988Z" fill="#632100"/>
<path d="M54.2966 120.617C54.3222 121.551 53.6999 122.325 52.9065 122.347C52.1131 122.369 51.4493 121.63 51.4236 120.695C51.398 119.761 52.0203 118.987 52.8137 118.965C53.6071 118.943 54.2709 119.683 54.2966 120.617Z" fill="#632100"/>
<path d="M49.4364 120.97C49.4544 121.624 49.0185 122.167 48.4628 122.182C47.907 122.197 47.4421 121.68 47.4241 121.025C47.4062 120.371 47.842 119.828 48.3978 119.813C48.9535 119.798 49.4185 120.316 49.4364 120.97Z" fill="#632100"/>
<path d="M44.043 122.406C44.494 122.393 44.8478 121.953 44.8333 121.422C44.8187 120.891 44.4412 120.47 43.9902 120.483C43.5392 120.495 43.1854 120.936 43.2 121.467C43.2145 121.998 43.592 122.418 44.043 122.406Z" fill="#632100"/>
<path d="M39.6576 120.483C39.6793 121.272 39.1539 121.926 38.4841 121.944C37.8144 121.963 37.2539 121.338 37.2323 120.55C37.2107 119.761 37.736 119.107 38.4058 119.089C39.0755 119.07 39.636 119.695 39.6576 120.483Z" fill="#632100"/>
<path d="M38.2348 113.698C38.9583 113.679 39.5258 112.972 39.5025 112.12C39.4791 111.268 38.8736 110.594 38.1501 110.614C37.4266 110.634 36.859 111.34 36.8824 112.192C36.9058 113.044 37.5113 113.718 38.2348 113.698Z" fill="#632100"/>
<path d="M30.0189 119.972C30.7507 119.952 31.3247 119.237 31.301 118.376C31.2774 117.514 30.665 116.832 29.9333 116.852C29.2016 116.873 28.6276 117.587 28.6512 118.449C28.6749 119.31 29.2872 119.992 30.0189 119.972Z" fill="#632100"/>
<path d="M28.6962 109.774C28.7123 110.361 28.3217 110.847 27.8238 110.861C27.3259 110.874 26.9092 110.41 26.8931 109.824C26.8771 109.238 27.2677 108.751 27.7655 108.738C28.2634 108.724 28.6801 109.188 28.6962 109.774Z" fill="#632100"/>
<path d="M24.6483 111.106C24.6639 111.673 24.2864 112.143 23.8048 112.156C23.3232 112.17 22.9204 111.721 22.9049 111.154C22.8893 110.587 23.2672 110.117 23.7484 110.104C24.23 110.091 24.6328 110.539 24.6483 111.106Z" fill="#632100"/>
<path d="M19.3723 108.892C20.2209 108.869 20.8866 108.04 20.8592 107.041C20.8318 106.041 20.1216 105.25 19.2729 105.274C18.4243 105.297 17.7586 106.126 17.786 107.125C17.8134 108.124 18.5236 108.915 19.3723 108.892Z" fill="#632100"/>
<path d="M17.5618 102.926C17.5809 103.623 17.1169 104.2 16.5254 104.217C15.934 104.233 15.439 103.682 15.4199 102.985C15.4007 102.289 15.8648 101.711 16.4562 101.695C17.0476 101.679 17.5427 102.23 17.5618 102.926Z" fill="#632100"/>
<path d="M166.706 123.628C167.346 123.61 167.848 122.985 167.828 122.231C167.807 121.477 167.271 120.881 166.631 120.898C165.99 120.916 165.488 121.541 165.509 122.295C165.53 123.049 166.065 123.646 166.706 123.628Z" fill="#632100"/>
<path d="M160.404 118.599C161.126 118.58 161.692 117.875 161.668 117.025C161.645 116.176 161.041 115.503 160.32 115.523C159.598 115.543 159.032 116.248 159.055 117.097C159.079 117.947 159.683 118.619 160.404 118.599Z" fill="#632100"/>
<path d="M159.486 122.464C159.51 123.351 158.919 124.087 158.165 124.108C157.412 124.128 156.781 123.426 156.757 122.539C156.732 121.652 157.323 120.916 158.077 120.895C158.831 120.874 159.461 121.577 159.486 122.464Z" fill="#632100"/>
<path d="M152.392 124.972C153.021 124.955 153.515 124.34 153.494 123.6C153.474 122.859 152.948 122.273 152.319 122.29C151.69 122.308 151.196 122.922 151.216 123.662C151.237 124.403 151.763 124.989 152.392 124.972Z" fill="#632100"/>
<path d="M152.772 131.578C152.789 132.214 152.366 132.741 151.825 132.756C151.285 132.771 150.833 132.267 150.816 131.632C150.798 130.996 151.222 130.468 151.762 130.453C152.303 130.438 152.755 130.942 152.772 131.578Z" fill="#632100"/>
<path d="M147.736 131.727C147.75 132.249 147.402 132.682 146.959 132.694C146.515 132.707 146.144 132.293 146.13 131.771C146.115 131.249 146.463 130.816 146.907 130.803C147.35 130.791 147.722 131.204 147.736 131.727Z" fill="#632100"/>
<path d="M140.108 122.334C140.828 122.314 141.393 121.611 141.37 120.763C141.347 119.916 140.744 119.244 140.024 119.264C139.304 119.284 138.739 119.987 138.762 120.835C138.786 121.683 139.388 122.354 140.108 122.334Z" fill="#632100"/>
<path d="M136.613 135.095C137.21 135.078 137.677 134.496 137.658 133.794C137.639 133.092 137.14 132.536 136.544 132.552C135.947 132.569 135.48 133.151 135.499 133.853C135.518 134.555 136.017 135.111 136.613 135.095Z" fill="#632100"/>
<path d="M133.072 136.925C133.092 137.638 132.617 138.229 132.012 138.245C131.407 138.262 130.9 137.698 130.881 136.986C130.861 136.273 131.336 135.682 131.941 135.666C132.546 135.649 133.052 136.213 133.072 136.925Z" fill="#632100"/>
<path d="M127.028 135.811C127.045 136.415 126.642 136.917 126.129 136.931C125.615 136.945 125.186 136.466 125.169 135.862C125.153 135.257 125.555 134.756 126.069 134.741C126.582 134.727 127.012 135.206 127.028 135.811Z" fill="#632100"/>
<path d="M122.223 124.293C122.244 125.05 121.739 125.679 121.096 125.697C120.452 125.714 119.914 125.115 119.893 124.357C119.872 123.599 120.377 122.971 121.02 122.953C121.664 122.936 122.202 123.535 122.223 124.293Z" fill="#632100"/>
<path d="M116.591 125.936C116.606 126.488 116.238 126.946 115.77 126.959C115.301 126.971 114.909 126.534 114.894 125.983C114.878 125.431 115.246 124.973 115.715 124.961C116.184 124.948 116.576 125.385 116.591 125.936Z" fill="#632100"/>
<path d="M115.034 138.808C115.055 139.568 114.548 140.198 113.903 140.216C113.257 140.233 112.717 139.632 112.696 138.872C112.676 138.112 113.182 137.482 113.827 137.464C114.473 137.446 115.013 138.048 115.034 138.808Z" fill="#632100"/>
<path d="M110.053 126.473C110.074 127.208 109.584 127.818 108.959 127.835C108.335 127.852 107.813 127.27 107.792 126.535C107.772 125.8 108.262 125.19 108.886 125.173C109.511 125.156 110.033 125.738 110.053 126.473Z" fill="#632100"/>
<path d="M105.593 134.459C106.2 134.442 106.677 133.848 106.658 133.133C106.638 132.417 106.129 131.85 105.521 131.867C104.913 131.884 104.437 132.477 104.456 133.193C104.476 133.909 104.985 134.476 105.593 134.459Z" fill="#632100"/>
<path d="M100.862 133.782C100.877 134.324 100.515 134.773 100.055 134.786C99.5952 134.799 99.21 134.37 99.1951 133.828C99.1803 133.286 99.5414 132.837 100.001 132.824C100.462 132.811 100.847 133.24 100.862 133.782Z" fill="#632100"/>
<path d="M95.6622 128.61C96.5106 128.587 97.1762 127.758 97.1488 126.759C97.1214 125.76 96.4113 124.969 95.5629 124.993C94.7144 125.016 94.0488 125.845 94.0763 126.844C94.1037 127.843 94.8137 128.633 95.6622 128.61Z" fill="#632100"/>
<path d="M90.6055 141.835C91.1242 141.821 91.5312 141.314 91.5144 140.703C91.4976 140.092 91.0635 139.609 90.5448 139.623C90.026 139.637 89.6191 140.144 89.6358 140.755C89.6526 141.366 90.0867 141.849 90.6055 141.835Z" fill="#632100"/>
<path d="M88.8094 127.525C88.8307 128.3 88.3144 128.944 87.6557 128.962C86.9974 128.98 86.4463 128.366 86.425 127.591C86.4037 126.815 86.92 126.173 87.5787 126.155C88.2373 126.136 88.7882 126.75 88.8094 127.525Z" fill="#632100"/>
<path d="M85.8964 130.162C85.9225 131.111 85.2898 131.899 84.4829 131.922C83.6763 131.944 83.001 131.191 82.9749 130.242C82.9489 129.292 83.5815 128.504 84.3885 128.482C85.1954 128.46 85.8703 129.212 85.8964 130.162Z" fill="#632100"/>
<path d="M82.289 133.205C82.3078 133.891 81.8505 134.46 81.2674 134.476C80.6846 134.492 80.1967 133.949 80.1779 133.263C80.1591 132.577 80.6164 132.007 81.1992 131.991C81.7823 131.975 82.2701 132.518 82.289 133.205Z" fill="#632100"/>
<path d="M79.4043 126.81C79.4317 127.807 78.7675 128.634 77.9204 128.658C77.0736 128.681 76.365 127.892 76.3376 126.894C76.3103 125.897 76.9745 125.07 77.8212 125.047C78.6684 125.023 79.3769 125.813 79.4043 126.81Z" fill="#632100"/>
<path d="M75.192 129.438C75.2183 130.399 74.5783 131.195 73.7627 131.218C72.9471 131.24 72.2643 130.48 72.2379 129.519C72.2115 128.559 72.8516 127.762 73.6672 127.74C74.4828 127.717 75.1656 128.478 75.192 129.438Z" fill="#632100"/>
<path d="M68.9932 135.353C69.017 136.222 68.438 136.943 67.6997 136.963C66.9617 136.983 66.3437 136.295 66.3198 135.426C66.2959 134.557 66.875 133.836 67.6133 133.816C68.3517 133.796 68.9694 134.484 68.9932 135.353Z" fill="#632100"/>
<path d="M64.7811 126.327C64.8044 127.179 64.2371 127.885 63.5137 127.905C62.7906 127.925 62.1851 127.251 62.1617 126.399C62.1383 125.548 62.7056 124.841 63.4291 124.821C64.1525 124.801 64.7577 125.476 64.7811 126.327Z" fill="#632100"/>
<path d="M61.0799 129.737C61.0995 130.45 60.6244 131.041 60.0188 131.058C59.4131 131.074 58.9063 130.51 58.8868 129.797C58.8672 129.084 59.3423 128.492 59.9479 128.476C60.5535 128.459 61.0604 129.024 61.0799 129.737Z" fill="#632100"/>
<path d="M58.1147 129.813C58.1372 130.632 57.5914 131.312 56.8953 131.331C56.1992 131.35 55.6169 130.701 55.5944 129.882C55.5719 129.062 56.1178 128.383 56.8138 128.364C57.5096 128.345 58.0922 128.993 58.1147 129.813Z" fill="#632100"/>
<path d="M52.4151 133.215C52.4339 133.897 51.9796 134.463 51.4003 134.479C50.8209 134.495 50.3363 133.955 50.3176 133.273C50.2989 132.591 50.7532 132.025 51.3325 132.009C51.9118 131.993 52.3964 132.534 52.4151 133.215Z" fill="#632100"/>
<path d="M48.4613 132.387C48.9415 132.374 49.3183 131.905 49.3028 131.34C49.2873 130.774 48.8853 130.326 48.405 130.34C47.9248 130.353 47.548 130.822 47.5635 131.387C47.579 131.953 47.981 132.401 48.4613 132.387Z" fill="#632100"/>
<path d="M46.7654 120.815C46.7825 121.435 46.3694 121.949 45.8428 121.964C45.3161 121.978 44.8755 121.487 44.8584 120.867C44.8414 120.247 45.2545 119.733 45.7811 119.719C46.3078 119.704 46.7484 120.195 46.7654 120.815Z" fill="#632100"/>
<path d="M43.5889 118.819C43.6103 119.596 43.0923 120.242 42.4315 120.26C41.7712 120.278 41.2182 119.662 41.1969 118.884C41.1755 118.107 41.6935 117.462 42.3542 117.443C43.0146 117.425 43.5676 118.041 43.5889 118.819Z" fill="#632100"/>
<path d="M39.9273 117.515C39.9549 118.52 39.285 119.354 38.4313 119.378C37.5776 119.401 36.8629 118.605 36.8354 117.6C36.8078 116.595 37.4777 115.761 38.3314 115.738C39.1854 115.714 39.8997 116.51 39.9273 117.515Z" fill="#632100"/>
<path d="M31.0041 127.089C31.0206 127.688 30.6213 128.185 30.1123 128.199C29.6033 128.213 29.1773 127.738 29.1609 127.139C29.1444 126.54 29.5438 126.043 30.0527 126.029C30.5617 126.015 30.9877 126.489 31.0041 127.089Z" fill="#632100"/>
<path d="M28.8807 121.643C28.8979 122.272 28.4792 122.794 27.9453 122.808C27.4114 122.823 26.9643 122.325 26.947 121.696C26.9298 121.067 27.3485 120.546 27.8828 120.531C28.4164 120.517 28.8634 121.015 28.8807 121.643Z" fill="#632100"/>
<path d="M25.2922 124.45C25.319 125.424 24.6705 126.231 23.8439 126.254C23.0172 126.276 22.3251 125.506 22.2984 124.532C22.2717 123.559 22.9201 122.752 23.7471 122.729C24.5738 122.706 25.2655 123.477 25.2922 124.45Z" fill="#632100"/>
<path d="M21.9185 123.678C21.9438 124.601 21.3289 125.366 20.5452 125.388C19.7614 125.41 19.1051 124.679 19.0798 123.756C19.0545 122.833 19.6694 122.068 20.4534 122.046C21.2372 122.024 21.8931 122.755 21.9185 123.678Z" fill="#632100"/>
<path d="M20.9093 115.457C20.9264 116.081 20.511 116.598 19.9812 116.613C19.4515 116.627 19.0083 116.134 18.9912 115.51C18.9741 114.886 19.3895 114.369 19.9192 114.355C20.4487 114.34 20.8922 114.834 20.9093 115.457Z" fill="#632100"/>
<path d="M14.1291 117.851C14.2833 118.466 14.4745 119.079 14.6862 119.692C14.8787 119.82 15.0995 119.895 15.3358 119.889C16.0295 119.87 16.5733 119.193 16.5509 118.376C16.5285 117.56 15.9483 116.913 15.2547 116.932C14.7398 116.947 14.3088 117.324 14.1291 117.851Z" fill="#632100"/>
<path d="M163.732 127.782C164.58 127.759 165.246 126.93 165.218 125.931C165.191 124.933 164.481 124.142 163.632 124.165C162.784 124.188 162.118 125.017 162.146 126.016C162.173 127.015 162.883 127.806 163.732 127.782Z" fill="#632100"/>
<path d="M163.403 134.757C163.42 135.386 163.001 135.908 162.467 135.923C161.932 135.937 161.485 135.439 161.468 134.81C161.451 134.181 161.87 133.659 162.404 133.645C162.938 133.63 163.385 134.128 163.403 134.757Z" fill="#632100"/>
<path d="M158.779 124.914C158.807 125.932 158.129 126.776 157.264 126.8C156.399 126.824 155.675 126.018 155.648 125C155.62 123.982 156.298 123.138 157.163 123.114C158.027 123.09 158.751 123.896 158.779 124.914Z" fill="#632100"/>
<path d="M155.154 128.029C155.173 128.703 154.724 129.262 154.151 129.278C153.578 129.294 153.099 128.76 153.08 128.086C153.062 127.411 153.511 126.852 154.084 126.836C154.657 126.82 155.136 127.355 155.154 128.029Z" fill="#632100"/>
<path d="M150.267 126.828C150.981 126.808 151.541 126.111 151.518 125.27C151.495 124.43 150.897 123.764 150.184 123.784C149.47 123.803 148.91 124.501 148.933 125.341C148.956 126.182 149.553 126.847 150.267 126.828Z" fill="#632100"/>
<path d="M148.42 138.507C148.435 139.052 148.072 139.503 147.61 139.515C147.148 139.528 146.761 139.097 146.746 138.553C146.731 138.009 147.094 137.557 147.556 137.544C148.018 137.532 148.405 137.963 148.42 138.507Z" fill="#632100"/>
<path d="M146.035 140.558C146.055 141.276 145.576 141.872 144.966 141.889C144.357 141.905 143.846 141.337 143.826 140.619C143.807 139.901 144.285 139.305 144.895 139.289C145.505 139.272 146.015 139.84 146.035 140.558Z" fill="#632100"/>
<path d="M138.727 127.765C138.741 128.292 138.39 128.729 137.942 128.742C137.495 128.754 137.12 128.337 137.106 127.81C137.091 127.283 137.442 126.846 137.89 126.833C138.338 126.821 138.712 127.238 138.727 127.765Z" fill="#632100"/>
<path d="M137.839 137.079C137.865 138.002 137.25 138.767 136.466 138.789C135.682 138.81 135.027 138.08 135.001 137.157C134.976 136.234 135.591 135.469 136.374 135.447C137.158 135.426 137.814 136.156 137.839 137.079Z" fill="#632100"/>
<path d="M135.817 141.832C135.845 142.849 135.167 143.693 134.304 143.716C133.44 143.74 132.718 142.935 132.69 141.918C132.662 140.901 133.34 140.058 134.203 140.034C135.067 140.011 135.789 140.816 135.817 141.832Z" fill="#632100"/>
<path d="M129.764 146.28C129.789 147.214 129.167 147.989 128.374 148.011C127.581 148.032 126.917 147.293 126.892 146.359C126.866 145.426 127.488 144.651 128.281 144.629C129.074 144.607 129.738 145.346 129.764 146.28Z" fill="#632100"/>
<path d="M125.171 138.454C125.193 139.261 124.655 139.93 123.97 139.949C123.285 139.967 122.712 139.329 122.69 138.522C122.668 137.716 123.205 137.047 123.89 137.028C124.575 137.01 125.148 137.648 125.171 138.454Z" fill="#632100"/>
<path d="M120.503 142.616C120.529 143.559 119.902 144.34 119.101 144.362C118.301 144.384 117.631 143.638 117.605 142.696C117.58 141.754 118.207 140.972 119.008 140.95C119.808 140.928 120.477 141.675 120.503 142.616Z" fill="#632100"/>
<path d="M115.295 134.023C115.317 134.83 114.779 135.499 114.094 135.518C113.409 135.536 112.835 134.898 112.813 134.091C112.791 133.284 113.328 132.615 114.014 132.596C114.699 132.577 115.272 133.216 115.295 134.023Z" fill="#632100"/>
<path d="M110.801 141.737C110.822 142.513 110.305 143.156 109.646 143.175C108.988 143.193 108.436 142.579 108.415 141.803C108.394 141.027 108.91 140.384 109.569 140.366C110.228 140.348 110.78 140.962 110.801 141.737Z" fill="#632100"/>
<path d="M107.195 137.973C107.213 138.623 106.779 139.163 106.227 139.178C105.675 139.193 105.212 138.678 105.194 138.028C105.176 137.377 105.61 136.838 106.162 136.823C106.714 136.808 107.177 137.322 107.195 137.973Z" fill="#632100"/>
<path d="M102.657 139.29C103.275 139.273 103.761 138.669 103.741 137.941C103.721 137.213 103.203 136.636 102.585 136.653C101.966 136.67 101.481 137.274 101.501 138.002C101.521 138.73 102.039 139.307 102.657 139.29Z" fill="#632100"/>
<path d="M98.7273 148.592C98.742 149.127 98.3856 149.571 97.931 149.583C97.4764 149.596 97.0962 149.172 97.0815 148.637C97.0668 148.102 97.4232 147.658 97.8778 147.646C98.332 147.633 98.7126 148.057 98.7273 148.592Z" fill="#632100"/>
<path d="M92.7572 141.241C92.7747 141.878 92.3502 142.407 91.809 142.422C91.2678 142.436 90.815 141.932 90.7975 141.295C90.78 140.658 91.2045 140.129 91.7457 140.114C92.2869 140.1 92.7397 140.604 92.7572 141.241Z" fill="#632100"/>
<path d="M88.7588 135.383C88.7853 136.348 88.1425 137.148 87.3231 137.17C86.5037 137.193 85.8181 136.429 85.7916 135.464C85.7651 134.5 86.4078 133.7 87.2273 133.677C88.0467 133.655 88.7323 134.418 88.7588 135.383Z" fill="#632100"/>
<path d="M84.4071 139.179C84.4341 140.162 83.779 140.978 82.944 141C82.109 141.023 81.4101 140.245 81.3831 139.262C81.3561 138.279 82.0112 137.463 82.8463 137.44C83.6813 137.417 84.3802 138.196 84.4071 139.179Z" fill="#632100"/>
<path d="M77.4864 142.71C77.9119 142.699 78.2458 142.283 78.232 141.782C78.2183 141.281 77.8621 140.884 77.4366 140.896C77.011 140.908 76.6772 141.323 76.6909 141.824C76.7047 142.325 77.0608 142.722 77.4864 142.71Z" fill="#632100"/>
<path d="M72.3077 139.708C72.8435 139.694 73.2638 139.17 73.2465 138.539C73.2292 137.909 72.7808 137.409 72.245 137.424C71.7092 137.439 71.2889 137.962 71.3063 138.593C71.3236 139.223 71.7719 139.723 72.3077 139.708Z" fill="#632100"/>
<path d="M66.7287 141.243C67.2432 141.229 67.6469 140.726 67.6303 140.121C67.6136 139.515 67.183 139.035 66.6685 139.049C66.1539 139.064 65.7503 139.566 65.7669 140.172C65.7836 140.778 66.2142 141.257 66.7287 141.243Z" fill="#632100"/>
<path d="M61.3908 146.317C61.9312 146.302 62.3551 145.775 62.3376 145.138C62.3202 144.502 61.868 143.998 61.3276 144.013C60.7872 144.028 60.3633 144.556 60.3807 145.192C60.3982 145.828 60.8504 146.332 61.3908 146.317Z" fill="#632100"/>
<path d="M57.3843 139.202C58.1421 139.181 58.7365 138.441 58.712 137.549C58.6875 136.657 58.0534 135.951 57.2956 135.972C56.5379 135.992 55.9434 136.732 55.9679 137.625C55.9924 138.517 56.6265 139.223 57.3843 139.202Z" fill="#632100"/>
<path d="M54.6494 128.949C54.6668 129.583 54.2444 130.109 53.706 130.123C53.1675 130.138 52.7169 129.636 52.6995 129.002C52.6821 128.368 53.1045 127.843 53.643 127.828C54.1814 127.813 54.632 128.315 54.6494 128.949Z" fill="#632100"/>
<path d="M47.5122 139.24C47.5286 139.836 47.131 140.332 46.6241 140.345C46.1172 140.359 45.693 139.887 45.6766 139.29C45.6603 138.693 46.0579 138.198 46.5648 138.184C47.0717 138.171 47.4959 138.643 47.5122 139.24Z" fill="#632100"/>
<path d="M42.4929 132.57C43.3333 132.547 43.9926 131.726 43.9654 130.737C43.9382 129.747 43.2349 128.964 42.3945 128.987C41.5541 129.01 40.8948 129.831 40.922 130.82C40.9491 131.81 41.6524 132.593 42.4929 132.57Z" fill="#632100"/>
<path d="M41.5301 125.04C41.546 125.62 41.1597 126.1 40.6677 126.114C40.1754 126.127 39.7637 125.668 39.7478 125.089C39.7319 124.51 40.1181 124.029 40.6101 124.016C41.1021 124.002 41.5141 124.461 41.5301 125.04Z" fill="#632100"/>
<path d="M33.9183 137.775C34.699 137.754 35.3115 136.991 35.2862 136.072C35.261 135.153 34.6077 134.425 33.8269 134.447C33.0462 134.468 32.4338 135.231 32.459 136.15C32.4842 137.069 33.1376 137.797 33.9183 137.775Z" fill="#632100"/>
<path d="M34.0046 126.898C34.0279 127.748 33.4613 128.453 32.7393 128.473C32.0172 128.493 31.4128 127.82 31.3894 126.97C31.3661 126.12 31.9327 125.414 32.6548 125.394C33.3768 125.375 33.9813 126.047 34.0046 126.898Z" fill="#632100"/>
<path d="M30.4401 122.361C30.4585 123.035 30.0093 123.594 29.4369 123.61C28.8645 123.626 28.3852 123.092 28.3668 122.418C28.3483 121.744 28.7975 121.185 29.3699 121.169C29.9423 121.153 30.4215 121.687 30.4401 122.361Z" fill="#632100"/>
<path d="M24.4494 127.167C24.4669 127.808 24.0401 128.339 23.4958 128.354C22.9515 128.369 22.4962 127.862 22.4786 127.221C22.461 126.58 22.8878 126.049 23.4322 126.034C23.9765 126.019 24.4318 126.527 24.4494 127.167Z" fill="#632100"/>
<path d="M20.7937 123.414C20.8145 124.173 20.3093 124.802 19.6652 124.82C19.0211 124.837 18.4821 124.237 18.4613 123.478C18.4405 122.72 18.9457 122.091 19.5898 122.073C20.2339 122.056 20.7729 122.656 20.7937 123.414Z" fill="#632100"/>
<path d="M17.3686 113.802C18.2086 113.779 18.8676 112.959 18.8405 111.97C18.8133 110.981 18.1103 110.198 17.2703 110.221C16.4303 110.244 15.7713 111.064 15.7984 112.053C15.8256 113.042 16.5286 113.825 17.3686 113.802Z" fill="#632100"/>
<path d="M146.939 135.233C146.957 135.878 146.527 136.412 145.98 136.427C145.432 136.442 144.974 135.932 144.956 135.288C144.939 134.643 145.368 134.109 145.916 134.094C146.463 134.078 146.921 134.589 146.939 135.233Z" fill="#632100"/>
<path d="M142.396 131.221C142.414 131.866 141.984 132.401 141.436 132.416C140.888 132.431 140.43 131.92 140.412 131.275C140.394 130.63 140.824 130.095 141.372 130.08C141.92 130.065 142.378 130.576 142.396 131.221Z" fill="#632100"/>
<path d="M137.823 139.148C137.839 139.705 137.467 140.168 136.994 140.181C136.521 140.194 136.124 139.752 136.109 139.195C136.094 138.638 136.465 138.175 136.938 138.162C137.412 138.149 137.808 138.59 137.823 139.148Z" fill="#632100"/>
<path d="M133.054 138.848C133.081 139.834 132.424 140.651 131.587 140.674C130.75 140.697 130.049 139.917 130.022 138.931C129.995 137.945 130.652 137.127 131.489 137.104C132.326 137.081 133.027 137.862 133.054 138.848Z" fill="#632100"/>
<path d="M126.623 137.901C126.637 138.403 126.302 138.821 125.875 138.833C125.447 138.844 125.09 138.446 125.076 137.943C125.062 137.44 125.397 137.023 125.825 137.011C126.252 136.999 126.61 137.397 126.623 137.901Z" fill="#632100"/>
<path d="M122.728 140.109C122.754 141.039 122.134 141.81 121.344 141.832C120.554 141.853 119.894 141.117 119.868 140.187C119.842 139.257 120.462 138.486 121.252 138.464C122.042 138.442 122.703 139.179 122.728 140.109Z" fill="#632100"/>
<path d="M107.861 141.573C108.293 141.561 108.632 141.139 108.618 140.63C108.604 140.121 108.243 139.717 107.81 139.729C107.378 139.741 107.038 140.164 107.052 140.673C107.066 141.182 107.428 141.585 107.861 141.573Z" fill="#632100"/>
<path d="M106.004 141.102C106.025 141.895 105.497 142.554 104.822 142.572C104.148 142.591 103.584 141.962 103.562 141.169C103.541 140.375 104.069 139.717 104.744 139.698C105.417 139.679 105.982 140.308 106.004 141.102Z" fill="#632100"/>
<path d="M99.8924 149.392C100.461 149.376 100.907 148.821 100.888 148.152C100.87 147.483 100.394 146.953 99.8259 146.969C99.2576 146.984 98.8118 147.539 98.8301 148.208C98.8485 148.878 99.3241 149.407 99.8924 149.392Z" fill="#632100"/>
<path d="M96.3011 142.106C96.323 142.903 95.7919 143.565 95.1149 143.583C94.4379 143.602 93.8713 142.971 93.8494 142.174C93.8276 141.377 94.3586 140.715 95.0356 140.697C95.7126 140.678 96.2792 141.309 96.3011 142.106Z" fill="#632100"/>
<path d="M89.6339 142.225C90.0883 142.212 90.4448 141.768 90.4302 141.233C90.4155 140.698 90.0351 140.275 89.5807 140.287C89.1262 140.3 88.7697 140.744 88.7844 141.279C88.7991 141.814 89.1794 142.237 89.6339 142.225Z" fill="#632100"/>
<path d="M87.9519 144.728C87.9734 145.512 87.4514 146.162 86.7855 146.181C86.1199 146.199 85.5627 145.579 85.5411 144.795C85.5196 144.011 86.0417 143.361 86.7076 143.342C87.3735 143.324 87.9304 143.945 87.9519 144.728Z" fill="#632100"/>
<path d="M82.7231 150.635C82.7375 151.161 82.3871 151.597 81.9405 151.609C81.4939 151.621 81.1202 151.205 81.1057 150.679C81.0913 150.153 81.4417 149.717 81.8883 149.705C82.3349 149.693 82.7086 150.109 82.7231 150.635Z" fill="#632100"/>
<path d="M79.6761 138.777C79.6954 139.481 79.2263 140.065 78.6287 140.081C78.031 140.098 77.5306 139.54 77.5113 138.837C77.492 138.133 77.961 137.549 78.5587 137.533C79.1564 137.516 79.6567 138.073 79.6761 138.777Z" fill="#632100"/>
<path d="M76.3355 145.911C76.3629 146.91 75.6971 147.739 74.8482 147.762C73.9993 147.786 73.289 146.994 73.2616 145.995C73.2342 144.996 73.9 144.167 74.7489 144.143C75.5977 144.12 76.3081 144.911 76.3355 145.911Z" fill="#632100"/>
<path d="M71.203 143.937C72.0095 143.915 72.6422 143.127 72.6162 142.177C72.5901 141.228 71.9151 140.476 71.1086 140.498C70.302 140.52 69.6693 141.308 69.6954 142.257C69.7215 143.207 70.3964 143.959 71.203 143.937Z" fill="#632100"/>
<path d="M66.6363 153.899C67.2097 153.884 67.6596 153.323 67.6411 152.648C67.6225 151.973 67.1426 151.439 66.5691 151.454C65.9957 151.47 65.5458 152.03 65.5643 152.705C65.5829 153.38 66.0628 153.915 66.6363 153.899Z" fill="#632100"/>
<path d="M63.5808 152.025C63.6016 152.782 63.0973 153.41 62.4542 153.428C61.8112 153.446 61.2732 152.846 61.2525 152.089C61.2317 151.333 61.7359 150.704 62.379 150.687C63.0217 150.669 63.56 151.269 63.5808 152.025Z" fill="#632100"/>
<path d="M58.5317 141.201C59.2762 141.18 59.8603 140.453 59.8362 139.577C59.8122 138.7 59.1891 138.006 58.4446 138.026C57.7 138.047 57.1159 138.774 57.14 139.651C57.1641 140.527 57.7871 141.221 58.5317 141.201Z" fill="#632100"/>
<path d="M55.6589 135.794C55.675 136.381 55.2834 136.869 54.7845 136.883C54.2856 136.896 53.8678 136.431 53.8517 135.844C53.8356 135.256 54.2272 134.769 54.7261 134.755C55.225 134.741 55.6428 135.207 55.6589 135.794Z" fill="#632100"/>
<path d="M51.7332 139.408C51.7504 140.037 51.3314 140.559 50.7971 140.574C50.2628 140.588 49.8154 140.09 49.7981 139.461C49.7808 138.832 50.1999 138.31 50.7345 138.295C51.2688 138.281 51.7159 138.779 51.7332 139.408Z" fill="#632100"/>
<path d="M44.3579 145.416C44.9295 145.4 45.3779 144.842 45.3594 144.169C45.3409 143.496 44.8626 142.963 44.291 142.979C43.7195 142.994 43.2711 143.553 43.2895 144.226C43.308 144.899 43.7863 145.431 44.3579 145.416Z" fill="#632100"/>
<path d="M41.2156 134.013C41.6604 134 42.0092 133.566 41.9948 133.042C41.9805 132.519 41.6083 132.104 41.1636 132.117C40.7189 132.129 40.37 132.563 40.3844 133.087C40.3988 133.61 40.7709 134.025 41.2156 134.013Z" fill="#632100"/>
<path d="M34.8053 140.673C34.8205 141.225 34.4523 141.683 33.9836 141.696C33.5144 141.709 33.1217 141.272 33.1066 140.719C33.0914 140.167 33.4595 139.709 33.9287 139.696C34.3975 139.683 34.7902 140.12 34.8053 140.673Z" fill="#632100"/>
<path d="M29.214 140.044C29.2353 140.821 28.7177 141.465 28.058 141.483C27.3983 141.501 26.8461 140.886 26.8247 140.109C26.8034 139.333 27.3211 138.688 27.9808 138.67C28.6408 138.652 29.1927 139.267 29.214 140.044Z" fill="#632100"/>
<path d="M27.2041 131.947C27.2257 132.734 26.7007 133.388 26.0316 133.406C25.3622 133.425 24.8025 132.801 24.7809 132.013C24.7592 131.225 25.2843 130.572 25.9533 130.553C26.6224 130.535 27.1825 131.159 27.2041 131.947Z" fill="#632100"/>
<path d="M26.4361 125.137C27.2642 125.115 27.9139 124.306 27.8871 123.331C27.8604 122.356 27.1673 121.584 26.3391 121.606C25.511 121.629 24.8613 122.438 24.8881 123.413C24.9148 124.388 25.6079 125.16 26.4361 125.137Z" fill="#632100"/>
<path d="M23.9694 120.319C23.9894 121.047 23.5042 121.651 22.8858 121.668C22.2673 121.685 21.7498 121.109 21.7298 120.381C21.7098 119.652 22.195 119.048 22.8134 119.031C23.4319 119.014 23.9494 119.591 23.9694 120.319Z" fill="#632100"/>
<path d="M167.257 117.511C167.284 118.478 166.639 119.281 165.817 119.304C164.995 119.326 164.308 118.56 164.281 117.592C164.254 116.625 164.899 115.822 165.721 115.8C166.543 115.777 167.231 116.543 167.257 117.511Z" fill="#632100"/>
<path d="M160.022 109.214C160.546 109.199 160.956 108.688 160.939 108.072C160.922 107.456 160.484 106.968 159.961 106.983C159.438 106.997 159.027 107.508 159.044 108.124C159.061 108.74 159.499 109.228 160.022 109.214Z" fill="#632100"/>
<path d="M159.839 115.835C159.856 116.462 159.438 116.983 158.905 116.997C158.371 117.012 157.925 116.515 157.908 115.888C157.891 115.26 158.309 114.739 158.842 114.725C159.375 114.71 159.821 115.207 159.839 115.835Z" fill="#632100"/>
<path d="M155.888 111.654C155.908 112.401 155.41 113.022 154.775 113.039C154.14 113.056 153.609 112.464 153.588 111.717C153.568 110.969 154.066 110.349 154.701 110.332C155.336 110.314 155.867 110.906 155.888 111.654Z" fill="#632100"/>
<path d="M153.61 113.951C153.638 114.966 152.962 115.808 152.1 115.832C151.238 115.855 150.516 115.052 150.488 114.037C150.461 113.022 151.137 112.18 151.999 112.156C152.861 112.133 153.582 112.936 153.61 113.951Z" fill="#632100"/>
<path d="M152.227 126.158C152.242 126.725 151.864 127.195 151.383 127.208C150.901 127.221 150.499 126.772 150.483 126.206C150.467 125.639 150.845 125.169 151.327 125.156C151.808 125.142 152.211 125.591 152.227 126.158Z" fill="#632100"/>
<path d="M146.404 120.023C146.426 120.811 145.9 121.465 145.231 121.484C144.561 121.502 144.001 120.878 143.979 120.089C143.957 119.301 144.483 118.647 145.152 118.628C145.822 118.61 146.383 119.234 146.404 120.023Z" fill="#632100"/>
<path d="M142.991 123.345C143.013 124.123 142.494 124.768 141.834 124.786C141.173 124.804 140.621 124.188 140.599 123.411C140.578 122.633 141.096 121.988 141.757 121.97C142.417 121.952 142.97 122.568 142.991 123.345Z" fill="#632100"/>
<path d="M137.079 124.287C137.831 124.266 138.421 123.532 138.397 122.646C138.373 121.761 137.743 121.06 136.991 121.081C136.239 121.101 135.649 121.836 135.674 122.721C135.698 123.606 136.327 124.307 137.079 124.287Z" fill="#632100"/>
<path d="M136.136 134.512C136.986 134.488 137.653 133.658 137.626 132.657C137.598 131.655 136.887 130.863 136.036 130.886C135.186 130.909 134.519 131.74 134.546 132.741C134.574 133.742 135.285 134.535 136.136 134.512Z" fill="#632100"/>
<path d="M131.352 124.171C131.377 125.104 130.756 125.878 129.963 125.899C129.171 125.921 128.508 125.182 128.482 124.25C128.457 123.317 129.078 122.543 129.871 122.521C130.663 122.499 131.326 123.238 131.352 124.171Z" fill="#632100"/>
<path d="M126.561 124.756C127.238 124.737 127.769 124.076 127.747 123.279C127.725 122.482 127.159 121.851 126.482 121.869C125.805 121.888 125.274 122.549 125.296 123.346C125.318 124.143 125.884 124.774 126.561 124.756Z" fill="#632100"/>
<path d="M123.351 125.534C123.375 126.394 122.801 127.108 122.071 127.128C121.34 127.148 120.728 126.467 120.705 125.606C120.681 124.746 121.254 124.032 121.985 124.012C122.716 123.992 123.327 124.673 123.351 125.534Z" fill="#632100"/>
<path d="M119.301 135.566C119.327 136.526 118.688 137.323 117.873 137.345C117.057 137.368 116.375 136.607 116.348 135.648C116.322 134.688 116.962 133.891 117.777 133.869C118.593 133.847 119.275 134.607 119.301 135.566Z" fill="#632100"/>
<path d="M112.056 134.366C112.777 134.346 113.343 133.642 113.319 132.793C113.296 131.944 112.693 131.272 111.972 131.292C111.251 131.312 110.685 132.016 110.708 132.865C110.732 133.714 111.335 134.386 112.056 134.366Z" fill="#632100"/>
<path d="M108.491 125.358C108.513 126.158 107.979 126.822 107.3 126.84C106.62 126.859 106.051 126.226 106.029 125.425C106.007 124.625 106.54 123.961 107.22 123.943C107.9 123.923 108.469 124.557 108.491 125.358Z" fill="#632100"/>
<path d="M104.672 132.898C105.197 132.884 105.61 132.37 105.593 131.751C105.576 131.132 105.136 130.642 104.61 130.656C104.084 130.671 103.672 131.184 103.689 131.803C103.706 132.422 104.146 132.913 104.672 132.898Z" fill="#632100"/>
<path d="M100.815 136.348C100.837 137.142 100.308 137.8 99.6346 137.818C98.9607 137.837 98.3967 137.209 98.3749 136.415C98.3531 135.622 98.8818 134.964 99.5557 134.945C100.23 134.927 100.794 135.555 100.815 136.348Z" fill="#632100"/>
<path d="M94.9815 130.074C95.5428 130.058 95.983 129.51 95.9649 128.849C95.9468 128.188 95.4771 127.665 94.9159 127.681C94.3546 127.696 93.9144 128.244 93.9325 128.905C93.9506 129.566 94.4203 130.089 94.9815 130.074Z" fill="#632100"/>
<path d="M91.5697 137.637C91.5893 138.35 91.1142 138.941 90.5085 138.958C89.9029 138.975 89.3961 138.41 89.3765 137.697C89.3569 136.984 89.832 136.393 90.4377 136.376C91.0436 136.359 91.5501 136.924 91.5697 137.637Z" fill="#632100"/>
<path d="M87.5369 131.867C87.5534 132.468 87.1524 132.968 86.641 132.982C86.13 132.996 85.7022 132.52 85.6857 131.917C85.6692 131.316 86.0701 130.816 86.5812 130.802C87.0926 130.788 87.5203 131.265 87.5369 131.867Z" fill="#632100"/>
<path d="M83.1824 137.685C83.2032 138.443 82.6983 139.072 82.0542 139.09C81.4105 139.107 80.8715 138.507 80.8507 137.749C80.8299 136.991 81.3348 136.362 81.9789 136.344C82.623 136.327 83.1616 136.927 83.1824 137.685Z" fill="#632100"/>
<path d="M78.5518 124.98C78.5735 125.771 78.0461 126.428 77.374 126.446C76.7018 126.465 76.1392 125.838 76.1175 125.047C76.0957 124.256 76.6231 123.599 77.2953 123.58C77.9675 123.562 78.5301 124.189 78.5518 124.98Z" fill="#632100"/>
<path d="M73.6226 124.416C73.6447 125.221 73.1086 125.889 72.425 125.907C71.7414 125.926 71.1695 125.289 71.1474 124.484C71.1253 123.68 71.6614 123.012 72.345 122.993C73.0286 122.975 73.6005 123.612 73.6226 124.416Z" fill="#632100"/>
<path d="M66.9336 137.166C66.9474 137.668 66.6131 138.084 66.1873 138.096C65.7615 138.107 65.4049 137.71 65.3911 137.209C65.3774 136.707 65.7116 136.291 66.1375 136.279C66.5633 136.268 66.9199 136.665 66.9336 137.166Z" fill="#632100"/>
<path d="M62.3085 125.098C62.3249 125.696 61.9262 126.192 61.4183 126.206C60.91 126.22 60.4851 125.746 60.4687 125.148C60.4523 124.55 60.8509 124.054 61.3589 124.04C61.8671 124.026 62.2921 124.5 62.3085 125.098Z" fill="#632100"/>
<path d="M57.7977 131.272C58.4892 131.253 59.0317 130.577 59.0094 129.763C58.987 128.949 58.4083 128.304 57.7168 128.323C57.0252 128.342 56.4827 129.018 56.5051 129.832C56.5274 130.646 57.1061 131.291 57.7977 131.272Z" fill="#632100"/>
<path d="M55.585 123.825C55.6004 124.387 55.2259 124.853 54.7488 124.866C54.2714 124.879 53.8722 124.434 53.8568 123.872C53.8414 123.31 54.2159 122.844 54.693 122.831C55.1701 122.818 55.5696 123.263 55.585 123.825Z" fill="#632100"/>
<path d="M49.7031 127.546C50.5423 127.523 51.2007 126.703 51.1736 125.715C51.1465 124.727 50.4441 123.944 49.6048 123.967C48.7656 123.99 48.1072 124.81 48.1343 125.798C48.1614 126.786 48.8638 127.569 49.7031 127.546Z" fill="#632100"/>
<path d="M44.7423 133.883C44.7698 134.884 44.1033 135.714 43.2534 135.737C42.4038 135.761 41.6924 134.969 41.665 133.968C41.6375 132.967 42.304 132.137 43.1539 132.114C44.0038 132.091 44.7149 132.883 44.7423 133.883Z" fill="#632100"/>
<path d="M41.7824 129.339C41.8052 130.168 41.253 130.855 40.549 130.875C39.8449 130.894 39.2558 130.238 39.2331 129.409C39.2103 128.58 39.7625 127.892 40.4666 127.873C41.1706 127.854 41.7597 128.51 41.7824 129.339Z" fill="#632100"/>
<path d="M39.5741 120.276C40.1627 120.26 40.6244 119.685 40.6054 118.992C40.5864 118.299 40.0938 117.75 39.5052 117.766C38.9166 117.782 38.4549 118.357 38.4739 119.05C38.4929 119.743 38.9855 120.292 39.5741 120.276Z" fill="#632100"/>
<path d="M35.8219 119.362C35.8453 120.213 35.2787 120.919 34.5559 120.938C33.8335 120.958 33.2287 120.285 33.2054 119.434C33.182 118.584 33.749 117.878 34.4714 117.858C35.1941 117.838 35.7986 118.512 35.8219 119.362Z" fill="#632100"/>
<path d="M30.1368 118.762C30.1564 119.476 29.6807 120.068 29.0747 120.084C28.4687 120.101 27.9608 119.535 27.9412 118.822C27.9216 118.108 28.3974 117.516 29.0037 117.5C29.6101 117.483 30.1172 118.048 30.1368 118.762Z" fill="#632100"/>
<path d="M23.0489 127.029C23.0722 127.88 22.505 128.587 21.7815 128.606C21.0581 128.626 20.4529 127.952 20.4295 127.101C20.4062 126.249 20.9734 125.543 21.6969 125.523C22.42 125.503 23.0255 126.177 23.0489 127.029Z" fill="#632100"/>
<path d="M18.8389 117.957C18.8606 118.751 18.3319 119.409 17.6577 119.427C16.9834 119.446 16.4194 118.818 16.3976 118.024C16.3758 117.23 16.9045 116.572 17.5788 116.553C18.253 116.535 18.8171 117.163 18.8389 117.957Z" fill="#632100"/>
<path d="M167.601 122.122C167.621 122.874 167.12 123.498 166.482 123.515C165.843 123.533 165.309 122.938 165.288 122.186C165.267 121.434 165.768 120.81 166.407 120.793C167.045 120.775 167.58 121.371 167.601 122.122Z" fill="#632100"/>
<path d="M163.416 126.729C163.444 127.746 162.766 128.59 161.902 128.614C161.038 128.637 160.315 127.832 160.287 126.815C160.259 125.797 160.937 124.954 161.801 124.93C162.665 124.906 163.388 125.712 163.416 126.729Z" fill="#632100"/>
<path d="M157.933 116.442C157.954 117.236 157.425 117.894 156.751 117.913C156.077 117.931 155.512 117.303 155.491 116.509C155.469 115.715 155.998 115.057 156.672 115.038C157.346 115.02 157.911 115.648 157.933 116.442Z" fill="#632100"/>
<path d="M155.398 132.301C155.419 133.049 154.92 133.67 154.284 133.687C153.649 133.705 153.117 133.112 153.096 132.364C153.076 131.615 153.574 130.995 154.21 130.977C154.846 130.96 155.378 131.552 155.398 132.301Z" fill="#632100"/>
<path d="M146.439 123.656C147.049 123.639 147.527 123.044 147.508 122.326C147.488 121.608 146.978 121.039 146.368 121.056C145.758 121.073 145.28 121.668 145.299 122.386C145.319 123.104 145.829 123.673 146.439 123.656Z" fill="#632100"/>
<path d="M143.384 129.766C143.398 130.277 143.057 130.701 142.624 130.713C142.19 130.725 141.827 130.32 141.813 129.81C141.799 129.299 142.139 128.875 142.573 128.863C143.007 128.851 143.37 129.256 143.384 129.766Z" fill="#632100"/>
<path d="M140.017 124.437C140.043 125.392 139.407 126.184 138.596 126.206C137.785 126.228 137.106 125.472 137.08 124.517C137.053 123.562 137.69 122.77 138.501 122.748C139.312 122.726 139.991 123.482 140.017 124.437Z" fill="#632100"/>
<path d="M135.068 133.825C135.723 133.807 136.237 133.167 136.216 132.395C136.195 131.624 135.647 131.013 134.991 131.031C134.336 131.049 133.822 131.689 133.843 132.46C133.864 133.232 134.412 133.843 135.068 133.825Z" fill="#632100"/>
<path d="M130.201 130.532C130.86 130.514 131.378 129.87 131.356 129.094C131.335 128.318 130.783 127.703 130.124 127.721C129.464 127.739 128.947 128.383 128.969 129.159C128.99 129.936 129.542 130.55 130.201 130.532Z" fill="#632100"/>
<path d="M125.948 129.68C125.97 130.483 125.434 131.15 124.752 131.169C124.069 131.188 123.498 130.551 123.476 129.748C123.454 128.944 123.989 128.278 124.672 128.259C125.354 128.24 125.926 128.876 125.948 129.68Z" fill="#632100"/>
<path d="M123.24 138.168C123.263 138.975 122.725 139.645 122.039 139.664C121.353 139.683 120.779 139.044 120.757 138.236C120.735 137.429 121.273 136.759 121.959 136.74C122.644 136.722 123.218 137.361 123.24 138.168Z" fill="#632100"/>
<path d="M116.921 126.216C117.65 126.196 118.222 125.484 118.198 124.625C118.175 123.767 117.565 123.087 116.835 123.107C116.106 123.127 115.534 123.839 115.558 124.698C115.582 125.556 116.192 126.236 116.921 126.216Z" fill="#632100"/>
<path d="M114.374 130.309C114.399 131.229 113.787 131.992 113.005 132.013C112.224 132.034 111.571 131.307 111.546 130.387C111.52 129.468 112.133 128.705 112.914 128.684C113.695 128.662 114.349 129.39 114.374 130.309Z" fill="#632100"/>
<path d="M110.328 126.997C110.353 127.926 109.734 128.698 108.944 128.72C108.155 128.741 107.494 128.005 107.468 127.075C107.443 126.146 108.062 125.374 108.852 125.353C109.642 125.331 110.302 126.067 110.328 126.997Z" fill="#632100"/>
<path d="M105.632 137.617C106.283 137.599 106.794 136.963 106.773 136.196C106.752 135.43 106.207 134.822 105.556 134.84C104.904 134.858 104.394 135.494 104.415 136.261C104.436 137.028 104.981 137.635 105.632 137.617Z" fill="#632100"/>
<path d="M102.437 125.619C102.46 126.456 101.903 127.15 101.192 127.169C100.482 127.189 99.887 126.527 99.8641 125.69C99.8411 124.853 100.398 124.16 101.109 124.14C101.819 124.121 102.414 124.783 102.437 125.619Z" fill="#632100"/>
<path d="M98.3148 140.286C98.3403 141.213 97.723 141.981 96.9358 142.003C96.1487 142.024 95.4902 141.291 95.4648 140.364C95.4393 139.437 96.0569 138.669 96.8437 138.647C97.6306 138.626 98.2894 139.359 98.3148 140.286Z" fill="#632100"/>
<path d="M93.2716 139.478C93.2895 140.131 92.8543 140.673 92.2996 140.688C91.7449 140.703 91.2806 140.186 91.2627 139.533C91.2448 138.88 91.68 138.338 92.2347 138.323C92.7894 138.307 93.2536 138.825 93.2716 139.478Z" fill="#632100"/>
<path d="M87.8261 131.071C87.8405 131.597 87.4902 132.033 87.0432 132.046C86.5962 132.058 86.2225 131.642 86.208 131.115C86.1936 130.589 86.544 130.153 86.9909 130.141C87.4379 130.128 87.8116 130.545 87.8261 131.071Z" fill="#632100"/>
<path d="M84.5833 138.216C84.6063 139.053 84.0481 139.748 83.3364 139.768C82.6248 139.788 82.0292 139.124 82.0062 138.286C81.9832 137.448 82.5415 136.753 83.2531 136.734C83.9648 136.714 84.5603 137.378 84.5833 138.216Z" fill="#632100"/>
<path d="M79.3375 139.193C79.354 139.792 78.9546 140.29 78.4457 140.304C77.9367 140.318 77.5104 139.843 77.4939 139.244C77.4774 138.644 77.8768 138.147 78.3861 138.133C78.8947 138.119 79.3211 138.594 79.3375 139.193Z" fill="#632100"/>
<path d="M75.5079 137.645C76.2561 137.625 76.8431 136.894 76.8189 136.013C76.7947 135.132 76.1686 134.435 75.4204 134.455C74.6722 134.476 74.0853 135.207 74.1095 136.088C74.1336 136.968 74.7598 137.666 75.5079 137.645Z" fill="#632100"/>
<path d="M73.0411 122.513C73.0617 123.265 72.5605 123.889 71.9212 123.907C71.2823 123.924 70.7473 123.329 70.7266 122.576C70.706 121.824 71.2072 121.2 71.8464 121.182C72.4857 121.164 73.0204 121.76 73.0411 122.513Z" fill="#632100"/>
<path d="M65.4327 139.105C66.2056 139.084 66.8119 138.329 66.7869 137.419C66.7619 136.509 66.1152 135.789 65.3423 135.81C64.5694 135.831 63.9631 136.586 63.9881 137.496C64.0131 138.406 64.6599 139.126 65.4327 139.105Z" fill="#632100"/>
<path d="M65.807 121.16C65.8332 122.114 65.1975 122.906 64.3871 122.928C63.5767 122.95 62.8986 122.195 62.8724 121.241C62.8462 120.287 63.4819 119.495 64.2923 119.473C65.1027 119.451 65.7808 120.206 65.807 121.16Z" fill="#632100"/>
<path d="M60.9087 132.214C60.9287 132.944 60.4425 133.549 59.8227 133.566C59.2029 133.583 58.6842 133.005 58.6642 132.275C58.6442 131.546 59.1303 130.94 59.7502 130.923C60.37 130.906 60.8886 131.484 60.9087 132.214Z" fill="#632100"/>
<path d="M57.9012 122.367C58.7003 122.345 59.3272 121.565 59.3014 120.624C59.2755 119.683 58.6068 118.938 57.8077 118.96C57.0086 118.982 56.3818 119.762 56.4076 120.703C56.4334 121.644 57.1021 122.389 57.9012 122.367Z" fill="#632100"/>
<path d="M53.5348 130.746C54.2024 130.728 54.7261 130.075 54.7046 129.289C54.683 128.503 54.1243 127.881 53.4567 127.899C52.789 127.918 52.2653 128.57 52.2869 129.356C52.3084 130.142 52.8672 130.764 53.5348 130.746Z" fill="#632100"/>
<path d="M48.6714 134.939C49.4378 134.918 50.039 134.169 50.0142 133.267C49.9894 132.365 49.3481 131.65 48.5817 131.671C47.8154 131.692 47.2142 132.441 47.2389 133.343C47.2637 134.245 47.905 134.96 48.6714 134.939Z" fill="#632100"/>
<path d="M48.1662 120.038C48.7539 120.022 49.2149 119.448 49.1959 118.756C49.1769 118.064 48.6851 117.517 48.0975 117.533C47.5098 117.549 47.0488 118.123 47.0678 118.815C47.0868 119.507 47.5786 120.054 48.1662 120.038Z" fill="#632100"/>
<path d="M43.8344 129.899C43.8501 130.473 43.4673 130.95 42.9791 130.963C42.4909 130.977 42.0824 130.522 42.0666 129.947C42.0509 129.372 42.4338 128.896 42.9219 128.882C43.4101 128.868 43.8186 129.324 43.8344 129.899Z" fill="#632100"/>
<path d="M41.1245 126.52C41.1386 127.033 40.7969 127.458 40.3614 127.47C39.9259 127.482 39.5618 127.076 39.5477 126.563C39.5336 126.051 39.8753 125.626 40.3105 125.614C40.7456 125.602 41.1104 126.007 41.1245 126.52Z" fill="#632100"/>
<path d="M37.4855 123.154C37.5045 123.847 37.0425 124.422 36.4538 124.438C35.8648 124.454 35.3723 123.905 35.3533 123.212C35.3343 122.519 35.7963 121.944 36.3849 121.928C36.9736 121.912 37.4665 122.461 37.4855 123.154Z" fill="#632100"/>
<path d="M34.6029 117.513C34.6256 118.343 34.0728 119.031 33.3677 119.051C32.6626 119.07 32.0728 118.413 32.05 117.583C32.0273 116.753 32.5801 116.065 33.2852 116.045C33.9903 116.026 34.5801 116.683 34.6029 117.513Z" fill="#632100"/>
<path d="M27.2357 119.913C27.7711 119.899 28.1911 119.376 28.1738 118.745C28.1565 118.115 27.7085 117.616 27.173 117.631C26.6376 117.645 26.2176 118.168 26.2349 118.799C26.2522 119.429 26.7003 119.928 27.2357 119.913Z" fill="#632100"/>
<path d="M24.4793 113.055C24.4972 113.706 24.0633 114.246 23.5104 114.261C22.9574 114.277 22.4946 113.761 22.4767 113.11C22.4588 112.459 22.8927 111.919 23.4456 111.904C23.9986 111.888 24.4614 112.404 24.4793 113.055Z" fill="#632100"/>
<path d="M20.6089 115.318C21.3389 115.298 21.9116 114.585 21.888 113.725C21.8644 112.866 21.2535 112.185 20.5235 112.205C19.7935 112.225 19.2208 112.938 19.2444 113.798C19.268 114.657 19.8789 115.338 20.6089 115.318Z" fill="#632100"/>
<path d="M15.8564 114.97C15.8734 115.587 15.4627 116.099 14.9388 116.113C14.4149 116.127 13.9768 115.639 13.9598 115.022C13.9429 114.406 14.354 113.894 14.8775 113.88C15.4014 113.866 15.8395 114.354 15.8564 114.97Z" fill="#632100"/>
<path opacity="0.15" d="M26.5108 114.692C30.5126 121.464 34.6896 127.561 40.9482 131.645C46.9979 135.592 54.0932 137.541 60.973 137.045C68.4114 136.51 74.9073 132.108 81.553 128.626C84.8994 126.873 88.3405 125.31 91.9622 124.53C95.8959 123.682 99.7648 124.065 103.709 124.761C108.095 125.535 112.432 126.796 116.85 127.285C120.763 127.718 124.701 127.316 128.584 126.762C141.514 124.918 153.623 119.281 164.212 110.476C165.21 109.646 166.188 108.787 167.156 107.914C165.387 106.473 163.653 106.115 163.653 106.115L97.0307 112.276L16.7493 99.2077C15.7106 100.5 14.8892 101.779 14.2493 103.036C19.4021 105.155 23.2335 109.145 26.5108 114.692Z" fill="#4A170E"/>
<path d="M21.8572 94.2541C21.8572 94.2541 16.0751 95.8114 20.5922 100.226C25.1093 104.64 32.5305 111.755 43.8867 127.048C55.2435 142.34 59.7697 137.818 75.0385 128.33C90.3073 118.841 101.136 117.666 114.159 122.015C127.182 126.363 161.854 117.072 167.496 107.133C173.137 97.1942 173.117 98.97 172.125 87.4532C171.132 75.9364 27.7896 72.8586 21.8572 94.2541Z" fill="#D69F13"/>
<path d="M18.0139 93.2367C18.0139 93.2367 12.2319 94.7939 16.7489 99.2081C21.266 103.622 29.4275 107.78 40.7836 123.073C52.1401 138.365 55.9262 136.801 71.1949 127.312C86.4637 117.824 97.2922 116.648 110.315 120.997C123.339 125.346 158.011 116.054 163.652 106.116C169.293 96.1767 169.274 97.9522 168.281 86.4358C167.289 74.919 23.9467 71.8411 18.0139 93.2367Z" fill="#FDDC30"/>
<path d="M126.403 117.345C128.893 116.732 131.35 115.487 133.561 114.052C135.391 112.865 137.396 111.545 138.935 109.889C139.748 109.014 140.048 108.101 140.634 107.056C142.619 103.516 147.907 101.415 151.399 102.624C152.704 103.075 153.763 103.411 155.136 103.463C156.362 103.509 157.912 103.609 159.025 104.311C160.929 105.514 157.511 107.327 156.668 107.536C154.313 108.119 152.753 109.696 150.704 111.043C149.626 111.753 148.55 112.464 147.459 113.15C145.686 114.266 143.957 114.714 141.985 115.151C137.196 116.213 132.444 118.47 127.532 118.61C127.026 118.624 123.68 118.608 123.926 117.622C124.105 116.902 125.862 117.389 126.403 117.345Z" fill="#FFFFFD"/>
<path d="M54.2097 131.901C51.7894 131.355 50.0213 126.915 48.5228 124.936C47.1815 123.164 46.6104 122.418 46.2148 120.029C48.8973 118.054 53.3682 120.559 56.2809 120.917C59.9872 121.372 62.8526 121.297 66.3223 119.779C67.9954 119.047 69.4668 118.26 71.0663 117.402C73.1699 116.274 75.5078 116.082 77.6439 115.004C79.1644 114.236 82.7389 111.203 82.6113 115.409C82.5102 118.737 76.5813 120.718 74.4882 121.518C70.7957 122.929 67.9163 124.718 64.6628 127.13C60.5969 130.144 57.8068 131.802 54.2097 131.901Z" fill="#FFFFFD"/>
<path opacity="0.15" d="M16.749 99.2082C20.1964 102.577 25.7693 105.803 33.2625 113.937C38.6434 115.851 44.2702 117.014 49.4052 118.07C56.3772 119.504 63.3149 119.335 69.9716 116.383C75.0162 114.145 79.2042 108.959 84.8902 108.763C87.0566 108.689 88.7234 109.713 90.4143 111.225C92.2193 112.84 94.048 114.126 96.2276 114.901C101.435 116.75 107.041 116.435 112.356 115.644C117.71 114.847 122.975 113.308 128.207 111.805C131.057 110.986 133.919 110.019 136.435 108.207C138.533 106.697 139.736 104.674 141.174 102.409C142.492 100.334 144.01 98.2293 146.286 97.7219C148.437 97.2424 150.554 98.2636 152.492 99.2942C155.518 100.904 157.96 102.26 161.379 102.092C163.098 102.007 164.793 101.642 166.477 101.214C169.24 96.3444 169.068 95.5571 168.281 86.4354C167.289 74.9186 23.9467 71.8407 18.0139 93.2363C18.0139 93.2367 12.2319 94.794 16.749 99.2082Z" fill="#4A170E"/>
<path d="M19.0243 84.4571C19.0243 84.4571 7.15501 92.7616 21.2664 103.622C35.3774 114.483 72.0899 123.398 77.4865 103.805C82.8827 84.2114 19.0243 84.4571 19.0243 84.4571Z" fill="#FF2B00"/>
<path d="M19.0242 84.4571C19.0242 84.4571 10.7708 89.4316 24.8821 100.293C38.9931 111.154 71.8735 118.35 77.2697 98.7565C82.6659 79.1624 19.0242 84.4571 19.0242 84.4571Z" fill="#ED5A28"/>
<path opacity="0.15" d="M19.0243 84.4572C19.0243 84.4572 14.1457 87.3996 18.3077 93.6977C18.7937 93.6395 19.2826 93.6546 19.7729 93.7946C21.2649 94.2211 22.6509 95.5392 23.6396 96.8718C24.3745 97.8628 25.0623 99.9201 26.0923 100.508C27.564 101.348 29.0442 99.0087 30.2972 98.4607C34.7478 96.5134 35.4016 102.04 38.0883 104.448C40.8006 106.88 44.0104 101.54 46.1193 100.114C47.6131 99.1052 49.1919 99.993 49.823 101.765C50.2686 103.017 50.2524 104.357 50.1099 105.672C52.8349 109.511 56.0007 111.726 59.6614 107.983C62.3727 105.211 64.4975 102.306 68.4236 102.47C69.6705 102.522 71.0724 103.686 70.9924 105.332C70.9483 106.239 70.7662 107.085 70.4804 107.876C73.6989 105.91 76.1145 102.948 77.2691 98.7553C82.666 79.1625 19.0243 84.4572 19.0243 84.4572Z" fill="#4A0E3A"/>
<path d="M82.0573 97.282C81.7433 85.8421 94.811 76.2026 111.245 75.7515C127.679 75.3004 141.256 84.2086 141.57 95.6485C141.884 107.088 128.726 113.439 112.292 113.89C95.8579 114.341 82.3713 108.722 82.0573 97.282Z" fill="#B362A9"/>
<path d="M84.4855 94.8547C84.2073 84.718 96.7458 76.1499 112.492 75.7177C128.237 75.2855 141.227 83.153 141.505 93.2896C141.783 103.427 129.165 109.081 113.419 109.513C97.6734 109.945 84.7637 104.992 84.4855 94.8547Z" fill="#EDBFE6"/>
<path d="M86.3382 92.7251C86.0914 83.7352 98.2283 76.1088 113.446 75.691C128.664 75.2733 141.201 82.2225 141.448 91.2125C141.695 100.202 129.487 105.245 114.269 105.662C99.0509 106.08 86.5849 101.715 86.3382 92.7251Z" fill="#E499DB"/>
<path d="M13.612 70.6375C12.001 71.0634 9.52423 72.5406 8.25449 73.6776C4.06588 77.4274 1.26236 82.2217 2.52606 88.6965C2.74879 89.8379 3.1417 91.2045 3.86256 92.0758C8.36302 97.5147 15.8155 89.6217 20.8676 90.5783C21.7003 90.7359 23.2754 91.8822 23.6417 92.8086C24.3447 94.5847 22.7778 96.868 25.0662 98.0037C27.8612 99.3917 29.5413 93.6252 32.4854 94.5963C34.3623 95.2159 34.9599 97.813 35.7918 99.4475C36.7499 101.33 39.7959 101.921 41.4709 101.527C44.4081 100.834 45.1049 95.5603 49.1046 96.5875C52.7778 97.5304 50.6046 102.993 51.4252 105.325C52.0085 106.983 53.7364 108.012 55.1044 108.409C55.6259 108.56 56.1537 108.777 56.6889 108.746C58.9911 108.617 61.1144 105.578 62.7003 104.012C64.2839 102.447 66.2227 101.33 67.8527 99.815C69.2048 98.5577 71.6917 97.1207 73.5157 98.0263C77.8001 100.154 69.1277 104.945 73.8536 107.014C77.0901 108.431 78.5379 104.407 80.2258 102.234C82.0038 99.9442 85.1236 98.4004 87.7835 98.3784C90.1248 98.3595 92.9884 99.6182 94.6699 101.596C95.1837 102.201 95.1487 103.073 95.5202 103.746C96.7592 105.989 99.088 108.064 101.429 108.161C102.783 108.217 104.913 108.369 106.116 107.57C109.087 105.598 110.045 101.252 113.8 100.368C117.22 99.5621 117.81 104.433 120.812 104.859C123.441 105.233 122.788 99.0978 126.601 99.7223C128.932 100.104 131.779 105.008 134.313 103.911C135.086 103.576 134.869 101.756 134.942 101.036C135.163 98.8439 135.465 96.6859 137.223 95.4816C138.436 94.6506 140.221 94.6629 141.587 94.3943C145.011 93.7211 148.055 93.9372 151.428 95.1966C153.28 95.8879 154.943 97.0775 156.868 97.6288C160.304 98.6118 165.917 99.3967 169.355 98.4201C171.807 97.7234 174.475 94.8065 176.485 93.007C179.375 90.4204 181.859 86.6598 182.171 82.1857C182.304 80.2794 180.889 79.0511 179.749 77.9761C177.753 76.0935 175.717 74.3185 173.496 72.8515C172.096 71.9261 171.251 70.3434 169.636 69.7905C168.032 69.2398 166.486 69.0756 164.825 69.1069C155.465 69.2818 147.006 74.6845 138.597 78.8612C128.551 83.8518 118.572 88.637 107.565 89.8662C100.19 90.6895 92.819 89.9611 85.48 88.8864C70.0845 86.6327 55.2294 81.7079 40.0714 78.0532C33.4141 76.4483 27.0109 74.0723 20.4901 71.9208C18.3007 71.1983 16.0031 70.0057 13.612 70.6375Z" fill="#47C200"/>
<path d="M13.5505 68.3934C11.9395 68.8193 9.46271 70.2964 8.19297 71.4335C4.00436 75.1832 1.20084 79.9776 2.46454 86.4524C2.68726 87.5938 3.08018 88.9603 3.80103 89.8317C8.3015 95.2705 15.7539 87.3776 20.8061 88.3341C21.6388 88.4913 23.2139 89.638 23.5802 90.5644C24.2832 92.3405 22.7162 94.6238 25.0047 95.7595C27.7997 97.1475 29.4798 91.381 32.4238 92.3522C34.3007 92.9718 34.8984 95.5688 35.7303 97.2033C36.6883 99.0855 39.7344 99.6771 41.4094 99.2825C44.3466 98.5903 45.0434 93.3162 49.0431 94.3433C52.7163 95.2863 50.5431 100.749 51.3637 103.081C51.947 104.739 53.6749 105.767 55.0429 106.164C55.5644 106.316 56.0922 106.532 56.6274 106.502C58.9296 106.373 61.0528 103.334 62.6388 101.768C64.2224 100.203 66.1612 99.086 67.7912 97.5708C69.1433 96.3136 71.6302 94.8765 73.4542 95.7821C77.7386 97.9097 69.0662 102.701 73.7921 104.77C77.0286 106.187 78.4764 102.163 80.1643 99.9896C81.9422 97.7 85.0621 96.1562 87.722 96.1343C90.0633 96.1153 92.9269 97.374 94.6084 99.3514C95.1222 99.9566 95.0872 100.829 95.4586 101.502C96.6977 103.745 99.0265 105.82 101.368 105.917C102.721 105.973 104.851 106.125 106.054 105.326C109.025 103.354 109.983 99.0082 113.739 98.1238C117.159 97.318 117.749 102.189 120.75 102.615C123.379 102.988 122.726 96.8533 126.54 97.4781C128.87 97.8599 131.717 102.764 134.251 101.667C135.025 101.331 134.808 99.5123 134.88 98.7922C135.102 96.5997 135.404 94.4418 137.162 93.2374C138.375 92.4065 140.159 92.4187 141.525 92.1502C144.95 91.4769 147.993 91.693 151.367 92.9524C153.218 93.6438 154.881 94.8334 156.807 95.3847C160.243 96.3677 165.855 97.1525 169.293 96.176C171.746 95.4792 174.413 92.5623 176.424 90.7628C179.313 88.1762 181.798 84.4157 182.11 79.9416C182.243 78.0352 180.828 76.807 179.688 75.732C177.691 73.8494 175.655 72.074 173.435 70.6074C172.034 69.682 171.19 68.0992 169.575 67.5463C167.97 66.996 166.424 66.8315 164.764 66.8628C155.404 67.0376 146.944 72.4404 138.535 76.617C128.49 81.6077 118.511 86.3928 107.504 87.622C100.128 88.4454 92.7575 87.7169 85.4185 86.6423C70.023 84.3886 55.1678 79.4634 40.0099 75.8091C33.3525 74.2042 26.9493 71.8282 20.4285 69.6766C18.2392 68.9542 15.9416 67.7615 13.5505 68.3934Z" fill="#3DA600"/>
<path opacity="0.15" d="M173.111 70.9718C170.993 68.3797 168.991 66.7842 164.764 66.8631C155.404 67.038 146.944 72.4407 138.536 76.6174C128.49 81.608 118.511 86.3932 107.504 87.6224C100.129 88.4457 92.7579 87.7173 85.4188 86.6426C70.0233 84.3885 55.1682 79.4637 40.0102 75.8094C33.3529 74.2045 26.9497 71.8285 20.4289 69.677C18.2392 68.9545 15.9419 67.7615 13.5488 68.3942C10.1733 69.2886 9.39342 70.8535 7.76029 73.7962C6.50248 76.0629 3.81034 77.626 3.96238 80.7272C4.24949 86.5891 6.77797 77.1433 8.64269 80.0227C9.99072 82.1044 6.52102 85.5176 7.43369 87.5161C8.45667 89.7561 12.045 84.8145 13.7853 84.4744C13.7089 84.9533 13.9454 85.6077 13.8844 86.078C15.7804 86.4722 16.3672 87.7134 18.1517 86.3173C20.0909 84.7998 20.8234 81.8246 23.3419 85.1657C25.4365 87.9445 23.5523 93.0476 28.2737 92.1599C29.3915 89.9452 29.4483 86.3689 32.3475 86.7408C33.0838 86.8353 33.537 87.2654 34.1555 87.7811C35.78 89.1347 36.8972 90.9296 38.2388 92.4611C40.2043 94.7047 40.803 93.9146 43.4104 92.9548C45.4957 92.1868 47.647 91.4203 49.8586 91.932C52.0064 92.429 54.792 94.1442 55.8784 96.4813C56.067 96.8872 56.1957 97.3188 56.2703 97.7617C56.6039 97.724 56.9464 97.6835 57.2736 97.5427C57.9004 97.2736 58.5003 96.9196 59.1376 96.6816C60.4882 96.1776 61.7167 96.1422 63.1165 96.3585C63.3756 96.3988 63.6087 96.501 63.8192 96.6425C65.037 95.7751 66.3021 95.0113 67.6672 94.5432C70.4506 93.5883 73.4161 94.2029 75.5516 96.641C76.2529 97.4414 76.7838 98.4164 77.0753 99.4893C77.1368 99.4427 77.1977 99.3994 77.2598 99.3504C78.4184 98.4331 79.4855 97.3674 80.7225 96.5896C82.8054 95.2801 84.9682 95.0611 86.8618 96.1999C87.0881 96.172 87.3129 96.1508 87.5346 96.143C89.6861 94.4225 92.2739 94.2641 94.9316 95.8657C95.856 96.4229 97.2639 97.9689 98.615 98.914C99.5948 98.7696 100.618 98.8839 101.662 99.1067C102.614 98.5156 103.651 98.9456 104.341 99.8076C104.559 99.8751 104.777 99.9475 104.995 100.024C105.477 99.7038 105.965 99.3895 106.414 99.0302C107.904 97.8344 109.293 96.392 110.842 95.3029C112.777 93.9418 115.424 93.6956 117.517 94.7604C118.317 95.1675 119.08 96.0691 119.863 96.8698C120.412 94.983 121.73 93.5956 123.987 93.3969C126.615 93.1656 129.309 94.2694 131.789 95.4651C131.12 95.1426 134.42 90.8686 134.789 90.5793C137.023 88.8271 138.424 90.0619 140.67 89.7741C143.906 89.3599 147.166 83.8223 150.552 88.7407C151.869 90.6542 150.621 90.6484 152.916 91.3207C154.267 91.7167 155.778 90.2305 157.105 90.8624C157.398 88.3021 155.089 86.4795 157.603 84.9573C159.487 83.816 160.66 85.2881 161.501 87.1151C162.551 89.3988 162.075 92.6699 164.364 93.904C165.993 94.7826 170.515 93.4592 171.807 92.1999C176.492 87.6339 162.307 85.189 167.182 81.4551C170.144 79.1866 170.36 84.3577 172.325 84.5156C173.635 84.6209 175.801 81.837 176.911 81.1489C175.814 79.38 172.267 80.1203 172.451 77.5618C172.701 74.0863 175.095 77.675 175.772 77.7678C178.734 78.1752 176.692 75.5684 175.973 74.6623C174.887 73.2923 173.989 72.0466 173.111 70.9718Z" fill="#4A0E3A"/>
<path d="M7.98455 71.5212C7.98455 71.5212 6.15234 4.77002 76.9536 2.82664C175.584 0.11939 173.367 70.4785 173.367 70.4785C173.367 70.4785 146.047 95.435 87.7409 92.8814C29.4352 90.3282 7.98455 71.5212 7.98455 71.5212Z" fill="#F8A92D"/>
<path d="M132.655 76.5509C132.467 76.71 132.27 76.8587 132.061 76.9946C126.851 80.3928 121.067 79.609 115.436 79.6782C108.995 79.757 105.32 86.9883 99.0627 87.4454C95.1503 87.7312 92.6216 83.8298 88.8727 83.249C85.3397 82.7014 80.7628 83.1054 77.2913 83.8106C70.2326 85.2445 62.6703 82.7439 57.0513 77.408C53.5546 74.0876 49.9135 73.305 45.7715 75.997C43.4352 77.5152 41.2605 78.6399 38.3788 76.8575C35.7711 75.2448 35.2328 71.5011 32.4687 69.8735C29.762 68.2798 26.6368 68.3766 23.8006 67.6221C20.3378 66.7006 19.4458 65.2155 18.1417 61.5773C17.2492 59.0876 16.6918 56.4266 15.6555 54.0058C15.3617 53.3194 11.699 48.4495 11.7207 48.3819C7.70309 61.1038 7.98487 71.5211 7.98487 71.5211C7.98487 71.5211 29.4359 90.3281 87.7412 92.8813C146.047 95.435 173.368 70.4785 173.368 70.4785C173.368 70.4785 173.592 63.3338 170.707 53.6863C170.795 53.9803 163.273 58.3024 162.241 58.8312C159.137 60.4219 156.531 61.8839 153.994 64.6506C152.715 66.0467 151.936 68.0761 150.4 69.198C148.47 70.6079 146.013 70.9513 143.822 71.0511C141.462 71.1583 138.66 70.8208 136.563 72.3451C135.053 73.4418 134.129 75.3054 132.655 76.5509Z" fill="#FFC042"/>
<path d="M102.569 14.5111C102.569 14.5111 105.448 13.9895 107.98 15.6141C110.513 17.2383 109.246 20.9707 106.611 19.6984C103.977 18.426 102.569 14.5111 102.569 14.5111Z" fill="#FDE466"/>
<path opacity="0.15" d="M106.61 19.6993C107.983 20.3621 108.983 19.6656 109.269 18.6176C107.529 19.8467 104.413 16.5632 103.822 14.4347C103.065 14.4244 102.568 14.512 102.568 14.512C102.568 14.512 103.976 18.4269 106.61 19.6993Z" fill="#4A170E"/>
<path d="M146.579 32.0672C146.579 32.0672 149.477 31.7072 151.942 33.4704C154.407 35.2336 152.991 38.8893 150.409 37.4718C147.828 36.0543 146.579 32.0672 146.579 32.0672Z" fill="#FDE466"/>
<path opacity="0.15" d="M150.409 37.4723C151.754 38.2106 152.781 37.5709 153.11 36.5406C151.322 37.671 148.34 34.2185 147.835 32.0606C147.079 32.0079 146.579 32.0677 146.579 32.0677C146.579 32.0677 147.828 36.0548 150.409 37.4723Z" fill="#4A170E"/>
<path d="M42.0912 22.3155C42.0912 22.3155 43.2882 19.1973 45.8173 17.6191C48.3464 16.0409 50.3018 19.3714 47.9667 21.2467C45.6316 23.1221 42.0912 22.3155 42.0912 22.3155Z" fill="#FDE466"/>
<path opacity="0.15" d="M47.966 21.2468C49.1826 20.2696 49.233 18.8987 48.6458 18.0318C48.5704 20.4269 44.5479 21.6505 42.7177 21.0406C42.2983 21.7784 42.0901 22.3152 42.0901 22.3152C42.0901 22.3152 45.6309 23.1222 47.966 21.2468Z" fill="#4A170E"/>
<path d="M96.5746 9.26543C96.5746 9.26543 95.9444 12.6342 93.7336 14.8066C91.5232 16.9786 89.0161 14.1662 90.9836 11.7478C92.9515 9.32936 96.5746 9.26543 96.5746 9.26543Z" fill="#FDE466"/>
<path opacity="0.15" d="M96.4288 9.27122C95.8938 10.244 95.4112 11.2586 94.7288 12.1289C93.4555 13.7526 91.8161 14.2716 90.2841 13.3678C90.1249 15.1736 92.0185 16.492 93.7347 14.8055C95.9451 12.6331 96.5756 9.26434 96.5756 9.26434C96.5756 9.26434 96.5216 9.26582 96.4288 9.27122Z" fill="#4A170E"/>
<path d="M64.3766 32.0522C64.3766 32.0522 63.7464 35.4209 61.5356 37.5934C59.3252 39.7653 56.8181 36.9529 58.7856 34.5345C60.7536 32.1161 64.3766 32.0522 64.3766 32.0522Z" fill="#FDE466"/>
<path opacity="0.15" d="M64.2308 32.0592C63.6958 33.032 63.2132 34.0466 62.5308 34.9169C61.2575 36.5406 59.6181 37.0596 58.0861 36.1558C57.9269 37.9616 59.8205 39.28 61.5367 37.5939C63.7475 35.4215 64.3776 32.0528 64.3776 32.0528C64.3776 32.0528 64.3236 32.0534 64.2308 32.0592Z" fill="#4A170E"/>
<path d="M82.9851 24.0134C82.9851 24.0134 82.2195 28.1056 79.534 30.7445C76.8489 33.3831 73.8033 29.9666 76.1935 27.0288C78.5841 24.0913 82.9851 24.0134 82.9851 24.0134Z" fill="#FDE466"/>
<path opacity="0.15" d="M82.8071 24.022C82.1576 25.2037 81.5711 26.4367 80.7423 27.4935C79.1955 29.4656 77.2038 30.0963 75.3429 28.9982C75.1493 31.1916 77.4498 32.7936 79.5347 30.745C82.2202 28.1061 82.9858 24.0139 82.9858 24.0139C82.9858 24.0139 82.9196 24.0153 82.8071 24.022Z" fill="#4A170E"/>
<path d="M129.623 27.5203C129.623 27.5203 131.384 31.1897 134.62 32.8374C137.854 34.4852 139.914 30.2138 136.886 28.1831C133.859 26.1525 129.623 27.5203 129.623 27.5203Z" fill="#FDE466"/>
<path opacity="0.15" d="M129.796 27.4698C130.715 28.3888 131.587 29.3777 132.646 30.1185C134.623 31.5008 136.69 31.4522 138.197 29.7902C138.933 31.8283 137.132 34.1168 134.62 32.8374C131.385 31.1896 129.623 27.5203 129.623 27.5203C129.623 27.5203 129.687 27.5002 129.796 27.4698Z" fill="#4A170E"/>
<path d="M124.017 38.0276C124.017 38.0276 124.674 41.1888 126.793 43.215C128.911 45.2412 131.213 42.5817 129.318 40.3224C127.423 38.0635 124.017 38.0276 124.017 38.0276Z" fill="#FDE466"/>
<path opacity="0.15" d="M124.157 38.0338C124.678 38.9441 125.151 39.8945 125.809 40.7076C127.036 42.2247 128.587 42.7014 130.009 41.8418C130.193 43.5374 128.439 44.789 126.795 43.216C124.676 41.1898 124.019 38.0286 124.019 38.0286C124.019 38.0286 124.07 38.0292 124.157 38.0338Z" fill="#4A170E"/>
<path d="M113.638 31.6548C113.638 31.6548 115.555 35.2153 115.253 39.3328C114.951 43.4494 110.764 43.5386 110.679 39.453C110.596 35.3674 113.638 31.6548 113.638 31.6548Z" fill="#FDE466"/>
<path opacity="0.15" d="M113.518 31.8091C113.771 33.1934 114.098 34.5617 114.151 36.0058C114.248 38.7006 113.228 40.8061 111.263 41.5679C112.443 43.2961 115.019 42.5294 115.253 39.3331C115.555 35.2161 113.638 31.6552 113.638 31.6552C113.638 31.6552 113.593 31.7107 113.518 31.8091Z" fill="#4A170E"/>
<path d="M78.6989 9.94949C78.6989 9.94949 78.3528 13.2186 76.4165 15.5133C74.4806 17.808 71.8897 15.3934 73.5769 12.8896C75.264 10.3863 78.6989 9.94949 78.6989 9.94949Z" fill="#FDE466"/>
<path opacity="0.15" d="M78.5596 9.9715C78.1247 10.9521 77.7424 11.9673 77.1599 12.8654C76.0728 14.5416 74.5549 15.205 73.0326 14.5042C73.0168 16.238 74.9133 17.2954 76.416 15.514C78.3523 13.2189 78.6984 9.95014 78.6984 9.95014C78.6984 9.95014 78.6473 9.95685 78.5596 9.9715Z" fill="#4A170E"/>
<path d="M63.0429 16.1201C63.0429 16.1201 63.4364 19.3893 62.0824 22.2061C60.7287 25.0228 57.6976 23.4845 58.7649 20.5422C59.8329 17.6002 63.0429 16.1201 63.0429 16.1201Z" fill="#FDE466"/>
<path opacity="0.15" d="M62.9148 16.1836C62.7139 17.266 62.5718 18.366 62.2101 19.4144C61.5357 21.3708 60.2222 22.4804 58.6007 22.2714C58.9707 23.9538 61.032 24.3928 62.0829 22.2061C63.4369 19.3893 63.0434 16.1201 63.0434 16.1201C63.0434 16.1201 62.9955 16.1422 62.9148 16.1836Z" fill="#4A170E"/>
<path d="M122.024 15.2114C122.024 15.2114 122.417 18.4806 121.063 21.2974C119.709 24.1141 116.678 22.5759 117.746 19.6335C118.814 16.6919 122.024 15.2114 122.024 15.2114Z" fill="#FDE466"/>
<path opacity="0.15" d="M121.895 15.2754C121.694 16.3577 121.552 17.4577 121.19 18.5062C120.516 20.4625 119.202 21.5722 117.581 21.3632C117.951 23.0455 120.012 23.4845 121.063 21.2978C122.417 18.4811 122.024 15.2114 122.024 15.2114C122.024 15.2114 121.976 15.2339 121.895 15.2754Z" fill="#4A170E"/>
<path d="M98.6029 30.4881C98.6029 30.4881 98.9964 33.7574 97.6424 36.5741C96.2887 39.3908 93.2577 37.8526 94.3249 34.9102C95.3929 31.9683 98.6029 30.4881 98.6029 30.4881Z" fill="#FDE466"/>
<path opacity="0.15" d="M98.4747 30.5517C98.2738 31.6341 98.1317 32.7341 97.7704 33.7825C97.096 35.7388 95.7825 36.8485 94.161 36.6395C94.531 38.3218 96.5922 38.7608 97.6432 36.5741C98.9971 33.7574 98.6037 30.4881 98.6037 30.4881C98.6037 30.4881 98.5554 30.5103 98.4747 30.5517Z" fill="#4A170E"/>
<path opacity="0.15" d="M40.252 60.9349C40.8164 60.5916 41.3765 60.2546 41.9321 59.943C45.733 57.8098 49.5794 55.7794 53.4543 53.8369C59.6371 50.7374 65.9371 47.6478 72.4157 45.4819C77.1805 43.8889 82.0467 42.7441 86.8387 41.27C94.187 39.0092 101.843 35.9244 106.654 29.2053C106.925 27.4033 106.805 25.537 106.136 23.6881C105.48 21.8749 103.893 21.1967 102.742 20.0432C97.3582 14.6539 88.113 8.98401 80.899 7.86633C77.1546 7.28656 73.4225 7.35512 69.679 7.53992C66.5291 7.69496 63.1662 8.03996 60.1353 9.12451C51.6251 12.1699 43.9401 16.8325 36.6173 22.7171C29.3726 28.5384 22.198 35.2215 19.7286 45.6589C18.7167 49.9375 18.2848 54.0956 21.1443 57.6703C25.8731 63.5826 33.9343 61.7627 40.252 60.9349Z" fill="#FFD99E"/>
<path opacity="0.15" d="M135.214 12.9998C135.844 18.9641 134.429 24.8544 131.977 30.033C127.428 39.6408 120.125 48.3025 112.571 54.6629C104.441 61.5078 95.0931 66.1584 85.6956 70.052C69.5086 76.7588 52.564 81.4061 35.5904 84.6075C48.0188 88.4478 65.0995 91.8905 87.7404 92.8819C146.046 95.4356 173.367 70.479 173.367 70.479C173.367 70.479 174.579 31.9327 135.214 12.9998Z" fill="#F91E00"/>
<path opacity="0.3" d="M73.0144 139.359C72.3595 139.098 71.7856 138.782 71.5494 138.35C68.4844 132.756 83.9322 131.179 86.0418 131.574C89.2646 132.178 92.587 133.062 95.7745 133.894C103.21 135.834 112.058 134.61 119.07 130.86C120.971 129.843 125.446 127.487 127.135 130.386C128.734 133.129 124.512 135.389 122.924 136.397C115.217 141.286 104.423 143.88 95.7556 144.092C91.2954 144.202 86.5698 144.016 82.1882 142.994C79.7744 142.431 77.6967 141.47 75.4774 140.264C74.9269 139.965 73.8968 139.712 73.0144 139.359Z" fill="#FFA273"/>
<path opacity="0.3" d="M138.937 134.804C138.824 134.793 138.712 134.781 138.599 134.769C137.428 134.633 135.319 135.07 134.314 134.721C131.723 133.822 132.392 130.069 134.6 129.04C139.772 126.63 145.552 125.228 150.824 122.84C153.843 121.472 157.335 119.83 159.902 117.448C160.965 116.462 161.416 114.775 162.358 113.873C163.991 112.309 165.862 112.746 166.244 115.243C167.395 122.779 156.983 129.275 152.379 131.686C148.248 133.849 143.478 135.238 138.937 134.804Z" fill="#FFA273"/>
<path opacity="0.3" d="M32.3541 127.947C33.6945 129.523 35.0811 131.042 36.5245 132.352C33.0294 131.758 30.0221 129.053 27.1786 126.769C24.4745 124.597 21.4134 123.471 19.2035 120.52C17.7339 118.558 12.4198 108.503 16.0964 107.257C19.2034 106.204 21.4195 112.413 22.7426 114.721C24.4629 117.722 26.651 120.963 28.7816 123.587C29.9386 125.012 31.1269 126.504 32.3541 127.947Z" fill="#FFA273"/>
</svg>
