<svg width="64" height="64" viewBox="0 0 64 64" fill="none" xmlns="http://www.w3.org/2000/svg">
<ellipse cx="32" cy="31.8342" rx="32" ry="31.8342" fill="#F94A3D"/>
<path d="M39.6018 33.854C37.2958 33.854 35.4199 35.7202 35.4199 38.0142C35.4199 40.3082 37.2958 42.1744 39.6018 42.1744C41.9081 42.1744 43.7836 40.3082 43.7836 38.0142C43.7836 35.7202 41.9077 33.854 39.6018 33.854ZM39.6018 40.0943C38.4486 40.0943 37.5108 39.1613 37.5108 38.0142C37.5108 36.867 38.4486 35.9341 39.6018 35.9341C40.7549 35.9341 41.6927 36.867 41.6927 38.0142C41.6927 39.1614 40.7549 40.0943 39.6018 40.0943Z" fill="white"/>
<path d="M25.3137 33.854C23.0078 33.854 21.1318 35.7202 21.1318 38.0142C21.1318 40.3082 23.0078 42.1744 25.3137 42.1744C27.6196 42.1744 29.4955 40.3082 29.4955 38.0142C29.4955 35.7202 27.6196 33.854 25.3137 33.854ZM25.3137 40.0943C24.1606 40.0943 23.2228 39.1613 23.2228 38.0142C23.2228 36.867 24.1606 35.9341 25.3137 35.9341C26.4665 35.9341 27.4046 36.867 27.4046 38.0142C27.4046 39.1614 26.4668 40.0943 25.3137 40.0943Z" fill="white"/>
<path d="M42.4177 21.9463C42.24 21.5951 41.8786 21.3736 41.4834 21.3736H35.9773V23.4537H40.8387L43.6854 29.0865L45.554 28.1519L42.4177 21.9463Z" fill="white"/>
<path d="M36.4652 37.0089H28.5546V39.0889H36.4652V37.0089Z" fill="white"/>
<path d="M22.1774 37.0089H18.5532C17.9758 37.0089 17.5078 37.4745 17.5078 38.0489C17.5078 38.6233 17.9758 39.0889 18.5532 39.0889H22.1775C22.755 39.0889 23.2229 38.6233 23.2229 38.0489C23.2229 37.4744 22.7549 37.0089 22.1774 37.0089Z" fill="white"/>
<path d="M47.502 30.6507L45.4456 28.0159C45.248 27.7621 44.9431 27.6137 44.62 27.6137H37.023V20.3335C37.023 19.759 36.555 19.2935 35.9776 19.2935H18.5532C17.9758 19.2935 17.5078 19.7591 17.5078 20.3335C17.5078 20.9079 17.9758 21.3735 18.5532 21.3735H34.9321V28.6538C34.9321 29.2282 35.4001 29.6938 35.9775 29.6938H44.1081L45.6306 31.6449V37.0087H42.7381C42.1607 37.0087 41.6927 37.4743 41.6927 38.0487C41.6927 38.6232 42.1607 39.0888 42.7381 39.0888H46.676C47.2535 39.0888 47.7214 38.6232 47.7215 38.0487V31.2886C47.7215 31.0577 47.6441 30.8331 47.502 30.6507Z" fill="white"/>
<path d="M22.1079 31.7393H17.2987C16.7213 31.7393 16.2533 32.2049 16.2533 32.7793C16.2533 33.3537 16.7213 33.8193 17.2987 33.8193H22.1078C22.6853 33.8193 23.1532 33.3537 23.1532 32.7793C23.1533 32.2049 22.6853 31.7393 22.1079 31.7393Z" fill="white"/>
<path d="M24.5121 27.6484H15.5908C15.0134 27.6484 14.5454 28.114 14.5454 28.6885C14.5454 29.263 15.0134 29.7285 15.5908 29.7285H24.5121C25.0896 29.7285 25.5575 29.2629 25.5575 28.6885C25.5575 28.1141 25.0896 27.6484 24.5121 27.6484Z" fill="white"/>
<path d="M26.22 23.5576H17.2987C16.7213 23.5576 16.2533 24.0232 16.2533 24.5976C16.2533 25.172 16.7213 25.6376 17.2987 25.6376H26.22C26.7975 25.6376 27.2654 25.172 27.2654 24.5976C27.2655 24.0232 26.7975 23.5576 26.22 23.5576Z" fill="white"/>
</svg>
