<svg width="631" height="594" viewBox="0 0 631 594" fill="none" xmlns="http://www.w3.org/2000/svg">
<path d="M609.091 129.09C609.06 129.172 608.217 128.863 606.649 128.546C605.089 128.235 602.759 127.962 599.944 128.369C597.15 128.766 593.854 129.906 590.974 132.296C588.098 134.641 585.639 138.18 584.655 142.365L584.626 142.476L584.242 143.968L583.669 142.553C582.057 138.573 579.196 135.399 576.091 133.374C572.978 131.312 569.627 130.441 566.819 130.226C561.115 129.838 557.778 131.618 557.738 131.381C557.716 131.333 558.498 130.881 560.046 130.379C561.587 129.883 563.934 129.383 566.865 129.518C569.773 129.648 573.303 130.479 576.593 132.597C579.872 134.675 582.9 137.983 584.6 142.179L583.643 142.256L583.674 142.138C584.715 137.707 587.334 134.003 590.389 131.577C593.453 129.104 596.944 127.983 599.851 127.665C602.783 127.336 605.169 127.73 606.736 128.165C608.313 128.608 609.11 129.043 609.091 129.09Z" fill="#94959B"/>
<path d="M211.992 76.2614C200.946 76.5177 191.94 85.5206 191.676 96.5656C191.563 101.297 193.033 105.676 195.59 109.223L195.583 109.225L195.787 109.501C195.796 109.514 195.805 109.528 195.815 109.54L210.555 129.588C211.852 131.352 214.508 131.298 215.73 129.48L229.053 109.675C231.575 105.829 233.303 101.811 233.303 97.0734C233.304 85.4112 223.716 75.9895 211.992 76.2614ZM212.488 109.389C205.943 109.389 200.635 104.083 200.635 97.5359C200.635 90.9892 205.941 85.6831 212.488 85.6831C219.034 85.6831 224.341 90.9892 224.341 97.5359C224.341 104.083 219.034 109.389 212.488 109.389Z" fill="#EBF1F8"/>
<path d="M513.95 39.9599C515.161 31.1601 502.742 23.9212 493.411 23.1697C488.961 22.8103 484.339 23.4916 480.122 22.0228C470.988 18.8385 467.34 7.03881 458.428 3.27952C451.764 0.468649 444.094 2.97172 437.633 6.22164C431.172 9.47157 424.789 13.5637 417.572 14.0261C411.294 14.4277 404.477 12.0996 398.985 15.1667C394.893 17.4526 392.749 22.1681 388.976 24.9493C385.286 27.6711 380.472 28.2477 375.892 28.4961C371.312 28.7446 366.572 28.7914 362.403 30.7008C358.233 32.6101 354.785 37.0194 355.65 41.5224L513.95 39.9599Z" fill="#EBF1F8"/>
<path d="M164.05 95.7618C164.014 95.8633 162.258 95.143 158.944 94.4071C155.646 93.6821 150.696 93.0431 144.693 93.8587C138.732 94.6555 131.67 97.0524 125.49 102.141C119.321 107.137 114.043 114.696 111.936 123.663C111.915 123.744 111.893 123.825 111.875 123.902L111.479 125.439L110.889 123.98C107.439 115.46 101.309 108.69 94.6595 104.383C87.9925 100.001 80.8223 98.1851 74.8412 97.7758C68.821 97.3555 63.9368 98.2211 60.6806 99.0726C57.4119 99.9351 55.6854 100.694 55.6463 100.596C55.6323 100.563 56.0557 100.36 56.8776 100.002C57.6963 99.6398 58.9353 99.1664 60.5728 98.6851C63.8258 97.707 68.757 96.7149 74.8865 97.0461C80.9723 97.3664 88.3253 99.1429 95.1767 103.583C102.006 107.941 108.308 114.85 111.848 123.592L110.862 123.672C110.883 123.595 110.903 123.511 110.925 123.427C113.093 114.207 118.536 106.476 124.888 101.399C131.257 96.2243 138.521 93.8477 144.597 93.1321C150.722 92.3962 155.733 93.1618 159.035 94.0149C160.695 94.4337 161.958 94.8649 162.792 95.204C163.631 95.5368 164.064 95.7274 164.05 95.7618Z" fill="#94959B"/>
<path d="M317.78 40.2973C317.748 40.3833 316.772 40.0161 314.95 39.6411C313.137 39.2723 310.428 38.9473 307.153 39.4145C303.902 39.8708 300.061 41.1942 296.705 43.9738C293.354 46.7019 290.488 50.8221 289.343 55.697L289.31 55.8266L288.915 57.3641L288.324 55.9063C286.446 51.2705 283.115 47.5768 279.498 45.2222C275.873 42.8238 271.97 41.816 268.703 41.5723C265.415 41.3207 262.74 41.7692 260.948 42.2082C259.15 42.6535 258.189 43.0426 258.156 42.9598C258.142 42.9269 258.368 42.8004 258.817 42.5895C259.262 42.3754 259.942 42.1004 260.842 41.8207C262.631 41.2535 265.354 40.6801 268.749 40.8426C272.12 40.9989 276.205 41.9676 280.015 44.4222C283.812 46.8315 287.316 50.6627 289.285 55.5204L288.299 55.6001L288.333 55.4642C289.54 50.3361 292.569 46.0456 296.105 43.2348C299.65 40.3692 303.691 39.0677 307.059 38.6911C310.456 38.3036 313.225 38.7536 315.042 39.252C315.956 39.4958 316.648 39.7489 317.103 39.9505C317.561 40.1442 317.792 40.2645 317.78 40.2973Z" fill="#94959B"/>
<path d="M213.376 0.00194649C213.44 0.06757 212.401 1.11911 210.637 3.10812C208.869 5.09402 206.462 8.11113 203.951 12.136C198.899 20.0827 193.846 32.7449 194.02 47.2743C194.018 47.4258 194.018 47.5774 194.017 47.7165L192.987 47.8008C191.914 40.7119 189.548 34.2074 186.562 28.77C183.584 23.317 180.086 18.889 176.781 15.5563C173.48 12.2126 170.469 9.85484 168.302 8.36582C166.138 6.86898 164.884 6.11431 164.931 6.03462C164.949 6.00337 165.278 6.16274 165.891 6.49398C166.492 6.84398 167.427 7.28928 168.525 8.03145C170.777 9.42829 173.889 11.7204 177.298 15.0407C180.711 18.35 184.325 22.7952 187.398 28.3107C190.479 33.809 192.918 40.4244 194.013 47.6508L192.984 47.7352C192.985 47.593 192.985 47.4399 192.987 47.2852C192.81 32.5028 198.068 19.6734 203.334 11.7423C205.954 7.72208 208.473 4.74871 210.341 2.83469C211.243 1.84565 212.044 1.17536 212.549 0.686305C213.068 0.212879 213.351 -0.0246154 213.376 0.00194649Z" fill="#94959B"/>
<g opacity="0.3" clip-path="url(#clip0_18:442)">
<path d="M498.753 342.104C498.753 342.104 498.753 529.169 498.753 589.435H544.223V358.136L498.753 342.104Z" fill="url(#paint0_linear_18:442)"/>
<path d="M505.013 455.005H501.871V463.141H505.013V455.005Z" fill="white"/>
<path d="M505.013 443.621H501.871V451.757H505.013V443.621Z" fill="white"/>
<path d="M505.013 432.235H501.871V440.371H505.013V432.235Z" fill="white"/>
<path d="M505.013 420.849H501.871V428.985H505.013V420.849Z" fill="white"/>
<path d="M505.013 409.465H501.871V417.601H505.013V409.465Z" fill="white"/>
<path d="M505.013 398.079H501.871V406.215H505.013V398.079Z" fill="white"/>
<path d="M505.013 386.693H501.871V394.829H505.013V386.693Z" fill="white"/>
<path d="M505.013 375.308H501.871V383.444H505.013V375.308Z" fill="white"/>
<path d="M505.013 363.922H501.871V372.058H505.013V363.922Z" fill="white"/>
<path d="M510.169 455.005H507.027V463.141H510.169V455.005Z" fill="white"/>
<path d="M510.169 443.621H507.027V451.757H510.169V443.621Z" fill="white"/>
<path d="M510.169 432.235H507.027V440.371H510.169V432.235Z" fill="white"/>
<path d="M510.169 420.849H507.027V428.985H510.169V420.849Z" fill="white"/>
<path d="M510.169 409.465H507.027V417.601H510.169V409.465Z" fill="white"/>
<path d="M510.169 398.079H507.027V406.215H510.169V398.079Z" fill="white"/>
<path d="M510.169 386.693H507.027V394.829H510.169V386.693Z" fill="white"/>
<path d="M510.169 375.308H507.027V383.444H510.169V375.308Z" fill="white"/>
<path d="M510.169 363.922H507.027V372.058H510.169V363.922Z" fill="white"/>
<path d="M515.325 455.005H512.184V463.141H515.325V455.005Z" fill="white"/>
<path d="M515.325 443.621H512.184V451.757H515.325V443.621Z" fill="white"/>
<path d="M515.325 432.235H512.184V440.371H515.325V432.235Z" fill="white"/>
<path d="M515.325 420.849H512.184V428.985H515.325V420.849Z" fill="white"/>
<path d="M515.325 409.465H512.184V417.601H515.325V409.465Z" fill="white"/>
<path d="M515.325 398.079H512.184V406.215H515.325V398.079Z" fill="white"/>
<path d="M515.325 386.693H512.184V394.829H515.325V386.693Z" fill="white"/>
<path d="M515.325 375.308H512.184V383.444H515.325V375.308Z" fill="white"/>
<path d="M515.325 363.922H512.184V372.058H515.325V363.922Z" fill="white"/>
<path d="M520.482 455.005H517.34V463.141H520.482V455.005Z" fill="white"/>
<path d="M520.482 443.621H517.34V451.757H520.482V443.621Z" fill="white"/>
<path d="M520.482 432.235H517.34V440.371H520.482V432.235Z" fill="white"/>
<path d="M520.482 420.849H517.34V428.985H520.482V420.849Z" fill="white"/>
<path d="M520.482 409.465H517.34V417.601H520.482V409.465Z" fill="white"/>
<path d="M520.482 398.079H517.34V406.215H520.482V398.079Z" fill="white"/>
<path d="M520.482 386.693H517.34V394.829H520.482V386.693Z" fill="white"/>
<path d="M520.482 375.308H517.34V383.444H520.482V375.308Z" fill="white"/>
<path d="M520.482 363.922H517.34V372.058H520.482V363.922Z" fill="white"/>
<path d="M525.636 455.005H522.495V463.141H525.636V455.005Z" fill="white"/>
<path d="M525.636 443.621H522.495V451.757H525.636V443.621Z" fill="white"/>
<path d="M525.636 432.235H522.495V440.371H525.636V432.235Z" fill="white"/>
<path d="M525.636 420.849H522.495V428.985H525.636V420.849Z" fill="white"/>
<path d="M525.636 409.465H522.495V417.601H525.636V409.465Z" fill="white"/>
<path d="M525.636 398.079H522.495V406.215H525.636V398.079Z" fill="white"/>
<path d="M525.636 386.693H522.495V394.829H525.636V386.693Z" fill="white"/>
<path d="M525.636 375.308H522.495V383.444H525.636V375.308Z" fill="white"/>
<path d="M525.636 363.922H522.495V372.058H525.636V363.922Z" fill="white"/>
<path d="M530.793 455.005H527.651V463.141H530.793V455.005Z" fill="white"/>
<path d="M530.793 443.621H527.651V451.757H530.793V443.621Z" fill="white"/>
<path d="M530.793 432.235H527.651V440.371H530.793V432.235Z" fill="white"/>
<path d="M530.793 420.849H527.651V428.985H530.793V420.849Z" fill="white"/>
<path d="M530.793 409.465H527.651V417.601H530.793V409.465Z" fill="white"/>
<path d="M530.793 398.079H527.651V406.215H530.793V398.079Z" fill="white"/>
<path d="M530.793 386.693H527.651V394.829H530.793V386.693Z" fill="white"/>
<path d="M530.793 375.308H527.651V383.444H530.793V375.308Z" fill="white"/>
<path d="M530.793 363.922H527.651V372.058H530.793V363.922Z" fill="white"/>
<path d="M535.949 455.005H532.807V463.141H535.949V455.005Z" fill="white"/>
<path d="M535.949 443.621H532.807V451.757H535.949V443.621Z" fill="white"/>
<path d="M535.949 432.235H532.807V440.371H535.949V432.235Z" fill="white"/>
<path d="M535.949 420.849H532.807V428.985H535.949V420.849Z" fill="white"/>
<path d="M535.949 409.465H532.807V417.601H535.949V409.465Z" fill="white"/>
<path d="M535.949 398.079H532.807V406.215H535.949V398.079Z" fill="white"/>
<path d="M535.949 386.693H532.807V394.829H535.949V386.693Z" fill="white"/>
<path d="M535.949 375.308H532.807V383.444H535.949V375.308Z" fill="white"/>
<path d="M535.949 363.922H532.807V372.058H535.949V363.922Z" fill="white"/>
<path d="M541.105 455.005H537.964V463.141H541.105V455.005Z" fill="white"/>
<path d="M541.105 443.621H537.964V451.757H541.105V443.621Z" fill="white"/>
<path d="M541.105 432.235H537.964V440.371H541.105V432.235Z" fill="white"/>
<path d="M541.105 420.849H537.964V428.985H541.105V420.849Z" fill="white"/>
<path d="M541.105 409.465H537.964V417.601H541.105V409.465Z" fill="white"/>
<path d="M541.105 398.079H537.964V406.215H541.105V398.079Z" fill="white"/>
<path d="M541.105 386.693H537.964V394.829H541.105V386.693Z" fill="white"/>
<path d="M541.105 375.308H537.964V383.444H541.105V375.308Z" fill="white"/>
<path d="M541.105 363.922H537.964V372.058H541.105V363.922Z" fill="white"/>
<path d="M505.013 546.09H501.871V554.226H505.013V546.09Z" fill="white"/>
<path d="M505.013 534.704H501.871V542.84H505.013V534.704Z" fill="white"/>
<path d="M505.013 523.32H501.871V531.455H505.013V523.32Z" fill="white"/>
<path d="M505.013 511.934H501.871V520.069H505.013V511.934Z" fill="white"/>
<path d="M505.013 500.548H501.871V508.683H505.013V500.548Z" fill="white"/>
<path d="M505.013 489.163H501.871V497.299H505.013V489.163Z" fill="white"/>
<path d="M505.013 477.777H501.871V485.913H505.013V477.777Z" fill="white"/>
<path d="M505.013 466.391H501.871V474.527H505.013V466.391Z" fill="white"/>
<path d="M510.169 546.09H507.027V554.226H510.169V546.09Z" fill="white"/>
<path d="M510.169 534.704H507.027V542.84H510.169V534.704Z" fill="white"/>
<path d="M510.169 523.32H507.027V531.455H510.169V523.32Z" fill="white"/>
<path d="M510.169 511.934H507.027V520.069H510.169V511.934Z" fill="white"/>
<path d="M510.169 500.548H507.027V508.683H510.169V500.548Z" fill="white"/>
<path d="M510.169 489.163H507.027V497.299H510.169V489.163Z" fill="white"/>
<path d="M510.169 477.777H507.027V485.913H510.169V477.777Z" fill="white"/>
<path d="M510.169 466.391H507.027V474.527H510.169V466.391Z" fill="white"/>
<path d="M515.325 546.09H512.184V554.226H515.325V546.09Z" fill="white"/>
<path d="M515.325 534.704H512.184V542.84H515.325V534.704Z" fill="white"/>
<path d="M515.325 523.32H512.184V531.455H515.325V523.32Z" fill="white"/>
<path d="M515.325 511.934H512.184V520.069H515.325V511.934Z" fill="white"/>
<path d="M515.325 500.548H512.184V508.683H515.325V500.548Z" fill="white"/>
<path d="M515.325 489.163H512.184V497.299H515.325V489.163Z" fill="white"/>
<path d="M515.325 477.777H512.184V485.913H515.325V477.777Z" fill="white"/>
<path d="M515.325 466.391H512.184V474.527H515.325V466.391Z" fill="white"/>
<path d="M520.482 546.09H517.34V554.226H520.482V546.09Z" fill="white"/>
<path d="M520.482 534.704H517.34V542.84H520.482V534.704Z" fill="white"/>
<path d="M520.482 523.32H517.34V531.455H520.482V523.32Z" fill="white"/>
<path d="M520.482 511.934H517.34V520.069H520.482V511.934Z" fill="white"/>
<path d="M520.482 500.548H517.34V508.683H520.482V500.548Z" fill="white"/>
<path d="M520.482 489.163H517.34V497.299H520.482V489.163Z" fill="white"/>
<path d="M520.482 477.777H517.34V485.913H520.482V477.777Z" fill="white"/>
<path d="M520.482 466.391H517.34V474.527H520.482V466.391Z" fill="white"/>
<path d="M525.636 546.09H522.495V554.226H525.636V546.09Z" fill="white"/>
<path d="M525.636 534.704H522.495V542.84H525.636V534.704Z" fill="white"/>
<path d="M525.636 523.32H522.495V531.455H525.636V523.32Z" fill="white"/>
<path d="M525.636 511.934H522.495V520.069H525.636V511.934Z" fill="white"/>
<path d="M525.636 500.548H522.495V508.683H525.636V500.548Z" fill="white"/>
<path d="M525.636 489.163H522.495V497.299H525.636V489.163Z" fill="white"/>
<path d="M525.636 477.777H522.495V485.913H525.636V477.777Z" fill="white"/>
<path d="M525.636 466.391H522.495V474.527H525.636V466.391Z" fill="white"/>
<path d="M530.793 546.09H527.651V554.226H530.793V546.09Z" fill="white"/>
<path d="M530.793 534.704H527.651V542.84H530.793V534.704Z" fill="white"/>
<path d="M530.793 523.32H527.651V531.455H530.793V523.32Z" fill="white"/>
<path d="M530.793 511.934H527.651V520.069H530.793V511.934Z" fill="white"/>
<path d="M530.793 500.548H527.651V508.683H530.793V500.548Z" fill="white"/>
<path d="M530.793 489.163H527.651V497.299H530.793V489.163Z" fill="white"/>
<path d="M530.793 477.777H527.651V485.913H530.793V477.777Z" fill="white"/>
<path d="M530.793 466.391H527.651V474.527H530.793V466.391Z" fill="white"/>
<path d="M535.949 546.09H532.807V554.226H535.949V546.09Z" fill="white"/>
<path d="M535.949 534.704H532.807V542.84H535.949V534.704Z" fill="white"/>
<path d="M535.949 523.32H532.807V531.455H535.949V523.32Z" fill="white"/>
<path d="M535.949 511.934H532.807V520.069H535.949V511.934Z" fill="white"/>
<path d="M535.949 500.548H532.807V508.683H535.949V500.548Z" fill="white"/>
<path d="M535.949 489.163H532.807V497.299H535.949V489.163Z" fill="white"/>
<path d="M535.949 477.777H532.807V485.913H535.949V477.777Z" fill="white"/>
<path d="M535.949 466.391H532.807V474.527H535.949V466.391Z" fill="white"/>
<path d="M541.105 546.09H537.964V554.226H541.105V546.09Z" fill="white"/>
<path d="M541.105 534.704H537.964V542.84H541.105V534.704Z" fill="white"/>
<path d="M541.105 523.32H537.964V531.455H541.105V523.32Z" fill="white"/>
<path d="M541.105 511.934H537.964V520.069H541.105V511.934Z" fill="white"/>
<path d="M541.105 500.548H537.964V508.683H541.105V500.548Z" fill="white"/>
<path d="M541.105 489.163H537.964V497.299H541.105V489.163Z" fill="white"/>
<path d="M541.105 477.777H537.964V485.913H541.105V477.777Z" fill="white"/>
<path d="M541.105 466.391H537.964V474.527H541.105V466.391Z" fill="white"/>
<path d="M622.173 294.04V280.991H614.752V255.383H602.433L597.627 192.7L592.821 255.383H580.503V280.991H573.083V294.04H564.599V589.435H630.655V294.04H622.173Z" fill="url(#paint1_linear_18:442)"/>
<path d="M572.126 470.415H569.128V473.891H572.126V470.415Z" fill="white"/>
<path d="M572.126 464.258H569.128V467.734H572.126V464.258Z" fill="white"/>
<path d="M572.126 458.103H569.128V461.579H572.126V458.103Z" fill="white"/>
<path d="M572.126 451.947H569.128V455.422H572.126V451.947Z" fill="white"/>
<path d="M572.126 445.79H569.128V449.265H572.126V445.79Z" fill="white"/>
<path d="M572.126 439.635H569.128V443.111H572.126V439.635Z" fill="white"/>
<path d="M572.126 433.478H569.128V436.954H572.126V433.478Z" fill="white"/>
<path d="M572.126 427.323H569.128V430.799H572.126V427.323Z" fill="white"/>
<path d="M572.126 421.166H569.128V424.642H572.126V421.166Z" fill="white"/>
<path d="M572.126 415.011H569.128V418.487H572.126V415.011Z" fill="white"/>
<path d="M572.126 408.855H569.128V412.33H572.126V408.855Z" fill="white"/>
<path d="M572.126 402.698H569.128V406.173H572.126V402.698Z" fill="white"/>
<path d="M572.126 396.543H569.128V400.018H572.126V396.543Z" fill="white"/>
<path d="M572.126 390.386H569.128V393.862H572.126V390.386Z" fill="white"/>
<path d="M572.126 384.231H569.128V387.707H572.126V384.231Z" fill="white"/>
<path d="M572.126 378.074H569.128V381.55H572.126V378.074Z" fill="white"/>
<path d="M572.126 371.918H569.128V375.393H572.126V371.918Z" fill="white"/>
<path d="M572.126 365.763H569.128V369.238H572.126V365.763Z" fill="white"/>
<path d="M572.126 359.606H569.128V363.081H572.126V359.606Z" fill="white"/>
<path d="M572.126 353.451H569.128V356.927H572.126V353.451Z" fill="white"/>
<path d="M572.126 347.294H569.128V350.77H572.126V347.294Z" fill="white"/>
<path d="M572.126 341.137H569.128V344.613H572.126V341.137Z" fill="white"/>
<path d="M572.126 334.982H569.128V338.458H572.126V334.982Z" fill="white"/>
<path d="M572.126 328.826H569.128V332.301H572.126V328.826Z" fill="white"/>
<path d="M572.126 322.671H569.128V326.146H572.126V322.671Z" fill="white"/>
<path d="M572.126 316.514H569.128V319.989H572.126V316.514Z" fill="white"/>
<path d="M572.126 310.359H569.128V313.835H572.126V310.359Z" fill="white"/>
<path d="M572.126 304.202H569.128V307.678H572.126V304.202Z" fill="white"/>
<path d="M577.035 470.415H574.038V473.891H577.035V470.415Z" fill="white"/>
<path d="M577.035 464.258H574.038V467.734H577.035V464.258Z" fill="white"/>
<path d="M577.035 458.103H574.038V461.579H577.035V458.103Z" fill="white"/>
<path d="M577.035 451.947H574.038V455.422H577.035V451.947Z" fill="white"/>
<path d="M577.035 445.79H574.038V449.265H577.035V445.79Z" fill="white"/>
<path d="M577.035 439.635H574.038V443.111H577.035V439.635Z" fill="white"/>
<path d="M577.035 433.478H574.038V436.954H577.035V433.478Z" fill="white"/>
<path d="M577.035 427.323H574.038V430.799H577.035V427.323Z" fill="white"/>
<path d="M577.035 421.166H574.038V424.642H577.035V421.166Z" fill="white"/>
<path d="M577.035 415.011H574.038V418.487H577.035V415.011Z" fill="white"/>
<path d="M577.035 408.855H574.038V412.33H577.035V408.855Z" fill="white"/>
<path d="M577.035 402.698H574.038V406.173H577.035V402.698Z" fill="white"/>
<path d="M577.035 396.543H574.038V400.018H577.035V396.543Z" fill="white"/>
<path d="M577.035 390.386H574.038V393.862H577.035V390.386Z" fill="white"/>
<path d="M577.035 384.231H574.038V387.707H577.035V384.231Z" fill="white"/>
<path d="M577.035 378.074H574.038V381.55H577.035V378.074Z" fill="white"/>
<path d="M577.035 371.918H574.038V375.393H577.035V371.918Z" fill="white"/>
<path d="M577.035 365.763H574.038V369.238H577.035V365.763Z" fill="white"/>
<path d="M577.035 359.606H574.038V363.081H577.035V359.606Z" fill="white"/>
<path d="M577.035 353.451H574.038V356.927H577.035V353.451Z" fill="white"/>
<path d="M577.035 347.294H574.038V350.77H577.035V347.294Z" fill="white"/>
<path d="M577.035 341.137H574.038V344.613H577.035V341.137Z" fill="white"/>
<path d="M577.035 334.982H574.038V338.458H577.035V334.982Z" fill="white"/>
<path d="M577.035 328.826H574.038V332.301H577.035V328.826Z" fill="white"/>
<path d="M577.035 322.671H574.038V326.146H577.035V322.671Z" fill="white"/>
<path d="M577.035 316.514H574.038V319.989H577.035V316.514Z" fill="white"/>
<path d="M577.035 310.359H574.038V313.835H577.035V310.359Z" fill="white"/>
<path d="M577.035 304.202H574.038V307.678H577.035V304.202Z" fill="white"/>
<path d="M581.945 470.415H578.947V473.891H581.945V470.415Z" fill="white"/>
<path d="M581.945 464.258H578.947V467.734H581.945V464.258Z" fill="white"/>
<path d="M581.945 458.103H578.947V461.579H581.945V458.103Z" fill="white"/>
<path d="M581.945 451.947H578.947V455.422H581.945V451.947Z" fill="white"/>
<path d="M581.945 445.79H578.947V449.265H581.945V445.79Z" fill="white"/>
<path d="M581.945 439.635H578.947V443.111H581.945V439.635Z" fill="white"/>
<path d="M581.945 433.478H578.947V436.954H581.945V433.478Z" fill="white"/>
<path d="M581.945 427.323H578.947V430.799H581.945V427.323Z" fill="white"/>
<path d="M581.945 421.166H578.947V424.642H581.945V421.166Z" fill="white"/>
<path d="M581.945 415.011H578.947V418.487H581.945V415.011Z" fill="white"/>
<path d="M581.945 408.855H578.947V412.33H581.945V408.855Z" fill="white"/>
<path d="M581.945 402.698H578.947V406.173H581.945V402.698Z" fill="white"/>
<path d="M581.945 396.543H578.947V400.018H581.945V396.543Z" fill="white"/>
<path d="M581.945 390.386H578.947V393.862H581.945V390.386Z" fill="white"/>
<path d="M581.945 384.231H578.947V387.707H581.945V384.231Z" fill="white"/>
<path d="M581.945 378.074H578.947V381.55H581.945V378.074Z" fill="white"/>
<path d="M581.945 371.918H578.947V375.393H581.945V371.918Z" fill="white"/>
<path d="M581.945 365.763H578.947V369.238H581.945V365.763Z" fill="white"/>
<path d="M581.945 359.606H578.947V363.081H581.945V359.606Z" fill="white"/>
<path d="M581.945 353.451H578.947V356.927H581.945V353.451Z" fill="white"/>
<path d="M581.945 347.294H578.947V350.77H581.945V347.294Z" fill="white"/>
<path d="M581.945 341.137H578.947V344.613H581.945V341.137Z" fill="white"/>
<path d="M581.945 334.982H578.947V338.458H581.945V334.982Z" fill="white"/>
<path d="M581.945 328.826H578.947V332.301H581.945V328.826Z" fill="white"/>
<path d="M581.945 322.671H578.947V326.146H581.945V322.671Z" fill="white"/>
<path d="M581.945 316.514H578.947V319.989H581.945V316.514Z" fill="white"/>
<path d="M581.945 310.359H578.947V313.835H581.945V310.359Z" fill="white"/>
<path d="M581.945 304.202H578.947V307.678H581.945V304.202Z" fill="white"/>
<path d="M586.854 470.415H583.856V473.891H586.854V470.415Z" fill="white"/>
<path d="M586.854 464.258H583.856V467.734H586.854V464.258Z" fill="white"/>
<path d="M586.854 458.103H583.856V461.579H586.854V458.103Z" fill="white"/>
<path d="M586.854 451.947H583.856V455.422H586.854V451.947Z" fill="white"/>
<path d="M586.854 445.79H583.856V449.265H586.854V445.79Z" fill="white"/>
<path d="M586.854 439.635H583.856V443.111H586.854V439.635Z" fill="white"/>
<path d="M586.854 433.478H583.856V436.954H586.854V433.478Z" fill="white"/>
<path d="M586.854 427.323H583.856V430.799H586.854V427.323Z" fill="white"/>
<path d="M586.854 421.166H583.856V424.642H586.854V421.166Z" fill="white"/>
<path d="M586.854 415.011H583.856V418.487H586.854V415.011Z" fill="white"/>
<path d="M586.854 408.855H583.856V412.33H586.854V408.855Z" fill="white"/>
<path d="M586.854 402.698H583.856V406.173H586.854V402.698Z" fill="white"/>
<path d="M586.854 396.543H583.856V400.018H586.854V396.543Z" fill="white"/>
<path d="M586.854 390.386H583.856V393.862H586.854V390.386Z" fill="white"/>
<path d="M586.854 384.231H583.856V387.707H586.854V384.231Z" fill="white"/>
<path d="M586.854 378.074H583.856V381.55H586.854V378.074Z" fill="white"/>
<path d="M586.854 371.918H583.856V375.393H586.854V371.918Z" fill="white"/>
<path d="M586.854 365.763H583.856V369.238H586.854V365.763Z" fill="white"/>
<path d="M586.854 359.606H583.856V363.081H586.854V359.606Z" fill="white"/>
<path d="M586.854 353.451H583.856V356.927H586.854V353.451Z" fill="white"/>
<path d="M586.854 347.294H583.856V350.77H586.854V347.294Z" fill="white"/>
<path d="M586.854 341.137H583.856V344.613H586.854V341.137Z" fill="white"/>
<path d="M586.854 334.982H583.856V338.458H586.854V334.982Z" fill="white"/>
<path d="M586.854 328.826H583.856V332.301H586.854V328.826Z" fill="white"/>
<path d="M586.854 322.671H583.856V326.146H586.854V322.671Z" fill="white"/>
<path d="M586.854 316.514H583.856V319.989H586.854V316.514Z" fill="white"/>
<path d="M586.854 310.359H583.856V313.835H586.854V310.359Z" fill="white"/>
<path d="M586.854 304.202H583.856V307.678H586.854V304.202Z" fill="white"/>
<path d="M591.765 470.415H588.765V473.891H591.765V470.415Z" fill="white"/>
<path d="M591.765 464.258H588.765V467.734H591.765V464.258Z" fill="white"/>
<path d="M591.765 458.103H588.765V461.579H591.765V458.103Z" fill="white"/>
<path d="M591.765 451.947H588.765V455.422H591.765V451.947Z" fill="white"/>
<path d="M591.765 445.79H588.765V449.265H591.765V445.79Z" fill="white"/>
<path d="M591.765 439.635H588.765V443.111H591.765V439.635Z" fill="white"/>
<path d="M591.765 433.478H588.765V436.954H591.765V433.478Z" fill="white"/>
<path d="M591.765 427.323H588.765V430.799H591.765V427.323Z" fill="white"/>
<path d="M591.765 421.166H588.765V424.642H591.765V421.166Z" fill="white"/>
<path d="M591.765 415.011H588.765V418.487H591.765V415.011Z" fill="white"/>
<path d="M591.765 408.855H588.765V412.33H591.765V408.855Z" fill="white"/>
<path d="M591.765 402.698H588.765V406.173H591.765V402.698Z" fill="white"/>
<path d="M591.765 396.543H588.765V400.018H591.765V396.543Z" fill="white"/>
<path d="M591.765 390.386H588.765V393.862H591.765V390.386Z" fill="white"/>
<path d="M591.765 384.231H588.765V387.707H591.765V384.231Z" fill="white"/>
<path d="M591.765 378.074H588.765V381.55H591.765V378.074Z" fill="white"/>
<path d="M591.765 371.918H588.765V375.393H591.765V371.918Z" fill="white"/>
<path d="M591.765 365.763H588.765V369.238H591.765V365.763Z" fill="white"/>
<path d="M591.765 359.606H588.765V363.081H591.765V359.606Z" fill="white"/>
<path d="M591.765 353.451H588.765V356.927H591.765V353.451Z" fill="white"/>
<path d="M591.765 347.294H588.765V350.77H591.765V347.294Z" fill="white"/>
<path d="M591.765 341.137H588.765V344.613H591.765V341.137Z" fill="white"/>
<path d="M591.765 334.982H588.765V338.458H591.765V334.982Z" fill="white"/>
<path d="M591.765 328.826H588.765V332.301H591.765V328.826Z" fill="white"/>
<path d="M591.765 322.671H588.765V326.146H591.765V322.671Z" fill="white"/>
<path d="M591.765 316.514H588.765V319.989H591.765V316.514Z" fill="white"/>
<path d="M591.765 310.359H588.765V313.835H591.765V310.359Z" fill="white"/>
<path d="M591.765 304.202H588.765V307.678H591.765V304.202Z" fill="white"/>
<path d="M596.672 470.415H593.675V473.891H596.672V470.415Z" fill="white"/>
<path d="M596.672 464.258H593.675V467.734H596.672V464.258Z" fill="white"/>
<path d="M596.672 458.103H593.675V461.579H596.672V458.103Z" fill="white"/>
<path d="M596.672 451.947H593.675V455.422H596.672V451.947Z" fill="white"/>
<path d="M596.672 445.79H593.675V449.265H596.672V445.79Z" fill="white"/>
<path d="M596.672 439.635H593.675V443.111H596.672V439.635Z" fill="white"/>
<path d="M596.672 433.478H593.675V436.954H596.672V433.478Z" fill="white"/>
<path d="M596.672 427.323H593.675V430.799H596.672V427.323Z" fill="white"/>
<path d="M596.672 421.166H593.675V424.642H596.672V421.166Z" fill="white"/>
<path d="M596.672 415.011H593.675V418.487H596.672V415.011Z" fill="white"/>
<path d="M596.672 408.855H593.675V412.33H596.672V408.855Z" fill="white"/>
<path d="M596.672 402.698H593.675V406.173H596.672V402.698Z" fill="white"/>
<path d="M596.672 396.543H593.675V400.018H596.672V396.543Z" fill="white"/>
<path d="M596.672 390.386H593.675V393.862H596.672V390.386Z" fill="white"/>
<path d="M596.672 384.231H593.675V387.707H596.672V384.231Z" fill="white"/>
<path d="M596.672 378.074H593.675V381.55H596.672V378.074Z" fill="white"/>
<path d="M596.672 371.918H593.675V375.393H596.672V371.918Z" fill="white"/>
<path d="M596.672 365.763H593.675V369.238H596.672V365.763Z" fill="white"/>
<path d="M596.672 359.606H593.675V363.081H596.672V359.606Z" fill="white"/>
<path d="M596.672 353.451H593.675V356.927H596.672V353.451Z" fill="white"/>
<path d="M596.672 347.294H593.675V350.77H596.672V347.294Z" fill="white"/>
<path d="M596.672 341.137H593.675V344.613H596.672V341.137Z" fill="white"/>
<path d="M596.672 334.982H593.675V338.458H596.672V334.982Z" fill="white"/>
<path d="M596.672 328.826H593.675V332.301H596.672V328.826Z" fill="white"/>
<path d="M596.672 322.671H593.675V326.146H596.672V322.671Z" fill="white"/>
<path d="M596.672 316.514H593.675V319.989H596.672V316.514Z" fill="white"/>
<path d="M596.672 310.359H593.675V313.835H596.672V310.359Z" fill="white"/>
<path d="M596.672 304.202H593.675V307.678H596.672V304.202Z" fill="white"/>
<path d="M601.58 470.415H598.582V473.891H601.58V470.415Z" fill="white"/>
<path d="M601.58 464.258H598.582V467.734H601.58V464.258Z" fill="white"/>
<path d="M601.58 458.103H598.582V461.579H601.58V458.103Z" fill="white"/>
<path d="M601.58 451.947H598.582V455.422H601.58V451.947Z" fill="white"/>
<path d="M601.58 445.79H598.582V449.265H601.58V445.79Z" fill="white"/>
<path d="M601.58 439.635H598.582V443.111H601.58V439.635Z" fill="white"/>
<path d="M601.58 433.478H598.582V436.954H601.58V433.478Z" fill="white"/>
<path d="M601.58 427.323H598.582V430.799H601.58V427.323Z" fill="white"/>
<path d="M601.58 421.166H598.582V424.642H601.58V421.166Z" fill="white"/>
<path d="M601.58 415.011H598.582V418.487H601.58V415.011Z" fill="white"/>
<path d="M601.58 408.855H598.582V412.33H601.58V408.855Z" fill="white"/>
<path d="M601.58 402.698H598.582V406.173H601.58V402.698Z" fill="white"/>
<path d="M601.58 396.543H598.582V400.018H601.58V396.543Z" fill="white"/>
<path d="M601.58 390.386H598.582V393.862H601.58V390.386Z" fill="white"/>
<path d="M601.58 384.231H598.582V387.707H601.58V384.231Z" fill="white"/>
<path d="M601.58 378.074H598.582V381.55H601.58V378.074Z" fill="white"/>
<path d="M601.58 371.918H598.582V375.393H601.58V371.918Z" fill="white"/>
<path d="M601.58 365.763H598.582V369.238H601.58V365.763Z" fill="white"/>
<path d="M601.58 359.606H598.582V363.081H601.58V359.606Z" fill="white"/>
<path d="M601.58 353.451H598.582V356.927H601.58V353.451Z" fill="white"/>
<path d="M601.58 347.294H598.582V350.77H601.58V347.294Z" fill="white"/>
<path d="M601.58 341.137H598.582V344.613H601.58V341.137Z" fill="white"/>
<path d="M601.58 334.982H598.582V338.458H601.58V334.982Z" fill="white"/>
<path d="M601.58 328.826H598.582V332.301H601.58V328.826Z" fill="white"/>
<path d="M601.58 322.671H598.582V326.146H601.58V322.671Z" fill="white"/>
<path d="M601.58 316.514H598.582V319.989H601.58V316.514Z" fill="white"/>
<path d="M601.58 310.359H598.582V313.835H601.58V310.359Z" fill="white"/>
<path d="M601.58 304.202H598.582V307.678H601.58V304.202Z" fill="white"/>
<path d="M606.489 470.415H603.491V473.891H606.489V470.415Z" fill="white"/>
<path d="M606.489 464.258H603.491V467.734H606.489V464.258Z" fill="white"/>
<path d="M606.489 458.103H603.491V461.579H606.489V458.103Z" fill="white"/>
<path d="M606.489 451.947H603.491V455.422H606.489V451.947Z" fill="white"/>
<path d="M606.489 445.79H603.491V449.265H606.489V445.79Z" fill="white"/>
<path d="M606.489 439.635H603.491V443.111H606.489V439.635Z" fill="white"/>
<path d="M606.489 433.478H603.491V436.954H606.489V433.478Z" fill="white"/>
<path d="M606.489 427.323H603.491V430.799H606.489V427.323Z" fill="white"/>
<path d="M606.489 421.166H603.491V424.642H606.489V421.166Z" fill="white"/>
<path d="M606.489 415.011H603.491V418.487H606.489V415.011Z" fill="white"/>
<path d="M606.489 408.855H603.491V412.33H606.489V408.855Z" fill="white"/>
<path d="M606.489 402.698H603.491V406.173H606.489V402.698Z" fill="white"/>
<path d="M606.489 396.543H603.491V400.018H606.489V396.543Z" fill="white"/>
<path d="M606.489 390.386H603.491V393.862H606.489V390.386Z" fill="white"/>
<path d="M606.489 384.231H603.491V387.707H606.489V384.231Z" fill="white"/>
<path d="M606.489 378.074H603.491V381.55H606.489V378.074Z" fill="white"/>
<path d="M606.489 371.918H603.491V375.393H606.489V371.918Z" fill="white"/>
<path d="M606.489 365.763H603.491V369.238H606.489V365.763Z" fill="white"/>
<path d="M606.489 359.606H603.491V363.081H606.489V359.606Z" fill="white"/>
<path d="M606.489 353.451H603.491V356.927H606.489V353.451Z" fill="white"/>
<path d="M606.489 347.294H603.491V350.77H606.489V347.294Z" fill="white"/>
<path d="M606.489 341.137H603.491V344.613H606.489V341.137Z" fill="white"/>
<path d="M606.489 334.982H603.491V338.458H606.489V334.982Z" fill="white"/>
<path d="M606.489 328.826H603.491V332.301H606.489V328.826Z" fill="white"/>
<path d="M606.489 322.671H603.491V326.146H606.489V322.671Z" fill="white"/>
<path d="M606.489 316.514H603.491V319.989H606.489V316.514Z" fill="white"/>
<path d="M606.489 310.359H603.491V313.835H606.489V310.359Z" fill="white"/>
<path d="M606.489 304.202H603.491V307.678H606.489V304.202Z" fill="white"/>
<path d="M611.398 470.415H608.4V473.891H611.398V470.415Z" fill="white"/>
<path d="M611.398 464.258H608.4V467.734H611.398V464.258Z" fill="white"/>
<path d="M611.398 458.103H608.4V461.579H611.398V458.103Z" fill="white"/>
<path d="M611.398 451.947H608.4V455.422H611.398V451.947Z" fill="white"/>
<path d="M611.398 445.79H608.4V449.265H611.398V445.79Z" fill="white"/>
<path d="M611.398 439.635H608.4V443.111H611.398V439.635Z" fill="white"/>
<path d="M611.398 433.478H608.4V436.954H611.398V433.478Z" fill="white"/>
<path d="M611.398 427.323H608.4V430.799H611.398V427.323Z" fill="white"/>
<path d="M611.398 421.166H608.4V424.642H611.398V421.166Z" fill="white"/>
<path d="M611.398 415.011H608.4V418.487H611.398V415.011Z" fill="white"/>
<path d="M611.398 408.855H608.4V412.33H611.398V408.855Z" fill="white"/>
<path d="M611.398 402.698H608.4V406.173H611.398V402.698Z" fill="white"/>
<path d="M611.398 396.543H608.4V400.018H611.398V396.543Z" fill="white"/>
<path d="M611.398 390.386H608.4V393.862H611.398V390.386Z" fill="white"/>
<path d="M611.398 384.231H608.4V387.707H611.398V384.231Z" fill="white"/>
<path d="M611.398 378.074H608.4V381.55H611.398V378.074Z" fill="white"/>
<path d="M611.398 371.918H608.4V375.393H611.398V371.918Z" fill="white"/>
<path d="M611.398 365.763H608.4V369.238H611.398V365.763Z" fill="white"/>
<path d="M611.398 359.606H608.4V363.081H611.398V359.606Z" fill="white"/>
<path d="M611.398 353.451H608.4V356.927H611.398V353.451Z" fill="white"/>
<path d="M611.398 347.294H608.4V350.77H611.398V347.294Z" fill="white"/>
<path d="M611.398 341.137H608.4V344.613H611.398V341.137Z" fill="white"/>
<path d="M611.398 334.982H608.4V338.458H611.398V334.982Z" fill="white"/>
<path d="M611.398 328.826H608.4V332.301H611.398V328.826Z" fill="white"/>
<path d="M611.398 322.671H608.4V326.146H611.398V322.671Z" fill="white"/>
<path d="M611.398 316.514H608.4V319.989H611.398V316.514Z" fill="white"/>
<path d="M611.398 310.359H608.4V313.835H611.398V310.359Z" fill="white"/>
<path d="M611.398 304.202H608.4V307.678H611.398V304.202Z" fill="white"/>
<path d="M616.307 470.415H613.31V473.891H616.307V470.415Z" fill="white"/>
<path d="M616.307 464.258H613.31V467.734H616.307V464.258Z" fill="white"/>
<path d="M616.307 458.103H613.31V461.579H616.307V458.103Z" fill="white"/>
<path d="M616.307 451.947H613.31V455.422H616.307V451.947Z" fill="white"/>
<path d="M616.307 445.79H613.31V449.265H616.307V445.79Z" fill="white"/>
<path d="M616.307 439.635H613.31V443.111H616.307V439.635Z" fill="white"/>
<path d="M616.307 433.478H613.31V436.954H616.307V433.478Z" fill="white"/>
<path d="M616.307 427.323H613.31V430.799H616.307V427.323Z" fill="white"/>
<path d="M616.307 421.166H613.31V424.642H616.307V421.166Z" fill="white"/>
<path d="M616.307 415.011H613.31V418.487H616.307V415.011Z" fill="white"/>
<path d="M616.307 408.855H613.31V412.33H616.307V408.855Z" fill="white"/>
<path d="M616.307 402.698H613.31V406.173H616.307V402.698Z" fill="white"/>
<path d="M616.307 396.543H613.31V400.018H616.307V396.543Z" fill="white"/>
<path d="M616.307 390.386H613.31V393.862H616.307V390.386Z" fill="white"/>
<path d="M616.307 384.231H613.31V387.707H616.307V384.231Z" fill="white"/>
<path d="M616.307 378.074H613.31V381.55H616.307V378.074Z" fill="white"/>
<path d="M616.307 371.918H613.31V375.393H616.307V371.918Z" fill="white"/>
<path d="M616.307 365.763H613.31V369.238H616.307V365.763Z" fill="white"/>
<path d="M616.307 359.606H613.31V363.081H616.307V359.606Z" fill="white"/>
<path d="M616.307 353.451H613.31V356.927H616.307V353.451Z" fill="white"/>
<path d="M616.307 347.294H613.31V350.77H616.307V347.294Z" fill="white"/>
<path d="M616.307 341.137H613.31V344.613H616.307V341.137Z" fill="white"/>
<path d="M616.307 334.982H613.31V338.458H616.307V334.982Z" fill="white"/>
<path d="M616.307 328.826H613.31V332.301H616.307V328.826Z" fill="white"/>
<path d="M616.307 322.671H613.31V326.146H616.307V322.671Z" fill="white"/>
<path d="M616.307 316.514H613.31V319.989H616.307V316.514Z" fill="white"/>
<path d="M616.307 310.359H613.31V313.835H616.307V310.359Z" fill="white"/>
<path d="M616.307 304.202H613.31V307.678H616.307V304.202Z" fill="white"/>
<path d="M621.217 470.415H618.219V473.891H621.217V470.415Z" fill="white"/>
<path d="M621.217 464.258H618.219V467.734H621.217V464.258Z" fill="white"/>
<path d="M621.217 458.103H618.219V461.579H621.217V458.103Z" fill="white"/>
<path d="M621.217 451.947H618.219V455.422H621.217V451.947Z" fill="white"/>
<path d="M621.217 445.79H618.219V449.265H621.217V445.79Z" fill="white"/>
<path d="M621.217 439.635H618.219V443.111H621.217V439.635Z" fill="white"/>
<path d="M621.217 433.478H618.219V436.954H621.217V433.478Z" fill="white"/>
<path d="M621.217 427.323H618.219V430.799H621.217V427.323Z" fill="white"/>
<path d="M621.217 421.166H618.219V424.642H621.217V421.166Z" fill="white"/>
<path d="M621.217 415.011H618.219V418.487H621.217V415.011Z" fill="white"/>
<path d="M621.217 408.855H618.219V412.33H621.217V408.855Z" fill="white"/>
<path d="M621.217 402.698H618.219V406.173H621.217V402.698Z" fill="white"/>
<path d="M621.217 396.543H618.219V400.018H621.217V396.543Z" fill="white"/>
<path d="M621.217 390.386H618.219V393.862H621.217V390.386Z" fill="white"/>
<path d="M621.217 384.231H618.219V387.707H621.217V384.231Z" fill="white"/>
<path d="M621.217 378.074H618.219V381.55H621.217V378.074Z" fill="white"/>
<path d="M621.217 371.918H618.219V375.393H621.217V371.918Z" fill="white"/>
<path d="M621.217 365.763H618.219V369.238H621.217V365.763Z" fill="white"/>
<path d="M621.217 359.606H618.219V363.081H621.217V359.606Z" fill="white"/>
<path d="M621.217 353.451H618.219V356.927H621.217V353.451Z" fill="white"/>
<path d="M621.217 347.294H618.219V350.77H621.217V347.294Z" fill="white"/>
<path d="M621.217 341.137H618.219V344.613H621.217V341.137Z" fill="white"/>
<path d="M621.217 334.982H618.219V338.458H621.217V334.982Z" fill="white"/>
<path d="M621.217 328.826H618.219V332.301H621.217V328.826Z" fill="white"/>
<path d="M621.217 322.671H618.219V326.146H621.217V322.671Z" fill="white"/>
<path d="M621.217 316.514H618.219V319.989H621.217V316.514Z" fill="white"/>
<path d="M621.217 310.359H618.219V313.835H621.217V310.359Z" fill="white"/>
<path d="M621.217 304.202H618.219V307.678H621.217V304.202Z" fill="white"/>
<path d="M626.126 470.415H623.128V473.891H626.126V470.415Z" fill="white"/>
<path d="M626.126 464.258H623.128V467.734H626.126V464.258Z" fill="white"/>
<path d="M626.126 458.103H623.128V461.579H626.126V458.103Z" fill="white"/>
<path d="M626.126 451.947H623.128V455.422H626.126V451.947Z" fill="white"/>
<path d="M626.126 445.79H623.128V449.265H626.126V445.79Z" fill="white"/>
<path d="M626.126 439.635H623.128V443.111H626.126V439.635Z" fill="white"/>
<path d="M626.126 433.478H623.128V436.954H626.126V433.478Z" fill="white"/>
<path d="M626.126 427.323H623.128V430.799H626.126V427.323Z" fill="white"/>
<path d="M626.126 421.166H623.128V424.642H626.126V421.166Z" fill="white"/>
<path d="M626.126 415.011H623.128V418.487H626.126V415.011Z" fill="white"/>
<path d="M626.126 408.855H623.128V412.33H626.126V408.855Z" fill="white"/>
<path d="M626.126 402.698H623.128V406.173H626.126V402.698Z" fill="white"/>
<path d="M626.126 396.543H623.128V400.018H626.126V396.543Z" fill="white"/>
<path d="M626.126 390.386H623.128V393.862H626.126V390.386Z" fill="white"/>
<path d="M626.126 384.231H623.128V387.707H626.126V384.231Z" fill="white"/>
<path d="M572.126 556.599H569.128V560.075H572.126V556.599Z" fill="white"/>
<path d="M572.126 550.444H569.128V553.92H572.126V550.444Z" fill="white"/>
<path d="M572.126 544.287H569.128V547.763H572.126V544.287Z" fill="white"/>
<path d="M572.126 538.131H569.128V541.606H572.126V538.131Z" fill="white"/>
<path d="M572.126 531.976H569.128V535.451H572.126V531.976Z" fill="white"/>
<path d="M572.126 525.819H569.128V529.294H572.126V525.819Z" fill="white"/>
<path d="M572.126 519.664H569.128V523.139H572.126V519.664Z" fill="white"/>
<path d="M572.126 513.507H569.128V516.983H572.126V513.507Z" fill="white"/>
<path d="M572.126 507.35H569.128V510.826H572.126V507.35Z" fill="white"/>
<path d="M572.126 501.195H569.128V504.671H572.126V501.195Z" fill="white"/>
<path d="M572.126 495.039H569.128V498.514H572.126V495.039Z" fill="white"/>
<path d="M572.126 488.884H569.128V492.359H572.126V488.884Z" fill="white"/>
<path d="M572.126 482.727H569.128V486.202H572.126V482.727Z" fill="white"/>
<path d="M572.126 476.57H569.128V480.046H572.126V476.57Z" fill="white"/>
<path d="M577.035 556.599H574.038V560.075H577.035V556.599Z" fill="white"/>
<path d="M577.035 550.444H574.038V553.92H577.035V550.444Z" fill="white"/>
<path d="M577.035 544.287H574.038V547.763H577.035V544.287Z" fill="white"/>
<path d="M577.035 538.131H574.038V541.606H577.035V538.131Z" fill="white"/>
<path d="M577.035 531.976H574.038V535.451H577.035V531.976Z" fill="white"/>
<path d="M577.035 525.819H574.038V529.294H577.035V525.819Z" fill="white"/>
<path d="M577.035 519.664H574.038V523.139H577.035V519.664Z" fill="white"/>
<path d="M577.035 513.507H574.038V516.983H577.035V513.507Z" fill="white"/>
<path d="M577.035 507.35H574.038V510.826H577.035V507.35Z" fill="white"/>
<path d="M577.035 501.195H574.038V504.671H577.035V501.195Z" fill="white"/>
<path d="M577.035 495.039H574.038V498.514H577.035V495.039Z" fill="white"/>
<path d="M577.035 488.884H574.038V492.359H577.035V488.884Z" fill="white"/>
<path d="M577.035 482.727H574.038V486.202H577.035V482.727Z" fill="white"/>
<path d="M577.035 476.57H574.038V480.046H577.035V476.57Z" fill="white"/>
<path d="M581.945 556.599H578.947V560.075H581.945V556.599Z" fill="white"/>
<path d="M581.945 550.444H578.947V553.92H581.945V550.444Z" fill="white"/>
<path d="M581.945 544.287H578.947V547.763H581.945V544.287Z" fill="white"/>
<path d="M581.945 538.131H578.947V541.606H581.945V538.131Z" fill="white"/>
<path d="M581.945 531.976H578.947V535.451H581.945V531.976Z" fill="white"/>
<path d="M581.945 525.819H578.947V529.294H581.945V525.819Z" fill="white"/>
<path d="M581.945 519.664H578.947V523.139H581.945V519.664Z" fill="white"/>
<path d="M581.945 513.507H578.947V516.983H581.945V513.507Z" fill="white"/>
<path d="M581.945 507.35H578.947V510.826H581.945V507.35Z" fill="white"/>
<path d="M581.945 501.195H578.947V504.671H581.945V501.195Z" fill="white"/>
<path d="M581.945 495.039H578.947V498.514H581.945V495.039Z" fill="white"/>
<path d="M581.945 488.884H578.947V492.359H581.945V488.884Z" fill="white"/>
<path d="M581.945 482.727H578.947V486.202H581.945V482.727Z" fill="white"/>
<path d="M581.945 476.57H578.947V480.046H581.945V476.57Z" fill="white"/>
<path d="M586.854 556.599H583.856V560.075H586.854V556.599Z" fill="white"/>
<path d="M586.854 550.444H583.856V553.92H586.854V550.444Z" fill="white"/>
<path d="M586.854 544.287H583.856V547.763H586.854V544.287Z" fill="white"/>
<path d="M586.854 538.131H583.856V541.606H586.854V538.131Z" fill="white"/>
<path d="M586.854 531.976H583.856V535.451H586.854V531.976Z" fill="white"/>
<path d="M586.854 525.819H583.856V529.294H586.854V525.819Z" fill="white"/>
<path d="M586.854 519.664H583.856V523.139H586.854V519.664Z" fill="white"/>
<path d="M586.854 513.507H583.856V516.983H586.854V513.507Z" fill="white"/>
<path d="M586.854 507.35H583.856V510.826H586.854V507.35Z" fill="white"/>
<path d="M586.854 501.195H583.856V504.671H586.854V501.195Z" fill="white"/>
<path d="M586.854 495.039H583.856V498.514H586.854V495.039Z" fill="white"/>
<path d="M586.854 488.884H583.856V492.359H586.854V488.884Z" fill="white"/>
<path d="M586.854 482.727H583.856V486.202H586.854V482.727Z" fill="white"/>
<path d="M586.854 476.57H583.856V480.046H586.854V476.57Z" fill="white"/>
<path d="M591.765 556.599H588.765V560.075H591.765V556.599Z" fill="white"/>
<path d="M591.765 550.444H588.765V553.92H591.765V550.444Z" fill="white"/>
<path d="M591.765 544.287H588.765V547.763H591.765V544.287Z" fill="white"/>
<path d="M591.765 538.131H588.765V541.606H591.765V538.131Z" fill="white"/>
<path d="M591.765 531.976H588.765V535.451H591.765V531.976Z" fill="white"/>
<path d="M591.765 525.819H588.765V529.294H591.765V525.819Z" fill="white"/>
<path d="M591.765 519.664H588.765V523.139H591.765V519.664Z" fill="white"/>
<path d="M591.765 513.507H588.765V516.983H591.765V513.507Z" fill="white"/>
<path d="M591.765 507.35H588.765V510.826H591.765V507.35Z" fill="white"/>
<path d="M591.765 501.195H588.765V504.671H591.765V501.195Z" fill="white"/>
<path d="M591.765 495.039H588.765V498.514H591.765V495.039Z" fill="white"/>
<path d="M591.765 488.884H588.765V492.359H591.765V488.884Z" fill="white"/>
<path d="M591.765 482.727H588.765V486.202H591.765V482.727Z" fill="white"/>
<path d="M591.765 476.57H588.765V480.046H591.765V476.57Z" fill="white"/>
<path d="M596.672 556.599H593.675V560.075H596.672V556.599Z" fill="white"/>
<path d="M596.672 550.444H593.675V553.92H596.672V550.444Z" fill="white"/>
<path d="M596.672 544.287H593.675V547.763H596.672V544.287Z" fill="white"/>
<path d="M596.672 538.131H593.675V541.606H596.672V538.131Z" fill="white"/>
<path d="M596.672 531.976H593.675V535.451H596.672V531.976Z" fill="white"/>
<path d="M596.672 525.819H593.675V529.294H596.672V525.819Z" fill="white"/>
<path d="M596.672 519.664H593.675V523.139H596.672V519.664Z" fill="white"/>
<path d="M596.672 513.507H593.675V516.983H596.672V513.507Z" fill="white"/>
<path d="M596.672 507.35H593.675V510.826H596.672V507.35Z" fill="white"/>
<path d="M596.672 501.195H593.675V504.671H596.672V501.195Z" fill="white"/>
<path d="M596.672 495.039H593.675V498.514H596.672V495.039Z" fill="white"/>
<path d="M596.672 488.884H593.675V492.359H596.672V488.884Z" fill="white"/>
<path d="M596.672 482.727H593.675V486.202H596.672V482.727Z" fill="white"/>
<path d="M596.672 476.57H593.675V480.046H596.672V476.57Z" fill="white"/>
<path d="M601.58 556.599H598.582V560.075H601.58V556.599Z" fill="white"/>
<path d="M601.58 550.444H598.582V553.92H601.58V550.444Z" fill="white"/>
<path d="M601.58 544.287H598.582V547.763H601.58V544.287Z" fill="white"/>
<path d="M601.58 538.131H598.582V541.606H601.58V538.131Z" fill="white"/>
<path d="M601.58 531.976H598.582V535.451H601.58V531.976Z" fill="white"/>
<path d="M601.58 525.819H598.582V529.294H601.58V525.819Z" fill="white"/>
<path d="M601.58 519.664H598.582V523.139H601.58V519.664Z" fill="white"/>
<path d="M601.58 513.507H598.582V516.983H601.58V513.507Z" fill="white"/>
<path d="M601.58 507.35H598.582V510.826H601.58V507.35Z" fill="white"/>
<path d="M601.58 501.195H598.582V504.671H601.58V501.195Z" fill="white"/>
<path d="M601.58 495.039H598.582V498.514H601.58V495.039Z" fill="white"/>
<path d="M601.58 488.884H598.582V492.359H601.58V488.884Z" fill="white"/>
<path d="M601.58 482.727H598.582V486.202H601.58V482.727Z" fill="white"/>
<path d="M601.58 476.57H598.582V480.046H601.58V476.57Z" fill="white"/>
<path d="M606.489 556.599H603.491V560.075H606.489V556.599Z" fill="white"/>
<path d="M606.489 550.444H603.491V553.92H606.489V550.444Z" fill="white"/>
<path d="M606.489 544.287H603.491V547.763H606.489V544.287Z" fill="white"/>
<path d="M606.489 538.131H603.491V541.606H606.489V538.131Z" fill="white"/>
<path d="M606.489 531.976H603.491V535.451H606.489V531.976Z" fill="white"/>
<path d="M606.489 525.819H603.491V529.294H606.489V525.819Z" fill="white"/>
<path d="M606.489 519.664H603.491V523.139H606.489V519.664Z" fill="white"/>
<path d="M606.489 513.507H603.491V516.983H606.489V513.507Z" fill="white"/>
<path d="M606.489 507.35H603.491V510.826H606.489V507.35Z" fill="white"/>
<path d="M606.489 501.195H603.491V504.671H606.489V501.195Z" fill="white"/>
<path d="M606.489 495.039H603.491V498.514H606.489V495.039Z" fill="white"/>
<path d="M606.489 488.884H603.491V492.359H606.489V488.884Z" fill="white"/>
<path d="M606.489 482.727H603.491V486.202H606.489V482.727Z" fill="white"/>
<path d="M606.489 476.57H603.491V480.046H606.489V476.57Z" fill="white"/>
<path d="M611.398 556.599H608.4V560.075H611.398V556.599Z" fill="white"/>
<path d="M611.398 550.444H608.4V553.92H611.398V550.444Z" fill="white"/>
<path d="M611.398 544.287H608.4V547.763H611.398V544.287Z" fill="white"/>
<path d="M611.398 538.131H608.4V541.606H611.398V538.131Z" fill="white"/>
<path d="M611.398 531.976H608.4V535.451H611.398V531.976Z" fill="white"/>
<path d="M611.398 525.819H608.4V529.294H611.398V525.819Z" fill="white"/>
<path d="M611.398 519.664H608.4V523.139H611.398V519.664Z" fill="white"/>
<path d="M611.398 513.507H608.4V516.983H611.398V513.507Z" fill="white"/>
<path d="M611.398 507.35H608.4V510.826H611.398V507.35Z" fill="white"/>
<path d="M611.398 501.195H608.4V504.671H611.398V501.195Z" fill="white"/>
<path d="M611.398 495.039H608.4V498.514H611.398V495.039Z" fill="white"/>
<path d="M611.398 488.884H608.4V492.359H611.398V488.884Z" fill="white"/>
<path d="M611.398 482.727H608.4V486.202H611.398V482.727Z" fill="white"/>
<path d="M611.398 476.57H608.4V480.046H611.398V476.57Z" fill="white"/>
<path d="M616.307 556.599H613.31V560.075H616.307V556.599Z" fill="white"/>
<path d="M616.307 550.444H613.31V553.92H616.307V550.444Z" fill="white"/>
<path d="M616.307 544.287H613.31V547.763H616.307V544.287Z" fill="white"/>
<path d="M616.307 538.131H613.31V541.606H616.307V538.131Z" fill="white"/>
<path d="M616.307 531.976H613.31V535.451H616.307V531.976Z" fill="white"/>
<path d="M616.307 525.819H613.31V529.294H616.307V525.819Z" fill="white"/>
<path d="M616.307 519.664H613.31V523.139H616.307V519.664Z" fill="white"/>
<path d="M616.307 513.507H613.31V516.983H616.307V513.507Z" fill="white"/>
<path d="M616.307 507.35H613.31V510.826H616.307V507.35Z" fill="white"/>
<path d="M616.307 501.195H613.31V504.671H616.307V501.195Z" fill="white"/>
<path d="M616.307 495.039H613.31V498.514H616.307V495.039Z" fill="white"/>
<path d="M616.307 488.884H613.31V492.359H616.307V488.884Z" fill="white"/>
<path d="M616.307 482.727H613.31V486.202H616.307V482.727Z" fill="white"/>
<path d="M616.307 476.57H613.31V480.046H616.307V476.57Z" fill="white"/>
<path d="M621.217 556.599H618.219V560.075H621.217V556.599Z" fill="white"/>
<path d="M621.217 550.444H618.219V553.92H621.217V550.444Z" fill="white"/>
<path d="M621.217 544.287H618.219V547.763H621.217V544.287Z" fill="white"/>
<path d="M621.217 538.131H618.219V541.606H621.217V538.131Z" fill="white"/>
<path d="M621.217 531.976H618.219V535.451H621.217V531.976Z" fill="white"/>
<path d="M621.217 525.819H618.219V529.294H621.217V525.819Z" fill="white"/>
<path d="M621.217 519.664H618.219V523.139H621.217V519.664Z" fill="white"/>
<path d="M621.217 513.507H618.219V516.983H621.217V513.507Z" fill="white"/>
<path d="M621.217 507.35H618.219V510.826H621.217V507.35Z" fill="white"/>
<path d="M621.217 501.195H618.219V504.671H621.217V501.195Z" fill="white"/>
<path d="M621.217 495.039H618.219V498.514H621.217V495.039Z" fill="white"/>
<path d="M621.217 488.884H618.219V492.359H621.217V488.884Z" fill="white"/>
<path d="M621.217 482.727H618.219V486.202H621.217V482.727Z" fill="white"/>
<path d="M621.217 476.57H618.219V480.046H621.217V476.57Z" fill="white"/>
<path d="M626.126 556.599H623.128V560.075H626.126V556.599Z" fill="white"/>
<path d="M626.126 550.444H623.128V553.92H626.126V550.444Z" fill="white"/>
<path d="M626.126 544.287H623.128V547.763H626.126V544.287Z" fill="white"/>
<path d="M626.126 538.131H623.128V541.606H626.126V538.131Z" fill="white"/>
<path d="M626.126 531.976H623.128V535.451H626.126V531.976Z" fill="white"/>
<path d="M626.126 525.819H623.128V529.294H626.126V525.819Z" fill="white"/>
<path d="M626.126 519.664H623.128V523.139H626.126V519.664Z" fill="white"/>
<path d="M626.126 513.507H623.128V516.983H626.126V513.507Z" fill="white"/>
<path d="M626.126 507.35H623.128V510.826H626.126V507.35Z" fill="white"/>
<path d="M626.126 501.195H623.128V504.671H626.126V501.195Z" fill="white"/>
<path d="M626.126 495.039H623.128V498.514H626.126V495.039Z" fill="white"/>
<path d="M626.126 488.884H623.128V492.359H626.126V488.884Z" fill="white"/>
<path d="M626.126 482.727H623.128V486.202H626.126V482.727Z" fill="white"/>
<path d="M626.126 476.57H623.128V480.046H626.126V476.57Z" fill="white"/>
<path d="M626.126 378.074H623.128V381.55H626.126V378.074Z" fill="white"/>
<path d="M626.126 371.918H623.128V375.393H626.126V371.918Z" fill="white"/>
<path d="M626.126 365.763H623.128V369.238H626.126V365.763Z" fill="white"/>
<path d="M626.126 359.606H623.128V363.081H626.126V359.606Z" fill="white"/>
<path d="M626.126 353.451H623.128V356.927H626.126V353.451Z" fill="white"/>
<path d="M626.126 347.294H623.128V350.77H626.126V347.294Z" fill="white"/>
<path d="M626.126 341.137H623.128V344.613H626.126V341.137Z" fill="white"/>
<path d="M626.126 334.982H623.128V338.458H626.126V334.982Z" fill="white"/>
<path d="M626.126 328.826H623.128V332.301H626.126V328.826Z" fill="white"/>
<path d="M626.126 322.671H623.128V326.146H626.126V322.671Z" fill="white"/>
<path d="M626.126 316.514H623.128V319.989H626.126V316.514Z" fill="white"/>
<path d="M626.126 310.359H623.128V313.835H626.126V310.359Z" fill="white"/>
<path d="M626.126 304.202H623.128V307.678H626.126V304.202Z" fill="white"/>
</g>
<path d="M545.485 132.943C525.233 133.413 508.721 149.916 508.239 170.168C508.033 178.84 510.729 186.869 515.413 193.372L515.404 193.376L515.776 193.882C515.794 193.906 515.811 193.93 515.828 193.952L542.85 230.707C545.228 233.942 550.096 233.84 552.337 230.508L576.761 194.196C581.384 187.147 584.554 179.779 584.554 171.094C584.556 149.717 566.976 132.444 545.485 132.943ZM546.392 198.848C530.545 198.848 517.7 186.003 517.7 170.156C517.7 154.31 530.545 141.465 546.392 141.465C562.238 141.465 575.084 154.31 575.084 170.156C575.084 186.003 562.238 198.848 546.392 198.848Z" fill="#FFCF03"/>
<g opacity="0.3">
<path opacity="0.3" d="M545.485 132.943C525.233 133.413 508.721 149.916 508.239 170.168C508.033 178.84 510.729 186.869 515.413 193.372L515.404 193.376L515.776 193.882C515.794 193.906 515.811 193.93 515.828 193.952L542.85 230.707C545.228 233.942 550.096 233.84 552.337 230.508L576.761 194.196C581.384 187.147 584.554 179.779 584.554 171.094C584.556 149.717 566.976 132.444 545.485 132.943ZM546.392 198.848C530.545 198.848 517.7 186.003 517.7 170.156C517.7 154.31 530.545 141.465 546.392 141.465C562.238 141.465 575.084 154.31 575.084 170.156C575.084 186.003 562.238 198.848 546.392 198.848Z" fill="black"/>
</g>
<path d="M543.223 132.943C522.972 133.413 506.459 149.916 505.978 170.168C505.771 178.84 508.468 186.869 513.152 193.372L513.142 193.376L513.514 193.882C513.531 193.906 513.55 193.93 513.566 193.952L540.588 230.707C542.967 233.942 547.835 233.84 550.076 230.508L574.5 194.196C579.123 187.147 582.291 179.779 582.291 171.094C582.293 149.717 564.715 132.444 543.223 132.943ZM544.131 193.677C532.13 193.677 522.401 183.948 522.401 171.947C522.401 159.946 532.13 150.217 544.131 150.217C556.132 150.217 565.861 159.946 565.861 171.947C565.859 183.948 556.132 193.677 544.131 193.677Z" fill="#FFCF03"/>
<path opacity="0.3" fill-rule="evenodd" clip-rule="evenodd" d="M16.168 494.468C21.434 499.491 25.2483 502.829 22.6688 508.175C20.0883 513.519 12.3521 515.752 6.43439 512.837C0.516148 509.921 -1.47242 500.523 1.10757 495.178C3.6868 489.833 10.902 489.445 16.168 494.468Z" fill="#CEE0F7"/>
<path opacity="0.3" fill-rule="evenodd" clip-rule="evenodd" d="M7.63228 479.647C1.25009 471.82 1.41719 460.944 3.3318 452.614C5.9547 441.205 13.1737 434.756 11.7995 429.238C7.45685 411.812 16.2661 397.835 27.605 393.015C38.9935 388.175 49.4523 395.3 46.4717 419.047C46.0406 422.481 45.3007 424.91 52.0376 433.17C58.7752 441.432 67.5468 462.214 53.6197 478.102C39.6909 493.989 18.9384 493.511 7.63228 479.647Z" fill="#CEE0F7"/>
<path opacity="0.3" fill-rule="evenodd" clip-rule="evenodd" d="M55.7253 494.94C59.2165 494.13 61.298 491.885 63.5115 490.594C65.9546 489.17 68.4342 488.817 70.3122 490.765C73.9087 494.495 73.3238 500.244 66.9732 506.49C65.5985 507.841 66.0629 514.895 62.0174 520.151C58.3775 524.881 46.2111 527.437 40.7767 520.736C35.385 514.086 37.4809 501.627 44.6986 497.372C47.6875 495.609 51.7663 495.859 55.7253 494.94Z" fill="#CEE0F7"/>
<path fill-rule="evenodd" clip-rule="evenodd" d="M29.273 405.841C29.7438 451.059 30.6106 496.277 31.0756 541.495L31.2046 553.6C31.3313 565.658 31.4946 577.724 31.5792 589.781C31.5938 590.442 31.3272 591.163 30.8643 591.638H27.023C26.5618 591.145 26.3175 590.516 26.3026 589.841C26.0476 577.96 26.6173 565.316 26.768 553.353L26.9291 541.165C27.5079 496.058 27.682 450.949 28.2671 405.842C28.2752 405.561 28.4991 405.333 28.7768 405.34C29.0547 405.341 29.2741 405.568 29.273 405.841Z" fill="#333333"/>
<path fill-rule="evenodd" clip-rule="evenodd" d="M27.9218 461.794L16.4134 444.126C16.3208 443.983 16.3602 443.791 16.501 443.697C16.6381 443.605 16.8229 443.641 16.9185 443.776L29.0653 461.002C29.2886 461.318 29.2149 461.755 28.9037 461.979C28.5912 462.204 28.1583 462.131 27.9369 461.815C27.9321 461.809 27.9256 461.8 27.9218 461.794Z" fill="#333333"/>
<path fill-rule="evenodd" clip-rule="evenodd" d="M28.687 440.109L36.3932 434.204C36.5108 434.114 36.6802 434.137 36.7688 434.256C36.8531 434.369 36.8367 434.527 36.7354 434.621L29.572 441.187C29.2883 441.447 28.8496 441.426 28.5916 441.139C28.3341 440.852 28.3553 440.408 28.6396 440.148C28.655 440.135 28.6714 440.121 28.687 440.109Z" fill="#333333"/>
<path fill-rule="evenodd" clip-rule="evenodd" d="M29.4892 529.559L62.9836 500.52C63.1676 500.36 63.4435 500.383 63.601 500.567C63.7558 500.749 63.7383 501.022 63.5619 501.183L30.7687 531.029C30.3714 531.391 29.7593 531.359 29.4011 530.957C29.0434 530.555 29.0755 529.937 29.4723 529.575C29.4774 529.57 29.4849 529.563 29.4892 529.559Z" fill="#333333"/>
<path fill-rule="evenodd" clip-rule="evenodd" d="M28.4325 519.605L9.80437 501.363C9.70643 501.268 9.70416 501.111 9.79907 501.013C9.89095 500.916 10.0409 500.912 10.1388 501L29.4818 518.467C29.7988 518.753 29.8253 519.244 29.5429 519.565C29.2592 519.884 28.773 519.913 28.4552 519.627C28.4476 519.619 28.4395 519.61 28.4325 519.605Z" fill="#333333"/>
<path fill-rule="evenodd" clip-rule="evenodd" d="M28.2726 430.819L22.8529 416.878C22.7678 416.66 22.8746 416.413 23.0901 416.327C23.3014 416.244 23.5397 416.345 23.6296 416.553L29.5529 430.283C29.7063 430.638 29.5458 431.05 29.1947 431.206C28.8441 431.36 28.4352 431.198 28.2817 430.843C28.2787 430.836 28.2749 430.826 28.2726 430.819Z" fill="#333333"/>
<path fill-rule="evenodd" clip-rule="evenodd" d="M28.7243 463.359L44.932 453.32C45.0561 453.243 45.2167 453.282 45.2924 453.407C45.3666 453.528 45.3315 453.686 45.2162 453.764L29.4768 464.537C29.159 464.754 28.7276 464.67 28.5125 464.35C28.298 464.029 28.3808 463.594 28.6988 463.377C28.7059 463.371 28.7162 463.365 28.7243 463.359Z" fill="#333333"/>
<path fill-rule="evenodd" clip-rule="evenodd" d="M49.2406 512.363L51.3137 502.818C51.3458 502.672 51.4892 502.579 51.6338 502.611C51.7699 502.642 51.8592 502.773 51.8418 502.91L50.607 512.603C50.558 512.987 50.2097 513.258 49.83 513.209C49.4489 513.159 49.1805 512.807 49.2308 512.423C49.2323 512.404 49.2366 512.382 49.2406 512.363Z" fill="#333333"/>
<line x1="78.5819" y1="585.554" x2="291.61" y2="585.554" stroke="#333333" stroke-width="3" stroke-linecap="round"/>
<line x1="182.596" y1="591.6" x2="395.624" y2="591.6" stroke="#333333" stroke-width="3" stroke-linecap="round"/>
<line x1="27.5756" y1="591.6" x2="164.594" y2="591.6" stroke="#333333" stroke-width="3" stroke-linecap="round"/>
<line x1="416.126" y1="591.6" x2="629.155" y2="591.6" stroke="#333333" stroke-width="3" stroke-linecap="round"/>
<line x1="313.613" y1="585.554" x2="526.642" y2="585.554" stroke="#333333" stroke-width="3" stroke-linecap="round"/>
<path d="M498.703 573.596C498.713 573.596 498.722 573.596 498.732 573.596C515.992 572.858 533.543 572.482 550.914 572.482C551.265 572.482 551.612 572.482 551.962 572.482C552.325 572.482 552.618 572.189 552.618 571.827C552.618 571.464 552.325 571.171 551.962 571.171C534.183 571.123 516.301 571.531 498.675 572.285C498.312 572.301 498.031 572.61 498.044 572.969C498.06 573.319 498.353 573.596 498.703 573.596Z" fill="#333333"/>
<path d="M500.435 567.396C500.454 567.396 500.48 567.396 500.499 567.393L535.602 563.886C535.965 563.851 536.23 563.526 536.195 563.167C536.16 562.804 535.832 562.517 535.475 562.575L500.371 566.082C500.008 566.117 499.744 566.442 499.782 566.801C499.814 567.145 500.101 567.396 500.435 567.396Z" fill="#333333"/>
<path d="M228.525 581.378C238.972 581.378 249.425 580.869 259.786 579.847C260.149 579.812 260.413 579.491 260.375 579.128C260.34 578.769 260.024 578.498 259.655 578.536C242.048 580.268 224.169 580.525 206.521 579.3C206.139 579.246 205.842 579.545 205.82 579.908C205.795 580.271 206.065 580.586 206.428 580.608C213.771 581.124 221.145 581.378 228.525 581.378Z" fill="#333333"/>
<path d="M241.582 573.994C241.936 573.994 242.229 573.711 242.238 573.355C242.248 572.992 241.961 572.689 241.598 572.68L213.267 571.894C213.261 571.894 213.254 571.894 213.248 571.894C212.895 571.894 212.602 572.177 212.592 572.533C212.583 572.896 212.869 573.199 213.232 573.208L241.56 573.994C241.57 573.994 241.576 573.994 241.582 573.994Z" fill="#333333"/>
<path d="M115.509 550.588C115.665 550.588 115.821 550.531 115.948 550.42C116.219 550.178 116.241 549.764 115.996 549.494C108.062 540.69 106.142 527.103 111.322 516.451C111.481 516.126 111.344 515.731 111.02 515.572C110.695 515.407 110.3 515.547 110.141 515.875C104.731 526.995 106.74 541.184 115.022 550.369C115.149 550.512 115.331 550.588 115.509 550.588Z" fill="#333333"/>
<path d="M105.441 544.662C105.53 544.662 105.623 544.643 105.712 544.605C106.043 544.455 106.189 544.067 106.043 543.736C102.696 536.279 101.582 527.733 102.897 519.672C102.954 519.315 102.712 518.975 102.353 518.917C101.971 518.876 101.655 519.105 101.598 519.462C100.242 527.772 101.391 536.581 104.839 544.274C104.951 544.519 105.19 544.662 105.441 544.662Z" fill="#333333"/>
<path d="M444.819 559.433C445.023 559.433 445.223 559.341 445.35 559.163C445.564 558.87 445.5 558.456 445.207 558.243C439.119 553.806 435.658 545.808 436.585 538.338C436.63 537.975 436.375 537.648 436.015 537.603C435.63 537.555 435.327 537.813 435.279 538.173C434.28 546.225 437.871 554.519 444.43 559.303C444.551 559.392 444.685 559.433 444.819 559.433Z" fill="#333333"/>
<path d="M434.764 558.711C434.92 558.711 435.076 558.653 435.203 558.542C435.474 558.3 435.496 557.886 435.251 557.616C430.354 552.167 430.475 543.965 431.022 536.037C431.048 535.674 430.777 535.359 430.414 535.337C430.026 535.302 429.736 535.582 429.714 535.945C429.147 544.156 429.029 552.66 434.276 558.494C434.404 558.634 434.585 558.711 434.764 558.711Z" fill="#333333"/>
<path d="M313.473 447.629L304.64 461.941L301.734 466.03L317.341 474.464L327.888 457.1L313.473 447.629Z" fill="#EFC79C"/>
<path d="M293.808 295.457C293.808 295.457 387.837 324.967 400.801 340.698C413.764 356.43 329.103 460.009 329.103 460.009L309.738 448.404C309.738 448.404 337.305 380.452 361.258 368.538C366.037 360.33 317.096 354.54 275.794 351.963C234.493 349.386 242.17 324.756 255.508 294.537C279.691 284.19 293.808 295.457 293.808 295.457Z" fill="#1D3D63"/>
<path d="M283.01 155.937C283.01 155.937 292.964 135.444 294.339 123.637C308.724 142.307 320.403 151.298 320.674 152.113C309.24 164.337 306.683 183.312 306.683 183.312L283.01 155.937Z" fill="#F7C58D"/>
<path d="M142.356 401.002L126.738 400.98C122.489 400.975 118.492 402.992 115.972 406.415L102.792 424.316C99.5267 428.753 99.3176 434.739 102.27 439.392L108.769 449.641L142.356 401.002Z" fill="#FF3355"/>
<path d="M101.458 430.435L114.638 412.534C117.157 409.111 121.155 407.094 125.404 407.099L138.133 407.115L142.356 401.002L126.738 400.98C122.489 400.975 118.491 402.992 115.972 406.415L102.792 424.316C101.006 426.741 100.17 429.631 100.228 432.511C100.577 431.793 100.972 431.093 101.458 430.435Z" fill="#FF7190"/>
<path d="M506.218 571.735C538.592 571.735 564.837 545.48 564.837 513.094C564.837 480.708 538.592 454.454 506.218 454.454C473.844 454.454 447.599 480.708 447.599 513.094C447.599 545.48 473.844 571.735 506.218 571.735Z" fill="#333333"/>
<path d="M506.218 558.347C531.201 558.347 551.454 538.086 551.454 513.094C551.454 488.102 531.201 467.842 506.218 467.842C481.235 467.842 460.982 488.102 460.982 513.094C460.982 538.086 481.235 558.347 506.218 558.347Z" fill="#FFECC5"/>
<path d="M506.218 547.927C525.449 547.927 541.038 532.332 541.038 513.094C541.038 493.857 525.449 478.261 506.218 478.261C486.987 478.261 471.398 493.857 471.398 513.094C471.398 532.332 486.987 547.927 506.218 547.927Z" fill="#E2E2E2"/>
<path d="M506.218 543.115C522.792 543.115 536.228 529.674 536.228 513.094C536.228 496.514 522.792 483.074 506.218 483.074C489.644 483.074 476.209 496.514 476.209 513.094C476.209 529.674 489.644 543.115 506.218 543.115Z" fill="#A5A5A5"/>
<path d="M489.364 447.022L476.418 451.814L500.687 517.433L513.633 512.641L489.364 447.022Z" fill="#E2E2E2"/>
<path d="M506.218 522.143C511.214 522.143 515.264 518.092 515.264 513.094C515.264 508.097 511.214 504.045 506.218 504.045C501.222 504.045 497.172 508.097 497.172 513.094C497.172 518.092 501.222 522.143 506.218 522.143Z" fill="#333333"/>
<path d="M506.218 517.687C508.754 517.687 510.809 515.631 510.809 513.094C510.809 510.558 508.754 508.502 506.218 508.502C503.682 508.502 501.627 510.558 501.627 513.094C501.627 515.631 503.682 517.687 506.218 517.687Z" fill="#7F7F7F"/>
<path d="M177.029 571.3C209.403 571.3 235.648 545.046 235.648 512.66C235.648 480.274 209.403 454.019 177.029 454.019C144.655 454.019 118.41 480.274 118.41 512.66C118.41 545.046 144.655 571.3 177.029 571.3Z" fill="#333333"/>
<path d="M177.029 557.912C202.012 557.912 222.265 537.652 222.265 512.66C222.265 487.668 202.012 467.408 177.029 467.408C152.046 467.408 131.793 487.668 131.793 512.66C131.793 537.652 152.046 557.912 177.029 557.912Z" fill="#FFECC5"/>
<path d="M177.029 547.493C196.26 547.493 211.849 531.898 211.849 512.66C211.849 493.422 196.26 477.827 177.029 477.827C157.798 477.827 142.209 493.422 142.209 512.66C142.209 531.898 157.798 547.493 177.029 547.493Z" fill="#E2E2E2"/>
<path d="M177.029 542.68C193.603 542.68 207.038 529.24 207.038 512.66C207.038 496.08 193.603 482.639 177.029 482.639C160.455 482.639 147.02 496.08 147.02 512.66C147.02 529.24 160.455 542.68 177.029 542.68Z" fill="#A5A5A5"/>
<path d="M177.029 521.709C182.025 521.709 186.075 517.658 186.075 512.66C186.075 507.662 182.025 503.611 177.029 503.611C172.033 503.611 167.983 507.662 167.983 512.66C167.983 517.658 172.033 521.709 177.029 521.709Z" fill="#333333"/>
<path d="M177.029 517.253C179.565 517.253 181.62 515.196 181.62 512.66C181.62 510.123 179.565 508.067 177.029 508.067C174.493 508.067 172.438 510.123 172.438 512.66C172.438 515.196 174.493 517.253 177.029 517.253Z" fill="#7F7F7F"/>
<path d="M459.728 472.268C459.728 472.268 507.737 448.67 558.695 461.792C558.323 435.274 537.98 399.348 477.197 413.954C416.415 428.56 459.728 472.268 459.728 472.268Z" fill="#F94A3D"/>
<path d="M473.728 417.011C463.335 419.509 456.007 422.861 450.967 426.697C448.983 428.764 447.546 430.93 446.559 433.153C451.51 429.827 458.326 426.913 467.602 424.685C518.763 412.39 541.247 435.897 547.313 459.458C549.866 459.862 552.433 460.346 555.013 460.924C552.767 434.959 531.558 403.114 473.728 417.011Z" fill="#F94A3D"/>
<path d="M445.623 235.331C445.623 235.331 458.557 258.16 446.695 274.865C436.502 272.341 445.623 235.331 445.623 235.331Z" fill="#EFEFEF"/>
<path d="M477.197 413.954L495.964 408.675C495.964 408.675 478.498 356.026 432.52 277.231C428.439 278.993 423.83 280.395 423.83 280.395L477.197 413.954Z" fill="#F94A3D"/>
<path d="M406.822 281.072C406.822 281.072 447.369 377.983 423.632 430.729C418.972 448.689 441.631 443.824 441.631 443.824C441.631 443.824 467.585 385.385 413.557 277.206C411.044 275.707 406.822 281.072 406.822 281.072Z" fill="#F94A3D"/>
<path d="M329.908 366.438C329.908 366.438 221.705 366.296 201.042 366.268C180.38 366.241 115.095 394.439 94.8612 481.987C149.235 482.058 205.444 482.133 221.212 482.154C236.981 482.175 240.08 510.464 240.08 510.464C299.347 510.542 379.741 510.648 398.228 510.673C416.714 510.698 449.433 439.484 432.081 403.017C424.419 441.083 407.536 460.642 388.498 466.057C373.859 470.221 330.926 469.843 311.875 469.448C306.22 469.331 301.399 465.364 300.161 459.844C297.79 449.281 294.921 431.6 297.761 416.441C302.142 393.053 327.702 389.824 329.908 366.438Z" fill="#F94A3D"/>
<path d="M92.1359 486.878L246.285 487.082C246.285 487.082 268.778 438.972 250.871 411.616C232.964 384.259 159.14 392.729 127.702 420.429C96.2645 448.129 92.1359 486.878 92.1359 486.878Z" fill="#F94A3D"/>
<path d="M241.221 487.074C245.688 476.285 258.688 440.395 244.237 418.492C227.967 393.83 163.552 399.803 131.235 422.934C165.441 406.456 216.885 404.477 231.176 426.14C243.125 444.252 236.304 471.921 231.059 487.058L241.221 487.074Z" fill="#D52214"/>
<path d="M235.673 494.002C235.673 494.002 336.4 494.135 364.538 494.172C392.676 494.209 448.173 450.63 437.058 383.712C425.943 316.793 408.858 284.951 408.858 284.951L428.439 278.993C428.439 278.993 465.861 351.929 473.989 373.698C482.116 395.468 494.274 453.956 450.177 494.285C432.214 509.356 418.341 515.457 397.951 515.43C377.562 515.404 241.355 515.225 241.355 515.225L235.673 494.002Z" fill="#F94A3D"/>
<path d="M473.989 373.698C465.861 351.929 428.439 278.993 428.439 278.993L421.132 281.216C430.128 299.954 456.073 354.79 461.753 375.584C467.875 398.001 480.885 458.084 436.789 498.414C428.22 505.602 420.581 510.73 412.722 514.145C425.831 511.664 436.888 505.435 450.179 494.285C494.274 453.956 482.116 395.466 473.989 373.698Z" fill="#D52214"/>
<path d="M367.386 499.825C395.524 499.862 452.821 454.31 441.706 387.39C431.671 326.979 414.43 290.727 411.172 284.245L408.858 284.949C408.858 284.949 425.943 316.791 437.058 383.71C448.173 450.628 392.676 494.207 364.538 494.17C336.4 494.133 235.673 494 235.673 494L237.186 499.651C257.875 499.679 342.74 499.793 367.386 499.825Z" fill="white"/>
<path d="M209.574 338.537C209.574 338.537 189.147 366.252 210.557 366.28C231.968 366.308 324.062 366.429 329.907 366.438C335.753 366.445 343.734 344.018 332.929 343.189C322.123 342.359 288.678 346.394 263.402 340.649C238.125 334.904 217.333 329.574 209.574 338.537Z" fill="#4C4C4C"/>
<path d="M407.224 286.58C407.224 286.58 433.335 278.047 436.597 277.235C439.861 276.423 446.795 275.616 446.795 275.616C446.795 275.616 442.554 244.199 446.848 235.434C437.683 226.651 424.835 229.49 411.36 242.118C397.886 254.748 393.192 256.985 394.207 260.454C395.223 263.923 407.224 286.58 407.224 286.58Z" fill="#F94A3D"/>
<path d="M409.373 255.049L408.448 253.484L426.956 242.54C428.328 241.73 429.293 240.372 429.61 238.812L436.891 203.047L438.672 203.408L431.391 239.174C430.971 241.235 429.692 243.033 427.881 244.103L409.373 255.049Z" fill="#A5A5A5"/>
<path d="M419.483 261.758C419.491 255.534 414.751 250.482 408.895 250.474C403.039 250.466 398.285 255.506 398.277 261.73C398.269 267.955 403.009 273.007 408.865 273.014C414.721 273.022 419.475 267.982 419.483 261.758Z" fill="#D42214"/>
<path d="M384.028 252.08C384.028 252.08 395.896 251.685 400.206 247.748C404.517 243.809 409.255 243.931 413.596 247.578C417.935 251.226 421.33 258.497 419.456 262.551C417.581 266.604 413.093 268.366 409.969 267.274C411.188 270.132 404.437 270.561 401.084 269.361C397.732 268.161 389.852 266.16 386.725 266.837C384.008 263.297 384.028 252.08 384.028 252.08Z" fill="#21457A"/>
<path d="M402.792 278.11C405.225 282.809 407.222 286.58 407.222 286.58C407.222 286.58 433.333 278.046 436.596 277.235C439.859 276.423 446.793 275.616 446.793 275.616C446.793 275.616 446.017 269.855 445.464 262.584C435.141 273.482 418.795 277.165 402.792 278.11Z" fill="#F94A3D"/>
<path d="M407.667 265.367C410.933 265.367 413.58 262.719 413.58 259.452C413.58 256.185 410.933 253.537 407.667 253.537C404.401 253.537 401.754 256.185 401.754 259.452C401.754 262.719 404.401 265.367 407.667 265.367Z" fill="white"/>
<path d="M440.7 199.48C442.277 190.2 440.597 182.174 436.948 181.554C433.299 180.933 429.063 187.953 427.486 197.233C425.909 206.513 427.588 214.539 431.237 215.16C434.886 215.78 439.123 208.76 440.7 199.48Z" fill="#F94A3D"/>
<path d="M437.229 198.889C438.485 191.497 437.623 185.185 435.304 184.79C432.984 184.396 430.086 190.069 428.829 197.461C427.573 204.853 428.435 211.166 430.755 211.56C433.074 211.954 435.973 206.282 437.229 198.889Z" fill="#EFEFEF"/>
<path d="M334.212 452.114L327.666 467.606L325.417 472.091L342.13 478.043L349.904 459.273L334.212 452.114Z" fill="#FFDAAE"/>
<path d="M295.327 300.096C295.327 300.096 392.093 318.757 406.754 332.919C421.417 347.08 350.795 462.741 350.795 462.741L330.241 453.406C330.241 453.406 348.173 379.614 370.621 365.063C374.438 356.364 325.157 356.161 283.83 358.282C242.504 360.404 228.948 331.557 238.777 300.021C261.632 286.998 295.327 300.096 295.327 300.096Z" fill="#21457A"/>
<path d="M350.795 462.742C350.795 462.742 421.417 347.081 406.754 332.92C395.915 322.451 340.213 309.524 311.899 303.495C303.451 303.958 292.114 306.707 282.397 316.402C304.833 311.74 376.176 328.152 390.036 331.842C403.896 335.533 404.906 342.673 400.405 354.702C396.055 366.323 357.573 444.43 347.398 461.2L350.795 462.742Z" fill="#275389"/>
<path d="M237.549 307.163C237.549 307.163 228.031 203.187 283.01 155.937C296.595 161.939 307.45 177.727 312.869 191.332C318.289 204.938 314.368 291.419 312.729 297.944C312.302 299.645 308.138 301.638 301.831 303.499C283.954 308.776 253.619 313.617 237.549 307.163Z" fill="#FFCF03"/>
<path d="M282.404 309.845C282.404 309.845 303.35 300.993 306.394 259.317C309.44 217.642 308.921 198.206 308.921 198.206C308.921 198.206 318.667 229.214 319.184 250.359C319.7 271.506 316.407 294.89 312.316 304.947C308.226 315.007 282.404 309.845 282.404 309.845Z" fill="#21457A"/>
<path d="M287.284 205.376C290.316 223.683 300.444 267.925 308.678 276.453C322.288 290.548 387.804 272.004 387.804 272.004L385.658 252.103C365.268 251.803 337.53 251.741 333.182 249.832C328.834 247.923 320.127 204.892 317.692 195.914C315.257 186.936 308.402 181.469 296.982 181.999C285.563 182.527 286.212 198.897 287.284 205.376Z" fill="#F3C500"/>
<path d="M242.847 310.54C242.847 310.54 241.295 250.704 251.928 227.221C269.912 197.22 284.202 183.389 292.973 180.657C301.744 177.926 309.091 183.203 309.091 183.203C309.091 183.203 306.945 177.864 304.518 175.582C302.09 173.303 291.763 170.773 282.579 177.491C273.395 184.211 249.06 213.494 244.433 224.674C237.943 240.36 236.949 255.664 236.653 308.694C238.054 311.548 242.847 310.54 242.847 310.54Z" fill="#21457A"/>
<path d="M327.666 467.606C327.666 467.606 331.061 476.29 343.02 475.893C350.891 482.936 371.077 483.166 378.145 482.904C385.213 482.641 382.755 491.068 372.693 493.775C362.63 496.482 320.493 494.114 316.143 494.108C311.793 494.103 318.349 472.626 327.666 467.606Z" fill="black"/>
<path d="M342.375 137.592C343.231 134.898 338.51 129.735 342.396 121.581C346.28 113.427 335.688 106.375 335.688 106.375C335.688 106.375 335.473 106.673 335.114 107.18C330.312 99.2568 322.77 94.1198 314.255 94.1092C299.714 94.0897 287.906 108.96 287.881 127.322C287.856 145.684 299.64 160 314.18 160.019C314.579 160.019 314.953 160.553 315.346 160.531C321.105 164.3 329.022 160.905 330.011 158.28C331.238 155.019 332.006 153.081 333.999 153.085C335.993 153.087 335.475 150.538 334.004 149.265C335.08 149.626 337.261 149.417 336.905 148.653C336.549 147.888 337.265 146.257 337.812 142.088C343.04 144.348 343.902 139.021 342.375 137.592Z" fill="#F7C58D"/>
<path d="M284.665 141.902L285.292 150.979C285.292 150.979 300.653 155.589 305.152 146.466C309.651 137.342 284.665 141.902 284.665 141.902Z" fill="white"/>
<path d="M330.498 124.317C330.498 124.317 337.366 122.151 339.742 124.33C340.013 125.078 339.221 126.03 337.934 125.755C336.648 125.482 332.503 124.489 330.498 124.317Z" fill="white"/>
<path d="M342.855 133.921C340.755 133.808 328.136 133.861 323.497 133.884L323.513 133.833L315.254 131.17L314.752 132.723L321.932 135.038C322.269 140.134 318.002 146.088 315.994 148.586L312.188 143.249L310.859 144.197L315.041 150.062C315.396 151.427 317.548 158.046 326.775 162.217C338.066 158.181 346.108 140.451 342.855 133.921Z" fill="#BBE0FF"/>
<path d="M328.683 118.332C329.553 118.468 341.583 119.776 345.924 125.766C349.432 122.761 344.576 117.741 344.576 117.741L328.683 118.332Z" fill="white"/>
<path d="M322.795 118.216C322.795 118.216 345.66 121.052 352.588 123.713C356.485 106.381 344.474 91.8545 325.518 86.5261C306.562 81.1977 286.637 90.2645 280.088 108.001C273.539 125.737 277.811 133.718 282.085 140.368C285.545 145.753 290.937 149.673 306.27 148.763C316.365 148.164 316.414 133.661 317.818 128.279C319.251 122.774 319.728 117.479 322.795 118.216Z" fill="#F94A3D"/>
<path d="M325.199 86.5013C313.421 83.2078 301.28 85.4749 292.204 91.9129C299.535 89.3711 307.803 88.99 315.904 91.2553C332.278 95.8339 343.473 107.281 343.734 121.483C347.265 122.178 350.402 122.922 352.317 123.655C356.192 106.315 344.163 91.8048 325.199 86.5013Z" fill="#D52214"/>
<path d="M320.486 115.783C317.419 115.043 316.942 120.338 315.509 125.844C314.107 131.225 314.056 145.73 303.961 146.328C292.779 146.991 286.894 145.08 283.18 141.91C286.713 146.475 292.449 149.582 306.27 148.763C316.365 148.164 316.414 133.661 317.818 128.279C319.253 122.774 319.728 117.479 322.795 118.218C322.795 118.218 345.66 121.054 352.588 123.715C352.829 122.646 353.006 121.588 353.129 120.542C345.945 117.911 320.486 115.783 320.486 115.783Z" fill="white"/>
<path opacity="0.49" d="M354.706 117.488C354.706 117.488 355.418 144.277 334.761 165.627C328.621 168.652 307.298 160.671 310.464 139.423C312.706 124.385 310.409 113.429 315.034 111.122C319.659 108.816 341.111 117.878 354.706 117.488Z" fill="#D2F0FF"/>
<path d="M250.959 377.348L190.349 377.268C186.036 377.263 181.983 374.959 179.77 371.258L172.369 358.881C171.618 357.625 170.243 356.843 168.777 356.841L68.245 356.708C65.9929 356.705 64.1696 354.877 64.1731 352.624C64.1766 350.371 66.0035 348.547 68.2556 348.551L168.788 348.684C173.101 348.689 177.153 350.994 179.366 354.695L186.768 367.071C187.519 368.328 188.894 369.109 190.359 369.111L250.97 369.191C253.222 369.194 255.045 371.022 255.042 373.275C255.038 375.528 253.211 377.35 250.959 377.348Z" fill="#D42214"/>
<path d="M177.867 348.695L62.1636 348.542C56.1586 348.535 51.2946 343.657 51.3035 337.65L51.4435 231.718C51.4505 225.711 56.3269 220.845 62.332 220.854L178.035 221.007C184.04 221.014 188.904 225.892 188.896 231.899L188.756 337.83C188.749 343.839 183.872 348.703 177.867 348.695Z" fill="#F94A3D"/>
<path d="M188.869 251.752L188.896 231.899C188.903 225.892 184.041 221.014 178.036 221.007L62.3321 220.852C56.327 220.845 51.4507 225.709 51.4436 231.717L51.417 251.569L188.869 251.752Z" fill="white"/>
<path d="M191.3 246.486L191.32 231.844C191.328 225.624 186.294 220.576 180.077 220.567L60.2943 220.409C54.0766 220.4 49.0301 225.436 49.0213 231.656L49 246.298L191.3 246.486Z" fill="#F94A3D"/>
<defs>
<linearGradient id="paint0_linear_18:442" x1="521.488" y1="589.436" x2="521.488" y2="342.105" gradientUnits="userSpaceOnUse">
<stop stop-color="#F0F9FF"/>
<stop offset="1" stop-color="#C5DAF5"/>
</linearGradient>
<linearGradient id="paint1_linear_18:442" x1="597.628" y1="589.436" x2="597.628" y2="192.7" gradientUnits="userSpaceOnUse">
<stop stop-color="#EFF8FF"/>
<stop offset="1" stop-color="#C5DAF5"/>
</linearGradient>
<clipPath id="clip0_18:442">
<rect width="131.902" height="396.736" fill="white" transform="translate(498.753 192.7)"/>
</clipPath>
</defs>
</svg>
