<svg width="189" height="201" viewBox="0 0 189 201" fill="none" xmlns="http://www.w3.org/2000/svg">
<circle cx="78" cy="125" r="76" fill="#FBEDE4"/>
<path d="M183.449 159.038C186.061 147.888 179.21 136.715 168.148 134.082C157.085 131.449 145.999 138.354 143.387 149.504C140.775 160.653 147.625 171.826 158.688 174.459C169.751 177.092 180.836 170.188 183.449 159.038Z" fill="#390028"/>
<path d="M163.418 166.456C169.844 166.456 175.054 161.206 175.054 154.728C175.054 148.251 169.844 143 163.418 143C156.991 143 151.781 148.251 151.781 154.728C151.781 161.206 156.991 166.456 163.418 166.456Z" fill="white"/>
<path d="M134.799 124.73H162.586C174.144 124.73 183.514 134.174 183.514 145.823H134.799V124.73Z" fill="#E62F39"/>
<path d="M154.547 110.531L137.591 87.2799C136.107 85.2438 135.036 82.9325 134.441 80.4793L134.36 80.1423L139.582 78.8574C139.978 78.7605 140.219 78.3589 140.123 77.9601L137.219 65.9794C136.853 64.4643 135.337 63.5375 133.834 63.9068L128.701 65.1706C124.47 66.2125 121.877 70.5136 122.91 74.7782C122.927 74.8456 122.951 74.9074 122.969 74.9734L122.958 74.9706L127.979 95.6939L132.007 89.4031V147.345L140.045 154.728L155.67 129.707C159.097 123.655 158.657 116.135 154.547 110.531Z" fill="#F94A3D"/>
<path d="M134.435 80.4484L134.362 80.1423L139.583 78.8574C139.979 78.7605 140.22 78.3589 140.124 77.9601L137.221 65.9794C136.854 64.4643 135.338 63.5375 133.835 63.9068L128.702 65.1706C124.471 66.2125 121.878 70.5136 122.912 74.7782C122.929 74.8456 122.952 74.9074 122.97 74.9734L122.959 74.9706L124.255 80.315L134.197 80.2336C134.277 80.3136 134.355 80.3726 134.435 80.4484Z" fill="#FF5E4D"/>
<path d="M77.598 161.992H127.533C135.528 161.992 142.008 155.461 142.008 147.404V145.821H70.041V154.376C70.041 158.583 73.4238 161.992 77.598 161.992Z" fill="#F94A3D"/>
<path d="M94.806 145.821L12.5322 138.546C11.8579 138.487 11.3549 137.898 11.3995 137.216C11.4733 136.102 11.6057 134.484 11.791 133.511C14.0759 121.501 24.5559 112.427 37.1382 112.427H89.8251C92.0111 112.427 93.3584 114.835 92.2257 116.721L89.0588 121.988C85.0087 128.727 86.1288 137.395 91.7575 142.861L94.806 145.821Z" fill="#F94A3D"/>
<path d="M94.806 112.426H37.1397C24.8805 112.426 14.6179 121.041 11.9847 132.591C11.5555 134.471 11.3298 136.429 11.3298 138.44L54.6931 141.848C54.6931 141.848 48.1045 139.022 48.1045 123.847C48.1045 112.252 64.1337 112.14 64.1337 112.14" fill="#E62F39"/>
<path opacity="0.25" d="M63.9344 112.426H35.1417C27.4161 112.426 13.4001 121.041 11.7408 132.591C11.4705 134.471 11.3284 136.429 11.3284 138.439L37.5255 140.498C37.5255 140.498 33.2901 139.237 34.5036 123.847C35.4147 112.289 44.6046 112.14 44.6046 112.14" fill="#390028"/>
<path d="M10.2153 115.999H43.6002C45.7625 115.999 47.5152 114.397 47.5152 112.419V73.2532C47.5152 71.2774 45.7625 69.6738 43.6002 69.6738H10.1066C4.70084 69.6738 0.319092 73.68 0.319092 78.6201V106.951C0.320485 111.949 4.751 115.999 10.2153 115.999Z" fill="#F94A3D"/>
<path d="M10.2153 115.999H43.6002C45.7625 115.999 47.5152 111.401 47.5152 109.424C47.5152 109.424 0.402693 108.297 0.558736 108.934C1.54655 112.977 5.49499 115.999 10.2153 115.999Z" fill="#FF5E4D"/>
<path d="M47.5152 82.0014V73.2532C47.5152 71.2774 45.7625 69.6738 43.6002 69.6738H10.1066C4.70084 69.6738 0.319092 73.68 0.319092 78.6201V82.1994L47.5152 82.0014Z" fill="#FF5E4D"/>
<path d="M46.8631 110.128H0.696621C0.312086 110.128 0 109.813 0 109.426C0 109.038 0.312086 108.724 0.696621 108.724H46.8631C47.2477 108.724 47.5597 109.038 47.5597 109.426C47.5597 109.813 47.2477 110.128 46.8631 110.128Z" fill="#FF4628"/>
<path d="M46.8631 83.2203H0.696621C0.312086 83.2203 0 82.9057 0 82.5181C0 82.1306 0.312086 81.816 0.696621 81.816H46.8631C47.2477 81.816 47.5597 82.1306 47.5597 82.5181C47.5597 82.9057 47.2477 83.2203 46.8631 83.2203Z" fill="#FF4628"/>
<path d="M96.5671 118.952C96.6883 120.005 95.9165 120.93 94.9259 120.921L55.6462 120.481C51.9987 120.44 48.7134 117.875 47.3606 114.01L44.1687 104.897C42.7085 100.729 45.2247 96.2106 49.1481 95.9536L86.7476 94.8541C90.7253 94.7376 94.168 98.0852 94.6849 102.573L96.5671 118.952Z" fill="#E62F39"/>
<path opacity="0.22" d="M86.7461 94.8541L49.1466 95.9522C48.1504 96.0182 47.2462 96.3595 46.4744 96.8987L49.0351 104.21C50.388 108.075 53.6746 110.64 57.3208 110.681L95.6656 111.109L94.6834 102.57C94.1679 98.0852 90.7252 94.7376 86.7461 94.8541Z" fill="#390028"/>
<path d="M145.378 112.94C145.211 112.359 145.021 111.821 144.809 111.394L132.01 85.592C126.963 88.0354 124.646 93.992 126.697 99.241L129.602 106.673C131.27 110.939 132.125 115.482 132.125 120.067V127.561C132.125 137.646 124.014 145.822 114.008 145.822H94.8059V145.778L40.103 140.929V153.907H70.041H94.8059H123.231C128.468 153.907 135.287 148.991 139.158 141.808C142.955 134.768 144.901 126.133 145.754 121.373C146.257 118.569 146.166 115.677 145.378 112.94Z" fill="#FF5E4D"/>
<path d="M141.538 70.3984C142.572 74.663 141.694 78.5428 139.578 79.0638C137.462 79.5847 134.909 76.5488 133.877 72.2842C132.843 68.0196 133.721 64.1398 135.837 63.6188C137.952 63.0979 140.506 66.1338 141.538 70.3984Z" fill="#FFD98B"/>
<path opacity="0.39" d="M139.124 67.5268C139.72 69.9856 139.213 72.2225 137.994 72.523C136.773 72.8235 135.302 71.0739 134.706 68.6151C134.109 66.1563 134.615 63.9194 135.836 63.6189C137.056 63.3184 138.529 65.0681 139.124 67.5268Z" fill="white"/>
<path d="M124.322 75.6824L109.463 79.3404C108.896 79.4809 108.323 79.1298 108.184 78.5583L107.792 76.9434C107.653 76.3719 108.001 75.7948 108.568 75.6544L123.427 71.9964C123.994 71.856 124.567 72.207 124.706 72.7785L125.098 74.3934C125.237 74.9649 124.889 75.542 124.322 75.6824Z" fill="#390028"/>
<path d="M125.907 77.7326L123.834 78.2423C122.959 78.4571 122.077 77.9179 121.864 77.0361L120.8 72.6423L124.457 71.7422L125.907 77.7326Z" fill="#390028"/>
<path d="M109.801 80.2321C108.666 80.5115 107.519 79.8108 107.242 78.665L107.019 77.7438C106.742 76.5994 107.437 75.4437 108.574 75.1643C109.71 74.8849 110.856 75.5856 111.133 76.7314L111.356 77.6526C111.634 78.7984 110.937 79.9527 109.801 80.2321Z" fill="#390028"/>
<path d="M53.3151 159.031C55.9273 147.882 49.0768 136.709 38.0141 134.076C26.9514 131.443 15.8657 138.348 13.2535 149.497C10.6413 160.647 17.4918 171.82 28.5544 174.453C39.6171 177.086 50.7028 170.181 53.3151 159.031Z" fill="#390028"/>
<path d="M33.2902 166.456C39.7168 166.456 44.9265 161.206 44.9265 154.728C44.9265 148.251 39.7168 143 33.2902 143C26.8636 143 21.6538 148.251 21.6538 154.728C21.6538 161.206 26.8636 166.456 33.2902 166.456Z" fill="white"/>
<path d="M65.8808 159.663H39.0776C35.8815 159.663 33.29 157.21 33.29 154.182C33.29 151.156 35.8815 148.702 39.0776 148.702H65.8822C69.0783 148.702 71.6697 151.155 71.6697 154.182C71.6683 157.208 69.0783 159.663 65.8808 159.663Z" fill="#E62F39"/>
<path d="M39.8817 154.223C39.8817 157.611 37.1565 160.358 33.7946 160.358C30.4327 160.358 27.7075 157.611 27.7075 154.223C27.7075 150.835 30.4327 148.088 33.7946 148.088C37.1565 148.088 39.8817 150.835 39.8817 154.223Z" fill="#390028"/>
<path d="M163.408 160.766C166.77 160.766 169.495 158.02 169.495 154.631C169.495 151.243 166.77 148.496 163.408 148.496C160.046 148.496 157.321 151.243 157.321 154.631C157.321 158.02 160.046 160.766 163.408 160.766Z" fill="#390028"/>
<path d="M123.996 68.1094C123.944 67.0001 123.347 65.9512 122.42 65.3431L119.929 63.7086C118.842 62.9953 117.519 62.9433 116.492 63.5738L101.085 60.5183L88.0057 43.2717L79.0234 57.3883L91.1251 71.8194L111.604 71.9429C113.966 73.0846 116.605 74.5632 117.297 74.5899C119.531 74.6755 121.438 72.9877 121.644 70.7452L121.691 70.2326L122.169 71.092C122.285 71.2998 122.47 71.4599 122.685 71.5357C123.427 71.8025 124.142 71.2535 124.105 70.4475L123.996 68.1094Z" fill="#F9A06E"/>
<path d="M98.1751 55.2286L84.0754 66.3345L71.6812 53.3343L89.0159 40.6459L98.4649 52.8822C99.0263 53.6096 98.8968 54.6599 98.1751 55.2286Z" fill="#ECB42B"/>
<path d="M91.6422 12.6908C91.5475 15.1258 89.5955 17.0257 87.2828 16.933C84.97 16.8403 83.1727 14.7916 83.2688 12.3566C83.365 9.92174 85.3169 8.02184 87.6283 8.11452C89.9411 8.2072 91.7383 10.2559 91.6422 12.6908Z" fill="#E62F39"/>
<path d="M88.8388 10.7558C88.7873 8.17349 86.2739 6.01522 83.2255 5.93658L77.0255 5.7765C73.9771 5.69787 71.5473 7.72836 71.5975 10.3121L71.8455 22.811L69.7709 36.3504C69.5006 38.1099 70.8549 39.7823 72.7943 40.0842L77.5926 40.8313C79.532 41.1332 81.3223 39.9508 81.5926 38.1913L82.6528 31.2756C82.7796 31.2616 82.9036 31.2531 83.0304 31.2349C86.5205 30.7139 88.6744 27.6092 87.8273 24.4357L88.6006 13.9799L88.8388 10.7558Z" fill="#FFAC79"/>
<path d="M84.3398 26.4507C84.3398 26.4507 85.2524 26.1685 85.7972 26.9296L84.3398 26.4507Z" fill="#FFAC79"/>
<path d="M85.7973 27.2792C85.69 27.2792 85.5827 27.2287 85.5145 27.1332C85.1285 26.5898 84.4695 26.7779 84.4403 26.7863C84.2605 26.8383 84.0627 26.7358 84.0098 26.549C83.954 26.3637 84.0571 26.1699 84.2396 26.1137C84.2856 26.1011 85.4002 25.7711 86.0815 26.7232C86.193 26.8804 86.1581 27.0995 86.0021 27.2132C85.9394 27.2582 85.8684 27.2792 85.7973 27.2792Z" fill="#F94A3D"/>
<path d="M81.2373 16.4597C81.4993 16.5398 81.8183 16.471 82.1304 16.4218C82.4439 16.3671 82.7601 16.3193 83.036 16.287C83.3133 16.2547 83.6323 16.2294 83.95 16.2112C84.2648 16.1873 84.5936 16.1803 84.8263 16.0441C85.052 15.9149 85.1161 15.6144 84.7943 15.29C84.4905 14.9727 83.7563 14.675 82.8409 14.7789C81.9256 14.887 81.2889 15.342 81.0757 15.7197C80.8472 16.1087 80.9865 16.3867 81.2373 16.4597Z" fill="#390028"/>
<path d="M86.9495 17.8204C86.9606 18.4537 87.4803 18.9593 88.11 18.9466C88.4765 18.9396 88.7788 19.2331 88.7858 19.6024L88.7872 19.7049C88.8025 20.5081 88.1686 21.1723 87.3702 21.1877L86.2654 21.2088" fill="#FFAC79"/>
<path d="M86.2654 21.5584C86.0759 21.5584 85.9213 21.4054 85.9171 21.2144C85.9129 21.0206 86.0662 20.8605 86.2584 20.8563L87.3633 20.8353C87.6558 20.8296 87.9289 20.7103 88.1323 20.4982C88.3357 20.2862 88.4444 20.0068 88.4388 19.7119L88.4361 19.6122C88.4347 19.5251 88.4012 19.4451 88.3399 19.3861C88.28 19.3271 88.2201 19.299 88.117 19.299C87.2964 19.299 86.6179 18.6559 86.6012 17.8288C86.597 17.6351 86.7516 17.475 86.9425 17.4708C86.9453 17.4708 86.9467 17.4708 86.9495 17.4708C87.139 17.4708 87.2936 17.6238 87.2978 17.8148C87.3061 18.2487 87.66 18.5969 88.0877 18.5969C88.1017 18.5955 88.1142 18.5969 88.124 18.5969C88.3859 18.5969 88.6325 18.6966 88.822 18.8806C89.017 19.0702 89.1271 19.3243 89.1327 19.5967L89.1355 19.6964C89.1452 20.1823 88.9669 20.6387 88.6353 20.9855C88.3037 21.3338 87.8551 21.5289 87.3786 21.5388L86.2737 21.5598C86.2696 21.5584 86.2682 21.5584 86.2654 21.5584Z" fill="#F94A3D"/>
<path d="M85.116 19.2134C84.9767 18.4565 84.5141 17.3472 82.9983 17.1899C82.7489 17.1632 82.519 17.1787 82.3031 17.218C81.3055 17.4019 80.6632 18.2108 80.2898 18.8918C80.014 19.3959 80.3233 20.0334 80.8903 20.1149C82.4382 20.3367 83.9638 20.1444 84.7064 20.0166C84.9864 19.9688 85.1843 19.7062 85.1495 19.4226C85.1411 19.3566 85.13 19.2864 85.116 19.2134Z" fill="white"/>
<path d="M86.4063 19.0772C86.4467 19.8944 85.757 20.5937 84.8653 20.6386C83.9737 20.6836 83.2171 20.0587 83.1767 19.2415C83.1363 18.4242 83.826 17.7249 84.7177 17.68C85.6093 17.6336 86.3659 18.2599 86.4063 19.0772Z" fill="#390028"/>
<path d="M84.7718 24.2012C84.7718 24.2012 82.4089 24.5691 82.2891 23.1003L84.7718 24.2012Z" fill="#FFAC79"/>
<path d="M84.1491 24.5972C83.6364 24.5972 82.9454 24.5143 82.4675 24.1352C82.1568 23.888 81.9743 23.5412 81.9422 23.1298C81.9255 22.936 82.069 22.7675 82.2613 22.7506C82.448 22.7422 82.6221 22.8784 82.6375 23.0722C82.6556 23.2926 82.7392 23.4541 82.8994 23.5833C83.3745 23.9639 84.3762 23.9091 84.7204 23.8557C84.9112 23.8291 85.0882 23.9582 85.1174 24.1492C85.1467 24.3416 85.0171 24.5199 84.8263 24.5494C84.7636 24.5578 84.4961 24.5972 84.1491 24.5972Z" fill="#F94A3D"/>
<path opacity="0.41" d="M76.3122 28.6048C76.3122 28.6048 77.9966 31.6772 82.5971 31.3922L82.1234 33.9717C81.8866 33.9619 76.0475 33.952 76.3122 28.6048Z" fill="#F94A3D"/>
<path d="M69.5537 22.5414L71.4694 26.0828L74.2182 19.7049C74.5693 18.7725 72.8501 20.5306 72.4084 19.6375L72.0253 18.8652L71.8344 18.8399C69.8114 18.5703 68.4182 20.8325 69.5537 22.5414Z" fill="#390028"/>
<path d="M70.5122 22.7422C74.8285 23.9976 75.6783 17.871 76.6759 15.7506C77.8142 13.3326 80.7079 12.2542 83.1447 13.3171C86.7825 14.9039 89.0827 14.5809 91.5488 14.4237L91.865 10.6014C92.2788 5.59257 88.5853 1.19317 83.6156 0.77612L74.7449 0.0318868C69.7752 -0.385164 65.4101 3.3374 64.9963 8.34623C64.9963 8.34623 65.0451 13.7539 65.1175 16.3236C65.2722 21.8505 70.3227 22.6861 70.5122 22.7422Z" fill="#E62F39"/>
<path d="M91.8664 10.6014C92.2802 5.59257 88.5867 1.19317 83.617 0.776123L74.7462 0.0318904C71.7758 -0.21806 69.0283 1.01905 67.2046 3.11835C68.9197 1.8012 71.1015 1.08645 73.4198 1.28024L82.2906 2.02447C87.2603 2.44152 90.9538 6.84092 90.54 11.8497L90.3213 14.5037C90.7309 14.477 91.1391 14.4489 91.5515 14.4223L91.8664 10.6014Z" fill="#F94A3D"/>
<path d="M91.6183 14.7817L84.2369 14.529C83.0429 14.4882 82.1081 13.48 82.1485 12.2766L93.2944 12.6586L93.2749 13.2231C93.2442 14.1133 92.503 14.8126 91.6183 14.7817Z" fill="#390028"/>
<path d="M70.54 19.0014C70.5121 19.0014 70.487 19.0014 70.4592 19C69.169 18.9551 68.1561 17.8598 68.1993 16.5609C68.2216 15.9318 68.4835 15.3476 68.9405 14.9165C69.3989 14.4868 69.9952 14.2692 70.618 14.2818C71.9095 14.3268 72.9224 15.4206 72.8792 16.7209C72.836 17.9946 71.7953 19.0014 70.54 19.0014ZM70.5386 15.335C70.2098 15.335 69.8977 15.4586 69.6553 15.6874C69.4017 15.9248 69.2554 16.2491 69.2443 16.5974C69.2192 17.3177 69.7807 17.923 70.494 17.9468C71.2101 17.9679 71.8092 17.4062 71.8343 16.6858C71.8594 15.9655 71.2965 15.3603 70.5818 15.3364C70.5678 15.335 70.5539 15.335 70.5386 15.335Z" fill="white"/>
<path d="M91.0834 45.0467C90.8967 44.3095 90.6557 43.5934 90.3436 42.9039C88.9099 39.7332 86.0858 37.6816 83.1614 36.7408C80.4474 35.8688 77.5606 35.8056 74.7379 35.7508C72.6773 35.7101 70.6459 35.0796 68.5937 35.2411C64.4307 35.5697 60.0684 38.3332 58.6306 42.3829C58.0385 44.0511 57.8365 45.8303 57.6832 47.5954C56.7985 57.8714 52.9169 76.2848 52.492 86.589C52.2412 92.6931 56.5547 95.8329 56.3485 101.94L56.3136 96.8917L90.7546 98.8674L91.0096 91.7677C91.298 83.7258 91.4735 75.6768 91.5669 67.6251C91.6128 63.5964 91.6393 59.5677 91.6477 55.5376C91.656 52.0776 91.9361 48.4239 91.0834 45.0467Z" fill="#FFCF03"/>
<path opacity="0.27" d="M76.0253 74.1533C73.661 72.1565 65.5746 64.2718 63.6422 58.0006L63.0584 58.4556C63.0263 58.721 62.9943 58.9836 62.9595 59.256C63.5391 64.7254 68.2831 70.2453 71.1782 73.1507C72.4837 74.4622 74.3632 74.8441 76.0253 74.1533Z" fill="#353535"/>
<path opacity="0.27" d="M88.9294 63.2355L89.9033 62.3354L78.136 49.9025L88.9294 63.2355Z" fill="#353535"/>
<path d="M118.261 77.1639L117.152 74.0648L117.143 74.0788L116.975 73.402C116.706 72.3123 115.935 71.4192 114.901 71.0022L112.134 69.8873C110.929 69.4014 109.622 69.612 108.737 70.4321L107.402 70.4209L93.0924 68.8355L88.7608 63.5725L77.1746 73.4708L80.9391 77.6132C82.6194 79.4612 85.0171 80.4778 87.5027 80.3922L106.158 79.7561C108.534 80.3922 111.032 81.1771 111.663 81.0746C113.87 80.7193 115.414 78.6875 115.181 76.4477L115.128 75.9352L115.483 76.3537L115.305 76.5994L116.63 78.1412C116.966 78.533 117.548 78.5878 117.951 78.2676C118.277 78.0064 118.403 77.5627 118.261 77.1639Z" fill="#FFAC79"/>
<path opacity="0.41" d="M93.0896 68.778L87.55 69.6781C87.55 69.6781 92.1157 67.4496 92.0753 67.5717C92.0349 67.6939 93.091 68.8369 93.091 68.8369" fill="#F94A3D"/>
<path d="M108.043 89.8018L106.848 89.7554L106.863 89.6782L52.1714 87.6028L52.0279 94.1857C51.8134 104.019 59.2909 112.067 70.2711 111.341L100.775 110.536L99.2812 141.592L110.459 140.514L118.852 101.082C118.994 94.9426 114.135 89.8706 108.043 89.8018Z" fill="#390028"/>
<path d="M122.771 151.347C122.971 147.244 119.832 143.753 115.761 143.552L110.772 143.305L111.01 138.411L99.3 137.831L98.6995 150.155L110.41 150.735L122.771 151.347Z" fill="#F9C138"/>
<path d="M98.7668 148.889L98.6797 150.674L122.751 151.867L122.838 150.082L98.7668 148.889Z" fill="#F7EEE6"/>
<path d="M111.279 143.955C111.085 143.955 110.902 143.865 110.785 143.701C110.638 143.499 110.621 143.239 110.744 143.02C111.418 141.801 112.078 141.155 112.702 141.103C112.95 141.078 113.313 141.145 113.647 141.565C113.979 141.985 113.954 142.347 113.871 142.578C113.665 143.167 112.839 143.625 111.415 143.941C111.369 143.95 111.323 143.955 111.279 143.955ZM112.787 141.8C112.776 141.8 112.767 141.801 112.76 141.801C112.496 141.824 112.014 142.208 111.433 143.215C112.617 142.932 113.133 142.571 113.214 142.342C113.225 142.308 113.261 142.206 113.101 142.003C112.959 141.822 112.847 141.8 112.787 141.8Z" fill="#EAEAEA"/>
<path d="M108.952 144.382C108.403 144.382 107.989 144.263 107.706 144.023C107.496 143.843 107.258 143.502 107.326 142.899C107.391 142.301 107.695 142.037 107.936 141.919C108.573 141.617 109.621 141.923 111.044 142.84C111.344 143.033 111.442 143.43 111.265 143.745C111.175 143.899 111.032 144.011 110.861 144.059C110.11 144.274 109.471 144.382 108.952 144.382ZM108.492 142.506C108.385 142.506 108.3 142.524 108.237 142.554C108.192 142.575 108.055 142.641 108.017 142.978C108.017 142.978 108.017 142.978 108.017 142.979C107.982 143.298 108.081 143.422 108.158 143.486C108.498 143.776 109.437 143.738 110.675 143.382C109.614 142.739 108.895 142.506 108.492 142.506ZM107.671 142.94H107.68H107.671Z" fill="#EAEAEA"/>
<path d="M109.7 146.721C109.57 146.721 109.445 146.647 109.385 146.521C109.301 146.347 109.375 146.137 109.549 146.053C110.816 145.444 110.734 143.711 110.732 143.694C110.721 143.499 110.869 143.333 111.06 143.322C111.252 143.322 111.416 143.46 111.429 143.652C111.433 143.742 111.533 145.875 109.849 146.685C109.803 146.71 109.75 146.721 109.7 146.721Z" fill="#EAEAEA"/>
<path d="M102.927 146.578C102.887 146.578 102.847 146.577 102.806 146.575C102.137 146.543 101.522 146.25 101.073 145.748C100.624 145.25 100.394 144.604 100.427 143.93C100.495 142.541 101.661 141.481 103.05 141.533C103.719 141.565 104.335 141.859 104.783 142.359C105.23 142.859 105.46 143.504 105.428 144.178C105.361 145.525 104.252 146.578 102.927 146.578ZM102.929 142.232C101.972 142.232 101.171 142.992 101.123 143.965C101.098 144.451 101.265 144.916 101.589 145.277C101.913 145.637 102.358 145.85 102.84 145.873C103.84 145.925 104.681 145.145 104.73 144.143C104.755 143.658 104.588 143.191 104.265 142.83C103.942 142.47 103.497 142.259 103.015 142.235C102.987 142.234 102.957 142.232 102.929 142.232Z" fill="#EAEAEA"/>
<path d="M102.969 59.7839L107.121 58.7616C110.944 57.8208 114.724 59.8668 115.564 63.3324C116.404 66.798 113.985 70.3689 110.162 71.3097L107.354 72.0006C105.47 72.4639 103.609 71.4557 103.195 69.7482L101.357 62.164C101.106 61.132 101.828 60.0648 102.969 59.7839Z" fill="#390028"/>
<path d="M128.262 73.6618C128.022 73.6618 127.787 73.5368 127.659 73.3107L122.957 65.1045C122.137 63.6764 120.457 62.949 118.865 63.3436L111.729 65.1003C111.362 65.1944 110.979 64.9613 110.887 64.5849C110.796 64.2086 111.025 63.8281 111.398 63.7368L118.535 61.9801C120.716 61.4423 123.035 62.4379 124.16 64.4038L128.863 72.61C129.056 72.9456 128.942 73.3753 128.608 73.5691C128.499 73.6323 128.381 73.6618 128.262 73.6618Z" fill="#390028"/>
</svg>
