<svg width="249" height="253" viewBox="0 0 249 253" fill="none" xmlns="http://www.w3.org/2000/svg">
<path d="M159.814 81.9938L199.676 109.078L112.601 134.072L31.498 103.39L159.814 81.9938Z" fill="#CCC8A6"/>
<path d="M8.28491 92.6353L31.4985 103.39L157.071 82.3158L137.2 69.5719L8.28491 92.6353Z" fill="#ECE8CC"/>
<path d="M199.676 109.078L229.403 112.978L185.471 85.6342L157.072 82.3162L199.676 109.078Z" fill="#ECE8CC"/>
<path d="M218.453 0.00270844C216.255 -0.0665735 214.126 1.13946 213.15 3.23954C213.15 3.23954 144.331 155.94 147.154 157.23C149.984 158.519 223.38 7.91012 223.38 7.91012C224.682 5.1106 223.449 1.79698 220.619 0.506216C219.917 0.184077 219.179 0.0256553 218.453 0.00270844Z" fill="#F08C2E"/>
<path d="M220.619 0.506704C219.918 0.184124 219.179 0.0261436 218.452 0.00319672C216.255 -0.0660852 214.126 1.13995 213.149 3.24003C213.149 3.24003 202.978 25.8083 190.617 53.6649C193.096 55.4521 195.786 56.8175 198.892 57.753C212.465 30.3081 223.38 7.91105 223.38 7.91105C224.682 5.11109 223.449 1.79703 220.619 0.506704Z" fill="#F61D00"/>
<path opacity="0.2" d="M147.154 157.23C149.984 158.52 223.38 7.91049 223.38 7.91049C224.682 5.11097 223.449 1.79735 220.619 0.506592C223.887 5.22615 147.154 157.23 147.154 157.23Z" fill="#4A0E3A"/>
<g opacity="0.3">
<path opacity="0.3" d="M192.716 53.1967C192.631 53.1967 192.543 53.1791 192.459 53.1416C192.144 53.0008 192.004 52.6336 192.146 52.3212L214.961 2.23963C215.103 1.92808 215.471 1.78863 215.788 1.9294C216.104 2.07061 216.244 2.43776 216.101 2.74975L193.287 52.8318C193.183 53.0608 192.955 53.1967 192.716 53.1967Z" fill="white"/>
</g>
<path d="M244.384 6.8775C242.221 6.48696 239.935 7.36821 238.657 9.30236C238.657 9.30236 147.807 150.247 150.407 151.937C153.014 153.627 248.077 15.4195 248.077 15.4195C249.783 12.8415 249.058 9.38356 246.451 7.69255C245.806 7.27112 245.099 7.00635 244.384 6.8775Z" fill="#F08C2E"/>
<path d="M246.451 7.69299C245.806 7.27112 245.099 7.00679 244.384 6.8775C242.221 6.48696 239.935 7.36821 238.656 9.30236C238.656 9.30236 225.229 30.1333 208.848 55.874C211.033 58.0045 213.489 59.7485 216.421 61.1288C233.941 35.9728 248.077 15.4199 248.077 15.4199C249.783 12.8415 249.057 9.38356 246.451 7.69299Z" fill="#F61D00"/>
<path opacity="0.2" d="M150.407 151.937C153.013 153.627 248.077 15.4195 248.077 15.4195C249.783 12.8416 249.058 9.38364 246.451 7.69263C248.979 12.8393 150.407 151.937 150.407 151.937Z" fill="#4A0E3A"/>
<g opacity="0.3">
<path opacity="0.3" d="M210.993 55.7186C210.908 55.7063 210.824 55.6758 210.747 55.6264C210.456 55.4411 210.372 55.0571 210.56 54.7694L240.597 8.57867C240.783 8.29139 241.169 8.20755 241.462 8.39289C241.753 8.57867 241.836 8.96215 241.649 9.25031L211.612 55.4411C211.474 55.6524 211.229 55.7535 210.993 55.7186Z" fill="white"/>
</g>
<path d="M110.149 72.1442C109.782 69.497 107.02 67.9666 104.567 67.4997C101.805 66.9741 98.8674 67.6912 96.6124 69.3421C94.303 71.0326 93.2869 73.3874 92.057 75.855C90.5767 78.8253 88.605 78.3567 85.6805 78.4268C83.3466 78.4829 83.1328 81.3402 84.4438 82.6451C88.4571 86.6401 94.9022 82.631 96.9799 78.6929C98.0909 76.5871 98.5257 74.1861 100.849 73.0061C103.71 71.5534 105.893 73.2823 108.713 73.4994C109.484 73.559 110.266 72.9867 110.149 72.1442Z" fill="#F0D960"/>
<path d="M89.598 83.9361C88.9881 83.1749 88.3168 82.4375 87.9734 81.3908C86.6089 77.2312 88.7039 73.6418 92.6161 72.4808C94.9918 71.7769 100.724 70.953 101.35 74.6347C101.7 76.6893 99.4403 77.5132 98.875 79.345C98.1408 81.7262 99.7254 82.175 97.6165 84.4163C96.1905 85.9316 92.7265 86.6695 90.8649 86.8654C90.8306 85.5905 90.2497 84.7499 89.598 83.9361Z" fill="#2EA100"/>
<path d="M175.997 94.9675C171.783 90.5444 170.996 83.6643 165.456 80.3596C161.776 78.1637 154.538 78.6893 155.089 84.3002C155.131 84.7327 155.723 85.0641 156.085 84.7376C159.403 81.739 163.442 82.8343 165.836 86.2503C168.372 89.8666 169.296 94.3038 172.306 97.6487C174.267 99.8287 177.998 97.0667 175.997 94.9675Z" fill="#F0D960"/>
<path d="M52.7288 117.171C51.514 109.63 53.3422 100.73 61.2186 97.4056C63.8108 96.3143 67.1037 97.5358 69.802 97.3747C72.8196 97.1947 75.9 94.9993 77.9474 92.9217C79.381 91.4703 79.2121 89.7961 79.9636 88.053C80.8025 86.1118 82.3175 84.5862 83.8138 83.1596C85.3289 81.7144 87.4262 81.8635 89.1667 80.9019C91.6145 79.5437 93.1046 77.2057 95.5841 75.9406C97.1495 75.1467 98.9212 74.6816 100.63 74.3466C101.538 74.1728 102.509 74.4706 103.41 74.1419C106.747 72.9151 108.231 68.6686 111.63 67.3509C115.531 65.8391 118.674 68.1682 122.374 68.4431C128.441 68.8923 134.608 66.4639 140.33 69.0653C142.14 69.8883 142.283 72.1826 144.143 73.0285C146.102 73.919 148.801 73.4539 150.836 73.367C152.388 73.3048 153.772 73.8012 155.243 74.1856C156.226 74.4398 157.365 74.4834 158.142 75.2645C160.953 78.1113 160.94 80.8772 160.784 84.4371C160.69 86.5769 158.724 89.6716 161.147 91.1972C163.714 92.8096 166.751 92.1521 169.505 92.3882C171.452 92.5492 176.624 95.3466 178.001 96.6735C180.512 99.1046 177.262 102.894 179.798 105.511C182.453 108.246 185.095 107.26 186.766 111.142C187.185 112.129 187.662 112.73 187.711 113.853C188.15 124.253 177.675 125.041 169.649 127.311C167.063 128.043 164.534 129.141 162.011 130.052C156.94 131.882 151.718 132.099 146.459 133.129C144.474 133.519 142.583 134.549 140.749 135.324C137.932 136.515 134.281 137.389 131.201 137.532C128.403 137.656 125.779 136.062 123.024 136.372C120.42 136.664 118.304 139.113 115.561 139.144C111.341 139.194 106.971 137.55 102.864 136.788C96.9731 135.696 90.4995 135.671 84.846 133.625C82.8302 132.893 80.933 131.77 78.9733 130.902C74.691 129.016 70.1646 127.72 65.8569 125.934C63.3399 124.892 61.0235 123.447 58.4941 122.399C56.1536 121.426 53.1858 119.968 52.7288 117.171Z" fill="#F0D960"/>
<path opacity="0.3" d="M80.9117 90.5157C82.6316 85.459 86.9616 86.4126 90.5401 83.6727C92.1015 82.4768 99.6643 74.0619 102.277 76.6602C104.246 78.6186 97.2124 83.6568 96.2809 85.095C93.3533 89.6164 92.0855 88.6738 87.1844 89.9142C84.8162 90.5135 79.7717 93.5782 80.9117 90.5157Z" fill="white"/>
<path opacity="0.2" d="M187.712 113.853C187.662 112.73 187.186 112.129 186.767 111.143C185.095 107.26 182.453 108.247 179.798 105.511C177.871 103.522 179.281 100.856 178.968 98.6239C178.412 98.642 177.836 98.5599 177.24 98.3503C176.249 98.0017 175.504 97.3534 174.774 96.6324C174.712 96.571 174.648 96.5132 174.585 96.4572C174.515 96.5569 174.447 96.6566 174.387 96.7546C173.938 97.4902 173.45 98.2431 172.828 98.8503C171.124 100.515 168.86 100.82 166.625 100.227C165.463 99.9182 164.636 98.9721 164.352 97.8746C161.882 97.2718 159.69 96.0874 159.842 92.956C159.886 92.0549 160.14 91.3083 160.537 90.6724C159.121 89.0374 160.699 86.3557 160.783 84.4379C160.818 83.6356 160.844 82.8753 160.834 82.1436C158.537 82.4719 157.397 81.8087 155.409 80.4676C155.091 80.2531 154.828 80.0025 154.612 79.7293C154.388 79.5127 154.139 79.3132 153.877 79.1261C152.646 78.6711 151.42 77.9995 150.587 77.0115C149.965 77.2409 149.232 77.3332 148.711 77.3949C144.296 77.9201 141.43 74.9308 142.205 71.0201C141.714 70.2439 141.226 69.4734 140.329 69.0652C136.235 67.2043 131.914 67.9157 127.564 68.308C126.052 69.2272 124.122 69.5387 122.35 69.7395C121.086 69.8829 119.799 69.9231 118.547 70.1596C118.147 70.2351 117.706 70.435 117.283 70.6009C117.447 70.6737 117.612 70.7478 117.765 70.8193C118.687 71.2505 119.568 71.7566 120.29 72.4883C122.374 74.5981 122.341 78.0847 120.994 80.5859C119.563 83.2411 116.923 84.2538 114.031 84.4683C112.781 84.561 109.209 83.956 108.458 84.8606C108.042 85.3624 108.374 87.7462 108.204 88.4267C107.954 89.4279 107.477 90.4129 106.756 91.1715C106.75 91.1785 106.743 91.1838 106.736 91.1904C110.257 89.818 115.544 91.1489 117.83 87.3918C118.242 86.7145 117.628 86.1377 118.394 85.4709C119.385 84.6086 123.3 84.816 124.6 84.7C127.154 84.4714 129.875 84.6192 132.016 83.046C133.699 81.8091 134.873 79.7682 136.362 78.5145C136.483 80.1644 137.44 81.7094 136.839 83.3708C137.1 84.5813 137.105 85.8875 136.913 87.1319C137.385 84.0734 145.22 82.0695 147.075 84.448C149.417 87.451 146.548 91.9269 148.901 94.9171C150.495 96.9439 152.264 97.6822 152.666 100.206C153.151 103.26 150.676 103.527 148.126 103.155C147.08 103.003 143.298 102.546 144.297 104.722C143.389 104.455 141.882 105.299 140.604 105.136C140.485 104.343 140.469 103.875 140.536 103.119C140.196 107.003 132.411 106.468 133.245 101.618C133.59 99.6168 134.576 97.9227 136.076 96.5437C136.528 96.1284 137.052 95.7652 137.586 95.4069C137.205 95.1113 136.851 94.7657 136.541 94.3359C135.651 93.0994 135.311 91.5827 135.542 90.1141C134.317 91.0558 132.459 90.9067 131.209 89.8198C130.822 90.0894 130.149 90.3674 129.833 90.5735C129.056 91.0797 128.329 91.6569 127.599 92.2283C127.71 92.7155 127.735 93.2486 127.655 93.8306C127.154 97.4845 123.781 99.7951 120.572 101.054C119.043 101.654 117.417 100.602 116.721 99.1962C116.544 99.2351 116.369 99.2774 116.201 99.3291C115.193 99.6375 114.227 100.057 113.234 100.409C110.459 101.396 106.632 102.648 104.054 100.59C101.302 98.3927 102.377 94.6907 104.635 92.5474C102.688 93.2495 100.414 92.9163 98.3368 92.588C97.8463 92.5103 96.0395 92.1661 95.4127 92.1401C95.4127 92.2919 95.312 92.6423 95.365 93.0076C95.4702 93.7296 95.5437 94.4582 95.643 95.181C95.9602 97.4889 96.3121 99.7492 94.9343 101.799C93.1836 104.403 89.8046 105.088 87.0418 106.107C86.3179 106.374 84.986 106.764 84.6323 107.561C84.2046 108.525 85.2746 110.567 85.1423 111.747C84.353 118.775 75.4644 115.572 71.2115 114.787C68.0473 114.203 65.8734 113.782 63.3396 111.591C62.4295 110.804 61.7296 109.829 60.5282 109.526C59.2506 109.204 57.9249 109.789 56.6512 109.826C55.3233 109.865 53.945 109.455 52.7632 108.729C52.2531 111.501 52.2852 114.425 52.7275 117.172C53.1846 119.969 56.1523 121.426 58.4937 122.4C61.0231 123.448 63.3396 124.893 65.8565 125.935C70.1642 127.721 74.6907 129.017 78.973 130.903C80.9326 131.771 82.8299 132.893 84.8456 133.625C90.4991 135.672 96.9727 135.697 102.864 136.789C106.971 137.552 111.341 139.195 115.561 139.145C118.303 139.115 120.419 136.665 123.024 136.373C125.779 136.063 128.402 137.657 131.201 137.533C134.281 137.39 137.931 136.516 140.748 135.325C142.583 134.55 144.473 133.52 146.458 133.13C151.717 132.1 156.939 131.883 162.01 130.054C164.533 129.142 167.062 128.044 169.648 127.312C177.676 125.041 188.15 124.254 187.712 113.853ZM119.489 116.203C118.278 120.043 111.177 120.933 108.641 117.882C107.41 116.398 108.114 113.778 108.028 111.978C107.966 110.697 107.917 109.082 107.553 107.852C107.125 106.404 105.545 105.094 105.752 103.543C107.305 103.706 109.13 104.853 110.538 105.526C111.366 105.922 113.61 108.344 114.04 108.42C114.914 108.574 115.786 108.916 116.638 109.481C118.772 110.895 120.294 113.648 119.489 116.203ZM142.979 121.272C142.216 122.431 140.701 123.231 139.287 122.76C136.646 121.88 134.382 123.849 132.206 125.118C129.742 126.554 127.204 127.674 124.295 127.631C122.37 127.602 121.216 126.154 121.026 124.392C120.728 121.643 122.396 119.501 124.74 118.254C125.528 117.836 126.62 117.575 127.686 117.265C126.293 115.495 125.7 113.488 127.458 110.99C129.534 108.039 133.878 107.375 137.234 107.302C137.329 107.3 137.42 107.305 137.511 107.309C138.215 107.151 138.945 107.135 139.669 107.313C144.944 108.61 145.438 117.533 142.979 121.272ZM172.122 113.726C171.871 113.862 171.611 113.965 171.349 114.057C170.988 114.218 170.611 114.337 170.22 114.415C169.699 114.581 169.197 114.776 168.76 115.126C167.861 115.845 167.316 117.088 166.516 117.923C164.508 120.021 161.752 120.931 158.947 121.435C156.424 121.888 154.76 122.813 152.28 121.607C150.819 120.896 150.106 118.514 151.107 117.175C152.364 115.493 153.656 114.823 155.228 114.405C155.363 113.993 155.563 113.583 155.838 113.181C156.43 112.317 157.268 111.702 158.128 111.116C158.401 110.93 158.823 110.586 159.179 110.402C159.49 109.386 160.37 107.761 160.46 107.649C161.201 106.717 162.165 106.042 163.262 105.578C165.573 104.601 168.185 104.786 170.625 105.028C170.751 105.04 170.872 105.059 170.989 105.082C172.779 104.554 175.064 105.586 175.355 108.06C175.664 110.676 174.395 112.505 172.122 113.726Z" fill="#B52C14"/>
<path opacity="0.15" d="M101.316 86.528C101.053 86.3351 100.81 86.1079 100.599 85.8427C100.439 85.8824 100.286 85.9309 100.121 85.9622C99.6815 86.0456 99.2672 86.0483 98.8783 85.9967C98.8578 86.047 98.8307 86.0964 98.8088 86.1467C99.2262 86.2129 99.6481 86.2804 100.076 86.3417C100.466 86.3969 100.895 86.4918 101.316 86.528Z" fill="#B52C14"/>
<path d="M118.129 83.2341C115.149 82.0744 116.752 79.327 117.935 77.3858C120.84 72.6163 126.262 72.1424 131.107 70.2541C132.003 69.9064 135.672 67.2666 135.985 67.4467C136.723 67.8703 137.036 68.8297 137.199 69.5728C137.944 72.961 137.518 75.3704 135.27 78.087C132.816 81.0577 128.471 83.8859 124.539 84.3073C122.393 84.5302 120.089 83.9967 118.129 83.2341Z" fill="#2EA100"/>
<path opacity="0.15" d="M137.2 69.5723C137.037 68.8292 136.724 67.8698 135.985 67.4462C135.983 67.4453 135.979 67.4471 135.976 67.4462C136.163 71.8829 131.474 76.8496 128.463 79.3274C126.59 80.8683 123.753 82.904 120.832 84.0483C122.058 84.3117 123.324 84.4335 124.54 84.3068C128.471 83.885 132.817 81.0568 135.271 78.0865C137.519 75.3699 137.944 72.9605 137.2 69.5723Z" fill="#4A0E3A"/>
<path d="M149.74 90.2423C148.839 88.8902 151.124 86.8687 151.932 85.6221C152.902 84.1398 151.186 82.0869 149.991 81.2683C145.639 78.2914 141.038 79.3209 137.813 83.2157C137.262 83.8856 136.774 84.4438 136.667 85.3802C136.436 87.4825 137.932 90.5402 139.14 92.165C139.76 92.9898 141.063 94.2673 141.263 95.3529C141.863 98.6025 140.023 101.276 142.39 104.302C144.894 107.502 154.986 104.848 155.625 100.879C156.032 98.373 154.892 95.2289 152.657 93.8022C151.994 93.3803 151.105 92.9836 150.66 92.2767C150.266 91.6439 150.172 90.8875 149.74 90.2423Z" fill="#9C3F08"/>
<path opacity="0.3" d="M152.277 95.3999C150.83 95.0906 149.367 95.7825 147.792 96.0751C145.998 96.4078 145.008 96.6245 145.339 94.4423C145.608 92.6714 147.584 91.544 147.811 90.0656C147.893 89.5317 147.282 89.3618 147.3 88.9218C147.318 88.4955 148.029 88.3305 147.798 87.8067C147.405 86.914 146.162 87.395 145.395 87.3094C144.987 85.2989 148.805 84.6691 149.065 83.0081C149.676 79.0992 139.447 79.5454 139.611 83.6899C141.156 84.2914 144.234 82.3431 144.591 84.2005C144.647 84.49 143.917 85.982 143.818 86.3809C143.618 87.1858 143.681 88.5582 143.212 89.2409C141.893 91.1609 140.533 88.8605 139.22 89.7285C137.817 90.6565 139.595 92.6856 140.182 93.5584C141.167 95.0208 141.967 96.0557 142.344 97.7709C142.785 99.7775 142.595 98.984 144.555 98.8022C145.982 98.6703 145.243 98.9805 146.553 99.4558C148.275 100.08 149.435 97.97 150.996 98.315C154.046 98.988 150.298 102.059 149.632 102.984C148.509 104.542 147.434 104.724 145.716 105.117C146.594 106.534 150.484 105.112 151.564 104.658C153.189 103.975 155.314 102.79 155.625 100.878C155.946 98.9011 155.183 97.09 153.516 95.9431C153.103 95.6585 152.691 95.4882 152.277 95.3999Z" fill="#4A0E3A"/>
<path d="M113.697 86.3784C113.171 85.2743 113.196 85.0449 113.114 83.7056C112.964 81.256 114.793 79.6184 113.208 77.2681C110.754 73.6398 108.726 75.2646 105.915 76.9954C104.857 77.6467 103.01 78.8933 102.521 80.0716C101.538 82.4532 103.304 84.7232 103.517 86.9808C103.679 88.7111 102.64 90.553 103.016 92.2524C103.198 93.09 103.943 93.7223 104.525 94.2805C105.433 95.149 106.829 96.0731 108.1 96.3643C110.879 97.0095 115.419 94.2435 115.794 91.2727C116.069 89.1444 114.523 88.1149 113.697 86.3784Z" fill="#9C3F08"/>
<path opacity="0.3" d="M113.697 86.3782C113.171 85.2741 113.196 85.0446 113.114 83.7053C112.964 81.2558 114.793 79.6181 113.208 77.2679C112.941 76.8725 112.68 76.5503 112.421 76.2732C112.268 76.3491 112.108 76.4193 111.934 76.4771C111.284 76.6514 110.721 76.9766 110.248 77.4536C109.988 78.3199 109.685 78.4818 109.34 77.9404C108.937 77.4889 108.936 77.5529 109.338 78.1332C109.503 78.3945 109.648 78.6663 109.771 78.9496C110.225 79.9774 109.668 80.4791 109.846 81.3877C110.006 82.1997 110.819 82.7742 110.911 83.6021C110.982 84.2441 110.352 84.6678 110.245 85.2754C110.236 85.3249 110.691 86.4201 110.72 86.5229C109.835 86.6659 108.936 86.7476 108.02 86.6765C107.977 85.4921 108.525 84.4873 108.486 83.3819C105.916 83.8563 107.074 81.6988 107.526 80.5267C106.032 80.4433 104.474 80.3246 104.213 82.0518C103.964 83.7053 105.532 82.9018 105.429 84.5491C105.38 85.3297 104.429 85.5393 104.834 86.59C105.083 87.2343 105.421 87.2131 105.89 87.5357C106.936 88.2554 108.682 88.2087 106.94 89.8661C107.76 89.698 108.602 89.2232 109.443 89.2973C109.464 90.2086 105.538 95.1426 105.007 94.7035C105.887 95.4307 107.036 96.1196 108.1 96.3636C110.88 97.0088 115.419 94.2424 115.794 91.2716C116.069 89.1442 114.523 88.1147 113.697 86.3782Z" fill="#4A0E3A"/>
<path d="M107.26 97.2516C107.337 96.2088 106.862 95.1021 107.229 94.0646C107.559 93.1317 108.976 91.7443 109.547 93.2676C110.049 92.9204 110.072 92.0991 110.581 91.6596C111.554 90.8172 112.11 91.623 113.206 91.3909C115.72 90.8582 114.249 88.0133 116.4 86.7988C118.061 85.8611 119.108 86.0764 118.782 88.1889C118.618 89.2559 117.896 90.2294 117.851 91.3013C117.815 92.1591 118.275 92.4248 118.322 93.0196C118.394 93.9291 118.428 97.2097 117.756 97.8354C116.345 99.1495 113.506 97.4855 111.941 97.6086C110.468 97.7251 107.641 99.462 107.26 97.2516Z" fill="#F0D960"/>
<path opacity="0.3" d="M109.284 97.6224C111.004 92.5657 115.334 93.5193 118.913 90.7789C120.474 89.583 128.037 81.1681 130.65 83.7664C132.619 85.7249 125.585 90.763 124.653 92.2012C121.726 96.7226 120.458 95.78 115.557 97.0205C113.189 97.6202 108.144 100.685 109.284 97.6224Z" fill="white"/>
<path d="M138.997 105.784C138.696 104.128 136.968 102.869 136.023 101.579C135.503 100.872 134.652 100.866 134.652 99.8551C134.658 97.3495 138.865 95.1294 137.506 92.5307C135.534 88.7352 133.38 88.1209 130.25 88.1275C129.204 88.1337 128.052 88.2021 126.769 88.2453C125.16 88.3009 122.305 88.6297 121.31 90.0502C118.931 93.4366 124.359 94.5712 124.634 97.2754C124.822 99.0926 122.161 100.742 122.856 102.82C123.232 103.936 124.734 104.445 125.611 104.99C126.437 105.505 128.084 106.603 128.51 107.49C129.342 109.226 128.991 111.192 131.289 111.757C133.8 112.371 139.535 108.736 138.997 105.784ZM133.888 106.578C133.706 106.987 133.181 107.291 132.755 107.353C130.288 107.713 130.144 104.724 128.804 103.366C128.241 102.795 127.552 102.559 127.083 101.889C126.225 100.668 128.222 99.7682 128.216 98.379C128.21 96.5186 126.425 95.3527 127.296 93.3431C127.847 92.0779 129.28 91.6128 130.583 91.8299C131.885 92.047 133.043 92.9525 133.012 94.4472C132.981 95.7061 131.703 96.6924 131.384 97.8398C130.977 99.2973 130.238 99.8803 131.152 101.462C132.198 103.285 135.033 104.06 133.888 106.578Z" fill="#C72700"/>
<path d="M137.118 105.784C136.818 104.128 135.09 102.869 134.144 101.579C133.624 100.872 132.773 100.866 132.773 99.8551C132.779 97.3495 136.987 95.1294 135.628 92.5307C133.656 88.7352 131.502 88.1209 128.371 88.1275C127.326 88.1337 126.174 88.2021 124.89 88.2453C123.281 88.3009 120.426 88.6297 119.431 90.0502C117.052 93.4366 122.48 94.5712 122.756 97.2754C122.943 99.0926 120.282 100.742 120.977 102.82C121.353 103.936 122.855 104.445 123.732 104.99C124.559 105.505 126.205 106.603 126.631 107.49C127.463 109.226 127.113 111.192 129.411 111.757C131.922 112.371 137.657 108.736 137.118 105.784ZM132.009 106.578C131.828 106.987 131.302 107.291 130.876 107.353C128.41 107.713 128.265 104.724 126.926 103.366C126.362 102.795 125.674 102.559 125.204 101.889C124.346 100.668 126.344 99.7682 126.337 98.379C126.331 96.5186 124.546 95.3527 125.417 93.3431C125.968 92.0779 127.402 91.6128 128.704 91.8299C130.006 92.047 131.164 92.9525 131.133 94.4472C131.102 95.7061 129.825 96.6924 129.505 97.8398C129.098 99.2973 128.36 99.8803 129.274 101.462C130.319 103.285 133.155 104.06 132.009 106.578Z" fill="#ED2E00"/>
<path opacity="0.8" d="M122.756 97.2754C122.944 99.0926 120.283 100.742 120.978 102.82C120.983 102.834 120.992 102.845 120.997 102.859C121.104 102.607 121.224 102.351 121.377 102.084C122.005 100.987 122.904 100.008 123.803 99.1306C124.119 98.823 124.719 98.4298 124.959 98.0349C125.008 97.955 125.045 97.9356 125.07 97.94C125.044 97.8787 125.006 97.7622 124.955 97.5495C124.484 95.5694 123.098 93.8021 123.692 91.6662C124.745 87.8778 128.606 87.7935 132.173 88.778C131.062 88.2595 129.823 88.124 128.372 88.1271C127.327 88.1333 126.175 88.2017 124.891 88.2449C123.282 88.3006 120.427 88.6293 119.432 90.0498C117.052 93.4362 122.48 94.5712 122.756 97.2754Z" fill="white"/>
<path d="M111.214 131.709C109.627 131.709 107.862 131.297 106.79 130.268C105.79 129.31 105.522 127.964 106.055 126.575C106.719 124.84 111.965 117.843 114.861 117.081C115.945 116.791 116.931 116.922 117.722 117.028C118.089 117.077 118.419 117.121 118.719 117.123C118.793 117.016 118.88 116.874 118.939 116.775C118.993 116.685 119.046 116.599 119.097 116.52C119.102 116.501 119.106 116.483 119.11 116.466C119.404 115.266 120.202 115.055 120.652 115.036C121.353 114.99 122.01 115.478 122.231 116.134C122.511 116.973 122.585 117.738 122.502 118.44C123.719 117.409 124.941 116.342 125.443 115.028C125.576 114.683 125.691 114.152 125.17 113.513C124.444 112.619 122.812 111.98 121.692 112.149C120.638 112.304 119.623 112.801 118.549 113.327C117.034 114.068 115.312 114.922 113.232 114.858C110.675 114.784 108.75 113.51 107.941 111.362C106.618 107.813 110.183 102.967 113.04 101.918C113.367 101.797 116.673 101.042 118.101 102.184C118.646 102.62 118.913 103.284 118.814 103.96C118.691 104.807 117.893 105.396 117.041 105.273C116.614 105.212 116.252 104.985 116.012 104.668C115.438 104.632 114.454 104.727 114.111 104.832C112.485 105.43 110.299 108.738 110.876 110.284C111.23 111.225 112.052 111.723 113.317 111.759C114.62 111.779 115.799 111.214 117.161 110.548C118.405 109.939 119.692 109.308 121.23 109.083C123.446 108.754 126.188 109.823 127.607 111.567C128.707 112.92 128.978 114.539 128.371 116.128C127.563 118.238 125.879 119.663 124.392 120.92L124.187 121.095C122.709 122.356 121.312 123.547 120.034 124.961C119.617 125.422 119.155 126.016 118.666 126.646C117.273 128.441 115.695 130.475 113.734 131.291C113.095 131.553 112.188 131.709 111.214 131.709ZM116.267 120.005C116.059 120.005 115.863 120.025 115.67 120.077C114.331 120.458 109.625 125.992 108.981 127.675C108.908 127.865 108.912 127.964 108.917 127.981C108.927 128.007 109.043 128.145 109.385 128.289C110.379 128.71 111.939 128.665 112.517 128.433C112.467 128.431 112.416 128.426 112.366 128.418C111.51 128.297 110.916 127.511 111.039 126.662C111.358 124.47 113.5 123.093 115.571 121.762C116.498 121.165 117.264 120.65 117.86 120.171C117.668 120.15 117.482 120.125 117.304 120.101C116.917 120.05 116.58 120.005 116.267 120.005ZM115.628 125.467C114.841 126.042 114.208 126.624 114.138 127.105C114.131 127.145 114.124 127.186 114.115 127.225C114.633 126.699 115.147 126.076 115.628 125.467ZM115.716 103.516C115.716 103.517 115.716 103.517 115.716 103.518C115.716 103.517 115.716 103.517 115.716 103.516Z" fill="#FD8934"/>
<g opacity="0.2">
<path opacity="0.2" d="M110.507 112.488C110.627 112.693 110.749 112.865 110.86 113.005C111.426 113.192 111.938 113.51 112.322 113.936C113.074 113.983 113.75 114.312 114.28 114.805C115.9 114.621 117.297 113.939 118.549 113.326C119.623 112.801 120.639 112.304 121.693 112.149C122.812 111.98 124.445 112.619 125.171 113.513C125.691 114.152 125.576 114.683 125.444 115.028C124.942 116.342 123.72 117.41 122.503 118.44C122.585 117.738 122.511 116.973 122.232 116.134C122.01 115.478 121.353 114.99 120.652 115.036C120.202 115.055 119.404 115.266 119.111 116.466C119.106 116.483 119.102 116.501 119.098 116.52C119.046 116.599 118.994 116.685 118.94 116.775C118.88 116.874 118.794 117.016 118.719 117.123C118.419 117.121 118.09 117.077 117.722 117.028C117.07 116.941 116.284 116.839 115.421 116.968C115.571 118.081 115.144 119.24 113.842 119.953C110.532 121.765 107.697 125.147 107.715 128.557C108.078 128.586 108.454 128.672 108.834 128.831C111.919 130.121 113.339 129.32 115.348 126.96C117.397 124.551 119.206 122.381 121.927 120.659C124.107 119.278 127.364 117.709 126.796 114.621C126.317 112.016 123.586 110.712 121.166 110.678C120.18 110.664 119.428 110.296 118.904 109.745C118.302 109.99 117.727 110.269 117.162 110.545C115.8 111.212 114.621 111.777 113.318 111.757C112.053 111.721 111.231 111.222 110.877 110.282C110.3 108.736 112.486 105.427 114.112 104.83C114.455 104.724 115.439 104.629 116.013 104.666C116.253 104.983 116.615 105.21 117.042 105.271C117.894 105.393 118.692 104.806 118.815 103.958C118.831 103.848 118.822 103.741 118.82 103.633C115.832 103.659 112.285 103.01 110.557 105.577C109.504 107.14 109.122 109.173 109.741 110.975C109.921 111.503 110.227 112.006 110.507 112.488ZM114.115 127.225C114.124 127.186 114.132 127.145 114.138 127.105C114.207 126.624 114.841 126.043 115.628 125.468C115.147 126.076 114.632 126.699 114.115 127.225ZM115.57 121.762C113.499 123.093 111.358 124.47 111.039 126.663C110.917 127.51 111.51 128.297 112.366 128.418C112.416 128.426 112.467 128.43 112.517 128.433C111.939 128.665 110.379 128.71 109.385 128.29C109.043 128.145 108.927 128.007 108.917 127.981C108.912 127.964 108.908 127.865 108.981 127.675C109.626 125.992 114.331 120.458 115.67 120.077C115.863 120.025 116.06 120.005 116.268 120.005C116.58 120.005 116.918 120.05 117.303 120.101C117.482 120.125 117.668 120.15 117.86 120.171C117.264 120.65 116.498 121.165 115.57 121.762Z" fill="#B52C14"/>
</g>
<path d="M133.918 125.974C132.469 125.974 131.123 125.519 130.125 124.621C128.495 123.153 128.146 120.829 129.193 118.403C129.882 116.809 132.649 112.176 135.478 111.36C136.106 111.178 136.727 111.089 137.274 111.01C138.862 110.783 139.231 110.647 139.528 109.727C139.912 108.529 139.286 107.404 138.21 105.694C137.116 103.955 135.617 101.574 137.316 99.1509C137.81 98.448 138.785 98.2741 139.494 98.7617C140.204 99.2507 140.38 100.217 139.887 100.92C139.436 101.563 139.721 102.232 140.867 104.054C141.978 105.82 143.361 108.018 142.51 110.67C141.588 113.526 139.262 113.859 137.722 114.081C137.234 114.15 136.773 114.216 136.355 114.337C135.219 114.666 132.906 117.689 132.071 119.623C131.774 120.312 131.399 121.579 132.23 122.327C132.922 122.951 134.46 123.196 136.199 122.255C136.956 121.845 137.908 122.121 138.323 122.874C138.737 123.625 138.457 124.567 137.699 124.977C136.465 125.644 135.154 125.974 133.918 125.974Z" fill="#FD8934"/>
<g opacity="0.2">
<path opacity="0.2" d="M138.197 98.5451C137.003 102.142 141.137 104.45 141.208 108.163C141.275 111.682 136.51 112.949 134.329 114.692C132.84 115.881 128.526 122.37 130.506 124.24C131.857 125.515 137.152 124.879 138.47 123.756C138.482 123.745 138.495 123.737 138.507 123.727C138.528 123.44 138.472 123.144 138.323 122.873C137.908 122.12 136.956 121.844 136.199 122.255C134.46 123.196 132.922 122.95 132.23 122.326C131.399 121.579 131.774 120.312 132.071 119.623C132.905 117.689 135.219 114.665 136.355 114.337C136.773 114.216 137.234 114.15 137.722 114.08C139.262 113.859 141.588 113.526 142.51 110.669C143.361 108.018 141.978 105.82 140.867 104.054C139.721 102.232 139.436 101.563 139.887 100.919C140.38 100.216 140.204 99.2498 139.494 98.7613C139.101 98.4908 138.627 98.4308 138.197 98.5451Z" fill="#B52C14"/>
</g>
<path d="M156.552 115.695C155.776 113.376 154.893 109.344 152.47 108.03C150.379 106.889 148.238 108.259 146.716 109.617C142.622 113.27 139.285 118.152 139.598 123.888C139.667 125.104 140.862 129.78 142.158 130.289C143.88 130.965 145.332 131.312 146.723 130.704C149.966 129.29 153.447 128.403 156.828 127.163C158.174 126.667 160.966 125.984 161.743 124.645C162.663 123.07 157.253 117.785 156.552 115.695ZM156.721 123.442C155.494 125.432 151.456 127.367 149.252 127.845C148.469 128.019 147.424 128.131 146.616 128.112C146.481 128.112 145.241 127.826 145.178 127.982C145.187 127.963 145.2 127.92 145.182 127.907C144.268 127.138 143.83 126.164 143.667 124.955C143.141 121.135 144.437 112.142 148.945 111.063C151.286 110.504 153.04 117.531 154.223 119.386C154.899 120.44 157.798 121.699 156.721 123.442Z" fill="#C71600"/>
<path d="M154.673 115.695C153.897 113.376 153.014 109.344 150.591 108.03C148.5 106.889 146.359 108.259 144.838 109.617C140.743 113.27 137.406 118.152 137.719 123.888C137.788 125.104 138.984 129.78 140.28 130.289C142.001 130.965 143.454 131.312 144.844 130.704C148.087 129.29 151.568 128.403 154.949 127.163C156.295 126.667 159.087 125.984 159.864 124.645C160.784 123.07 155.374 117.785 154.673 115.695ZM154.843 123.442C153.615 125.432 149.577 127.367 147.373 127.845C146.591 128.019 145.545 128.131 144.737 128.112C144.602 128.112 143.362 127.826 143.299 127.982C143.308 127.963 143.321 127.92 143.303 127.907C142.389 127.138 141.951 126.164 141.788 124.955C141.262 121.135 142.559 112.142 147.066 111.063C149.408 110.504 151.161 117.531 152.344 119.386C153.021 120.44 155.919 121.699 154.843 123.442Z" fill="#EC1A00"/>
<path d="M89.7238 107.676C89.2605 104.184 88.6595 91.8798 95.7653 96.3143C96.5355 96.7918 97.2928 97.313 97.969 97.9144C98.9143 98.7577 99.4716 99.9055 100.311 100.83C101.87 102.547 103.855 104.098 105.05 106.176C106.797 109.208 107.285 113.482 107.217 116.942C107.192 118.17 107.141 119.547 106.822 120.75C104.381 130.059 95.5777 124.093 91.9342 119.262C90.294 117.091 89.2983 113.686 89.2422 110.988C89.2164 109.859 89.8739 108.811 89.7238 107.676Z" fill="#FF0400"/>
<path d="M93.3801 114.883C91.8776 111.751 92.8229 106.876 92.9356 103.471C92.9667 102.572 92.9418 100.364 94.0564 100.252C95.4026 100.116 96.2227 101.766 96.9613 102.603C98.7329 104.607 102.721 108.017 101.588 110.988C100.95 112.644 96.9551 114.945 95.2583 115.392C95.0141 115.454 93.6866 115.782 93.4363 115.615C93.1356 115.404 93.7245 115.59 93.3801 114.883Z" fill="#FF5117"/>
<path d="M95.8905 118.3C95.7653 118.412 102.089 114.095 102.921 115.199C103.26 115.652 103.203 116.83 103.26 117.345C103.485 119.528 103.266 122.04 100.429 122.251C99.0084 122.356 97.3427 120.49 96.4349 119.584C96.1034 119.255 96.2349 117.99 95.8905 118.3Z" fill="#FF5117"/>
<path d="M84.9657 128.564C78.8676 126.58 78.4043 119.478 80.0259 114.015C80.5079 112.39 81.5534 110.963 82.0104 109.307C82.4301 107.807 81.7035 106.07 82.2047 104.668C82.7432 103.161 84.5024 100.73 86.393 101.567C89.7737 103.074 88.3713 108.725 90.694 111.038C93.574 113.903 97.8813 114.995 100.549 118.083C101.926 119.671 103.767 125.631 102.558 127.702C101.951 128.751 99.3028 130.233 98.2319 130.624C94.4632 132.012 88.6783 129.767 84.9657 128.564Z" fill="#9C3F08"/>
<path opacity="0.3" d="M94.2815 122.637C91.9277 121.627 90.1627 119.433 90.1654 116.824C90.1663 115.892 90.3841 114.94 90.683 114.059C90.789 113.746 90.8991 113.414 91.0292 113.101C90.9098 112.541 90.9365 111.951 91.0848 111.4C90.9534 111.281 90.8216 111.163 90.6955 111.037C88.3728 108.724 89.7752 103.074 86.3945 101.567C85.8635 101.332 85.344 101.361 84.8576 101.549C84.8594 101.595 84.8652 101.64 84.8652 101.688C84.8861 105.254 88.0285 108.031 87.8863 111.739C87.8244 113.354 87.142 114.847 85.9855 115.984C85.0919 116.863 83.3318 117.403 82.6694 118.424C81.9005 119.609 80.5067 120.059 79.2446 119.877C79.3783 123.707 80.9379 127.253 84.9667 128.565C88.6793 129.768 94.4642 132.013 98.2333 130.624C99.3038 130.233 101.952 128.751 102.56 127.703C103.256 126.51 102.938 124.03 102.283 121.836C99.8736 123.273 96.896 123.759 94.2815 122.637Z" fill="#4A0E3A"/>
<path opacity="0.3" d="M80.9155 117.199C80.9632 115.229 80.83 113.834 81.8813 112.248C81.9824 112.369 81.9713 112.441 82.0689 112.576C83.7808 110.949 82.4154 107.282 84.4548 106.285C84.4343 107.029 84.1826 110.873 85.5333 109.578C85.4736 110.466 86.9223 114.439 84.2748 112.608C83.8899 113.295 83.5536 116.653 82.6359 114.511C81.6483 115.372 81.9535 117.372 81.0995 117.818C81.0688 117.514 81.0576 117.191 80.9155 117.199Z" fill="white"/>
<g opacity="0.3">
<path opacity="0.3" d="M95.0276 120.217C94.9764 120.204 94.9114 120.201 94.8428 120.202C94.8503 120.206 94.8597 120.213 94.8673 120.217H95.0276Z" fill="white"/>
<path opacity="0.3" d="M94.8427 120.202C94.7545 120.149 94.6512 120.083 94.5407 120.007C94.5144 120.087 94.5108 120.153 94.4431 120.229C94.5554 120.22 94.7077 120.202 94.8427 120.202Z" fill="white"/>
<path opacity="0.3" d="M98.7683 118.629C97.9099 117.768 97.582 118.32 96.8657 118.003C95.6152 117.45 95.6313 117.072 95.2041 115.77C93.4128 116.497 93.4743 114.346 91.99 114.663C92.1909 115.267 92.4764 115.871 92.7433 116.465C91.569 117.566 93.4694 119.277 94.5408 120.007C94.5492 119.982 94.5595 119.955 94.5751 119.927C95.5533 119.841 96.0491 120.808 96.9276 120.991C96.8724 120.293 96.5628 119.933 96.7802 119.265C98.2101 121.338 100.875 120.742 98.7683 118.629Z" fill="white"/>
</g>
<path d="M72.3875 114.045C70.7473 109.685 69.4322 104.215 64.7178 102.007C58.9828 99.3154 56.0591 107.372 56.6289 111.788C56.8668 113.618 58.238 115.063 58.6576 116.83C59.0331 118.405 59.9722 118.381 61.0493 119.342C63.6286 121.637 66.7843 124.142 70.0902 125.302C71.4489 125.779 75.0051 126.102 75.0051 123.919C75.0109 120.483 73.5711 117.214 72.3875 114.045Z" fill="#9C3F08"/>
<path opacity="0.3" d="M58.4096 109.34C58.6617 108.409 59.4034 106.048 59.6271 105.718C60.3068 104.713 61.3831 103.187 62.7663 103.887C62.6968 104.077 62.7222 104.27 62.6184 104.494C63.0826 104.966 63.7628 104.759 64.378 104.964C63.9032 106.653 62.5783 106.515 61.1876 107.033C59.7647 107.562 59.6288 109.167 58.3289 109.716C58.3125 109.723 58.345 109.578 58.4096 109.34Z" fill="white"/>
<path opacity="0.3" d="M72.3875 114.045C70.7962 109.816 69.5021 104.551 65.1231 102.224C66.0724 103.706 66.4556 105.52 65.9045 107.294C64.6175 111.438 60.1494 112.438 56.5803 111.26C56.5919 111.44 56.6071 111.617 56.6289 111.788C56.8668 113.617 58.2379 115.062 58.6576 116.83C59.0331 118.405 59.9722 118.38 61.0493 119.341C63.6286 121.636 66.7843 124.142 70.0897 125.301C71.4484 125.779 75.0046 126.102 75.0046 123.918C75.0109 120.483 73.5711 117.214 72.3875 114.045Z" fill="#4A0E3A"/>
<path d="M77.1523 113.121C76.2631 113.003 75.0862 110.485 74.7797 109.884C73.6277 107.614 73.0205 104.637 73.9533 102.2C75.5312 98.0693 77.6223 102.311 79.3877 100.569C81.6916 98.2987 80.7775 95.6259 81.9482 93.0457C82.8436 91.0797 84.9721 87.929 87.0507 87.0173C88.8976 86.2172 91.0639 87.9846 92.8984 87.0481C95.5592 85.6899 94.8081 83.8294 96.2728 81.7395C96.6608 81.1874 97.8258 80.3997 98.4766 81.0943C99.1279 81.7827 98.9336 83.2279 99.0214 84.065C99.372 87.4762 96.999 91.4826 93.4116 92.4376C90.4002 93.2315 87.9835 90.5025 85.6292 94.5399C84.834 95.9043 85.8421 97.3058 85.3476 98.6827C84.9155 99.8922 82.9684 102.41 81.9291 103.185C80.2011 104.463 77.9662 102.67 77.1082 105.064C76.2569 107.433 79.2055 108.829 79.3244 111.018C79.3934 112.278 78.8428 113.338 77.1523 113.121Z" fill="#FD8934"/>
<path d="M77.1523 113.121C76.2631 113.003 75.0862 110.485 74.7797 109.884C73.6277 107.614 73.0205 104.637 73.9533 102.2C75.5312 98.0693 77.6223 102.311 79.3877 100.569C81.6916 98.2987 80.7775 95.6259 81.9482 93.0457C82.8436 91.0797 84.9721 87.929 87.0507 87.0173C88.8976 86.2172 91.0639 87.9846 92.8984 87.0481C95.5592 85.6899 94.8081 83.8294 96.2728 81.7395C96.6608 81.1874 97.8258 80.3997 98.4766 81.0943C99.1279 81.7827 98.9336 83.2279 99.0214 84.065C99.372 87.4762 96.999 91.4826 93.4116 92.4376C90.4002 93.2315 87.9835 90.5025 85.6292 94.5399C84.834 95.9043 85.8421 97.3058 85.3476 98.6827C84.9155 99.8922 82.9684 102.41 81.9291 103.185C80.2011 104.463 77.9662 102.67 77.1082 105.064C76.2569 107.433 79.2055 108.829 79.3244 111.018C79.3934 112.278 78.8428 113.338 77.1523 113.121Z" fill="#FD8934"/>
<path opacity="0.2" d="M99.021 84.0652C98.9332 83.228 99.1275 81.7828 98.4762 81.0944C98.1719 80.7701 97.7563 80.7754 97.3594 80.9228C97.24 84.2809 96.2666 88.1025 93.457 89.7829C90.9183 91.3014 88.98 90.105 86.3353 90.1712C83.5003 90.2418 84.4376 93.5038 84.2144 95.4795C83.9578 97.7534 83.2495 100.312 81.1362 101.578C79.524 102.545 77.9101 102.277 76.1861 102.076C75.235 105.265 75.6212 108.18 75.8079 111.574C75.8119 111.645 75.8092 111.712 75.8083 111.781C76.2378 112.461 76.7269 113.065 77.1514 113.121C78.842 113.338 79.393 112.278 79.324 111.019C79.205 108.83 76.2565 107.434 77.1078 105.065C77.9657 102.671 80.2007 104.464 81.9287 103.186C82.9679 102.411 84.9151 99.8928 85.3472 98.6836C85.8417 97.3068 84.834 95.9053 85.6288 94.5408C87.9831 90.5035 90.3993 93.2324 93.4107 92.4386C96.999 91.4827 99.372 87.4763 99.021 84.0652Z" fill="#B52C14"/>
<path d="M113.521 74.3157C113.477 74.0863 113.621 74.2848 113.496 73.9062C113.089 72.6936 112.695 71.5859 113.365 70.3499C114.605 68.064 117.791 66.9613 120.014 65.9913C120.721 65.6829 121.604 65.1785 122.017 64.5077C122.142 64.3087 122.581 62.6349 123.044 63.0457C123.927 63.8286 122.869 66.6709 122.556 67.482C122.105 68.6717 120.803 70.8764 119.551 71.3962C118.574 71.8017 117.153 71.8432 116.433 72.7205C115.9 73.3665 116.138 75.1096 115.381 75.4693C114.617 75.8289 113.615 74.787 113.521 74.3157Z" fill="#F0E29A"/>
<path d="M108.318 103.748C107.783 103.748 107.207 103.627 106.566 103.325C103.962 102.106 102.765 99.3177 101.709 96.8571C101.522 96.4211 101.34 95.9966 101.155 95.5968C101.155 95.5963 101.155 95.5959 101.155 95.5959C101.047 95.3624 100.843 94.5492 101.133 93.9945C101.275 93.7231 101.515 93.543 101.806 93.4874C102.809 93.3149 103.642 94.5183 105.177 97.1183C105.514 97.6889 105.933 98.3994 106.079 98.5441C106.709 99.1681 107.82 99.2038 108.996 99.2422C110.331 99.2859 111.845 99.3349 112.941 100.313C113.203 100.544 113.325 100.861 113.275 101.181C113.169 101.852 112.392 102.248 111.605 102.596C111.549 102.621 111.504 102.64 111.478 102.653L111.175 102.81C110.252 103.287 109.362 103.748 108.318 103.748ZM102.569 95.4851C102.691 95.7622 102.814 96.0478 102.939 96.339C103.902 98.5821 104.993 101.125 107.139 102.128C108.43 102.737 109.23 102.322 110.556 101.636L110.866 101.475C110.908 101.454 110.975 101.424 111.061 101.386C111.369 101.25 111.58 101.144 111.723 101.061C110.997 100.632 110 100.599 108.953 100.565C107.569 100.52 106.138 100.474 105.135 99.4801C104.88 99.2272 104.563 98.6986 104.024 97.786C103.672 97.1894 103.071 96.1726 102.569 95.4851ZM112.048 101.297C112.048 101.298 112.049 101.298 112.05 101.298C112.049 101.298 112.049 101.298 112.048 101.297Z" fill="#DD3D25"/>
<path d="M146.065 77.8508C145.558 77.1192 144.938 76.4493 144.6 75.6307C143.823 73.7266 143.749 70.98 144.587 69.0286C144.901 68.3067 146.961 64.6462 147.824 65.7905C148.676 66.9197 146.998 68.8605 147.18 70.2042C147.499 72.5536 150.266 73.6021 150.216 76.1078C150.21 76.4612 150.16 77.7388 149.941 77.9996C149.133 78.9792 146.666 78.725 146.065 77.8508Z" fill="#F0E29A"/>
<path d="M115.392 130.057C114.884 129.326 114.264 128.656 113.926 127.837C113.15 125.933 113.075 123.186 113.914 121.235C114.227 120.513 116.286 116.853 117.151 117.997C118.002 119.126 116.324 121.067 116.506 122.411C116.825 124.76 119.592 125.809 119.542 128.314C119.536 128.668 119.486 129.945 119.266 130.206C118.46 131.186 115.992 130.931 115.392 130.057Z" fill="#F0E29A"/>
<path d="M153.602 69.2784C152.626 70.8357 151.977 72.5518 152.456 74.441C153.047 76.7754 155.406 78.1045 156.802 79.9531C159.945 84.1144 156.095 88.9522 156.327 93.2376C156.433 95.1567 158.783 96.2273 160.334 95.4961C161.879 94.7684 162.916 92.937 163.578 91.4583C164.963 88.3622 164.829 85.1558 163.489 82.0982C161.778 78.1928 158.08 75.8959 155.728 72.4058C154.543 70.6477 154.699 69.2316 154.971 67.3645C154.497 67.9744 154.019 68.612 153.602 69.2784Z" fill="#2EA100"/>
<path opacity="0.15" d="M156.802 79.9531C159.945 84.1149 156.095 88.9522 156.327 93.2376C156.383 94.2516 157.068 95.0248 157.928 95.4246C160.841 92.1185 161.535 85.4625 160.352 82.0819C159.09 78.4752 155.502 76.7595 153.776 73.4882C153.219 72.4309 152.988 71.4319 152.953 70.4584C152.376 71.6918 152.096 73.017 152.456 74.4405C153.047 76.7754 155.406 78.1045 156.802 79.9531Z" fill="#4A0E3A"/>
<path d="M170.877 99.8305C169.887 99.7996 169.067 98.038 168.641 97.9017C167.026 97.3809 165.085 97.8893 163.777 98.9749C161.692 100.693 161.661 102.863 161.078 105.189C159.507 111.472 162.155 122.009 170.238 122.592C171.947 122.716 173.067 121.792 174.514 121.11C178.058 119.441 180.793 115.919 179.604 111.863C178.802 109.134 176.192 106.914 175.021 104.284C174.646 103.44 172.154 99.8676 170.877 99.8305Z" fill="#9A4201"/>
<path opacity="0.3" d="M179.604 111.862C178.802 109.133 176.192 106.913 175.021 104.284C174.645 103.44 172.153 99.8677 170.876 99.8306C169.887 99.7997 169.066 98.0381 168.641 97.9018C167.823 97.6379 166.922 97.6401 166.061 97.8453C166.244 97.8016 166.271 99.546 166.332 99.6435C166.79 100.384 167.539 100.495 168.315 100.824C169.093 101.154 170.859 102.113 169.849 103.231C169.014 104.154 165.249 102.523 166.842 105.416C165.758 105.796 165.101 106.617 164.54 107.58C164.209 108.15 164.025 108.838 163.699 109.414C163.418 109.909 161.062 112.898 161.132 113.203C162.216 117.914 165.149 122.225 170.237 122.592C171.946 122.716 173.067 121.792 174.513 121.11C178.057 119.441 180.794 115.919 179.604 111.862ZM174.615 112.586C174.545 112.923 174.336 113.202 173.625 113.459C172.598 113.83 171.497 113.026 170.464 113.563C169.092 114.276 170.131 114.155 169.745 115.384C169.334 116.694 167.182 118.554 165.6 118.016C165.162 117.867 163.704 116.127 163.654 115.741C163.373 113.629 167.908 113.157 167.504 110.558C165.647 110.508 166.61 108.386 167.255 107.537C168.313 106.144 170.305 105.425 172.003 105.223C173.755 105.015 174.779 106.649 175.296 108.035C175.883 109.611 175.346 109.868 174.815 111.247C174.605 111.791 174.691 112.222 174.615 112.586Z" fill="#4A0E3A"/>
<path d="M98.3072 127.366C97.039 128.075 95.3154 127.875 94.1617 127.025C92.7758 126.005 92.5731 124.056 92.0875 122.54C91.2371 119.887 89.6196 117.726 87.1495 116.345C82.9473 113.997 74.8513 115.155 74.5168 120.909C74.4963 121.26 74.8326 121.452 75.1337 121.28C77.7905 119.758 80.4888 117.701 83.7781 118.666C87.0711 119.632 88.0819 122.329 88.8752 125.305C90.3204 130.724 95.6184 133.51 100.755 130.672C103.07 129.393 100.606 126.081 98.3072 127.366Z" fill="#F0D960"/>
<path d="M70.3614 110.518C66.0002 102.83 66.8622 95.7539 74.1862 89.9612C77.611 87.2525 81.0541 90.5366 80.2843 95.0042C80.0807 96.1868 78.171 96.7234 77.8351 98.1629C77.5789 99.2604 78.5621 100.969 78.6717 102.162C78.861 104.227 78.3888 114.869 75.8697 115.743C73.8383 116.449 71.4769 112.409 70.638 110.996C70.544 110.837 70.4514 110.678 70.3614 110.518Z" fill="#2EA100"/>
<path opacity="0.15" d="M73.1056 100.007C72.8543 105.338 74.1515 110.679 75.6078 115.797C75.6956 115.784 75.7838 115.774 75.8702 115.744C78.3889 114.869 78.8615 104.227 78.6722 102.162C78.5626 100.969 77.5794 99.2603 77.8356 98.1633C78.1715 96.7238 80.0808 96.1872 80.2848 95.0045C80.6349 92.9733 80.1084 91.1945 79.1141 90.1045C76.4724 93.0655 73.302 95.8399 73.1056 100.007Z" fill="#4A0E3A"/>
<path d="M87.0061 81.5781C82.4017 78.7451 76.0639 81.8332 73.3782 85.9221C71.7901 88.3399 71.5776 90.7145 71.3887 93.5083C71.3085 94.6936 71.2497 96.1353 70.0042 96.6944C68.7034 97.2782 67.7879 96.4525 66.6716 95.9234C65.1859 95.2196 63.1341 96.9274 63.9466 98.5028C65.2492 101.028 68.4325 101.788 71.0737 100.969C74.348 99.9542 75.5988 97.0712 75.6844 93.8869C75.7802 90.3301 76.3031 86.855 79.7065 84.8856C81.3646 83.9262 83.2004 83.7311 85.0812 83.6416C85.7276 83.6107 87.3281 83.7867 87.4172 82.7334C87.4199 82.7007 87.4226 82.6677 87.4257 82.635C87.4569 82.2626 87.3575 81.7943 87.0061 81.5781Z" fill="#F0D960"/>
<path d="M112.601 134.071L110.297 207.441L110.003 216.979L109.79 223.665L109.49 233.216L108.87 253L54.5763 221.842L51.2205 204.613L49.129 193.902V193.895L47.6706 186.391L45.5795 175.674L31.499 103.39L112.601 134.071Z" fill="#F61D00"/>
<path d="M109.79 223.665L109.49 233.216L51.2204 204.613L49.1289 193.902L109.79 223.665Z" fill="#F08C2E"/>
<path d="M110.297 207.441L110.003 216.979L47.6704 186.391L45.5793 175.674L110.297 207.441Z" fill="#F08C2E"/>
<path opacity="0.15" d="M31.4985 103.39L40.743 150.84L87.7706 174.427L112.601 134.072L31.4985 103.39Z" fill="#4A0E3A"/>
<path d="M199.676 109.077L186.429 176.158L184.406 186.391L182.885 194.094L180.863 204.333L176.906 224.378L108.87 253L109.477 233.675V233.669L109.778 224.149L110.003 216.979L110.297 207.453L112.601 134.071L199.676 109.077Z" fill="#BC1103"/>
<path d="M182.885 194.094L180.863 204.333L109.477 233.669L109.778 224.149L182.885 194.094Z" fill="#E36E2B"/>
<path d="M186.429 176.158L184.406 186.391L110.003 216.979L110.297 207.453L186.429 176.158Z" fill="#E36E2B"/>
<path opacity="0.15" d="M199.676 109.078L112.601 134.072L134.684 174.927L189.978 158.188L199.676 109.078Z" fill="#4A0E3A"/>
<path d="M77.1082 161.525L112.601 134.072L31.498 103.391L0 126.95L77.1082 161.525Z" fill="#ECE8CC"/>
<path d="M141.036 166.966L112.601 134.072L199.676 109.078L229.933 140.348L141.036 166.966Z" fill="#ECE8CC"/>
<path opacity="0.3" d="M112.561 136.45C112.561 136.45 111.235 181.093 109.061 248.018L108.935 248.014C108.524 219.359 110.084 166.741 112.436 136.446L112.561 136.45Z" fill="white"/>
<path d="M66.4124 98.4069C65.9958 96.1316 63.6518 95.1952 61.4926 95.5178C58.6981 95.9357 55.7357 98.2555 53.7957 100.18C51.7915 102.168 50.3352 104.912 50.5865 107.797C50.7072 109.187 51.2431 110.432 51.9033 111.643C52.1505 112.096 54.2951 115.806 52.9952 115.51C49.7771 114.779 49.1356 119.647 52.2249 120.469C54.3721 121.039 56.7487 119.813 57.755 117.889C59.0607 115.392 58.0272 112.682 56.7051 110.444C55.9892 109.232 55.08 108.061 55.1218 106.587C55.1597 105.25 55.9616 103.997 56.8146 103.02C58.4567 101.138 61.8703 97.8685 64.3868 99.5101C65.2038 100.042 66.6217 99.5498 66.4124 98.4069Z" fill="#F0D960"/>
<path d="M132.272 127.775C130.375 127.976 128.083 129.022 126.422 127.501C124.554 125.789 126.52 124.71 127.75 123.675C127.87 123.574 127.934 123.415 127.873 123.263C127.35 121.97 125.973 121.943 124.826 122.484C123.214 123.245 122.414 125.031 122.646 126.75C122.914 128.736 124.503 130.304 126.343 130.962C127.301 131.305 128.298 131.417 129.313 131.377C130.194 131.342 133.221 130.261 133.871 130.818C134.748 131.569 132.067 131.453 131.674 131.498C130.725 131.606 129.774 131.853 128.918 132.274C127.213 133.111 125.756 134.69 125.401 136.581C124.77 139.934 128.601 144.921 131.876 141.752C132.403 141.243 132.228 140.132 131.64 139.747C130.728 139.15 129.234 138.794 129.187 137.478C129.13 135.866 131.368 134.987 132.619 134.724C134.664 134.294 137.404 134.04 137.386 131.289C137.367 128.662 134.52 127.538 132.272 127.775Z" fill="#F0D960"/>
</svg>
