<svg width="64" height="64" viewBox="0 0 64 64" fill="none" xmlns="http://www.w3.org/2000/svg">
<ellipse cx="32" cy="31.8342" rx="32" ry="31.8342" fill="#7765FF"/>
<path d="M39.303 22.2481L37.8557 24.0977C40.9754 26.5126 42.5315 30.4223 41.9174 34.3021C41.4674 37.149 39.9297 39.6512 37.5879 41.3483C35.2452 43.0443 32.3796 43.7337 29.5179 43.2838C23.6103 42.3585 19.5596 36.8245 20.4882 30.947C20.9382 28.0998 22.4763 25.5974 24.8185 23.9009C26.8634 22.42 29.307 21.7087 31.7989 21.8498L29.7622 23.9754L31.2731 25.4098L34.4882 22.052L34.4889 22.0532L35.9292 20.5486L34.4194 19.1157L34.4186 19.1162L31.0446 15.9172L29.6032 17.4218L31.8017 19.5049C28.8131 19.3643 25.8858 20.2292 23.4321 22.0066C20.5813 24.0715 18.7095 27.1171 18.1614 30.5832C17.0309 37.7368 21.9608 44.4735 29.1515 45.5992C29.8465 45.7083 30.5412 45.7617 31.2314 45.7617C34.0012 45.7617 36.6925 44.8957 38.9743 43.2426C41.8254 41.1773 43.6969 38.1317 44.245 34.6663C44.9926 29.945 43.0988 25.1863 39.303 22.2481Z" fill="white"/>
<path d="M32.4967 39.3242V39.3237H32.4969V37.9749C34.1044 37.7964 35.6685 36.7862 35.6685 34.8683C35.6685 32.2624 33.2328 31.9636 31.4537 31.7457C30.3162 31.6105 29.4456 31.4535 29.4456 30.768C29.4456 29.8149 30.796 29.7122 31.3768 29.7122C32.2387 29.7122 33.1583 30.1152 33.4707 30.6297L33.5615 30.7792L35.3484 29.9566L35.26 29.7773C34.5941 28.423 33.4008 28.0312 32.4964 27.873V26.6855H30.404V27.8679C28.456 28.1538 27.2992 29.2293 27.2992 30.768C27.2992 33.277 29.5892 33.5316 31.2599 33.7179C32.7488 33.8926 33.4419 34.2586 33.4419 34.8683C33.4419 36.0332 31.8203 36.1242 31.3232 36.1242C30.2167 36.1242 29.1498 35.575 28.8412 34.8457L28.7646 34.6656L26.8232 35.4844L26.9007 35.6645C27.4755 37.0031 28.716 37.8419 30.4043 38.0402V39.3242H32.4967Z" fill="white"/>
</svg>
