<svg width="160" height="208" viewBox="0 0 160 208" fill="none" xmlns="http://www.w3.org/2000/svg">
<path d="M150.416 82.4541C150.416 82.4541 111.633 55.4311 77.2633 53.1912C40.6956 50.8082 24.9854 83.2036 24.9854 83.2036L14.9385 89.7387L59.9774 105.857L139.588 92.2992L150.416 82.4541Z" fill="#FFECD2"/>
<path d="M150.414 82.4542L133.648 134.823L129.79 146.863L120.806 174.926L109.529 181.912L119.926 150.913L124.106 138.45L139.589 92.2986L150.414 82.4542Z" fill="#BC0D01"/>
<path d="M133.648 134.823L129.79 146.863L119.926 150.913L124.106 138.45L133.648 134.823Z" fill="#CCBB72"/>
<path d="M139.588 92.2993L136.336 101.995L147.417 91.8197L150.416 82.4542L139.588 92.2993Z" fill="#CCBB72"/>
<path d="M0 56.7057C0 56.7057 17.1273 70.6957 24.684 95.0788L34.5578 92.2748C34.5578 92.2748 22.0106 61.0166 13.3744 52.6291C4.7379 44.2412 1.39596 50.318 0 56.7057Z" fill="#F1C23F"/>
<path opacity="0.15" d="M4.69609 51.785C8.77987 54.3061 11.8603 58.4028 14.5843 62.1678C21.4464 71.6522 25.1754 82.894 27.8937 94.1674L34.5577 92.2748C34.5577 92.2748 22.0105 61.0166 13.3743 52.6291C7.75659 47.173 4.38033 47.8398 2.32129 50.7287C3.09275 50.9383 3.88838 51.2861 4.69609 51.785Z" fill="#F91E00"/>
<path d="M32.7016 87.824C32.7016 87.824 21.9822 38.5323 21.3105 30.7662C21.3105 30.7662 24.6868 24.5967 32.4903 26.4185L42.9788 81.6328L32.7016 87.824Z" fill="#F1C23F"/>
<path opacity="0.15" d="M26.5785 27.9327C27.4989 28.082 28.3643 28.4834 29.1241 29.2504C30.5337 30.6738 31.058 32.837 31.6256 34.6566C32.7553 38.2786 33.8066 41.9118 34.5909 45.6188C36.2836 53.6186 37.0293 61.8088 37.9462 69.9155C38.4822 74.6545 38.8704 79.4014 38.8135 84.1419L42.9792 81.6328L32.4902 26.4184C29.7681 25.7829 27.5862 26.1209 25.8967 26.8295C26.1719 27.191 26.3984 27.5578 26.5785 27.9327Z" fill="#F91E00"/>
<path d="M44.8219 77.3235C44.8219 77.3235 39.0225 35.0454 53.1902 16.6757C53.1902 16.6757 60.7512 14.9928 63.5404 17.7276L64.568 22.5653C64.568 22.5653 56.1264 48.367 57.0807 67.8581L44.8219 77.3235Z" fill="#F1C23F"/>
<path opacity="0.15" d="M63.5402 17.7276L64.5678 22.5653C64.5678 22.5653 56.1262 48.367 57.0805 67.8581C57.0805 67.8581 46.6231 67.0744 44.7944 37.3386C43.9976 24.3782 57.7046 30.7249 57.7046 30.7249C57.7046 30.7249 61.5728 19.4165 63.5402 17.7276Z" fill="#F91E00"/>
<path d="M40.637 16.0447C40.637 16.0447 44.1606 47.2452 57.0805 67.8585L67.5047 64.563C67.5047 64.563 55.9792 28.9459 51.6483 13.0999L47.9048 11.5577L40.637 16.0447Z" fill="#F1C23F"/>
<path opacity="0.15" d="M62.3469 66.1935L67.5047 64.563C67.5047 64.563 55.9792 28.9459 51.6483 13.0999L47.9048 11.5577L62.3469 66.1935Z" fill="#F91E00"/>
<path d="M63.3798 65.8669C63.3798 65.8669 54.2178 30.2773 70.1471 0.97046C70.1471 0.97046 76.0935 -1.8343 80.7912 2.09229C80.7912 2.09229 69.4867 42.1267 74.625 64.7033L63.3798 65.8669Z" fill="#F1C23F"/>
<path opacity="0.15" d="M74.4703 0.00725487C74.1027 0.743352 73.7452 1.4828 73.4034 2.22746C73.3616 2.33841 73.3188 2.449 73.2778 2.55995C73.7827 1.68237 74.3452 0.842391 74.903 0.000552933C74.7568 -0.000191728 74.6126 0.00241458 74.4703 0.00725487Z" fill="#F91E00"/>
<path opacity="0.15" d="M80.074 1.55469C78.8796 3.41336 77.5636 5.17969 76.8073 7.34107C75.7022 10.4992 74.8621 13.7757 74.2583 17.0529C72.9699 24.0438 71.8679 31.0827 70.6438 38.0851C69.5048 44.6016 68.3875 51.4763 68.9532 58.09C69.1477 60.3653 69.4997 62.7922 69.651 65.2183L74.6251 64.7037C69.4868 42.1268 80.7913 2.09233 80.7913 2.09233C80.5551 1.895 80.3153 1.71926 80.074 1.55469Z" fill="#F91E00"/>
<path d="M91.2149 16.1846C91.2149 16.1846 82.7737 14.6205 79.176 20.3916C79.176 20.3916 67.7975 42.4071 74.6245 64.7029L84.3876 65.1237L87.4953 63.208L95.0317 19.129L91.2149 16.1846Z" fill="#F1C23F"/>
<path opacity="0.15" d="M91.2149 16.1846L84.3879 65.1237L87.4956 63.2081L95.0321 19.129L91.2149 16.1846Z" fill="#F91E00"/>
<path d="M92.1101 69.0569C92.1101 69.0569 98.4634 38.6513 91.1328 22.8482L98.8123 20.2474L103.699 23.1148C103.699 23.1148 115.288 43.1852 104.467 74.2576L92.1101 69.0569Z" fill="#F1C23F"/>
<path opacity="0.15" d="M98.8123 20.2474L103.699 23.1148C103.699 23.1148 115.288 43.1852 104.467 74.2576L97.5566 71.3494C106.766 40.0226 98.8123 20.2474 98.8123 20.2474Z" fill="#F91E00"/>
<path d="M100.487 77.392C100.487 77.392 112.705 37.3177 124.154 26.5157C124.154 26.5157 130.577 26.3154 134.067 29.8495C134.067 29.8495 114.659 66.9236 113.961 86.7271L100.487 77.392Z" fill="#F1C23F"/>
<path opacity="0.15" d="M133.35 29.2061C130.489 31.3622 122.653 47.878 120.741 52.7209C116.591 63.2288 112.135 85.461 112.135 85.461L113.961 86.727C114.659 66.9231 134.067 29.8494 134.067 29.8494C133.84 29.619 133.6 29.4056 133.35 29.2061Z" fill="#F91E00"/>
<path d="M111.587 20.1809L98.4629 74.1918L109.842 80.1927C109.842 80.1927 123.944 34.3171 121.71 22.515C121.71 22.5146 119.476 17.2473 111.587 20.1809Z" fill="#F1C23F"/>
<path opacity="0.15" d="M121.71 22.5146C121.71 22.5146 121.131 21.1657 119.539 20.2133C120.05 25.2557 118.437 30.7655 117.431 35.4993C116.638 39.233 116.072 42.998 115.074 46.6919C113.935 50.9104 112.32 55.0131 110.892 59.1478C109.668 62.6909 108.22 66.2016 107.153 69.789C106.459 72.122 105.912 74.4915 105.183 76.8164C105.103 77.0725 105.02 77.3358 104.936 77.6042L109.843 80.1919C109.843 80.1923 123.944 34.3171 121.71 22.5146Z" fill="#F91E00"/>
<path d="M113.961 86.727C113.961 86.727 121.507 61.5634 130.674 50.4918L142.841 46.6669L143.355 49.8455C143.355 49.8455 126.694 72.3938 123.64 92.7822L113.961 86.727Z" fill="#F1C23F"/>
<path opacity="0.15" d="M113.961 86.727C113.961 86.727 121.507 61.5634 130.674 50.4918L142.841 46.6669L143.355 49.8455C143.355 49.8455 126.694 72.3938 123.64 92.7822L113.961 86.727Z" fill="#F91E00"/>
<path d="M128.66 92.9479C128.66 92.9479 133.516 71.5646 157.31 61.2261L160 68.049C160 68.049 150.249 77.3204 139.588 92.2993C128.927 107.278 128.66 92.9479 128.66 92.9479Z" fill="#F1C23F"/>
<path opacity="0.15" d="M158.71 64.7773L160 68.049C160 68.049 150.249 77.3204 139.588 92.2992C136.922 96.0441 134.907 97.9572 133.382 98.7201C128.81 101.009 158.71 64.7773 158.71 64.7773Z" fill="#F91E00"/>
<path d="M138.266 39.9172C138.266 39.9172 126.927 78.5357 115.971 96.3212L127.561 100.337L150.028 47.5314L147.981 42.0801L138.266 39.9172Z" fill="#F1C23F"/>
<path opacity="0.15" d="M123.134 98.8031L127.561 100.337L150.028 47.5314L147.981 42.0801L123.134 98.8031Z" fill="#F91E00"/>
<path d="M14.9385 89.7387L28.5332 88.0927C28.5332 88.0927 41.745 58.1 77.5506 61.5753C113.356 65.0499 118.717 88.8247 118.717 88.8247L139.588 92.2993L109.527 181.911C109.527 181.911 71.9976 171.122 36.192 178.62L14.9385 89.7387Z" fill="#F91E00"/>
<path d="M124.107 138.448C114.575 135.369 104.784 133.144 94.8758 131.768C93.5761 121.033 84.0317 112.697 72.4434 112.697C61.0158 112.697 51.5758 120.804 50.0703 131.324C41.9487 132.289 33.895 133.83 25.9851 135.936L29.0304 148.67C36.6799 146.568 44.4841 145.056 52.357 144.137C56.1075 151.089 63.6915 155.846 72.4438 155.846C81.0281 155.846 88.494 151.272 92.3158 144.537C101.682 145.821 110.934 147.947 119.926 150.913L124.107 138.448Z" fill="#F8E38B"/>
<path opacity="0.8" d="M32.2684 153.15C34.1574 164.992 38.4073 181.835 49.2576 168.972C60.6393 155.478 59.9707 136.097 74.9325 124.222C84.3732 116.73 105.6 113.566 108.042 100.134C110.055 89.0578 97.9281 77.3726 89.2702 71.8007C71.7301 60.5124 48.8799 67.1786 35.829 82.4631C22.2137 98.4085 28.5791 126.864 31.1636 145.283C31.4135 147.064 31.753 149.921 32.2684 153.15Z" fill="#FFD99E"/>
<path d="M158.354 189.189C158.354 189.189 85.3743 165.529 55.0679 170.029L46.594 174.456L45.9839 186.566L56.1454 185.865C56.1454 185.865 114.328 183.815 152.244 196.867C152.244 196.866 162.761 195.014 158.354 189.189Z" fill="#F1C23F"/>
<path opacity="0.15" d="M158.354 189.189L46.5942 174.455L45.9841 186.566L56.1456 185.865C56.1456 185.865 114.328 183.815 152.245 196.867C152.244 196.866 162.761 195.014 158.354 189.189Z" fill="#F91E00"/>
<path d="M14.9385 89.7387L28.5332 88.0927C28.5332 88.0927 41.745 58.1 77.5506 61.5753C113.356 65.0499 118.717 88.8247 118.717 88.8247L139.588 92.2993L136.397 101.809L105.669 100.186C105.669 100.186 109.281 72.1923 72.4432 69.7249C45.1599 69.7249 33.6519 100.386 33.6519 100.386L17.845 101.895L14.9385 89.7387Z" fill="#F8E38B"/>
<path d="M152.58 172.368C152.58 172.368 106.596 164.929 59.9037 191.494L56.6389 202.546C56.6389 202.546 61.638 206.544 64.8123 208C64.8123 208 134.774 181.151 153.946 183.364L154.698 175.833L152.58 172.368Z" fill="#F1A93F"/>
<path opacity="0.15" d="M152.58 172.368C152.58 172.368 106.596 164.929 59.9036 191.494L67.5047 197.838L64.8126 208C64.8126 208 134.774 181.152 153.947 183.365L154.702 175.805L152.58 172.368Z" fill="#F91E00"/>
<path d="M152.58 172.368C152.58 172.368 106.596 164.929 59.9036 191.494L67.5047 197.838C90.2302 178.558 154.699 175.822 154.699 175.822L152.58 172.368Z" fill="#F1C23F"/>
</svg>
