<svg width="168" height="201" viewBox="0 0 168 201" fill="none" xmlns="http://www.w3.org/2000/svg">
<circle cx="82" cy="125" r="76" fill="#FBEDE4"/>
<g clip-path="url(#clip0_20:173)">
<path d="M141.156 93.2543C141.668 88.097 142.99 82.7672 138.776 78.5729C134.564 74.3751 126.53 74.376 123.405 79.1703C120.276 83.9673 113.41 90.1636 110.5 90.3854C107.588 90.6104 100.497 91.8898 100.497 91.8898L103.154 112.932C103.154 112.932 111.724 107.516 116.97 108.08C122.216 108.644 130.606 112.629 134.023 112.074C137.443 111.515 140.302 109.427 142.285 105.382C144.269 101.338 140.601 98.8487 141.156 93.2543Z" fill="#CB3E1F"/>
<path opacity="0.2" d="M137.71 86.1154C136.742 89.2881 138.828 90.6905 140.639 92.0208C140.84 92.1682 141.04 92.3206 141.239 92.4778C141.729 88.0818 142.573 83.6091 139.876 79.8621C139.378 82.0891 138.385 83.8996 137.71 86.1154Z" fill="#2D0C09"/>
<path opacity="0.2" d="M142.286 105.383C142.671 104.598 142.841 103.872 142.872 103.17C142.361 103.796 141.761 104.312 141.113 104.688C137.012 107.066 132.108 105.534 128.154 103.48C125.395 102.046 123.397 103.035 120.625 103.448C118.354 103.787 116.422 102.942 114.567 101.208C112.022 98.8278 109.487 94.7926 109.331 90.5035C106.033 90.8911 100.497 91.8898 100.497 91.8898L103.154 112.932C103.154 112.932 111.724 107.516 116.97 108.08C122.216 108.644 130.606 112.629 134.023 112.074C137.444 111.515 140.303 109.427 142.286 105.383Z" fill="#2D0C09"/>
<path opacity="0.3" d="M136.125 83.1614C136.356 81.6771 135.387 80.8498 134.53 80.3054C133.192 79.4599 128.324 81.2476 128.312 83.5446C128.294 86.3988 131.907 86.3235 133.35 86.9877C134.142 87.3495 134.174 88.6703 134.791 89.2067C135.097 89.4709 135.918 89.5292 136.183 89.1368C136.998 87.9277 135.891 84.6676 136.125 83.1614Z" fill="white"/>
<path opacity="0.3" d="M137.212 102.701C134.779 99.5103 132.998 95.2163 129.704 94.2335C128.481 93.87 127.557 95.2889 126.47 95.725C124.51 96.5104 122.618 97.0071 120.578 97.2726C119.835 97.3688 118.076 97.041 117.475 97.833C116.918 98.5676 117.038 100.023 117.585 100.714C118.286 101.599 121.41 101.764 122.511 102.121C123.703 102.511 125.39 102.67 126.486 103.521C128.728 105.268 131.016 106.775 133.611 107.071C135.664 107.304 138.867 104.882 137.212 102.701Z" fill="white"/>
<path d="M113.294 109.651C112.939 111.048 112.773 112.874 111.879 113.957C111.204 114.77 110.334 114.78 109.534 114.862C108.107 115.008 106.922 117.294 105.596 117.868C103.408 118.821 101.083 118.74 98.9443 119.493C96.5547 120.344 95.4223 124.26 93.4653 126.048C92.6689 126.768 91.9653 126.188 91.1848 126.703C89.0376 128.111 87.0969 129.953 85.2087 131.892C83.8137 133.317 82.839 135.349 81.5128 136.849C80.6838 137.786 79.75 138.409 79.0301 139.53C77.5662 141.811 76.9557 144.671 74.9382 146.437C73.3855 147.802 71.7235 148.837 69.9241 149.519C68.3027 150.136 66.6207 150.348 65.1691 151.588C62.7106 153.679 61.2551 157.953 58.6713 159.654C57.5672 160.374 54.7815 160.845 53.5442 160.277C52.9053 159.984 52.4807 158.776 51.781 158.9C50.0465 159.215 48.0895 161.56 46.4477 162.405C44.8788 163.201 43.4515 162.584 41.8909 162.86C40.2332 163.163 38.7571 164.609 37.0106 164.588C35.7246 164.577 34.9727 163.412 33.7919 163.115C32.2878 162.736 31.3175 164.388 29.987 164.772C29.0043 165.049 26.7763 165.135 25.8748 164.729C24.5446 164.112 22.2155 162.709 21.4067 161.122C20.5697 159.469 20.4484 157.254 19.3526 155.927C18.6087 155.028 16.8579 155.207 15.8832 154.622C14.6296 153.874 13.1255 151.843 12.046 150.597C10.4206 148.723 9.8423 145.245 8.3585 143.106C5.58477 139.092 4.35138 135.587 2.552 130.674C1.75557 128.497 0.716376 126.308 0.251152 123.957C-0.294548 121.167 0.162363 117.69 0.558419 114.889C0.889963 112.538 -0.238016 109.955 0.0935272 107.604C0.433051 105.215 0.60298 102.805 1.08816 100.41C1.39942 98.8557 1.96972 97.3878 2.25272 95.8442C2.55998 94.1541 2.96834 92.3017 3.73685 90.8606C4.59813 89.2519 6.05366 87.8487 7.54976 87.5186C8.35052 87.3399 9.32087 87.6161 9.89916 86.6084C10.4774 85.5847 9.48249 84.1329 10.2347 83.2227C11.1405 82.1286 12.3576 82.6325 13.0287 80.9641C14.3549 77.6818 13.328 72.5574 16.7568 71.3439C17.8688 70.9536 19.1707 71.1162 19.9715 72.3948C20.6589 73.4889 20.6063 77.0532 22.2883 76.5712C23.2467 76.3003 25.2359 74.9897 25.9719 74.1553C27.2053 72.7632 27.8198 70.5638 29.0369 69.1882C29.9387 68.1698 34.2205 67.0053 35.3731 67.1354C36.562 67.2708 37.9044 68.197 39.1012 67.8557C40.2093 67.5363 40.9695 65.835 41.8387 65.0011C43.4845 63.4249 48.0699 63.1919 49.8164 63.9827C51.2759 64.6598 52.4122 66.8209 53.8394 67.249C56.4273 68.0183 59.1687 66.6476 61.6109 68.6897C63.7498 70.4716 65.343 73.6515 67.2881 75.9373C67.6033 76.3164 67.9269 76.663 68.2667 76.9775C68.6226 77.308 68.9987 77.6003 69.3867 77.8711C70.4582 78.624 71.6307 79.1929 72.7387 79.8428C73.1069 80.054 73.4667 80.271 73.8142 80.5093C75.4476 81.6306 76.7538 82.481 78.5409 83.1038C80.587 83.8081 82.6209 82.7029 84.7315 83.678C87.473 84.9294 90.0931 87.6322 93.1218 87.6593C94.2701 87.67 96.9471 87.2856 97.8728 86.4405C98.7301 85.6604 99.1425 84.5663 100.161 84.095C102.636 82.9519 107.161 84.1979 109.324 85.8823C110.246 86.6026 110.29 88.0923 109.995 89.3976C109.845 90.0694 109.611 90.6922 109.356 91.1363C108.818 92.0843 107.808 92.4149 107.44 93.4333C107.436 93.4386 107.436 93.4493 107.432 93.4551C107.343 93.7041 107.294 93.9915 107.302 94.3487C107.302 94.4298 107.302 94.5113 107.31 94.5924C107.423 95.9792 107.844 96.4884 108.402 97.566C108.895 98.5247 110.234 99.3752 110.82 100.307C112.005 102.186 113.938 107.127 113.294 109.651Z" fill="#DF7032"/>
<path opacity="0.2" d="M113.294 109.65C112.938 111.048 112.772 112.874 111.879 113.957C111.204 114.769 110.334 114.78 109.534 114.862C108.107 115.008 106.922 117.294 105.596 117.868C103.408 118.821 101.083 118.74 98.9441 119.493C96.5544 120.343 95.4221 124.26 93.4651 126.047C92.6687 126.768 91.965 126.188 91.1845 126.703C89.0373 128.111 87.0966 129.953 85.2085 131.892C83.8134 133.317 82.8388 135.348 81.5126 136.849C80.6836 137.786 79.7498 138.409 79.0298 139.53C77.566 141.81 76.9555 144.67 74.9379 146.436C73.3853 147.801 71.7233 148.836 69.9239 149.519C68.3024 150.136 66.6204 150.347 65.1689 151.588C62.7104 153.679 61.2549 157.953 58.671 159.653C57.567 160.374 54.7813 160.845 53.5439 160.276C52.9051 159.984 52.4804 158.776 51.7808 158.9C50.0462 159.214 48.0892 161.56 46.4475 162.405C44.8786 163.201 43.4513 162.583 41.8907 162.86C40.233 163.163 38.7568 164.609 37.0103 164.588C35.7244 164.577 34.9725 163.412 33.7916 163.114C32.2876 162.735 31.3172 164.387 29.9867 164.772C29.0041 165.048 26.776 165.135 25.8745 164.729C24.5444 164.111 22.2152 162.709 21.4065 161.121C20.5695 159.469 20.4481 157.254 19.3524 155.927C18.6085 155.028 16.8577 155.206 15.883 154.621C14.6293 153.874 13.1252 151.842 12.0458 150.597C10.4203 148.723 9.84205 145.245 8.35825 143.105C5.58453 139.092 4.35114 135.587 2.55176 130.674C1.75532 128.496 0.716132 126.308 0.250907 123.957C-0.294792 121.167 0.162119 117.69 0.558175 114.889C0.889719 112.538 -0.23826 109.954 0.0932831 107.603C0.0972736 107.587 0.0972736 107.576 0.101264 107.566C-0.250564 110.052 4.34681 117.169 5.27693 119.439C6.42918 122.256 8.33398 127.689 10.9095 128.599C11.7505 128.897 14.0108 128.615 14.7507 128.583C16.7483 128.485 18.0987 128.22 19.518 125.69C21.4022 122.337 19.3238 120.235 20.6786 117.543C22.3243 114.271 25.1749 114.558 24.5603 109.293C24.3016 107.088 23.3472 106.466 23.8487 103.974C24.1397 102.538 25.1306 101.748 25.5147 100.415C25.7937 99.4394 25.4944 98.1667 25.7615 97.3216C26.4285 95.2091 26.3195 95.6533 27.8641 94.5213C28.4584 94.0825 28.9598 94.7271 29.5381 94.0228C29.995 93.4646 29.6635 92.0457 29.991 91.3254C32.8376 85.0146 38.7897 81.3474 42.9625 76.8302C49.7839 69.4472 60.0015 70.2272 67.2882 75.9365C67.8299 76.3589 68.3556 76.8141 68.8651 77.2908C69.0593 77.4748 69.2332 77.6699 69.3868 77.8704C70.3329 79.0674 70.713 80.3838 72.391 80.0101C72.5243 79.9829 72.6377 79.9232 72.7388 79.8421C73.107 80.0533 73.4668 80.2702 73.8143 80.5086C75.4477 81.6298 76.7539 82.4803 78.541 83.1031C80.5871 83.8074 82.6209 82.7021 84.7316 83.6773C87.4731 84.9287 90.0932 87.6314 93.1219 87.6586C94.2702 87.6693 96.9472 87.2848 97.8729 86.4397C98.7302 85.6597 99.1426 84.5656 100.161 84.0943C102.636 82.9512 107.161 84.1972 109.324 85.8816C110.246 86.6019 110.29 88.0916 109.995 89.3969C109.122 90.8269 107.852 92.0297 107.439 93.4325C107.435 93.4379 107.435 93.4486 107.431 93.4544C107.351 93.7413 107.302 94.0393 107.302 94.348C107.302 94.4291 107.302 94.5106 107.31 94.5917C107.423 95.9785 107.844 96.4877 108.402 97.5653C108.895 98.524 110.233 99.3744 110.82 100.306C112.004 102.186 113.937 107.126 113.294 109.65Z" fill="#2D0C09"/>
<path opacity="0.2" d="M111.877 113.956C112.775 112.871 112.938 111.048 113.295 109.649C113.693 108.09 113.104 105.606 112.317 103.492C112.319 104.05 112.3 104.601 112.236 105.133C112.261 105.665 112.145 106.189 111.932 106.649C111.451 108.316 110.486 109.726 108.788 110.632C108.782 110.635 108.777 110.637 108.771 110.64C104.249 115.397 97.909 114.596 93.6295 119.799C91.1647 122.797 88.3188 124.612 85.3476 126.12C84.1185 127.767 82.6487 128.837 81.1376 130.166C80.1513 131.034 80.0841 131.375 79.706 132.694C79.4543 133.573 79.0176 134.312 78.466 134.885C77.8754 135.499 77.1744 135.924 76.4604 136.296C75.7468 138.325 74.4459 139.937 72.9967 141.213C72.9784 141.24 72.9624 141.269 72.9438 141.296C72.6096 141.778 72.1131 142.16 71.5913 142.327C71.5691 142.343 71.5468 142.361 71.5245 142.376C70.1498 143.355 68.661 143.943 67.269 144.853C65.3386 146.115 63.9216 148.442 62.1332 149.999C59.1866 152.566 56.5984 152.343 53.2274 152.484C49.5815 152.637 45.877 155.187 42.3577 156.409C36.1797 158.553 29.4072 159.809 24.0736 154.142C21.6284 151.545 19.7961 148.014 17.2239 145.639C14.3667 143.001 10.9262 141.239 8.87346 137.287C6.8576 133.407 5.65946 128.798 4.18996 124.535C2.72644 120.288 2.24493 115.326 0.547969 111.233C0.433242 110.973 0.317851 110.713 0.203457 110.453C0.424929 111.947 0.761128 113.459 0.559608 114.888C0.162887 117.687 -0.295355 121.168 0.25101 123.953C0.716235 126.306 1.75709 128.496 2.55319 130.669C4.3529 135.587 5.5853 139.091 8.35969 143.102C9.84415 145.246 10.4201 148.719 12.0476 150.597C13.1247 151.841 14.6314 153.872 15.8818 154.62C16.8591 155.204 18.6076 155.027 19.3532 155.927C20.4466 157.253 20.5703 159.466 21.4079 161.119C22.2143 162.709 24.5448 164.112 25.8763 164.726C26.7775 165.135 29.0035 165.049 29.9875 164.769C31.316 164.387 32.288 162.733 33.7924 163.114C34.9719 163.412 35.7255 164.574 37.0114 164.587C38.7573 164.608 40.2327 163.161 41.8901 162.861C43.4511 162.58 44.8797 163.203 46.4466 162.401C48.088 161.56 50.0444 159.212 51.7812 158.898C52.4802 158.772 52.9032 159.981 53.5427 160.274C54.7811 160.841 57.5688 160.373 58.6698 159.65C61.254 157.953 62.7105 153.68 65.1676 151.587C66.6205 150.349 68.3012 150.133 69.9247 149.517C71.7244 148.835 73.3861 147.8 74.9397 146.435C76.9549 144.666 77.5674 141.807 79.029 139.531C79.7499 138.407 80.6827 137.782 81.5117 136.846C82.8385 135.346 83.8136 133.317 85.2072 131.888C87.0954 129.952 89.0361 128.108 91.1827 126.699C91.9648 126.185 92.6701 126.768 93.4639 126.045C95.4229 124.258 96.5535 120.339 98.9432 119.493C101.083 118.736 103.408 118.82 105.594 117.869C106.922 117.292 108.106 115.005 109.532 114.861C110.334 114.781 111.203 114.771 111.877 113.956Z" fill="#2D0C09"/>
<path opacity="0.3" d="M100.163 84.0929C99.1417 84.5643 98.731 85.6584 97.8737 86.4402C96.9463 87.2862 94.2693 87.6715 93.1224 87.6608C90.0916 87.6287 87.4728 84.93 84.733 83.676C82.6214 82.7039 80.5856 83.8092 78.5394 83.1004C76.7544 82.4812 75.4491 81.6294 73.813 80.5068C72.0343 79.2964 69.9197 78.5137 68.2679 76.9745C65.8487 74.7181 64.0959 70.7573 61.6108 68.6876C59.1679 66.6473 56.4268 68.0185 53.8393 67.2491C52.4097 66.8201 51.2771 64.6573 49.8142 63.9842C48.071 63.189 43.4856 63.4229 41.8369 65.003C40.968 65.8356 40.2071 67.536 39.1018 67.8532C37.9046 68.1976 36.5611 67.2714 35.3736 67.1369C34.2187 67.0059 29.9369 68.1713 29.0364 69.1883C27.8206 70.5618 27.2048 72.7611 25.9734 74.1519C25.2341 74.9872 23.2455 76.2983 22.2888 76.5718C20.6038 77.0543 20.6604 73.4895 19.9723 72.3967C19.1699 71.1151 17.8684 70.9511 16.7553 71.3436C13.3295 72.5566 14.3527 77.6797 13.0292 80.9634C12.3568 82.6313 11.1391 82.1261 10.2329 83.2216C9.48034 84.1312 10.4786 85.5844 9.89802 86.6055C9.32172 87.6172 8.35203 87.3374 7.54961 87.5151C6.05285 87.8457 4.59565 89.2525 3.73603 90.8621C2.9672 92.3014 2.5605 94.1542 2.25323 95.8435C2.16444 96.3291 2.04373 96.8057 1.91504 97.2806C4.18297 96.6146 7.08605 94.2344 8.31712 93.8143C9.77996 93.3105 10.8517 93.6513 12.0077 92.0684C13.2228 90.4104 12.9005 87.7918 14.2117 86.2469C15.9895 84.1557 18.3628 85.2975 17.8088 88.5852C17.6712 89.3995 16.4331 90.5672 16.1505 91.5731C15.1648 92.938 14.2586 94.5017 13.4446 96.3055C12.4413 98.5244 10.2059 100.974 10.3629 103.812C10.6416 108.771 16.9326 104.985 18.7739 103.986C21.5725 102.466 23.9642 100.499 26.4605 98.3061C27.9603 96.9902 29.6759 96.1625 31.2245 94.9668C34.2972 92.5941 36.6227 89.7163 40.4219 89.9809C44.5597 90.2647 48.383 92.6494 52.4214 93.4958C60.8905 95.2742 69.6935 97.453 78.2112 98.4135C79.4463 98.5503 80.6956 98.597 81.9447 98.5552C86.7865 98.3761 91.6539 96.8343 95.9217 94.0785C96.3054 93.8312 96.6742 93.5581 97.0357 93.2721C99.3203 91.4296 101.221 88.8614 103.773 87.1801C105.137 86.2794 106.495 86.201 106.792 84.5148C104.576 83.6604 101.876 83.3026 100.163 84.0929Z" fill="white"/>
<path opacity="0.3" d="M99.3921 103.327C98.5394 101.261 93.971 99.8234 92.3372 99.3343C88.6054 98.2224 85.3193 100.137 81.95 101.935C75.7268 105.253 70.1145 109.24 64.4839 114.035C62.5169 115.711 60.1805 116.703 58.1337 118.205C55.0344 120.478 52.2438 123.41 48.922 125.307C45.7309 127.13 42.2423 128.535 38.9035 129.775C36.1794 130.787 32.3475 132.049 29.6656 130.356C26.8952 128.607 26.0276 125.788 24.461 122.592C23.7839 121.199 22.6613 120.221 21.7647 119.087C19.6667 116.439 17.6459 113.253 15.0421 111.474C13.7029 110.561 7.98988 110.592 7.93401 113.588C7.89843 115.508 13.3212 117.412 14.6174 118.441C19.7113 122.483 23.8085 128.422 28.91 132.439C34.6623 136.969 40.7219 137.511 47.0195 134.416C51.4377 132.245 54.6055 128.519 58.6402 125.536C60.9706 123.813 62.8861 121.759 65.0682 119.685C67.5543 117.321 69.7218 116.905 72.5128 115.932C76.0487 114.7 78.6159 112.187 81.2094 108.924C83.4853 106.06 85.2987 103.615 88.644 104.777C91.4729 105.76 94.7584 108.417 97.6662 106.478C99.405 105.319 99.7768 104.259 99.3921 103.327Z" fill="white"/>
<path d="M77.3459 108.673C79.1939 108.579 76.2559 105.417 75.5645 105.096C72.6644 103.769 71.4051 106.358 69.2838 108.165C68.5848 108.761 67.6447 108.514 67.0012 109.242C66.1227 110.235 65.7516 111.857 66.28 113.303C67.2713 116.008 74.3421 115.359 75.8315 113.149C76.4238 112.272 76.7121 110.948 76.9908 109.855C77.1424 109.26 77.1431 109.367 77.1866 108.673C77.1936 108.534 77.0839 108.248 77.188 108.25C77.3064 108.251 77.2269 108.68 77.3459 108.673Z" fill="#DF7032"/>
<path opacity="0.2" d="M67.8347 114.286C68.0778 108.431 74.6076 104.265 77.9376 108.076C77.8099 107.12 76.0751 105.332 75.5643 105.096C72.6642 103.769 71.4048 106.358 69.2836 108.165C68.5846 108.761 67.6445 108.514 67.001 109.242C66.1224 110.235 65.7513 111.857 66.2797 113.303C66.5128 113.939 67.0851 114.388 67.8393 114.676C67.8324 114.549 67.829 114.419 67.8347 114.286Z" fill="#2D0C09"/>
<path d="M54.4036 110.974C54.4585 111.281 53.9075 109.124 53.7213 108.678C53.0126 106.983 52.0529 105.925 51.0902 104.498C49.1102 101.56 43.9981 96.7064 40.9434 98.712C40.002 99.3308 39.9448 101.381 39.971 102.515C39.9953 103.646 40.7043 106.075 41.399 106.852C42.0241 107.554 43.4753 108.507 43.467 109.925C43.4527 112.563 38.4101 110.777 38.8876 114.619C38.9342 115.01 39.1593 116.098 39.3824 116.404C39.6671 116.791 40.0794 116.964 40.4532 117.177C41.5433 117.807 42.7295 117.602 43.8634 117.892C46.9876 118.688 48.8189 120.546 52.0812 118.404C53.3229 117.589 53.9993 114.618 54.3897 113.091C54.5327 112.541 54.2799 110.255 54.4036 110.974Z" fill="#CB3E1F"/>
<path opacity="0.2" d="M49.7081 118.349C47.9047 117.749 45.9457 117.316 44.2148 116.395C42.3489 115.401 42.6821 112.295 44.2009 111.153C44.2524 111.114 44.7645 110.668 45.1712 110.31C44.8134 109.684 44.3911 108.602 44.1922 108.228C43.2358 106.432 42.314 104.605 41.5937 102.612C41.1687 101.436 40.8638 100.158 40.7241 98.9035C39.9949 99.6769 39.9467 101.478 39.9709 102.516C39.9955 103.647 40.7042 106.076 41.3992 106.853C42.0244 107.554 43.4756 108.508 43.4673 109.926C43.453 112.564 38.4103 110.777 38.8879 114.62C38.9344 115.01 39.1595 116.099 39.3827 116.405C39.6673 116.792 40.0797 116.965 40.4535 117.178C41.5435 117.808 42.7297 117.603 43.8637 117.893C46.7129 118.618 48.49 120.218 51.2547 118.871C50.7665 118.724 50.2564 118.531 49.7081 118.349Z" fill="#2D0C09"/>
<path d="M76.0559 128.825C75.2136 127.677 73.9759 127.297 72.8416 126.927C70.85 126.277 67.2962 126.747 65.9341 129.142C64.574 131.531 64.3066 135.483 61.906 136.638C60.1339 137.492 58.9387 135.805 57.2953 135.236C55.7789 134.709 53.7218 134.981 52.2354 135.604C51.2268 136.026 49.6625 136.77 48.9948 137.942C48.5635 138.7 48.3283 139.629 47.8412 140.388C47.3058 141.222 46.3514 142.854 47.2506 143.94C49.4297 146.578 52.0109 142.833 54.2702 144.184C56.7503 145.67 52.6078 148.439 53.9859 149.434C55.5947 150.598 58.6424 149.801 60.065 148.396C61.2595 147.215 61.6878 145.125 62.5578 143.596C64.2378 140.645 66.2483 137.859 68.1125 135.095C68.5887 134.388 69.196 133.785 69.8933 133.504C71.2597 132.958 72.2261 134.293 73.4921 134.307C76.0021 134.332 78.2115 131.757 76.0559 128.825Z" fill="#DF7032"/>
<path opacity="0.3" d="M64.2871 133.413C64.9628 132.326 65.7117 131.322 66.586 130.468C68.3957 128.698 70.4178 128.104 72.5744 128.966C74.0911 129.572 75.4495 130.538 76.92 131.172C76.9164 130.451 76.6653 129.654 76.0561 128.825C75.2138 127.677 73.976 127.297 72.8417 126.927C70.8501 126.277 67.2963 126.747 65.9342 129.141C65.2445 130.353 64.8351 131.966 64.2871 133.413Z" fill="white"/>
<path opacity="0.3" d="M49.5968 138.966C49.9256 138.487 50.2116 138.084 50.3187 137.981C51.3672 136.974 52.6545 136.571 53.9324 136.594C56.2033 136.637 58.1883 138.054 59.6681 140.229C60.0811 140.155 60.4981 140.097 60.9374 140.033C60.9394 140.032 60.9411 140.033 60.9431 140.033C61.1499 139.586 61.3421 139.16 61.5164 138.791C61.9809 137.806 62.4438 136.815 62.9316 135.851C62.6367 136.175 62.3028 136.448 61.9061 136.639C60.134 137.493 58.9388 135.806 57.2954 135.236C55.779 134.71 53.7216 134.982 52.2355 135.604C51.2269 136.027 49.6626 136.771 48.9949 137.943C48.7235 138.42 48.5293 138.965 48.3015 139.493C48.7192 139.271 49.1522 139.092 49.5968 138.966Z" fill="white"/>
<path d="M39.4369 139.155C40.0149 137.201 36.9841 133.258 35.8717 132.634C32.5806 130.789 22.9924 127.499 21.067 133.494C20.8572 134.148 21.2975 136.219 21.4285 136.632C22.1458 138.951 23.7762 139.835 25.3887 140.572C25.8679 140.791 26.514 140.794 26.9008 141.268C28.8468 143.617 26.6993 148.112 29.5727 149.429C30.4061 149.809 32.1207 149.094 32.806 148.36C33.8988 147.19 33.9274 145.293 35.045 144.147C36.2299 142.933 38.0921 143.66 39.1024 142.328C39.6161 141.65 39.1975 139.962 39.4369 139.155Z" fill="#CB3E1F"/>
<path opacity="0.2" d="M39.1026 142.329C39.6161 141.651 39.1974 139.963 39.4368 139.156C39.5565 138.75 39.5153 138.258 39.3743 137.729C38.2703 137.412 37.0987 137.406 36.1088 137.973C34.8015 138.72 34.5804 141.47 33.6815 142.93C32.7757 144.401 30.4848 144.544 30.0376 142.309C29.4579 139.416 28.4859 137.877 26.644 136.305C25.0019 134.903 23.5247 133.509 22.2508 131.538C21.7387 132.037 21.33 132.677 21.0673 133.494C20.8574 134.149 21.2977 136.22 21.4287 136.632C22.146 138.952 23.7765 139.836 25.389 140.572C25.8682 140.791 26.5143 140.794 26.901 141.268C28.8471 143.617 26.6998 148.112 29.573 149.429C30.4063 149.809 32.1209 149.095 32.8063 148.361C33.899 147.19 33.9276 145.294 35.0453 144.148C36.2301 142.933 38.0927 143.66 39.1026 142.329Z" fill="#2D0C09"/>
<path d="M37.2634 121.594C36.312 122.152 35.9651 121.109 34.6114 121.014C33.354 120.927 30.7489 122.649 31.7442 124.795C32.7382 126.948 37.8004 126.611 38.7648 124.616C39.3009 123.509 38.6956 120.754 37.2634 121.594Z" fill="#CB3E1F"/>
<path d="M63.5915 102.936C62.8167 102.162 62.3455 102.178 61.1629 101.894C59.0676 101.392 58.1089 103.909 59.6203 105.86C61.1909 107.887 66.729 106.063 63.5915 102.936Z" fill="#CB3E1F"/>
<path d="M58.6238 94.5855C59.4169 91.9562 59.4628 88.9126 58.3435 86.4442C57.4902 84.5616 55.5448 82.585 54.071 81.6544C53.4993 81.2935 52.9044 81.3349 52.3674 80.8748C51.5244 80.1419 51.3913 78.0985 50.8117 77.0427C49.3715 74.4326 45.5509 76.8618 44.2384 78.5876C41.3144 82.4322 44.9487 85.0686 47.3324 87.4033C48.1577 88.2119 49.3333 89.2517 49.7333 90.6296C50.2444 92.3883 48.9495 94.5908 49.3096 95.9335C49.3702 96.1589 51.7289 99.2443 51.9952 99.5504C53.7827 101.602 54.2811 100.919 56.16 99.0042C57.2314 97.9128 58.094 96.3416 58.6238 94.5855Z" fill="#DF7032"/>
<path opacity="0.2" d="M58.6238 94.5854C58.6714 94.4282 58.7159 94.2687 58.7578 94.1088C56.9747 97.4454 53.6104 96.6511 52.5104 92.9287C52.0578 91.3966 52.1652 89.477 51.6158 88.0279C50.9807 86.3529 49.3605 84.9986 48.3134 83.8189C46.9795 82.3168 44.9547 81.4347 43.427 79.9931C42.2166 83.0955 45.2507 85.3643 47.332 87.4029C48.1574 88.2114 49.3329 89.2512 49.733 90.6291C50.2441 92.3878 48.9492 94.5903 49.3093 95.933C49.3698 96.1584 51.7286 99.2439 51.9949 99.5499C53.7823 101.601 54.2808 100.918 56.1597 99.0038C57.2315 97.9128 58.0941 96.3415 58.6238 94.5854Z" fill="#2D0C09"/>
<path d="M20.1784 78.9908C20.4538 79.1694 20.7647 79.4047 21.1172 79.7049C22.5225 80.9024 25.8629 85.9733 26.0142 88.0506C26.0734 88.8605 25.7897 89.5911 25.5606 90.2469C24.0652 94.499 20.8611 91.7958 19.0827 94.9214C17.6185 97.4931 17.3894 101.051 14.3127 99.1085C11.7103 97.4642 7.72177 92.2899 11.3388 88.8236C13.1292 87.1084 15.2013 88.366 16.9179 86.4268C19.0451 84.0243 16.579 76.656 20.1784 78.9908Z" fill="#DF7032"/>
<path opacity="0.2" d="M16.2802 88.8347C17.4817 87.7806 20.1217 87.6724 20.0918 85.894C20.0765 84.9879 19.5487 83.9744 19.4184 83.0625C19.2169 81.6539 19.3313 80.3932 19.7197 79.0607C19.7493 78.9596 19.7862 78.8732 19.8204 78.7818C16.7501 77.175 18.9701 84.1098 16.9183 86.4277C15.2014 88.3669 13.1297 87.1093 11.3393 88.8244C7.72226 92.2903 11.7108 97.4646 14.3132 99.1093C15.9879 100.167 16.8186 99.5931 17.4644 98.4371C14.0947 97.9925 13.5115 91.2639 16.2802 88.8347Z" fill="#2D0C09"/>
<path d="M9.03811 98.2464C11.1391 97.935 7.50875 97.6 6.91783 98.2678C5.0556 100.372 6.7326 101.725 6.82072 104.028C6.9002 106.12 5.6146 107.948 8.44086 108.449C12.7582 109.221 12.9741 101.313 10.778 98.0535C10.2359 97.249 7.95003 98.4077 9.03811 98.2464Z" fill="#CB3E1F"/>
<path d="M31.2351 114.581C31.3222 114.758 31.6305 115.177 31.6119 114.967C31.5587 114.336 31.2936 113.771 31.117 113.182C30.7961 112.122 30.301 111.443 29.6775 110.541C28.4451 108.755 26.5173 106.968 25.0276 105.576C21.3154 102.119 12.6248 102.16 10.6541 108.474C10.3954 109.3 10.0749 109.816 10.0709 110.756C10.0566 113.358 12.6507 115.236 14.2765 115.801C16.6592 116.623 19.1329 116.134 21.5468 116.302C24.14 116.48 26.392 118.287 28.9974 118.583C29.5611 118.647 31.147 118.878 31.2161 117.759C31.2767 116.784 31.2434 115.603 31.1726 114.623C31.147 114.304 30.9195 113.38 30.9867 113.691C31.0542 113.993 31.1034 114.317 31.2351 114.581Z" fill="#CB3E1F"/>
<path opacity="0.2" d="M31.2158 117.759C31.2763 116.784 31.2431 115.603 31.1722 114.622C31.1646 114.528 31.139 114.381 31.1091 114.228C31.1423 114.352 31.1809 114.472 31.2354 114.581C31.3225 114.757 31.6308 115.176 31.6122 114.967C31.559 114.336 31.294 113.771 31.1174 113.182C31.0512 112.964 30.976 112.765 30.8959 112.574C28.9994 113.476 26.7514 112.885 24.9421 111.927C23.7875 111.316 22.9528 110.059 21.8614 109.408C20.518 108.607 19.1768 110.769 17.7572 111.214C15.756 111.84 13.1728 111.987 11.4113 110.329C11.0389 109.978 10.719 109.537 10.4563 109.042C10.2561 109.581 10.0742 110.049 10.0709 110.755C10.0566 113.358 12.6507 115.236 14.2765 115.801C16.6592 116.623 19.1329 116.133 21.5468 116.301C24.14 116.479 26.392 118.287 28.9974 118.583C29.5604 118.646 31.1463 118.877 31.2158 117.759Z" fill="#2D0C09"/>
<path d="M79.6111 89.0419C79.2457 89.0819 79.2104 88.1718 78.8892 87.9344C77.9205 87.2051 72.7242 85.9662 71.8061 87.9433C71.3891 88.8409 71.5234 89.9404 71.158 90.9004C70.843 91.7268 68.7823 91.4795 68.9971 92.3202C70.0885 96.5612 74.9828 94.5271 77.4619 94.3565C78.3974 94.2937 79.2444 95.0158 80.1771 94.8955C80.9669 94.7935 82.8847 94.687 83.2854 93.4869C83.9455 91.5058 80.8745 88.9091 79.6111 89.0419Z" fill="#DF7032"/>
<path d="M95.8873 112.217C96.3416 109.083 93.2613 107.815 91.8653 107.896C90.8606 107.954 89.2073 108.243 88.3762 109.132C87.5266 110.042 87.6895 111.562 86.9646 112.591C85.6587 114.446 81.5153 115.099 82.6243 119.238C83.9614 124.214 89.6981 121.902 91.5477 118.653C91.9381 117.966 92.0368 116.898 92.5719 116.293C93.5928 115.139 95.4786 117.614 96.4959 115.827C97.1131 114.744 95.733 113.277 95.8873 112.217Z" fill="#CB3E1F"/>
<path opacity="0.2" d="M96.4963 115.827C97.0008 114.941 96.1694 113.798 95.935 112.831C94.6747 113.544 93.3734 113.509 92.0067 113.063C91.4427 112.879 90.9209 112.738 90.3513 112.651C90.325 112.647 90.3001 112.647 90.2758 112.649C90.2495 112.677 90.2249 112.702 90.203 112.723C90.1953 112.738 90.1893 112.752 90.1804 112.77C90.039 113.055 89.8834 113.346 89.7175 113.639C89.6307 114.822 89.067 115.945 88.0491 116.174C87.257 117.231 86.4053 118.201 85.6172 118.928C84.7343 119.742 83.7377 120.089 82.8591 119.923C84.5265 123.977 89.7906 121.741 91.5484 118.653C91.9388 117.966 92.0376 116.898 92.5727 116.293C93.5932 115.14 95.4791 117.615 96.4963 115.827Z" fill="#2D0C09"/>
<path opacity="0.3" d="M26.5755 76.8026C29.0367 75.5882 29.8491 72.4333 31.9514 70.9636C34.1741 69.4093 35.5239 73.3354 37.577 73.1389C39.0937 72.9937 38.9238 71.7249 39.972 71.0865C41.5645 70.1172 42.3456 70.3168 44.1291 70.2437C45.9211 70.1706 47.3856 68.8382 48.8957 68.6667C51.3289 68.39 54.8252 70.0147 56.9964 71.2879C59.5181 72.7665 60.3976 74.4517 62.1255 76.8868C63.7011 79.1075 73.382 84.5121 70.5544 88.8222C68.8615 87.5904 67.6573 86.8915 66.415 84.8863C65.2943 83.0777 64.7882 81.2699 63.3566 79.79C60.5868 76.9269 57.4822 76.1998 54.2097 74.8531C51.0585 73.5563 48.3174 75.1832 45.0369 74.7061C41.8787 74.2468 40.7435 76.178 37.9395 77.8998C34.8272 79.8105 32.7276 79.7499 29.313 79.4496C29.032 79.4251 21.0843 80.3415 21.8036 79.2492C23.014 77.4107 24.7087 77.5862 26.3045 76.9251C26.397 76.8868 26.4874 76.8458 26.5755 76.8026Z" fill="white"/>
<path d="M69.5476 81.5247C64.3832 80.6204 60.6322 71.4523 55.4133 69.4387C51.4351 67.904 46.2744 67.9302 42.4485 70.1808C43.5934 70.9689 45.3955 69.8766 46.6947 69.8129C48.3295 69.7331 49.9659 70.0913 51.605 70.2053C55.52 70.478 58.2312 71.8532 61.0844 75.6416C63.1535 78.3889 65.869 81.7746 68.7372 82.8527C71.4826 83.8849 74.4868 83.8965 77.2595 84.6422C75.8851 83.7521 74.4273 82.7462 72.9152 82.1862C71.6203 81.706 70.1851 82.0548 69.5476 81.5247Z" fill="white"/>
<path d="M72.0092 98.6171C69.6545 97.1287 61.9395 81.6918 62.424 91.2929C62.5235 93.2624 63.2953 96.0658 62.1001 97.744C60.9569 99.349 57.5879 98.0972 58.2603 100.603C59.0082 103.39 61.5691 100.92 62.6092 99.9892C64.4352 98.3547 64.9936 97.1461 67.3626 97.7649C69.3558 98.2857 70.8692 100.077 72.7976 101.005C75.2731 102.198 76.7379 101.437 79.1522 100.623C76.8097 99.4257 73.5878 99.6475 72.0092 98.6171Z" fill="white"/>
<path opacity="0.3" d="M41.181 88.6106C40.1388 86.0673 32.4292 83.9927 30.7572 86.585C29.5121 88.5153 31.6361 89.6428 31.1506 91.3806C30.693 93.0196 28.2714 93.4495 27.2838 93.9395C25.8592 94.6465 20.5176 97.0655 20.8907 100.049C21.2435 102.871 29.2983 101.023 31.4056 103.145C32.5998 104.347 31.6753 105.642 33.4973 105.384C35.7902 105.059 35.7154 101.205 36.1134 99.1036C36.9917 94.467 38.511 92.8093 42.1996 93.9453C43.8091 94.4411 47.3899 96.2493 46.1964 91.7023C45.5436 89.2156 43.0107 88.5736 41.3516 88.3242C41.2645 87.9918 41.4564 87.9473 41.181 88.6106Z" fill="white"/>
<path d="M4.65975 107.349C7.06435 113.524 10.166 115.005 14.8212 116.966C17.1437 117.945 18.9806 118.851 21.484 118.986C23.1543 119.076 25.5117 118.492 26.9566 119.702C24.0924 119.495 21.2476 119.429 18.3548 119.563C15.8308 119.679 13.9822 118.324 11.527 117.381C8.17171 116.094 4.09942 112.566 4.65975 107.349Z" fill="white"/>
<path d="M48.1661 138.815C50.3698 132.723 56.9345 132.645 60.809 136.012C59.5194 137.966 57.8357 136.284 56.302 136.194C54.514 136.09 47.4192 138.533 46.7634 141.388C47.1159 139.855 48.1817 138.153 48.1661 138.815Z" fill="white"/>
<path d="M94.8734 111.232C95.4763 108.814 93.1272 107.321 91.6371 107.448C88.7812 107.689 86.658 111.546 84.3259 113.311C84.1217 113.465 84.1922 113.934 84.4413 113.921C88.2183 113.736 91.1696 105.445 94.4793 111.362C94.5931 111.566 94.8232 111.434 94.8734 111.232Z" fill="white"/>
<path d="M99.7297 88.9109C99.7426 88.8881 99.714 88.857 99.7004 88.8792C98.1448 91.4198 96.1302 92.5723 93.8753 93.6513C93.7799 93.6971 93.7792 93.9257 93.8986 93.9096C96.3205 93.584 98.2848 91.4136 99.7297 88.9109Z" fill="white"/>
<path d="M88.8186 90.9174C87.8053 90.5285 86.7399 90.3828 85.7003 90.1658C85.5321 90.1306 85.4513 90.4674 85.6255 90.5156C86.6677 90.8038 87.7155 91.1695 88.7787 91.2827C88.9373 91.2992 88.9666 90.974 88.8186 90.9174Z" fill="white"/>
<path d="M51.1214 106.604C48.8208 102.715 45.9573 100.382 42.3832 99.1798C42.2405 99.1317 42.1826 99.4083 42.3206 99.4729C45.5539 100.976 48.5235 103.611 50.9298 106.85C51.0522 107.015 51.2258 106.781 51.1214 106.604Z" fill="white"/>
<path d="M73.8513 106.465C72.9704 106.978 71.993 107.382 71.2827 108.277C71.1697 108.42 71.2797 108.665 71.4251 108.621C72.3751 108.334 73.1739 107.473 73.9833 106.783C74.1323 106.656 74.0102 106.372 73.8513 106.465Z" fill="white"/>
<path d="M23.7537 89.1412C25.2239 86.1653 23.6596 82.1573 21.7119 80.3874C21.545 80.2359 21.3355 80.5758 21.4878 80.7603C23.3544 83.0153 23.4205 85.8891 23.3963 89.004C23.3946 89.265 23.6507 89.3497 23.7537 89.1412Z" fill="white"/>
<path d="M34.8754 71.4572C31.5211 70.9765 28.2874 73.2391 26.5808 77.0984C26.501 77.2793 26.6872 77.4967 26.8003 77.3354C28.9991 74.1996 31.688 72.4489 34.8714 71.9735C35.1162 71.937 35.1261 71.4933 34.8754 71.4572Z" fill="white"/>
<path d="M35.5118 136.853C34.4639 134.703 32.9173 133.257 31.1395 132.326C29.6803 131.562 27.2029 130.586 25.7766 131.861C25.75 131.885 25.756 131.931 25.7839 131.947C27.1886 132.754 28.9185 132.445 30.4082 133.156C32.2176 134.02 33.6954 135.561 35.133 137.227C35.3215 137.444 35.67 137.178 35.5118 136.853Z" fill="white"/>
<path opacity="0.3" d="M114.2 92.6186C114.515 92.5852 114.841 92.5425 115.181 92.3906C117.523 91.3406 120.72 88.1232 122.425 85.7613C124.146 83.3775 126.942 82.1613 123.911 85.7711C122.576 87.3606 121.901 87.9459 121.15 89.931C120.7 91.1214 120.753 92.154 119.996 93.421C118.224 96.3897 114.307 96.669 112.823 93.0579C113.264 92.6984 113.72 92.6694 114.2 92.6186Z" fill="white"/>
<path d="M137.32 83.1119C137.151 80.9438 134.421 79.8247 133.092 79.5298C131.281 79.128 129.021 79.3311 127.726 81.2672C127.584 81.4788 127.71 81.8035 127.924 81.747C129.709 81.2774 131.323 80.5 133.173 80.9767C133.997 81.1892 134.772 81.5781 135.513 82.1056C136.079 82.5083 136.584 83.1511 137.234 83.2251C137.276 83.23 137.325 83.1703 137.32 83.1119Z" fill="white"/>
<path d="M122.29 86.2241C122.333 86.1599 122.267 86.0646 122.22 86.1261C119.41 89.7964 116.034 91.5998 112.343 93.0186C112.068 93.1242 112.094 93.7613 112.405 93.7185C116.37 93.1737 119.707 90.0985 122.29 86.2241Z" fill="white"/>
<path d="M111.149 6.90455C108.418 3.20479 106.082 -1.45899 101.026 0.436994C95.9701 2.32763 91.0515 10.8373 91.9673 17.083C92.8828 23.3341 92.3357 34.4004 90.685 37.6181C89.0346 40.8412 85.4485 49.1343 85.4485 49.1343L99.4943 59.2041C99.4943 59.2041 101.545 46.8107 105.09 41.5994C108.635 36.3881 116.124 29.9424 117.889 25.9829C119.653 22.0176 120.171 17.7116 118.998 13.1342C117.826 8.55686 114.11 10.9184 111.149 6.90455Z" fill="#E85123"/>
<path opacity="0.2" d="M104.825 6.1833C106.105 9.15113 108.21 7.79952 110.103 6.69695C110.313 6.57489 110.526 6.4555 110.74 6.34145C108.446 3.13039 106.323 -0.501648 102.46 0.0605547C103.47 1.95075 103.931 4.11091 104.825 6.1833Z" fill="#4A170E"/>
<path opacity="0.2" d="M118.998 13.1342C118.771 12.2459 118.446 11.6213 118.051 11.1584C118.107 12.0837 118.045 13.0348 117.87 13.9512C116.763 19.7505 112.856 24.0067 109.222 26.9366C106.687 28.981 106.047 31.7029 104.594 34.8921C103.404 37.5058 101.722 39.0342 99.5624 39.9372C96.5995 41.1757 92.6662 41.39 90.0391 38.9291C88.2487 42.6596 85.4487 49.1343 85.4487 49.1343L99.4946 59.204C99.4946 59.204 101.545 46.8102 105.09 41.5993C108.635 36.3885 116.124 29.9423 117.889 25.9829C119.653 22.0176 120.171 17.7111 118.998 13.1342Z" fill="#4A170E"/>
<path opacity="0.3" d="M102.111 6.05409C101.377 4.90028 100.295 5.42016 99.4486 5.99439C98.1304 6.89338 96.205 13.1444 97.5531 14.5637C99.2271 16.3296 101.395 12.4566 102.67 11.3353C103.369 10.7179 104.168 11.4926 104.862 11.1674C105.205 11.0048 105.743 10.1708 105.673 9.65049C105.458 8.04763 102.856 7.22437 102.111 6.05409Z" fill="white"/>
<path opacity="0.3" d="M114.308 16.866C110.936 17.4888 107.311 16.7471 104.714 19.6338C103.751 20.7061 104.022 22.5536 103.613 23.9729C102.877 26.5295 102.012 28.8371 100.919 31.1608C100.522 32.0059 99.2508 33.6689 99.3502 34.7902C99.4424 35.8304 100.376 36.5939 101.118 36.4371C102.069 36.2366 104.08 33.03 104.965 32.082C105.924 31.0583 107.051 29.3681 108.224 28.7289C110.628 27.4236 112.919 25.9228 114.682 23.3554C116.077 21.324 116.609 16.4491 114.308 16.866Z" fill="white"/>
<path d="M93.6379 44.2371C92.6615 44.1667 92.0999 44.3021 91.2143 43.5706C89.9131 42.4979 90.7271 40.7917 90.4285 39.2913C90.1123 37.6987 88.8064 35.2935 87.3083 36.1061C84.9891 37.3682 81.4825 41.3985 80.6422 44.7133C80.295 46.0836 80.689 47.1889 80.6255 48.5757C80.5567 50.0761 79.1454 53.1472 78.4367 54.3554C76.5622 57.546 73.3658 58.6672 70.9483 60.8016C69.0817 62.4427 68.4875 65.276 66.8161 67.0094C65.3576 68.5209 64.0557 69.3821 62.3913 70.4276C60.5879 71.5707 58.8311 73.3308 56.9117 74.1381C54.0987 75.319 50.6879 74.7502 47.9447 76.1151C45.2448 77.4529 44.3759 81.1963 42.3378 83.4656C41.2091 84.717 39.2391 84.5923 37.9462 85.73C36.4099 87.0897 33.7403 92.0893 33.6631 94.8032C33.6229 96.2333 34.1599 98.0807 33.6707 99.4456C33.141 100.925 31.7719 101.78 30.9652 102.956C30.1807 104.099 28.2467 109.347 28.2956 110.924C28.3621 113.053 29.2825 115.051 29.3497 117.207C29.3903 118.502 28.946 121.411 28.522 122.592C27.7751 124.672 25.7057 122.429 24.6396 122.489C23.3919 122.554 22.498 123.832 22.0484 125.251C20.6667 129.623 24.3167 131.676 25.4447 135.088C26.0173 136.821 24.9735 137.802 25.0656 139.432C25.1417 140.787 26.6106 140.619 26.8577 141.859C27.1017 143.089 26.3429 143.944 25.9568 144.903C25.2355 146.691 25.1737 149.095 25.5973 150.991C25.9761 152.687 26.8204 154.252 27.6295 155.612C28.3681 156.858 28.8828 158.358 29.6091 159.642C30.7264 161.619 32.0453 163.277 33.2461 165.097C34.4299 166.89 36.6463 167.274 37.8325 169.067C39.2415 171.202 41.0152 173.818 42.9935 174.945C44.6672 175.893 46.5966 176.131 48.3671 176.618C52.3719 177.723 55.1938 178.563 59.2601 178.081C61.4339 177.821 63.8365 179.338 65.9412 178.763C67.3345 178.384 69.4561 178.032 70.6633 177.165C71.6067 176.488 72.5721 174.527 73.5604 174.289C75.0119 173.942 76.3939 175.167 77.8824 175.291C79.3147 175.41 81.5696 173.801 82.7471 172.767C83.5406 172.062 84.8525 169.652 85.2898 168.439C85.8777 166.798 85.4963 164.756 86.6432 163.396C87.5414 162.329 88.6883 162.242 89.4828 160.888C90.5639 159.052 90.6137 156.603 91.4514 154.664C92.2412 152.838 93.4832 151.706 93.9697 149.556C94.4785 147.303 94.2903 143.792 95.1685 141.761C95.522 140.943 96.4944 141.236 97.0587 140.738C98.1521 139.774 99.5824 136.534 99.8298 134.925C100.411 131.15 98.7803 126.99 99.0493 123.106C99.2082 120.809 100.11 118.897 100.741 116.8C101.44 114.477 101.846 112.082 101.993 109.601C102.182 106.384 100.87 103.984 100.421 101.043C100.199 99.5909 100.402 98.2206 100.357 96.7687C100.284 94.4451 99.6831 92.17 99.6934 89.8192C99.7071 86.6339 99.8068 83.4492 100.289 80.3125C100.465 79.1694 101.241 78.7796 101.3 77.4957C101.446 74.327 99.8248 70.7301 100.788 67.6803C101.652 64.9504 103.125 62.5399 103.902 59.642C104.375 57.8814 103.75 55.2272 104.539 53.6293C104.981 52.7303 105.507 51.8037 105.439 50.5906C105.349 48.9762 104.372 47.6874 103.765 46.452C102.672 44.226 98.5704 43.2508 96.7342 43.3537C95.827 43.4031 94.5035 44.3021 93.6379 44.2371Z" fill="#FC8838"/>
<path opacity="0.2" d="M105.439 50.591C105.349 48.9766 104.372 47.6878 103.765 46.4525C102.672 44.2264 98.5705 43.2512 96.7342 43.3541C95.8267 43.4027 94.5035 44.3021 93.6376 44.2371C92.6613 44.1667 92.0996 44.3021 91.214 43.5711C89.9128 42.4984 90.7269 40.7922 90.4282 39.2918C90.2789 38.5393 89.9065 37.6083 89.3994 36.9182C88.1128 37.9246 86.7247 39.5016 86.6592 41.6257C86.595 43.7034 87.7702 44.7779 89.1134 45.1441C91.6171 45.8266 94.8567 45.3882 96.6527 48.3035C98.9619 52.0513 96.9135 57.7919 95.3196 61.3281C94.1441 63.9369 93.8491 65.1353 93.8128 68.4283C93.7789 71.5097 94.4287 74.6254 94.3107 77.6627C94.1198 82.5729 92.5778 87.3806 92.1112 92.3727C91.8558 95.1057 92.3876 95.0946 93.1052 97.028C94.6169 101.102 91.913 101.077 90.2799 104.326C88.6518 107.565 89.6498 111.61 90.0674 114.953C90.4186 117.764 90.2979 120.604 90.5909 123.429C90.9467 126.861 90.9024 126.616 88.7479 126.671C86.5631 126.726 86.3081 126.008 84.6942 128.248C83.694 129.636 80.8358 133.446 81.3725 135.194C81.987 137.196 85.2093 137.177 82.5134 140.478C80.9059 142.447 77.8003 142.064 75.9295 143.136C74.848 143.756 73.5751 145.382 73.0849 146.852C71.9373 150.292 73.8714 150.743 74.709 153.672C76.3671 159.469 71.2616 154.263 68.9335 154.114C66.7713 153.976 62.4945 154.589 62.4665 158.492C61.3186 158.759 59.627 161.959 58.6064 163.063C57.7282 164.013 57.1529 164.941 56.1263 165.786C55.002 166.711 52.7304 168.665 51.5446 169.092C49.4053 169.863 47.6841 168.101 45.7301 167.284C41.6405 165.573 37.3358 166.567 33.2275 165.07C33.2335 165.079 33.2402 165.087 33.2462 165.097C34.43 166.89 36.6464 167.274 37.8326 169.067C39.2415 171.202 41.015 173.818 42.9936 174.945C44.6673 175.893 46.5967 176.131 48.3668 176.618C52.3716 177.723 55.1935 178.563 59.2598 178.081C61.4337 177.821 63.8363 179.338 65.9409 178.763C67.3343 178.384 69.4559 178.032 70.663 177.165C71.6064 176.488 72.5718 174.527 73.5601 174.289C75.0116 173.942 76.3937 175.167 77.8821 175.291C79.3144 175.41 81.5694 173.802 82.7469 172.767C83.5403 172.063 84.8522 169.652 85.2895 168.439C85.8774 166.798 85.496 164.756 86.6429 163.396C87.5411 162.329 88.6881 162.243 89.4825 160.888C90.5636 159.052 90.6135 156.604 91.4511 154.664C92.2409 152.839 93.483 151.707 93.9695 149.556C94.4783 147.303 94.29 143.793 95.1683 141.762C95.5218 140.944 96.4941 141.236 97.0584 140.738C98.1518 139.774 99.5821 136.535 99.8295 134.926C100.41 131.15 98.78 126.99 99.049 123.106C99.208 120.809 100.11 118.897 100.74 116.801C101.439 114.477 101.846 112.083 101.992 109.602C102.182 106.384 100.869 103.985 100.421 101.043C100.199 99.5913 100.401 98.221 100.356 96.7692C100.283 94.4455 99.6829 92.1704 99.6932 89.8196C99.7068 86.6344 99.8066 83.4496 100.289 80.3129C100.465 79.1698 101.241 78.78 101.3 77.4961C101.445 74.3274 99.8245 70.7305 100.788 67.6807C101.652 64.9508 103.125 62.5403 103.902 59.6424C104.375 57.8819 103.75 55.2277 104.538 53.6297C104.981 52.7307 105.507 51.8045 105.439 50.591Z" fill="#4A170E"/>
<path opacity="0.2" d="M105.439 50.5911C105.349 48.9766 104.372 47.6879 103.765 46.4525C103.089 45.076 101.263 44.1788 99.5331 43.7181C99.864 44.0576 100.177 44.4158 100.452 44.8091C100.781 45.1085 101.02 45.5518 101.16 46.0592C101.85 47.5894 102.091 49.4743 101.586 51.8282C101.585 51.8362 101.582 51.8433 101.581 51.8514C101.619 59.5534 97.2645 65.7777 97.7158 73.4966C97.9755 77.9421 97.3044 82.0682 96.3753 86.139C96.5941 88.4489 96.3261 90.6607 96.1854 93.0757C96.0937 94.6518 96.2536 94.9316 96.801 96.1402C97.1651 96.9443 97.334 97.8593 97.3347 98.7948C97.3354 99.7963 97.1568 100.799 96.9396 101.783C97.7005 103.781 97.8551 106.146 97.7208 108.462C97.7254 108.498 97.7334 108.533 97.7377 108.569C97.8175 109.218 97.7391 109.978 97.5179 110.633C97.5136 110.666 97.5103 110.7 97.506 110.734C97.2416 112.789 96.6773 114.726 96.362 116.758C95.9251 119.574 96.4305 122.5 96.2549 125.348C95.9653 130.041 94.2494 132.646 92.2684 136.302C90.1259 140.257 89.363 145.743 87.9291 150.219C85.4121 158.075 82.0066 166.017 75.3966 168.197C72.3662 169.196 69.1608 168.976 66.1843 170.246C62.8775 171.657 59.7313 174.222 56.1422 173.977C52.6176 173.736 49.1638 172.183 45.748 171.129C42.3454 170.079 39.1224 167.551 35.6677 166.842C35.4442 166.804 35.2204 166.767 34.9966 166.729C36.0142 167.409 37.1122 167.979 37.8322 169.067C39.2411 171.201 41.0146 173.818 42.9932 174.944C44.6669 175.892 46.5963 176.131 48.3664 176.618C52.3712 177.723 55.1931 178.563 59.2594 178.081C61.4333 177.82 63.8359 179.337 65.9405 178.763C67.3339 178.384 69.4555 178.032 70.6626 177.165C71.606 176.488 72.5714 174.527 73.5597 174.289C75.0112 173.942 76.3933 175.166 77.8817 175.291C79.314 175.41 81.5689 173.801 82.7465 172.767C83.5399 172.062 84.8518 169.652 85.2891 168.439C85.877 166.798 85.4956 164.756 86.6425 163.396C87.5407 162.329 88.6876 162.242 89.4821 160.888C90.5632 159.052 90.6131 156.603 91.4507 154.664C92.2405 152.838 93.4826 151.706 93.9691 149.556C94.4778 147.303 94.2896 143.792 95.1679 141.761C95.5214 140.944 96.4937 141.236 97.058 140.738C98.1514 139.774 99.5817 136.534 99.8291 134.925C100.41 131.15 98.7796 126.99 99.0486 123.106C99.2076 120.809 100.11 118.897 100.74 116.8C101.439 114.477 101.845 112.082 101.992 109.601C102.181 106.384 100.869 103.984 100.42 101.043C100.199 99.5909 100.401 98.2206 100.356 96.7687C100.283 94.4451 99.6824 92.17 99.6927 89.8192C99.7064 86.634 99.8062 83.4492 100.289 80.3125C100.464 79.1694 101.24 78.7796 101.3 77.4957C101.445 74.327 99.8241 70.7301 100.788 67.6803C101.651 64.9504 103.125 62.5399 103.901 59.642C104.375 57.8815 103.749 55.2273 104.538 53.6293C104.981 52.7308 105.507 51.8046 105.439 50.5911Z" fill="#4A170E"/>
<path opacity="0.3" d="M80.6423 44.7142C80.2951 46.0845 80.6892 47.1898 80.6257 48.5766C80.5569 50.077 79.1455 53.1481 78.4369 54.3563C76.5624 57.5469 73.366 58.6681 70.9484 60.8025C69.0819 62.4436 68.4876 65.2769 66.8163 67.0103C65.3577 68.5218 64.0558 69.3829 62.3915 70.4285C60.5881 71.5716 58.8313 73.3317 56.9119 74.139C54.0989 75.3199 50.688 74.751 47.9449 76.116C45.245 77.4538 44.3761 81.1968 42.3379 83.4665C41.2093 84.7179 39.2393 84.5932 37.9464 85.7309C36.41 87.0905 33.7404 92.0902 33.6633 94.8041C33.623 96.2341 34.1601 98.0811 33.6709 99.4465C33.1412 100.926 31.7721 101.781 30.9654 102.957C30.1809 104.1 28.2468 109.348 28.296 110.924C28.3622 113.053 29.283 115.052 29.3502 117.208C29.3908 118.503 28.9465 121.412 28.5225 122.592C27.7756 124.672 25.7062 122.43 24.6401 122.489C23.3924 122.554 22.4985 123.833 22.0489 125.252C20.6672 129.623 24.3172 131.676 25.4452 135.088C26.0178 136.822 24.974 137.802 25.0657 139.433C25.1419 140.787 26.6107 140.619 26.8578 141.859C27.1019 143.089 26.343 143.945 25.957 144.903C25.2357 146.691 25.1738 149.096 25.5975 150.992C25.9762 152.687 26.8206 154.253 27.6296 155.612C27.8617 156.004 28.0693 156.424 28.2708 156.851C29.2661 154.041 29.6392 149.508 30.145 147.947C30.7435 146.089 31.6005 145.163 31.3744 142.97C31.1399 140.667 29.3971 139.405 29.288 137.07C29.1424 133.907 31.2693 132.093 32.8705 134.692C33.2665 135.337 33.198 137.363 33.6184 138.278C33.8205 140.158 34.1883 142.075 34.7547 144.042C35.45 146.463 35.5268 150.331 37.2979 151.902C40.3952 154.643 42.0127 145.661 42.5504 143.099C43.3671 139.204 43.6704 135.467 43.9049 131.48C44.0465 129.086 44.6085 126.762 44.8509 124.389C45.3321 119.682 45.0571 115.457 47.5399 111.595C50.2408 107.386 53.9892 104.797 56.9611 101.037C63.1962 93.1558 69.872 85.1661 75.6542 76.7321C76.4912 75.5079 77.2836 74.2133 78.0236 72.8644C80.8824 67.6264 82.9525 61.5268 83.9391 55.3194C84.0282 54.7617 84.0928 54.2035 84.1453 53.6457C84.4566 50.0979 84.1047 46.5117 84.675 42.7795C84.9786 40.7832 85.7641 39.2962 84.9504 37.95C83.0888 39.7756 81.2246 42.4155 80.6423 44.7142Z" fill="white"/>
<path opacity="0.3" d="M91.5218 57.3072C89.7803 56.945 86.135 60.904 84.8457 62.3349C81.9044 65.6066 81.0225 70.2597 80.0205 74.9288C78.1689 83.5525 77.0855 91.9374 76.4683 100.837C76.2528 103.947 75.4079 107.029 75.0414 110.116C74.4854 114.791 74.507 119.541 73.5932 124.222C72.7153 128.718 71.4084 133.273 70.0962 137.569C69.0254 141.074 67.4242 145.905 64.7825 147.709C62.054 149.572 59.8589 148.765 57.0134 148.467C55.777 148.332 54.5123 148.922 53.2939 149.177C50.447 149.778 47.3291 149.968 44.6847 151.636C43.3253 152.495 39.8463 158.566 41.5805 160.459C42.6915 161.672 47.1352 157.094 48.5366 156.351C54.0414 153.431 60.0551 152.728 65.5493 149.784C71.7446 146.465 75.7753 140.379 77.8041 131.813C79.2277 125.804 78.968 120.168 79.6783 114.067C80.0884 110.544 80.0491 107.258 80.1605 103.676C80.2879 99.5957 81.369 97.0453 82.5039 93.4935C83.9415 88.9936 84.0306 84.7366 83.6928 79.9917C83.3961 75.8278 83.0633 72.4096 85.7978 69.5781C88.1099 67.1836 91.6897 65.3304 92.3255 61.0631C92.7053 58.5135 92.3073 57.4707 91.5218 57.3072Z" fill="white"/>
<path d="M81.1786 83.9316C82.2547 81.9167 78.5887 83.0919 77.9765 83.6283C75.4173 85.8869 76.1748 88.8066 75.9424 92.1598C75.8659 93.2646 75.145 94.1096 75.1802 95.2363C75.2284 96.7745 75.9587 98.1613 77.1352 98.4865C79.3393 99.0933 83.2852 91.2064 82.8932 88.276C82.7379 87.1115 82.133 85.9956 81.6591 85.0315C81.4004 84.5059 81.4639 84.5709 81.0808 84.1C81.0033 84.0078 80.7672 83.9486 80.8321 83.8399C80.9052 83.7151 81.1097 84.0617 81.1786 83.9316Z" fill="#FC8838"/>
<path opacity="0.2" d="M78.6676 97.4419C75.3608 93.5996 76.9004 84.1325 81.1882 82.9386C80.5457 82.4883 78.4288 83.2318 77.9765 83.6283C75.4173 85.8869 76.1748 88.8066 75.9424 92.1597C75.8659 93.265 75.145 94.1096 75.1802 95.2367C75.2284 96.775 75.9587 98.1618 77.1352 98.487C77.6536 98.6295 78.2688 98.2985 78.901 97.6762C78.8212 97.6054 78.7427 97.5296 78.6676 97.4419Z" fill="#4A170E"/>
<path d="M68.4891 109.64C68.7042 109.77 67.094 109.033 66.7169 108.957C65.2827 108.67 64.0706 109.038 62.639 109.185C59.6927 109.483 53.698 111.926 53.0116 116.389C52.8004 117.765 53.9756 119.081 54.661 119.748C55.343 120.414 57.2109 121.151 58.0952 120.891C58.8916 120.658 60.3428 119.705 61.1751 120.582C62.7235 122.213 58.5813 126.459 61.1416 128.306C61.4003 128.496 62.1804 128.924 62.498 128.875C62.9004 128.81 63.2552 128.48 63.61 128.214C64.6492 127.445 65.2544 126.064 66.12 125.04C68.5024 122.218 70.7204 121.416 71.4537 116.649C71.7327 114.835 70.3938 112.3 69.7311 110.951C69.4933 110.463 67.9896 109.331 68.4891 109.64Z" fill="#E85123"/>
<path opacity="0.2" d="M69.9669 119.129C68.5091 120.672 67.0539 122.482 65.45 123.75C63.7212 125.118 62.0921 122.863 62.3481 120.556C62.3568 120.477 62.4066 119.662 62.4445 119.012C61.8559 119.007 60.9588 118.792 60.6166 118.774C58.9705 118.687 57.3281 118.545 55.7109 118.088C54.7562 117.818 53.8154 117.358 52.9897 116.738C52.9997 117.984 54.0336 119.138 54.6608 119.748C55.3428 120.414 57.2107 121.151 58.0949 120.891C58.8913 120.658 60.3426 119.705 61.1749 120.582C62.7232 122.213 58.5811 126.459 61.1413 128.306C61.4 128.496 62.1802 128.924 62.4978 128.875C62.9001 128.81 63.2549 128.48 63.6098 128.215C64.649 127.445 65.2542 126.064 66.1198 125.041C68.2926 122.467 70.3244 121.564 71.2223 117.811C70.8365 118.238 70.4102 118.66 69.9669 119.129Z" fill="#4A170E"/>
<path d="M92.2821 97.6361C91.0893 97.8254 90.1066 98.9035 89.1941 99.8786C87.5913 101.59 85.6925 105.642 86.2718 108.551C86.8491 111.454 89.0182 114.157 88.2301 117.408C87.6485 119.807 85.9216 120.04 84.5791 121.432C83.3397 122.716 82.2407 125.062 81.6983 127.017C81.3305 128.344 80.8114 130.456 81.0948 131.881C81.278 132.802 81.6824 133.62 81.832 134.6C81.9966 135.678 82.375 137.688 83.5672 137.401C86.458 136.707 85.8282 131.681 88.009 130.115C90.4043 128.398 89.5027 134.481 90.9333 133.63C92.6053 132.639 94.0017 128.923 94.0429 126.556C94.0775 124.568 93.1065 122.835 92.736 120.977C92.0231 117.391 91.6104 113.556 91.1202 109.889C90.9945 108.951 91.0101 107.939 91.2715 107.029C91.7856 105.247 93.1653 105.041 93.9481 103.708C95.4994 101.065 95.3325 97.1487 92.2821 97.6361Z" fill="#FC8838"/>
<path opacity="0.3" d="M87.7837 112.91C87.556 111.529 87.4223 110.122 87.4532 108.673C87.5167 105.672 88.4043 103.166 90.2336 101.41C91.5198 100.175 92.9222 99.328 94.1968 98.1586C93.7691 97.7207 93.1446 97.4984 92.2823 97.6365C91.0895 97.8259 90.1069 98.9039 89.1944 99.8791C87.5915 101.591 85.6927 105.643 86.272 108.551C86.5643 110.023 87.2656 111.444 87.7837 112.91Z" fill="white"/>
<path opacity="0.3" d="M82.0668 131.87C81.9856 131.229 81.9225 130.679 81.9274 130.503C81.975 128.776 82.525 127.165 83.3218 125.826C84.7371 123.447 86.7892 122.212 88.979 121.977C89.1878 121.493 89.4089 121.016 89.6397 120.511C89.6407 120.509 89.6421 120.507 89.6431 120.506C89.506 120.013 89.3727 119.549 89.2613 119.138C88.9647 118.043 88.6631 116.946 88.393 115.839C88.4037 116.35 88.3604 116.871 88.2301 117.408C87.6488 119.807 85.9216 120.04 84.5791 121.432C83.3397 122.716 82.2407 125.061 81.6983 127.017C81.3305 128.344 80.8114 130.456 81.0948 131.881C81.2102 132.461 81.413 133 81.5846 133.564C81.7096 132.987 81.8689 132.418 82.0668 131.87Z" fill="white"/>
<path d="M75.9579 142.747C75.1582 140.938 70.9755 141.734 69.9263 142.531C66.822 144.887 59.01 153.029 61.369 158.738C61.6268 159.361 63.1185 160.163 63.4424 160.276C65.2508 160.937 66.7705 159.751 68.1928 158.494C68.6154 158.12 69.0128 157.438 69.5293 157.319C72.1068 156.696 73.4453 161.723 75.9819 159.486C76.7165 158.836 77.3446 156.582 77.3313 155.407C77.3094 153.532 76.2077 152.341 76.2157 150.456C76.2243 148.457 77.7936 146.929 77.626 145.044C77.5402 144.085 76.2875 143.495 75.9579 142.747Z" fill="#E85123"/>
<path opacity="0.2" d="M77.6259 145.044C77.5401 144.085 76.2874 143.495 75.9579 142.747C75.792 142.372 75.476 142.114 75.0777 141.94C74.2144 142.915 73.4941 144.153 73.2221 145.548C72.8629 147.39 74.3504 149.308 74.6616 151.154C74.9752 153.014 73.6567 155.528 72.0642 154.634C70.0014 153.476 68.4983 153.564 66.4422 154.552C64.6093 155.432 62.8824 156.144 60.9393 156.286C60.9204 157.135 61.0474 157.959 61.3693 158.737C61.627 159.36 63.1188 160.162 63.4427 160.276C65.2511 160.936 66.7708 159.75 68.1931 158.494C68.6157 158.12 69.0131 157.438 69.5295 157.318C72.1074 156.695 73.4455 161.722 75.9822 159.485C76.7168 158.835 77.3449 156.582 77.3313 155.406C77.3093 153.532 76.2076 152.34 76.2156 150.455C76.2239 148.457 77.7932 146.929 77.6259 145.044Z" fill="#4A170E"/>
<path d="M64.263 134.297C64.0096 135.646 63.1819 135.375 62.297 136.751C61.4756 138.03 60.8966 141.843 62.7728 142.103C64.6524 142.368 67.5528 136.8 66.9658 134.557C66.64 133.311 64.644 132.266 64.263 134.297Z" fill="#E85123"/>
<path d="M69.3706 94.9873C68.4395 95.3338 68.1605 95.843 67.2683 96.9211C65.6891 98.8331 66.5879 101.39 68.665 100.984C70.8228 100.561 73.1377 93.5791 69.3706 94.9873Z" fill="#E85123"/>
<path d="M61.4011 95.1356C60.335 92.6859 58.5668 90.7734 56.4243 90.4477C54.7908 90.1987 52.4331 91.0491 50.9813 92.0403C50.4183 92.4248 50.0784 93.0806 49.4778 93.3675C48.5291 93.8116 47.2418 92.701 46.2638 92.6685C43.8416 92.5959 42.9361 98.1301 43.1509 100.577C43.6294 106.028 47.4108 103.793 50.2483 102.698C51.2307 102.319 52.5641 101.71 53.6223 102.13C54.9731 102.665 55.4802 105.385 56.4934 105.826C56.6634 105.9 59.9286 105.291 60.2724 105.196C62.5776 104.559 62.4795 103.613 62.5001 100.451C62.5121 98.6478 62.1134 96.7718 61.4011 95.1356Z" fill="#FC8838"/>
<path opacity="0.2" d="M61.401 95.1356C61.3372 94.989 61.2703 94.8442 61.2018 94.7017C62.0794 98.6335 59.5508 101.71 56.6803 100.596C55.4987 100.137 54.432 98.8482 53.2401 98.5426C51.8624 98.1898 50.0713 99.0763 48.7339 99.4634C47.0309 99.9566 45.2705 101.561 43.4844 102.297C44.5741 105.478 47.7708 103.654 50.2486 102.698C51.2309 102.319 52.5644 101.71 53.6226 102.13C54.9733 102.665 55.4805 105.385 56.4937 105.826C56.6636 105.9 59.9289 105.291 60.2727 105.196C62.5779 104.559 62.4798 103.613 62.5004 100.451C62.512 98.6478 62.1133 96.7718 61.401 95.1356Z" fill="#4A170E"/>
<path d="M28.6578 126.308C28.9318 126.126 29.261 125.941 29.6541 125.751C31.2213 124.996 36.2593 124.562 37.5779 125.674C38.092 126.107 38.3497 126.855 38.5964 127.499C40.1903 131.686 36.6334 133.425 37.389 137.222C38.0105 140.348 39.9698 142.769 36.9397 144.838C34.3758 146.588 28.8799 147.645 29.0488 141.691C29.133 138.745 31.1435 137.32 31.0504 134.314C30.935 130.59 25.0763 128.691 28.6578 126.308Z" fill="#FC8838"/>
<path opacity="0.2" d="M32.0804 136.464C32.1938 134.546 33.7464 131.684 32.6783 130.626C32.1343 130.088 31.2128 130.026 30.5949 129.606C29.6402 128.957 28.9662 128.064 28.4175 126.837C28.3759 126.744 28.3476 126.652 28.3147 126.559C25.4865 128.828 30.9388 130.722 31.0502 134.315C31.1433 137.32 29.1328 138.745 29.0486 141.691C28.8797 147.644 34.3756 146.588 36.9395 144.839C38.5889 143.713 38.7588 142.481 38.4718 141.09C36.1474 144.386 31.819 140.884 32.0804 136.464Z" fill="#4A170E"/>
<path d="M33.2011 149.897C34.3038 147.481 31.8833 151.121 31.9159 152.156C32.0173 155.417 33.8426 154.469 35.2559 155.785C36.5398 156.982 36.8311 159.463 38.8573 156.776C41.9563 152.676 37.4214 147.606 34.1532 147.936C33.3458 148.018 32.6302 151.149 33.2011 149.897Z" fill="#E85123"/>
<path d="M56.4326 136.388C56.5902 136.404 57.0262 136.334 56.8912 136.225C56.4861 135.895 55.9903 135.83 55.5347 135.657C54.7127 135.348 54.0087 135.456 53.0945 135.564C51.2855 135.775 49.0505 136.723 47.3173 137.449C43.0036 139.264 37.7072 148.494 40.2265 154.447C40.5558 155.227 40.6642 155.882 41.2158 156.462C42.7432 158.071 45.4401 156.473 46.7686 155.097C48.7126 153.077 49.9384 150.157 51.5156 147.703C53.2083 145.065 55.6538 143.787 57.4239 141.209C57.8063 140.651 58.914 139.112 58.2961 138.354C57.7581 137.693 57.0405 137.005 56.4183 136.48C56.2148 136.312 55.5301 135.987 55.7542 136.106C55.9753 136.22 56.1965 136.366 56.4326 136.388Z" fill="#E85123"/>
<path opacity="0.2" d="M58.2961 138.354C57.7581 137.693 57.0405 137.005 56.4183 136.48C56.3581 136.431 56.2553 136.367 56.1469 136.306C56.2404 136.346 56.3351 136.379 56.4326 136.388C56.5902 136.404 57.0262 136.334 56.8911 136.226C56.4861 135.895 55.9903 135.83 55.5347 135.657C55.3658 135.593 55.2022 135.551 55.0402 135.519C54.4114 138.08 52.6862 140.099 51.0128 141.429C49.945 142.278 48.6923 142.393 47.6402 143.15C46.3449 144.082 46.8002 146.827 46.1926 148.602C45.3367 151.105 43.8422 153.932 41.7851 154.782C41.3502 154.961 40.8936 155.03 40.4407 155.005C40.6365 155.547 40.8008 156.026 41.2158 156.462C42.7432 158.071 45.4401 156.473 46.7686 155.097C48.7126 153.077 49.9384 150.157 51.5156 147.704C53.2082 145.066 55.6538 143.787 57.4239 141.209C57.8066 140.651 58.914 139.113 58.2961 138.354Z" fill="#4A170E"/>
<path d="M70.9793 69.5121C70.7791 69.9238 70.2204 69.4039 69.8836 69.599C68.86 70.1786 64.9473 74.9239 65.5519 77.1068C65.8266 78.098 66.5575 78.629 66.9003 79.6037C67.195 80.4435 65.7877 82.4744 66.4152 82.7618C69.5866 84.2025 71.3827 77.7728 72.8 75.0428C73.3357 74.0138 74.2804 73.5585 74.7806 72.4969C75.2039 71.5979 76.3156 69.5015 75.8524 68.3423C75.0875 66.4298 71.6746 68.0928 70.9793 69.5121Z" fill="#FC8838"/>
<path d="M94.6227 66.4624C93.0515 64.0625 90.4171 66.5492 89.6097 68.0768C89.0291 69.1763 88.1871 71.1048 88.2034 72.5294C88.2203 73.9866 89.2169 74.7448 89.3806 76.1423C89.6752 78.6611 87.5236 83.4496 90.6462 84.8092C94.4019 86.4397 96.5498 78.9484 95.7643 74.9992C95.5981 74.1653 95.0281 73.4066 94.9988 72.4697C94.943 70.682 97.5584 70.2 97.1261 68.0278C96.8644 66.7114 95.1535 67.2749 94.6227 66.4624Z" fill="#E85123"/>
<path opacity="0.2" d="M97.1263 68.0278C96.9121 66.9506 95.7286 67.1315 95.0143 66.7875C94.6638 68.5592 93.8461 69.9157 92.7457 71.0905C92.2918 71.5752 91.8894 72.042 91.4891 72.5913C91.4708 72.6167 91.4558 72.6434 91.4422 72.6706C91.4422 72.7152 91.4418 72.7566 91.4408 72.7927C91.4455 72.8105 91.4495 72.8248 91.4545 72.8452C91.5366 73.17 91.6128 73.513 91.6843 73.8681C92.3294 74.6842 92.6466 75.969 92.1588 77.1874C92.2978 78.6735 92.3487 80.1699 92.2955 81.4493C92.2356 82.8834 91.8296 84.1508 91.1941 84.9798C94.6073 85.6957 96.5107 78.751 95.7645 74.9987C95.5983 74.1648 95.0283 73.4061 94.999 72.4693C94.9431 70.682 97.5582 70.2 97.1263 68.0278Z" fill="#4A170E"/>
<path opacity="0.3" d="M31.2831 118.192C32.0732 114.842 30.7088 112.05 31.1284 108.923C31.572 105.617 34.7155 106.591 35.8568 104.297C36.6998 102.601 35.8468 102.004 36.1119 100.503C36.5146 98.2232 37.1108 97.518 38.16 95.5842C39.2142 93.6409 39.3246 91.2745 40.1479 89.5701C41.4744 86.8237 44.5741 84.1151 46.6551 82.5951C49.072 80.8297 50.6047 80.9299 53.1001 80.5909C55.3753 80.2817 64.4926 73.3375 65.3053 78.9707C63.5419 80.01 62.3919 80.8573 60.4479 80.9455C58.6944 81.0252 57.3177 80.4541 55.5675 81.0644C52.1819 82.245 49.8518 85.0881 47.0535 87.7298C44.3586 90.2735 43.6406 94.1729 41.3504 97.3554C39.1457 100.419 39.5903 102.804 38.8896 106.828C38.1118 111.295 36.7903 113.481 34.5227 116.914C34.3361 117.196 30.0108 126.176 29.8062 124.745C29.4624 122.337 30.6037 120.65 31.1903 118.555C31.2235 118.433 31.2548 118.312 31.2831 118.192Z" fill="white"/>
<path d="M60.3812 75.569C56.6853 80.4853 48.9777 78.8451 44.5941 83.1396C41.2524 86.4134 38.1082 91.8956 37.094 97.3256C38.2602 96.5954 38.7188 94.0179 39.4767 92.603C40.4304 90.8224 41.6438 89.3086 42.7149 87.6425C45.2728 83.663 47.7446 81.6334 51.7275 80.9308C54.6159 80.4212 58.2765 79.6184 60.6691 77.2404C62.9594 74.9644 64.8053 71.7899 66.9435 69.3094C65.5768 70.22 64.0907 71.1484 62.834 72.4069C61.7572 73.4845 61.0842 75.2184 60.3812 75.569Z" fill="white"/>
<path d="M71.9761 83.4269C69.656 85.0097 55.8216 83.7294 61.7847 89.0948C63.0078 90.1952 65.1351 91.0941 65.3935 93.388C65.6405 95.5815 62.8392 98.3836 64.7297 99.2056C66.8327 100.12 66.9431 95.8956 67.0302 94.2237C67.1835 91.2888 66.8121 89.9573 68.6278 87.8274C70.1555 86.0352 72.1394 85.5287 73.868 84.055C76.0873 82.1635 76.5356 80.1459 77.5329 77.0898C75.3923 78.837 73.5507 82.3858 71.9761 83.4269Z" fill="white"/>
<path opacity="0.3" d="M47.1948 109.952C45.0556 109.499 39.1107 116.395 39.6169 119.753C39.9936 122.254 41.9596 120.694 42.6882 122.272C43.3752 123.76 42.1465 126.588 41.8309 127.934C41.376 129.876 39.5331 137.015 41.522 138.447C43.4038 139.801 47.2444 130.138 49.787 129.205C51.2279 128.676 51.4257 130.448 52.3891 128.36C53.6015 125.733 51.2811 123.452 50.2844 121.744C48.0857 117.975 48.0378 115.351 50.9665 112.14C52.2444 110.739 55.5043 108.053 52.0898 106.533C50.2226 105.702 48.2929 107.991 47.13 109.596C46.8806 109.485 46.972 109.254 47.1948 109.952Z" fill="white"/>
<path d="M35.8923 160.108C41.0091 161.341 43.7825 158.963 47.79 155.234C49.7892 153.373 51.4489 151.982 53.0614 149.413C54.1375 147.7 55.2359 144.845 56.8348 144.056C54.9589 146.962 53.1778 149.935 51.4855 153.081C50.0087 155.825 48.077 156.953 46.0179 158.977C43.2039 161.742 38.6285 163.895 35.8923 160.108Z" fill="white"/>
<path d="M81.1018 133.293C78.8558 127.229 82.8293 120.228 87.1893 118.186C87.5524 120.748 85.5289 121.502 84.5373 123.071C83.381 124.901 80.4789 133.912 81.7622 136.354C81.0725 135.042 80.7204 132.871 81.1018 133.293Z" fill="white"/>
<path d="M93.4208 66.9337C92.3627 64.8145 90.0435 66.3889 89.2055 68.0443C87.5997 71.2171 88.576 75.8274 88.1893 79.3779C88.1553 79.6884 88.4753 79.9009 88.6206 79.6296C90.824 75.516 87.7377 67.3133 93.2565 67.4304C93.4458 67.4344 93.5089 67.1101 93.4208 66.9337Z" fill="white"/>
<path d="M83.2202 48.1231C83.2149 48.0954 83.179 48.1066 83.1836 48.1346C83.7307 51.3381 83.1773 54.1772 82.4334 57.2261C82.4018 57.3553 82.5365 57.4956 82.6 57.3598C83.8906 54.5955 83.8125 51.1858 83.2202 48.1231Z" fill="white"/>
<path d="M77.7239 60.908C76.8739 61.7433 76.1356 62.7822 75.3711 63.7502C75.2474 63.907 75.3967 64.1988 75.5317 64.0438C76.3402 63.1163 77.1975 62.2302 77.9151 61.1735C78.0222 61.0163 77.8479 60.786 77.7239 60.908Z" fill="white"/>
<path d="M63.9007 110.441C60.1969 110.496 57.0663 112.1 54.1686 115.15C54.0532 115.272 54.1805 115.503 54.3029 115.396C57.1694 112.892 60.543 111.36 63.928 110.794C64.1006 110.765 64.069 110.438 63.9007 110.441Z" fill="white"/>
<path d="M77.7353 86.2811C77.4989 87.5285 77.1387 88.811 77.2325 90.1114C77.2475 90.3181 77.4593 90.352 77.5225 90.1711C77.9348 88.9892 77.9156 87.6154 78.004 86.3359C78.0203 86.0998 77.7782 86.0557 77.7353 86.2811Z" fill="white"/>
<path d="M36.8375 128.736C35.9812 125.357 32.6582 124.559 30.4212 125.539C30.2296 125.622 30.3018 126.053 30.504 126.004C32.9777 125.408 34.7143 127.097 36.5379 129.03C36.6906 129.192 36.8977 128.973 36.8375 128.736Z" fill="white"/>
<path d="M33.2106 106.128C30.8731 109.387 30.2283 114.197 31.4614 118.368C31.5192 118.563 31.7617 118.499 31.7357 118.28C31.2313 114.031 31.8441 110.111 33.5128 106.449C33.6412 106.167 33.3851 105.885 33.2106 106.128Z" fill="white"/>
<path d="M72.196 145.495C70.2855 145.288 68.4851 146.041 66.847 147.354C65.5026 148.432 63.4096 150.458 63.2892 152.749C63.2869 152.792 63.3175 152.814 63.3441 152.794C64.6805 151.8 65.5568 149.778 66.8889 148.636C68.5064 147.248 70.3211 146.627 72.1843 146.124C72.4281 146.059 72.4846 145.526 72.196 145.495Z" fill="white"/>
<path opacity="0.3" d="M94.2683 35.0668C94.4419 34.7122 94.6161 34.3411 94.7342 33.8885C95.5486 30.7647 95.6071 25.4091 95.2573 22.1562C94.9041 18.8734 95.8981 15.1683 96.1724 20.589C96.2931 22.9759 96.2259 24.0486 96.9376 26.0595C97.3642 27.2654 98.006 27.8419 98.2907 29.4189C98.9578 33.1138 96.7241 37.4336 93.6843 36.7944C93.7425 36.1061 94.0042 35.6058 94.2683 35.0668Z" fill="white"/>
<path d="M102.814 4.75772C101.43 3.6097 99.0981 5.81619 98.1108 7.04261C96.765 8.71407 95.5007 11.2333 95.8505 13.7899C95.8887 14.0697 96.1574 14.1347 96.2552 13.8732C97.0709 11.6953 97.6003 9.50971 99.014 7.84315C99.6441 7.10052 100.348 6.51738 101.113 6.05497C101.697 5.70214 102.386 5.56048 102.827 4.91809C102.856 4.87666 102.85 4.78845 102.814 4.75772Z" fill="white"/>
<path d="M95.4477 22.5829C95.436 22.4983 95.3396 22.5094 95.3472 22.5968C95.7929 27.8205 94.7906 32.4999 93.3673 37.2786C93.2612 37.6341 93.6533 37.9972 93.8189 37.6403C95.9249 33.1084 96.153 27.6904 95.4477 22.5829Z" fill="white"/>
<path d="M168 115.672L162.501 167.115C161.458 175.007 149.38 178.999 133.198 178.999C129.583 178.999 126.118 178.734 122.923 178.247C119.434 177.721 116.26 176.925 113.551 175.934C107.631 173.756 103.911 170.615 103.911 167.115L98.4119 115.672H168V115.672Z" fill="#C3EFF8"/>
<path opacity="0.3" d="M122.923 115.672V178.247C119.434 177.721 116.259 176.925 113.551 175.934V115.672H122.923Z" fill="white"/>
<path opacity="0.2" d="M161.388 115.672C163.169 118.505 162.572 123.363 161.837 126.504C160.618 131.716 159.086 136.94 157.51 141.972C154.602 151.259 151.176 160.09 145.279 166.588C140.242 172.137 134.245 175.851 127.951 178.032C127.318 178.251 126.68 178.449 126.041 178.642C128.332 178.875 130.729 179 133.199 179C149.381 179 161.459 175.008 162.502 167.116L167.998 115.673H161.388V115.672Z" fill="#4A0E3A"/>
<path opacity="0.2" d="M108.194 173.309C109.636 169.444 109.212 163.573 108.862 159.815C108.201 152.732 106.779 145.435 104.634 138.891C103.434 135.233 102.077 131.284 102.503 127.184C102.927 123.106 105.199 120.331 107.878 118.658C112.107 116.018 116.655 115.651 121.252 115.839C125.016 115.993 128.674 116.006 132.38 115.672H98.4133L103.91 167.115C103.91 169.386 105.477 171.506 108.194 173.309Z" fill="#4A0E3A"/>
<path d="M98.4092 115.667C98.4092 109.102 113.987 103.777 133.205 103.777C152.421 103.777 168 109.102 168 115.667C168 122.237 152.421 127.562 133.205 127.562C113.987 127.562 98.4092 122.237 98.4092 115.667Z" fill="#A1D2DE"/>
<path d="M133.2 115.672C120.355 115.672 109.268 118.077 103.24 121.614C109.269 125.151 120.358 127.557 133.2 127.557C146.041 127.557 157.143 125.151 163.172 121.614C157.144 118.077 146.044 115.672 133.2 115.672Z" fill="#FF1D00"/>
<path d="M133.205 105.943C142.367 105.943 150.963 107.157 157.409 109.359C164.507 111.785 166.382 114.545 166.382 115.667C166.382 116.789 164.507 119.552 157.409 121.979C150.964 124.182 142.368 125.395 133.205 125.395C124.041 125.395 115.446 124.182 109.001 121.979C101.903 119.552 100.027 116.789 100.027 115.667C100.027 114.546 101.903 111.785 109.001 109.359C115.446 107.157 124.042 105.943 133.205 105.943ZM133.205 103.777C113.988 103.777 98.4092 109.102 98.4092 115.667C98.4092 122.237 113.987 127.562 133.205 127.562C152.421 127.562 168 122.237 168 115.667C167.999 109.102 152.421 103.777 133.205 103.777Z" fill="#EBF0F2"/>
</g>
<defs>
<clipPath id="clip0_20:173">
<rect width="168" height="179" fill="white"/>
</clipPath>
</defs>
</svg>
