<svg width="149" height="189" viewBox="0 0 149 189" fill="none" xmlns="http://www.w3.org/2000/svg">
<circle cx="75.9419" cy="115.355" r="73.0581" fill="#FBEDE4"/>
<g clip-path="url(#clip0_20:3)">
<path fill-rule="evenodd" clip-rule="evenodd" d="M57.6638 77.6458L73.4753 52.1387L73.891 71.0979L62.1115 94.6219L57.6638 77.6458Z" fill="#F2815F"/>
<path fill-rule="evenodd" clip-rule="evenodd" d="M61.8186 91.7558L75.8706 74.8749L71.712 109.077L66.1784 112.009L61.8186 91.7558Z" fill="#F2815F"/>
<path fill-rule="evenodd" clip-rule="evenodd" d="M73.1017 45.6786C64.8506 48.9373 60.7563 72.5599 61.7723 80.99C63.1426 92.1285 65.6669 98.2483 67.3909 102.807C73.1943 118.214 74.241 152.822 59.6944 167.265H20.1189V152.501C21.535 150.802 22.628 149.013 23.0281 147.07C23.2591 145.938 24.2132 142.372 25.4603 137.828C27.5844 130.056 30.5399 119.408 32.11 113.074C36.9587 93.4746 36.7433 88.5482 42.1154 80.4243C45.8404 74.7637 53.5217 43.0166 58.3549 39.4823C60.3869 38.0293 74.9642 28.4513 78.2428 30.1804C80.8752 31.5414 83.9077 41.4096 73.1017 45.6786Z" fill="#F69876"/>
<path fill-rule="evenodd" clip-rule="evenodd" d="M51.5053 167.265H0L21.0116 132.795L25.4602 137.828L51.5053 167.265Z" fill="#E62F39"/>
<path fill-rule="evenodd" clip-rule="evenodd" d="M140.221 117.813V104.284V7.96293C140.221 5.22912 137.971 2.99249 135.221 2.99249H79.5057C76.7552 2.99249 74.5049 5.22912 74.5049 7.96293V104.284V117.813V128.973C74.5049 131.839 76.7552 134.184 79.5057 134.184H135.221C137.971 134.184 140.221 131.839 140.221 128.973V117.813Z" fill="white"/>
<path fill-rule="evenodd" clip-rule="evenodd" d="M135.221 0H79.5057C75.0991 0 71.4941 3.58358 71.4941 7.96294V129.214C71.4941 133.593 75.0991 137.177 79.5057 137.177H135.221C137.199 137.177 139.015 136.454 140.416 135.262H140.417V135.262C142.137 133.799 143.232 131.627 143.232 129.214V7.96294C143.232 3.58358 139.627 0 135.221 0ZM140.221 117.813V128.974C140.221 131.839 137.971 134.184 135.221 134.184H79.5057C76.7552 134.184 74.5049 131.839 74.5049 128.974V117.813V7.96294C74.5049 7.92022 74.5054 7.87797 74.5068 7.83571C74.5077 7.79299 74.5096 7.75073 74.5115 7.70848C74.5139 7.66623 74.5167 7.62444 74.5196 7.58219C74.5229 7.5404 74.5266 7.49862 74.5309 7.45684C74.5351 7.41505 74.5403 7.37374 74.5455 7.33242C74.5507 7.29111 74.5564 7.25026 74.563 7.20895C74.5691 7.1681 74.5762 7.12726 74.5838 7.08641C74.5914 7.04557 74.5989 7.00519 74.6074 6.96482C74.6159 6.92444 74.6244 6.88453 74.6339 6.84416C74.6433 6.80425 74.6532 6.76435 74.6632 6.72491C74.6735 6.68547 74.6844 6.64604 74.6957 6.6066C74.7071 6.56763 74.7189 6.52819 74.7312 6.4897C74.7434 6.45073 74.7562 6.41223 74.7694 6.37373C74.7827 6.33524 74.7959 6.29721 74.8101 6.25918C74.8242 6.22115 74.8384 6.18312 74.8535 6.14556C74.8686 6.10801 74.8837 6.07092 74.8998 6.03336C74.9154 5.99627 74.9319 5.95965 74.9485 5.92303C74.9655 5.88641 74.9825 5.85026 74.9999 5.81364C75.0174 5.77749 75.0358 5.74134 75.0543 5.70613C75.0911 5.63476 75.1298 5.56434 75.17 5.49486C75.2101 5.42537 75.2522 5.35683 75.2956 5.28969C75.3391 5.22256 75.384 5.15636 75.4307 5.09157C75.4539 5.05918 75.4775 5.02678 75.5016 4.99485C75.5257 4.96293 75.5502 4.93147 75.5748 4.90002C75.6489 4.80612 75.7269 4.71504 75.8077 4.62631C75.8346 4.59673 75.862 4.56762 75.8894 4.53898C75.972 4.4526 76.0585 4.36903 76.1473 4.28875C76.2658 4.18171 76.3896 4.07983 76.5181 3.98405C76.5502 3.96011 76.5828 3.93664 76.6154 3.91316C76.7462 3.82067 76.8818 3.73382 77.0211 3.654C77.126 3.59391 77.2327 3.53757 77.3423 3.48546C77.4151 3.45025 77.4888 3.41738 77.5639 3.38546C77.6012 3.36997 77.6385 3.35447 77.6768 3.33945C77.7145 3.32443 77.7523 3.31034 77.7911 3.29626C77.8293 3.28217 77.8676 3.26903 77.9063 3.25588C78.022 3.21691 78.1401 3.1817 78.2596 3.15119C78.2993 3.14086 78.3395 3.13147 78.3801 3.12208C78.4609 3.10377 78.5416 3.08687 78.6238 3.07231C78.6649 3.0648 78.706 3.05823 78.7471 3.05212C78.7882 3.04555 78.8298 3.03992 78.8713 3.03475C78.9129 3.02959 78.9545 3.02489 78.9965 3.02067C79.0385 3.01644 79.0806 3.01269 79.1226 3.00987C79.1651 3.00658 79.2072 3.00424 79.2497 3.00189C79.2922 3.00001 79.3347 2.9986 79.3777 2.99719C79.4202 2.99626 79.4632 2.99579 79.5062 2.99579H135.221C135.264 2.99579 135.307 2.99626 135.35 2.99719C135.392 2.9986 135.435 3.00001 135.477 3.00189C135.52 3.00377 135.562 3.00658 135.604 3.00987C135.646 3.01316 135.688 3.01644 135.73 3.02067C135.772 3.02489 135.814 3.02959 135.855 3.03475C135.897 3.03992 135.939 3.04555 135.98 3.05212C136.021 3.05823 136.062 3.06527 136.103 3.07231C136.144 3.07935 136.185 3.08734 136.225 3.09532C136.266 3.10377 136.306 3.11222 136.347 3.12161C136.387 3.131 136.427 3.14039 136.467 3.15072C136.507 3.16105 136.546 3.17184 136.586 3.18264C136.626 3.19391 136.665 3.20565 136.704 3.21785C136.743 3.23006 136.782 3.24227 136.821 3.25541C136.86 3.26856 136.898 3.2817 136.936 3.29579C136.974 3.30987 137.012 3.32396 137.05 3.33898C137.088 3.354 137.126 3.36903 137.163 3.38499C137.201 3.40048 137.238 3.41691 137.275 3.43335C137.312 3.45025 137.348 3.46668 137.385 3.48452C137.421 3.50189 137.458 3.51973 137.494 3.53804C137.529 3.55635 137.565 3.57513 137.601 3.59438C137.636 3.61363 137.671 3.63335 137.706 3.65307C137.741 3.67325 137.776 3.69344 137.81 3.7141C137.844 3.73476 137.879 3.75588 137.913 3.77748C137.947 3.79908 137.98 3.82114 138.013 3.84321C138.046 3.86574 138.079 3.88828 138.112 3.91128C138.145 3.93429 138.177 3.95776 138.21 3.98218C138.242 4.00612 138.273 4.03053 138.305 4.05495C138.337 4.07936 138.368 4.10471 138.399 4.12959C138.429 4.15495 138.46 4.1803 138.491 4.20659C138.521 4.23288 138.551 4.25917 138.58 4.28593C138.61 4.31269 138.639 4.33945 138.668 4.36715C138.698 4.39438 138.726 4.42208 138.754 4.45072L138.838 4.53617C138.866 4.56481 138.893 4.59391 138.92 4.62349C138.947 4.65307 138.973 4.68265 139 4.71269C139.026 4.74274 139.052 4.77326 139.078 4.80377C139.103 4.83429 139.129 4.86528 139.153 4.89673C139.178 4.92819 139.203 4.95964 139.227 4.99157C139.251 5.02349 139.274 5.05589 139.297 5.08828C139.321 5.12068 139.344 5.15354 139.366 5.18641C139.389 5.21927 139.411 5.2526 139.433 5.28641C139.455 5.31974 139.476 5.35401 139.497 5.38781C139.518 5.42162 139.539 5.45636 139.559 5.4911C139.579 5.52584 139.598 5.56059 139.618 5.5958C139.637 5.63101 139.656 5.66669 139.674 5.70237C139.693 5.73805 139.711 5.77373 139.729 5.80988C139.746 5.84603 139.764 5.88265 139.78 5.91927C139.797 5.95589 139.813 5.99251 139.829 6.0296C139.845 6.06669 139.86 6.10425 139.875 6.14181C139.89 6.17937 139.904 6.2174 139.919 6.25542C139.933 6.29345 139.946 6.33148 139.959 6.36998C139.972 6.40848 139.985 6.44697 139.997 6.48594C140.01 6.52444 140.022 6.56388 140.033 6.60284C140.044 6.64228 140.055 6.68172 140.065 6.72115C140.075 6.76059 140.085 6.8005 140.095 6.8404C140.104 6.88031 140.113 6.92021 140.121 6.96106C140.13 7.00144 140.137 7.04181 140.145 7.08266C140.152 7.1235 140.159 7.16435 140.166 7.20519C140.172 7.24604 140.178 7.28735 140.183 7.32867C140.188 7.36998 140.194 7.4113 140.198 7.45308C140.202 7.49486 140.206 7.53618 140.209 7.57843C140.212 7.62069 140.215 7.66247 140.217 7.70472C140.219 7.74698 140.221 7.78923 140.222 7.83195C140.223 7.87421 140.224 7.91693 140.224 7.95919V117.813H140.221Z" fill="#1B0C47"/>
<path fill-rule="evenodd" clip-rule="evenodd" d="M80.2488 7.27491V8.49276H80.5194C80.5548 8.49276 80.5714 8.51764 80.5714 8.57351V8.60215C80.5714 8.65801 80.5548 8.6829 80.5194 8.6829H79.6914C79.656 8.6829 79.6413 8.65801 79.6413 8.60215V8.57351C79.6413 8.51717 79.656 8.49276 79.6914 8.49276H80.0159V7.46083L79.6848 7.51247C79.6456 7.51247 79.6328 7.42374 79.6328 7.3782C79.6328 7.35144 79.6475 7.33688 79.6763 7.33078L80.1755 7.22937C80.2072 7.22937 80.2488 7.2505 80.2488 7.27491Z" fill="#1B0C47"/>
<path fill-rule="evenodd" clip-rule="evenodd" d="M81.5846 7.28455V8.16953H81.697C81.7319 8.16953 81.7466 8.19441 81.7466 8.25028V8.27939C81.7466 8.33526 81.7319 8.35967 81.697 8.35967H81.5846V8.63244C81.5846 8.66765 81.5577 8.68596 81.4953 8.68596H81.4415C81.3791 8.68596 81.3522 8.66765 81.3522 8.63244V8.35967H80.7594C80.7301 8.35967 80.697 8.26249 80.697 8.21695C80.697 8.20662 80.697 8.19864 80.7013 8.19441L81.3564 7.26389C81.3753 7.23901 81.4084 7.23103 81.4518 7.23103H81.4953C81.5577 7.23056 81.5846 7.24981 81.5846 7.28455ZM80.9483 8.16953H81.3541V7.59253L81.3456 7.59065L80.9483 8.16953Z" fill="#1B0C47"/>
<path fill-rule="evenodd" clip-rule="evenodd" d="M82.1094 7.65026V7.81176C82.1094 7.84698 82.0783 7.86529 82.0074 7.86529H81.9597C81.8888 7.86529 81.8577 7.84651 81.8577 7.81176V7.65026C81.8577 7.61505 81.8888 7.59674 81.9597 7.59674H82.0074C82.0783 7.59674 82.1094 7.61552 82.1094 7.65026ZM82.1094 8.47139V8.63242C82.1094 8.66764 82.0783 8.68595 82.0074 8.68595H81.9597C81.8888 8.68595 81.8577 8.66764 81.8577 8.63242V8.47139C81.8577 8.43618 81.8888 8.41787 81.9597 8.41787H82.0074C82.0783 8.41787 82.1094 8.43618 82.1094 8.47139Z" fill="#1B0C47"/>
<path fill-rule="evenodd" clip-rule="evenodd" d="M83.1083 7.31553V7.35262C83.1083 7.40239 83.0937 7.42492 83.0564 7.42492H82.6199L82.5949 7.793H82.6804C82.9444 7.793 83.1919 7.89441 83.1919 8.23948C83.1919 8.59488 82.9199 8.69629 82.678 8.69629C82.4451 8.69629 82.2808 8.62587 82.2808 8.56202C82.2808 8.52305 82.337 8.43197 82.3705 8.43197C82.404 8.43197 82.5014 8.50662 82.6761 8.50662C82.8301 8.50662 82.9548 8.41789 82.9548 8.24183C82.9548 8.07657 82.8509 7.98314 82.6303 7.98314H82.4324C82.3785 7.98314 82.3663 7.96061 82.3663 7.91084L82.4017 7.30474C82.4059 7.25497 82.4267 7.23431 82.4787 7.23431H83.0568C83.0937 7.23478 83.1083 7.25967 83.1083 7.31553Z" fill="#1B0C47"/>
<path fill-rule="evenodd" clip-rule="evenodd" d="M84.3422 7.95873C84.3422 8.45263 84.1344 8.69677 83.8576 8.69677C83.5831 8.69677 83.3772 8.45263 83.3772 7.95873C83.3772 7.46437 83.5831 7.2207 83.8576 7.2207C84.1344 7.2207 84.3422 7.46437 84.3422 7.95873ZM83.6124 7.95873C83.6124 8.34512 83.723 8.50662 83.8581 8.50662C83.9931 8.50662 84.1056 8.34512 84.1056 7.95873C84.1056 7.57188 83.9931 7.41084 83.8581 7.41084C83.7225 7.41084 83.6124 7.57235 83.6124 7.95873Z" fill="#1B0C47"/>
<path fill-rule="evenodd" clip-rule="evenodd" d="M80.4692 121.739C80.4692 121.78 80.4154 121.879 80.3819 121.879C80.3526 121.879 80.2817 121.813 80.1282 121.813C79.97 121.813 79.8935 121.89 79.8935 121.995C79.8935 122.13 80.012 122.169 80.1495 122.223C80.328 122.293 80.5363 122.376 80.5363 122.657C80.5363 122.944 80.328 123.081 80.0706 123.081C79.7961 123.081 79.6152 122.977 79.6152 122.916C79.6152 122.87 79.6799 122.773 79.713 122.773C79.7442 122.773 79.8542 122.874 80.0479 122.874C80.175 122.874 80.2869 122.808 80.2869 122.673C80.2869 122.527 80.1287 122.479 79.9686 122.413C79.8061 122.345 79.6422 122.264 79.6422 122.003C79.6422 121.747 79.8542 121.604 80.1188 121.604C80.2798 121.604 80.4692 121.666 80.4692 121.739Z" fill="#1B0C47"/>
<path fill-rule="evenodd" clip-rule="evenodd" d="M81.7324 121.644C81.7324 121.654 81.7263 121.669 81.7135 121.685L81.2435 122.316L81.799 123.002C81.8113 123.021 81.8155 123.031 81.8155 123.041C81.8155 123.062 81.7867 123.07 81.7135 123.07H81.6474C81.5949 123.07 81.5496 123.067 81.5265 123.038L81.021 122.388L81.0125 122.39V123.017C81.0125 123.052 80.9832 123.07 80.9124 123.07H80.8708C80.8 123.07 80.7688 123.052 80.7688 123.017V121.669C80.7688 121.634 80.8 121.616 80.8708 121.616H80.9124C80.9832 121.616 81.0125 121.634 81.0125 121.669V122.269H81.021L81.4679 121.648C81.4868 121.621 81.5326 121.615 81.5846 121.615H81.6408C81.7031 121.615 81.7324 121.627 81.7324 121.644Z" fill="#1B0C47"/>
<path fill-rule="evenodd" clip-rule="evenodd" d="M82.2052 121.669V123.016C82.2052 123.052 82.1759 123.07 82.105 123.07H82.0634C81.9926 123.07 81.9614 123.051 81.9614 123.016V121.669C81.9614 121.633 81.9926 121.615 82.0634 121.615H82.105C82.1759 121.615 82.2052 121.633 82.2052 121.669Z" fill="#1B0C47"/>
<path fill-rule="evenodd" clip-rule="evenodd" d="M83.5183 122.045C83.5183 122.431 83.1706 122.483 83.0606 122.483H82.7838V123.016C82.7838 123.052 82.7526 123.07 82.6818 123.07H82.6426C82.5717 123.07 82.5405 123.051 82.5405 123.016V121.689C82.5405 121.639 82.5613 121.619 82.6114 121.619H83.0398C83.2226 121.619 83.5183 121.675 83.5183 122.045ZM82.7838 121.826V122.275H83.0483C83.1295 122.275 83.2689 122.238 83.2689 122.045C83.2689 121.865 83.1357 121.826 83.0318 121.826H82.7838Z" fill="#1B0C47"/>
<path fill-rule="evenodd" clip-rule="evenodd" d="M131.844 121.669V123.016C131.844 123.052 131.815 123.07 131.744 123.07H131.686C131.635 123.07 131.604 123.06 131.583 123.029L130.972 122.108L130.922 122.02V123.016C130.922 123.052 130.891 123.07 130.82 123.07H130.787C130.717 123.07 130.685 123.051 130.685 123.016V121.669C130.685 121.633 130.716 121.615 130.787 121.615H130.849C130.901 121.615 130.935 121.625 130.959 121.661L131.548 122.552L131.606 122.653V121.669C131.606 121.633 131.637 121.615 131.708 121.615H131.744C131.815 121.615 131.844 121.633 131.844 121.669Z" fill="#1B0C47"/>
<path fill-rule="evenodd" clip-rule="evenodd" d="M133.053 121.7V121.745C133.053 121.801 133.039 121.826 133.003 121.826H132.433V122.223H132.943C132.978 122.223 132.993 122.246 132.993 122.303V122.349C132.993 122.405 132.978 122.429 132.943 122.429H132.433V122.859H133.005C133.041 122.859 133.055 122.884 133.055 122.94V122.985C133.055 123.041 133.041 123.066 133.005 123.066H132.26C132.21 123.066 132.189 123.046 132.189 122.996V121.689C132.189 121.639 132.21 121.619 132.26 121.619H133.003C133.039 121.619 133.053 121.644 133.053 121.7Z" fill="#1B0C47"/>
<path fill-rule="evenodd" clip-rule="evenodd" d="M134.354 121.652C134.354 121.663 134.346 121.679 134.335 121.696L133.93 122.308L134.375 122.99C134.384 123.006 134.391 123.021 134.391 123.033C134.391 123.058 134.36 123.07 134.281 123.07H134.227C134.175 123.07 134.139 123.064 134.12 123.035L133.783 122.52L133.44 123.037C133.421 123.066 133.382 123.07 133.336 123.07H133.29C133.213 123.07 133.18 123.057 133.18 123.032C133.18 123.022 133.186 123.008 133.199 122.989L133.648 122.311L133.247 121.695C133.236 121.678 133.23 121.664 133.23 121.651C133.23 121.629 133.261 121.614 133.341 121.614H133.394C133.446 121.614 133.482 121.62 133.501 121.649L133.792 122.098L134.093 121.647C134.112 121.621 134.152 121.615 134.2 121.615H134.241C134.321 121.615 134.354 121.627 134.354 121.652Z" fill="#1B0C47"/>
<path fill-rule="evenodd" clip-rule="evenodd" d="M135.532 121.7V121.745C135.532 121.801 135.517 121.826 135.482 121.826H135.116V123.017C135.116 123.052 135.086 123.07 135.014 123.07H134.974C134.903 123.07 134.872 123.052 134.872 123.017V121.826H134.501C134.466 121.826 134.452 121.801 134.452 121.745V121.7C134.452 121.644 134.467 121.619 134.501 121.619H135.481C135.518 121.619 135.532 121.644 135.532 121.7Z" fill="#1B0C47"/>
<path d="M126.253 7.27844H125.754V8.69676H126.253V7.27844Z" fill="#1B0C47"/>
<path d="M127.127 6.92401H126.628V8.69726H127.127V6.92401Z" fill="#1B0C47"/>
<path d="M128.002 6.56903H127.502V8.69674H128.002V6.56903Z" fill="#1B0C47"/>
<path d="M128.876 6.2146H128.376V8.69677H128.876V6.2146Z" fill="#1B0C47"/>
<path d="M134.417 7.24884H130.957V8.69673H134.417V7.24884Z" fill="#1B0C47"/>
<path d="M135.12 7.24884H134.79V8.69673H135.12V7.24884Z" fill="#1B0C47"/>
<path d="M102.184 123.632C102.843 123.632 103.378 123.101 103.378 122.446C103.378 121.79 102.843 121.259 102.184 121.259C101.524 121.259 100.99 121.79 100.99 122.446C100.99 123.101 101.524 123.632 102.184 123.632Z" fill="#E62F39"/>
<path d="M107.612 123.632C108.271 123.632 108.806 123.101 108.806 122.446C108.806 121.79 108.271 121.259 107.612 121.259C106.952 121.259 106.417 121.79 106.417 122.446C106.417 123.101 106.952 123.632 107.612 123.632Z" fill="#FFCA59"/>
<path fill-rule="evenodd" clip-rule="evenodd" d="M114.017 122.446C114.017 123.101 113.482 123.632 112.823 123.632C112.163 123.632 111.628 123.1 111.628 122.446C111.628 121.79 112.163 121.259 112.823 121.259C113.482 121.259 114.017 121.791 114.017 122.446Z" fill="#FFCA59"/>
<path fill-rule="evenodd" clip-rule="evenodd" d="M53.9785 119.894C57.4413 114.201 68.2463 107.802 74.5414 101.543C80.1038 96.0121 81.3546 89.2609 84.3913 83.0403C86.6973 78.3168 97.3305 61.8317 105.58 67.2289C112.249 71.5923 103.863 87.4069 101.753 91.1408C97.3031 99.0178 90.3217 107.267 89.0846 109.851C84.0701 120.322 80.0386 150.149 63.845 161.933C58.4842 165.834 60.7756 162.35 57.0785 154.273C56.4201 152.834 57.2415 133.729 54.542 127.222C54.1277 126.224 53.5841 120.543 53.9785 119.894Z" fill="#F69876"/>
<path fill-rule="evenodd" clip-rule="evenodd" d="M108.466 71.5726L104.879 80.79C104.466 81.852 102.936 82.036 101.995 81.3867L94.2348 76.0365C93.2938 75.3872 92.8843 74.0304 93.6344 73.1693L99.8586 66.0261C101.903 63.6792 109.677 68.4604 108.466 71.5726Z" fill="#FFC0AF"/>
<g filter="url(#filter0_d_20:3)">
<path d="M130.354 23.7549H86.7863C84.9826 23.7549 83.5205 25.2144 83.5205 27.0148V39.9857C83.5205 41.7861 84.9826 43.2456 86.7863 43.2456H122.901L126.625 46.642V43.2456H130.354C132.157 43.2456 133.62 41.7861 133.62 39.9857V27.0148C133.62 25.2144 132.157 23.7549 130.354 23.7549Z" fill="white"/>
<path d="M128.255 38.8136C131.158 35.9155 131.158 31.2167 128.255 28.3186C125.351 25.4204 120.644 25.4204 117.74 28.3186C114.837 31.2167 114.837 35.9155 117.74 38.8136C120.644 41.7118 125.351 41.7118 128.255 38.8136Z" fill="#686BEA"/>
<path d="M126.998 37.2774C126.848 37.2556 126.711 37.234 126.586 37.213C126.135 37.0183 125.76 36.8727 125.236 36.813C124.236 36.6988 122.92 37.2411 121.691 37.5836C120.461 37.9261 120.061 38.0973 119.203 38.1829C118.71 38.2323 118.3 38.374 118.003 38.5152L118.003 38.5145L117.98 38.5243C117.977 38.5255 117.83 38.5883 117.645 38.7153C118.997 40.1157 120.895 40.9871 122.998 40.9871C125.505 40.9871 127.721 39.7488 129.068 37.8516C128.317 37.5927 127.558 37.3584 126.998 37.2774Z" fill="#F94A3D"/>
<path d="M126.915 29.1981C127.01 29.2968 127.315 29.783 127.188 30.491C126.856 32.3418 127.36 31.7517 127.113 32.789C126.708 34.4963 125.467 34.4126 125.379 33.9186C125.291 33.4244 125.493 31.7653 125.666 31.5668C125.84 31.3683 126.915 29.1981 126.915 29.1981Z" fill="#1E1735"/>
<path d="M126.289 32.4262C126.289 32.4262 126.23 33.692 126.27 34.2664C126.397 36.0871 126.8 37.2915 126.789 37.663C126.769 38.366 126.39 38.572 126.097 38.7668C125.206 39.3579 123.381 39.5424 122.806 38.8666C122.605 38.6311 122.56 38.4018 122.515 38.1911C122.471 37.9804 122.164 36.578 122.232 36.3855C122.3 36.1931 123.975 33.3187 124.376 33.0923C124.776 32.8657 126.289 32.4262 126.289 32.4262Z" fill="#EC7D40"/>
<path d="M121.814 27.9141C120.912 28.2262 120.261 29.0168 120.117 29.9591C120.035 30.4923 119.969 31.1297 120.049 31.4708C120.238 32.2853 120.105 32.5695 120.158 33.0497C120.211 33.5299 120.47 34.2459 120.69 34.8839C120.91 35.5219 121.296 36.3795 121.878 36.7616C122.459 37.1436 122.887 37.0445 123.094 37.0161C124.049 36.8849 125.564 35.5209 125.73 35.1225C125.897 34.7241 125.888 33.6533 125.894 33.3593C125.899 33.0654 125.915 32.0307 126.015 31.5123C126.116 30.9939 126.27 28.986 124.679 28.207C124.34 28.0407 122.724 27.6092 121.858 27.899C121.843 27.9041 121.828 27.9091 121.814 27.9141Z" fill="#F79556"/>
<path d="M121.556 32.3175C121.553 32.3623 121.41 32.4873 121.006 32.4594C120.827 32.4471 120.65 32.3899 120.656 32.3004C120.662 32.2148 120.788 32.0653 120.944 32.0503C121.216 32.0241 121.563 32.228 121.556 32.3175Z" fill="#E6E6E6"/>
<path d="M120.799 32.2591C120.79 32.4027 120.9 32.5263 121.043 32.5351C121.187 32.544 121.311 32.4348 121.32 32.2912C121.329 32.1477 121.219 32.0241 121.076 32.0153C120.932 32.0064 120.808 32.1156 120.799 32.2591Z" fill="#1E1735"/>
<path d="M124.234 32.2463C124.234 32.2945 124.088 32.4384 123.653 32.4354C123.459 32.434 123.266 32.3844 123.267 32.2879C123.267 32.1956 123.393 32.0268 123.559 32.0002C123.85 31.9539 124.235 32.1497 124.234 32.2463Z" fill="#E6E6E6"/>
<path d="M123.969 32.1981C123.988 32.3438 123.884 32.4771 123.739 32.4956C123.593 32.5143 123.459 32.4114 123.44 32.2657C123.422 32.12 123.525 31.9868 123.671 31.9681C123.817 31.9495 123.95 32.0525 123.969 32.1981Z" fill="#1E1735"/>
<path d="M123.468 35.2256C123.49 35.1953 123.472 35.1531 123.435 35.1476C123.277 35.1239 122.891 35.0747 122.447 35.0808C122.143 35.085 121.854 35.1383 121.734 35.1633C121.702 35.17 121.685 35.2042 121.699 35.2335C121.77 35.385 122.007 35.7836 122.549 35.7707C123.036 35.7591 123.357 35.3811 123.468 35.2256Z" fill="#D66730"/>
<path d="M121.718 31.5226C121.638 31.5463 121.565 31.5542 121.493 31.5591C121.422 31.5632 121.353 31.5616 121.287 31.5561C121.253 31.5534 121.221 31.5489 121.189 31.5422C121.157 31.5355 121.125 31.5261 121.094 31.5159C121.032 31.495 120.97 31.4724 120.908 31.4625C120.892 31.4599 120.877 31.4573 120.861 31.4555C120.846 31.4532 120.831 31.4519 120.816 31.4505C120.786 31.4479 120.756 31.446 120.728 31.4474L120.718 31.4475L120.708 31.4483L120.698 31.449C120.694 31.4493 120.691 31.4494 120.687 31.4502L120.64 31.4581C120.609 31.4642 120.577 31.4706 120.546 31.4796C120.484 31.4965 120.422 31.5195 120.362 31.5482C120.333 31.5628 120.303 31.5786 120.275 31.5967C120.246 31.6141 120.218 31.6342 120.193 31.6551L120.166 31.6353C120.201 31.5701 120.248 31.5147 120.301 31.4629C120.354 31.4116 120.414 31.3663 120.478 31.3269C120.51 31.3071 120.543 31.2897 120.577 31.2727L120.629 31.2493C120.633 31.2473 120.638 31.2455 120.643 31.2437L120.658 31.2382L120.673 31.2329L120.688 31.2285C120.769 31.2057 120.847 31.1985 120.923 31.1953L121.036 31.1908C121.073 31.1896 121.111 31.1882 121.148 31.1891C121.186 31.1899 121.222 31.1933 121.258 31.2002C121.294 31.2071 121.329 31.2174 121.363 31.2303C121.431 31.2563 121.497 31.2894 121.558 31.3314C121.589 31.3527 121.619 31.3756 121.648 31.4017C121.677 31.428 121.704 31.4561 121.73 31.491L121.718 31.5226Z" fill="#1E1735"/>
<path d="M122.849 31.428C122.863 31.4086 122.878 31.3909 122.893 31.3745C122.909 31.3576 122.925 31.3425 122.941 31.3272C122.973 31.2974 123.007 31.2705 123.042 31.2456C123.077 31.2204 123.113 31.1985 123.15 31.1776C123.187 31.1576 123.224 31.1381 123.263 31.122C123.283 31.1138 123.302 31.1061 123.322 31.0991C123.342 31.0922 123.362 31.0865 123.382 31.0812C123.403 31.076 123.423 31.0711 123.444 31.0676C123.465 31.0642 123.486 31.0614 123.507 31.0589C123.549 31.0539 123.592 31.0525 123.635 31.0494C123.656 31.0475 123.677 31.0473 123.699 31.0463C123.72 31.0453 123.741 31.0437 123.762 31.0422C123.784 31.0409 123.805 31.0405 123.827 31.0397C123.848 31.0393 123.869 31.0378 123.891 31.0382L123.956 31.0401L123.989 31.0411L124.021 31.0442L124.087 31.0512C124.098 31.0521 124.109 31.0546 124.12 31.0562C124.13 31.0582 124.141 31.0598 124.152 31.062C124.196 31.0716 124.239 31.0821 124.281 31.097C124.291 31.1004 124.302 31.1043 124.312 31.1085L124.342 31.1209C124.362 31.1302 124.383 31.1388 124.402 31.1493C124.441 31.1693 124.478 31.1916 124.512 31.217C124.547 31.2421 124.58 31.2689 124.611 31.2972C124.641 31.326 124.67 31.3553 124.697 31.3859L124.676 31.412C124.641 31.3922 124.606 31.3727 124.57 31.3555C124.535 31.3378 124.499 31.3223 124.463 31.3093C124.445 31.3025 124.426 31.2972 124.408 31.2911C124.39 31.2861 124.372 31.2808 124.354 31.277C124.335 31.2725 124.317 31.2697 124.299 31.2664L124.271 31.2629C124.262 31.2616 124.253 31.2607 124.244 31.2601C124.17 31.2535 124.097 31.2562 124.023 31.2666L123.996 31.2694L123.968 31.2741L123.912 31.2834C123.894 31.2863 123.875 31.2911 123.856 31.2949C123.838 31.299 123.819 31.3026 123.801 31.3071C123.764 31.3171 123.727 31.3273 123.691 31.3405L123.636 31.3607C123.618 31.3672 123.6 31.3742 123.582 31.3816C123.564 31.3884 123.546 31.395 123.528 31.4008C123.509 31.4067 123.491 31.413 123.472 31.4179C123.454 31.4232 123.435 31.4274 123.416 31.4316C123.397 31.4358 123.378 31.4395 123.359 31.4426C123.32 31.4484 123.281 31.4549 123.242 31.4587C123.202 31.4636 123.162 31.4663 123.121 31.4687C123.08 31.4703 123.038 31.4714 122.995 31.4701C122.952 31.4687 122.909 31.4662 122.862 31.4588L122.849 31.428Z" fill="#1E1735"/>
<path d="M121.862 28.846C121.642 29.1107 121.606 29.2405 121.325 29.325C120.262 29.6449 120.145 30.202 120.077 30.556C119.978 31.0708 120.272 32.5013 120.151 32.4828C120.03 32.4644 119.868 32.2729 119.897 31.6834C119.92 31.2034 119.523 31.0085 119.504 30.7013C119.486 30.3942 119.539 29.3275 119.774 28.8556C120.009 28.3838 120.369 27.7852 120.882 27.585C121.395 27.3849 121.219 27.2789 121.724 27.1247C122.311 26.9452 122.632 27.0588 122.684 27.2963C122.746 27.5746 122.122 28.5347 121.862 28.846Z" fill="#1E1735"/>
<path d="M124.378 32.3366C124.359 32.3133 124.338 32.2907 124.316 32.2698C124.294 32.2487 124.271 32.2288 124.247 32.2103C124.2 32.1732 124.15 32.141 124.097 32.1166C124.084 32.11 124.071 32.1048 124.057 32.0991C124.044 32.0943 124.031 32.0886 124.017 32.0847C123.99 32.0754 123.963 32.0695 123.935 32.0641C123.88 32.0543 123.825 32.0525 123.771 32.0579C123.716 32.0633 123.664 32.0806 123.612 32.1022C123.561 32.1234 123.512 32.1431 123.463 32.1638C123.414 32.1847 123.366 32.2089 123.319 32.2388C123.295 32.2535 123.272 32.2702 123.248 32.2883C123.225 32.3065 123.202 32.3265 123.177 32.3495L123.158 32.3431C123.155 32.3076 123.161 32.2723 123.171 32.2386C123.181 32.2048 123.196 32.1723 123.215 32.1421C123.253 32.0815 123.304 32.0291 123.364 31.9892C123.423 31.9489 123.49 31.9234 123.558 31.9111C123.626 31.8981 123.697 31.8951 123.767 31.8976C123.836 31.9002 123.906 31.9128 123.971 31.9356C124.035 31.9592 124.096 31.9912 124.149 32.0308C124.176 32.0504 124.201 32.0719 124.225 32.0944C124.249 32.1168 124.271 32.1404 124.292 32.1655C124.333 32.2155 124.368 32.2683 124.396 32.3265L124.378 32.3366Z" fill="#1E1735"/>
<path d="M120.532 32.3861C120.532 32.3688 120.534 32.3527 120.538 32.3367C120.541 32.3206 120.545 32.3049 120.551 32.2894C120.562 32.2585 120.576 32.2291 120.594 32.2012C120.629 32.1455 120.677 32.0961 120.733 32.0577C120.789 32.0194 120.856 31.9947 120.923 31.9867C120.957 31.9822 120.99 31.9817 121.023 31.9819C121.057 31.9826 121.089 31.9854 121.122 31.989C121.249 32.0034 121.372 32.0477 121.475 32.1197C121.526 32.1558 121.572 32.1983 121.611 32.2463C121.63 32.2704 121.647 32.2956 121.662 32.3216C121.677 32.3478 121.69 32.3749 121.701 32.4024L121.684 32.4121C121.614 32.3198 121.525 32.2487 121.425 32.2069C121.376 32.1853 121.324 32.1706 121.271 32.1611C121.219 32.1516 121.166 32.1475 121.114 32.1493C121.088 32.1501 121.062 32.1535 121.038 32.1589C121.014 32.1649 120.989 32.1716 120.966 32.1805C120.943 32.1889 120.921 32.1973 120.899 32.2062C120.876 32.215 120.854 32.2235 120.832 32.2327C120.787 32.2513 120.741 32.2735 120.695 32.3006C120.649 32.3274 120.602 32.3589 120.551 32.3946L120.532 32.3861Z" fill="#1E1735"/>
<path d="M125.605 33.5464C125.636 33.5778 125.713 33.7182 125.844 33.7493C125.975 33.7803 126.169 33.8411 126.433 33.4656C126.696 33.0901 126.813 32.2441 126.777 32.017C126.777 32.017 126.727 31.4698 126.416 31.484C126.105 31.4981 125.621 32.8101 125.621 32.8101L125.605 33.5464Z" fill="#F79556"/>
<path d="M121.718 29.1186C121.868 29.3745 122.181 29.4422 122.636 29.3459C123.09 29.2495 123.378 29.2628 123.685 29.4626C124.209 29.8047 124.054 30.1782 124.862 30.9299C125.205 31.2494 125.394 31.49 125.443 32.1517C125.478 32.6335 125.434 32.7208 125.458 32.9432C125.479 33.1403 125.828 33.2874 125.948 32.9103C126.068 32.5332 126.058 32.36 126.267 31.8853C126.372 31.6465 126.439 31.4918 126.732 31.4526C126.985 31.4187 127.233 30.5786 127.169 29.9011C127.09 29.0688 126.893 28.7437 126.223 28.2305C125.554 27.7173 125.568 27.8353 125.115 27.415C124.662 26.9947 123.274 26.6396 122.651 27.2795C121.414 28.5496 121.718 29.1186 121.718 29.1186Z" fill="#1E1735"/>
<path d="M123.698 35.0726C123.666 35.0996 123.632 35.1238 123.597 35.147C123.562 35.17 123.527 35.1912 123.49 35.2117C123.417 35.2521 123.34 35.2873 123.262 35.3182C123.184 35.3486 123.103 35.3742 123.021 35.3953C122.939 35.4154 122.856 35.4318 122.772 35.4422C122.751 35.4455 122.73 35.4474 122.709 35.4497C122.688 35.4519 122.666 35.4551 122.645 35.4565L122.582 35.4621C122.56 35.4635 122.539 35.4642 122.518 35.4653L122.486 35.4664L122.454 35.4659C122.432 35.4654 122.411 35.4648 122.39 35.4636C122.368 35.4618 122.347 35.4594 122.326 35.4569L122.294 35.4528L122.263 35.4472L122.2 35.4347C122.18 35.4299 122.159 35.4245 122.139 35.419C122.097 35.4085 122.057 35.3948 122.017 35.3804C121.997 35.3735 121.977 35.3654 121.958 35.3568C121.939 35.3484 121.919 35.3397 121.9 35.3309C121.881 35.322 121.862 35.3113 121.843 35.3011C121.825 35.2908 121.807 35.2799 121.789 35.2684L121.793 35.2534C121.836 35.2539 121.878 35.2582 121.919 35.2615C121.94 35.2629 121.96 35.2645 121.981 35.2665C121.991 35.2674 122.001 35.2686 122.011 35.2696C122.021 35.2706 122.032 35.2709 122.042 35.2719C122.062 35.2735 122.082 35.2752 122.102 35.2773L122.118 35.2788L122.133 35.2798L122.163 35.282C122.183 35.2834 122.203 35.2859 122.223 35.2871L122.283 35.2911L122.313 35.2935L122.343 35.2953C122.362 35.2966 122.382 35.2981 122.402 35.3001C122.422 35.3013 122.442 35.3028 122.462 35.3046L122.491 35.3074L122.521 35.3095C122.601 35.317 122.681 35.32 122.761 35.3167C122.841 35.3138 122.921 35.3051 123.001 35.2927C123.08 35.2809 123.159 35.2646 123.238 35.2434C123.316 35.2228 123.393 35.197 123.469 35.167C123.507 35.1519 123.544 35.1357 123.581 35.1179C123.618 35.1003 123.654 35.0813 123.689 35.0599L123.698 35.0726Z" fill="#913B1D"/>
<path d="M106.091 38.4654C106.091 38.8572 105.773 39.1747 105.38 39.1747C104.988 39.1747 104.67 38.8571 104.67 38.4654C104.67 38.0737 104.988 37.7561 105.38 37.7561C105.773 37.7562 106.091 38.0738 106.091 38.4654Z" fill="#E2E3FF"/>
<path d="M109.038 38.4654C109.038 38.8572 108.72 39.1747 108.327 39.1747C107.935 39.1747 107.617 38.8571 107.617 38.4654C107.617 38.0737 107.935 37.7561 108.327 37.7561C108.72 37.7562 109.038 38.0738 109.038 38.4654Z" fill="#E2E3FF"/>
<path d="M111.985 38.4654C111.985 38.8572 111.666 39.1747 111.274 39.1747C110.882 39.1747 110.563 38.8571 110.563 38.4654C110.563 38.0737 110.882 37.7561 111.274 37.7561C111.666 37.7562 111.985 38.0738 111.985 38.4654Z" fill="#E2E3FF"/>
<path d="M111.271 35.7789H87.4576C87.0635 35.7789 86.7439 35.46 86.7439 35.0664C86.7439 34.673 87.0635 34.354 87.4576 34.354H111.271C111.665 34.354 111.985 34.6729 111.985 35.0664C111.985 35.46 111.665 35.7789 111.271 35.7789Z" fill="#E2E3FF"/>
<path d="M101.891 39.1822H87.4576C87.0635 39.1822 86.7439 38.8632 86.7439 38.4698C86.7439 38.0762 87.0635 37.7573 87.4576 37.7573H101.891C102.285 37.7573 102.604 38.0763 102.604 38.4698C102.604 38.8633 102.285 39.1822 101.891 39.1822Z" fill="#E2E3FF"/>
<path d="M89.449 27.9496L90.1597 29.3869L91.7485 29.6174L90.5988 30.7361L90.8702 32.3157L89.449 31.57L88.0278 32.3157L88.2993 30.7361L87.1494 29.6174L88.7384 29.3869L89.449 27.9496Z" fill="#F94A3D"/>
<path d="M94.4065 27.9496L95.1171 29.3869L96.7061 29.6174L95.5563 30.7361L95.8277 32.3157L94.4065 31.57L92.9853 32.3157L93.2568 30.7361L92.1069 29.6174L93.6959 29.3869L94.4065 27.9496Z" fill="#F94A3D"/>
<path d="M99.3643 27.9496L100.075 29.3869L101.664 29.6174L100.514 30.7361L100.785 32.3157L99.3643 31.57L97.943 32.3157L98.2145 30.7361L97.0647 29.6174L98.6537 29.3869L99.3643 27.9496Z" fill="#F94A3D"/>
<path d="M104.322 27.9496L105.032 29.3869L106.621 29.6174L105.472 30.7361L105.743 32.3157L104.322 31.57L102.901 32.3157L103.172 30.7361L102.022 29.6174L103.611 29.3869L104.322 27.9496Z" fill="#F94A3D"/>
<path d="M109.28 27.9496L109.99 29.3869L111.579 29.6174L110.429 30.7361L110.701 32.3157L109.28 31.57L107.858 32.3157L108.13 30.7361L106.98 29.6174L108.569 29.3869L109.28 27.9496Z" fill="#F94A3D"/>
</g>
<g filter="url(#filter1_d_20:3)">
<path d="M83.7332 50.8367H110.727C111.844 50.8367 112.75 51.741 112.75 52.8565V60.893C112.75 62.0085 111.844 62.9128 110.727 62.9128H88.3505L86.0433 65.0172V62.9128H83.7332C82.6157 62.9128 81.7097 62.0086 81.7097 60.893V52.8565C81.7097 51.741 82.6157 50.8367 83.7332 50.8367Z" fill="white"/>
<path d="M106.455 60.331C106.698 60.331 106.895 60.1343 106.895 59.8916C106.895 59.6489 106.698 59.4521 106.455 59.4521C106.212 59.4521 106.015 59.6489 106.015 59.8916C106.015 60.1343 106.212 60.331 106.455 60.331Z" fill="#E2E3FF"/>
<path d="M108.281 60.331C108.524 60.331 108.721 60.1343 108.721 59.8916C108.721 59.6489 108.524 59.4521 108.281 59.4521C108.038 59.4521 107.841 59.6489 107.841 59.8916C107.841 60.1343 108.038 60.331 108.281 60.331Z" fill="#E2E3FF"/>
<path d="M110.107 60.331C110.35 60.331 110.547 60.1343 110.547 59.8916C110.547 59.6489 110.35 59.4521 110.107 59.4521C109.864 59.4521 109.667 59.6489 109.667 59.8916C109.667 60.1343 109.864 60.331 110.107 60.331Z" fill="#E2E3FF"/>
<path d="M110.105 58.2271H95.3504C95.1061 58.2271 94.9082 58.0294 94.9082 57.7857C94.9082 57.5419 95.1062 57.3443 95.3504 57.3443H110.105C110.349 57.3443 110.547 57.5419 110.547 57.7857C110.547 58.0294 110.349 58.2271 110.105 58.2271Z" fill="#E2E3FF"/>
<path d="M104.293 60.3357H95.3504C95.1061 60.3357 94.9082 60.1381 94.9082 59.8943C94.9082 59.6505 95.1062 59.4529 95.3504 59.4529H104.293C104.537 59.4529 104.735 59.6505 104.735 59.8943C104.735 60.1381 104.537 60.3357 104.293 60.3357Z" fill="#E2E3FF"/>
<path d="M96.5842 53.3763L97.0245 54.2667L98.009 54.4095L97.2966 55.1027L97.4648 56.0815L96.5842 55.6193L95.7037 56.0815L95.8719 55.1027L95.1594 54.4095L96.1439 54.2667L96.5842 53.3763Z" fill="#ED1C24"/>
<path d="M99.6558 53.3763L100.096 54.2667L101.081 54.4095L100.368 55.1027L100.536 56.0815L99.6558 55.6193L98.7752 56.0815L98.9434 55.1027L98.231 54.4095L99.2155 54.2667L99.6558 53.3763Z" fill="#ED1C24"/>
<path d="M102.727 53.3763L103.168 54.2667L104.152 54.4095L103.44 55.1027L103.608 56.0815L102.727 55.6193L101.847 56.0815L102.015 55.1027L101.303 54.4095L102.287 54.2667L102.727 53.3763Z" fill="#ED1C24"/>
<path d="M105.799 53.3763L106.24 54.2667L107.224 54.4095L106.512 55.1027L106.68 56.0815L105.799 55.6193L104.919 56.0815L105.087 55.1027L104.375 54.4095L105.359 54.2667L105.799 53.3763Z" fill="#FFBCBF"/>
<path d="M108.871 53.3763L109.311 54.2667L110.296 54.4095L109.583 55.1027L109.751 56.0815L108.871 55.6193L107.99 56.0815L108.158 55.1027L107.446 54.4095L108.431 54.2667L108.871 53.3763Z" fill="#FFBCBF"/>
<path d="M88.6359 61.4385C91.1713 61.4385 93.2267 59.3869 93.2267 56.856C93.2267 54.3252 91.1713 52.2736 88.6359 52.2736C86.1005 52.2736 84.0452 54.3252 84.0452 56.856C84.0452 59.3869 86.1005 61.4385 88.6359 61.4385Z" fill="#686BEA"/>
<path d="M91.9451 60.032C91.6785 59.8481 91.4239 59.787 91.4239 59.787C91.4233 59.7878 91.4226 59.7889 91.4219 59.7898C91.2677 59.7214 90.9899 59.642 90.418 59.5014C89.2062 59.2033 88.9739 58.848 88.1944 58.826C87.7056 58.8122 87.4868 58.8758 86.658 59.1179C86.1451 59.2678 85.5314 59.434 84.9346 59.5666C85.7701 60.7016 87.1168 61.4385 88.6361 61.4385C89.9361 61.4385 91.1099 60.8989 91.9451 60.032Z" fill="#ED1C24"/>
<path d="M90.7307 55.6897C90.6333 55.0679 90.4899 54.1509 89.7659 53.5848C89.4589 53.3448 88.6836 52.9181 88.1086 53.0489C88.0324 53.0663 87.9943 53.1225 87.8884 53.1444C87.7109 53.181 87.5958 53.0823 87.1675 53.3311C86.0995 53.9516 86.2102 54.7339 85.9493 55.2462C85.5682 55.9939 85.1644 56.2602 84.9575 56.7625C84.858 57.0038 84.7689 57.2845 84.7305 57.5999C85.7174 58.5283 87.4476 59.3167 90.3551 58.5107C90.4871 58.2029 90.5677 57.9189 90.626 57.7135C90.6742 57.5434 90.8937 56.7313 90.7307 55.6897Z" fill="#1E1735"/>
<path d="M88.8695 57.184C88.882 57.259 88.8445 58.3328 88.857 58.9071C88.8695 59.4814 88.5118 59.9373 87.8989 60.0497C87.286 60.162 86.805 59.8485 86.7306 59.5189C86.6885 59.3326 86.8463 57.8708 86.6837 56.9219C86.5211 55.973 86.7431 55.8606 86.8306 55.8606C86.9182 55.8605 88.8695 57.184 88.8695 57.184Z" fill="#EC7D40"/>
<path d="M89.8613 54.3122C90.1791 54.9213 90.1437 55.9749 90.0948 56.2C90.046 56.4251 90.0156 56.3942 90.0499 56.5208C90.0843 56.6474 90.0372 57.0086 89.8586 57.4434C89.68 57.8781 89.2819 58.4469 89.0953 58.5591C88.9087 58.6714 88.6981 58.7343 88.4295 58.6912C88.161 58.6482 87.5546 58.2814 87.2087 57.7148C86.9372 57.27 86.7372 56.9045 86.7338 56.6163C86.7305 56.3282 86.511 55.404 86.7999 54.876C87.0887 54.3479 87.3084 53.9282 88.0663 53.7284C88.2646 53.6762 89.2792 53.1965 89.8613 54.3122Z" fill="#F79556"/>
<path d="M89.5139 55.9139C89.5341 55.8664 89.5657 55.8276 89.6017 55.7942C89.6376 55.7604 89.6793 55.7329 89.7242 55.7113C89.8148 55.6669 89.9215 55.6698 90.0187 55.6827C90.0432 55.6862 90.0677 55.6889 90.0915 55.6954L90.1272 55.7039C90.1396 55.7075 90.1525 55.7121 90.1649 55.7163C90.214 55.7364 90.2556 55.7661 90.2914 55.7986C90.3623 55.8652 90.4098 55.9451 90.4587 56.0174L90.447 56.0298C90.4095 56.0014 90.3784 55.9694 90.3447 55.9411C90.3112 55.9126 90.2765 55.8868 90.2404 55.8666C90.2048 55.8457 90.1678 55.8304 90.1313 55.8241L90.1041 55.8202L90.0735 55.8184C90.0534 55.8163 90.033 55.8179 90.013 55.8183C89.993 55.8186 89.973 55.8228 89.9534 55.8257C89.9338 55.831 89.9144 55.8346 89.8956 55.8413C89.8576 55.8522 89.8204 55.8634 89.7811 55.8713L89.6596 55.8987C89.6175 55.9085 89.5741 55.9186 89.5246 55.9271L89.5139 55.9139Z" fill="#1E1735"/>
<path d="M87.6497 55.5669C87.7426 55.5019 87.8494 55.4567 87.9622 55.4257C88.0755 55.3959 88.1973 55.3885 88.3184 55.4055C88.3489 55.4089 88.3787 55.4162 88.4095 55.4206C88.4397 55.4273 88.4699 55.4352 88.5004 55.4431C88.5602 55.4617 88.6161 55.4927 88.6633 55.5336C88.7568 55.6158 88.8277 55.7246 88.8409 55.8516L88.8228 55.864C88.711 55.8091 88.625 55.7578 88.5374 55.7138C88.4941 55.6916 88.4535 55.668 88.4123 55.642C88.3913 55.63 88.3703 55.6172 88.3485 55.6054C88.3261 55.5956 88.3036 55.5843 88.2799 55.577C88.2326 55.5622 88.1836 55.5493 88.1328 55.5439C88.0823 55.5358 88.0302 55.5331 87.9777 55.5345C87.872 55.5345 87.7648 55.5544 87.6595 55.5865L87.6497 55.5669Z" fill="#1E1735"/>
<path d="M88.0212 56.1451C88.0216 56.1741 88.1101 56.2602 88.3722 56.2568C88.4886 56.2553 88.6048 56.2247 88.604 56.1666C88.6033 56.111 88.5273 56.0099 88.427 55.9945C88.252 55.9677 88.0205 56.087 88.0212 56.1451Z" fill="#E6E6E6"/>
<path d="M88.2514 56.0486C88.3157 55.8969 88.5884 55.9568 88.5284 56.1628C88.4682 56.3691 88.1479 56.2923 88.2514 56.0486Z" fill="#1E1735"/>
<path d="M89.5469 56.3131C89.5473 56.3415 89.621 56.4258 89.8389 56.423C89.9357 56.4217 89.9822 56.3734 89.9815 56.3166C89.9808 56.2622 89.9675 56.1819 89.884 56.1667C89.7384 56.1401 89.5462 56.2563 89.5469 56.3131Z" fill="#E6E6E6"/>
<path d="M89.7137 56.2711C89.768 56.1433 89.9977 56.1937 89.9471 56.3673C89.8964 56.5411 89.6266 56.4764 89.7137 56.2711Z" fill="#1E1735"/>
<path d="M88.5928 56.1997C88.5869 56.1599 88.5756 56.1237 88.5573 56.0986C88.5388 56.0735 88.5167 56.0632 88.4906 56.0583C88.4775 56.0556 88.463 56.0552 88.4479 56.055C88.4405 56.055 88.4326 56.0555 88.4248 56.0561C88.4169 56.0566 88.4081 56.0576 88.3997 56.0583C88.3655 56.062 88.3305 56.0671 88.2951 56.0729C88.2241 56.0848 88.1515 56.0978 88.0771 56.1088C88.0025 56.1195 87.9269 56.1293 87.8455 56.1293C87.8755 56.1014 87.9085 56.0792 87.9422 56.0585C87.9759 56.0381 88.0109 56.0203 88.0468 56.0046C88.1186 55.9733 88.1942 55.95 88.2736 55.9376C88.3133 55.9315 88.3541 55.9282 88.3961 55.9295C88.4068 55.9298 88.417 55.9306 88.4281 55.9315C88.4393 55.9328 88.4504 55.9342 88.4619 55.9366C88.4846 55.941 88.5075 55.9485 88.5299 55.9597C88.5519 55.9714 88.5734 55.9875 88.5891 56.0083C88.6054 56.0286 88.6151 56.0529 88.6192 56.076C88.6231 56.0994 88.6218 56.1219 88.617 56.1427C88.6122 56.1634 88.6042 56.1828 88.5928 56.1997Z" fill="#1E1735"/>
<path d="M90.0207 56.3611C90.0128 56.3272 90.0007 56.2971 89.9839 56.2779C89.9756 56.2684 89.9667 56.262 89.9575 56.2581C89.9483 56.2543 89.9391 56.2517 89.9284 56.2508C89.918 56.2494 89.9063 56.2498 89.8942 56.2505C89.8881 56.2508 89.8817 56.2515 89.8754 56.2522C89.8689 56.2529 89.8616 56.2541 89.8546 56.2549C89.8264 56.259 89.7973 56.2642 89.7676 56.2698C89.7083 56.281 89.6473 56.2931 89.5842 56.3023C89.5209 56.3112 89.4564 56.3189 89.3857 56.3163C89.4098 56.2899 89.4368 56.269 89.4645 56.2495C89.4923 56.2303 89.5214 56.2136 89.5514 56.1987C89.6113 56.169 89.6752 56.1473 89.7429 56.135C89.7768 56.129 89.8117 56.1256 89.8479 56.1262C89.8572 56.1264 89.866 56.1269 89.8756 56.1277C89.8854 56.1286 89.8952 56.1297 89.9052 56.1317C89.9251 56.1354 89.9454 56.1417 89.9653 56.1515C89.9849 56.1616 90.0042 56.1757 90.0183 56.1942C90.033 56.2121 90.0416 56.2337 90.0452 56.254C90.0486 56.2746 90.0473 56.2942 90.0429 56.3121C90.0385 56.3301 90.0311 56.3468 90.0207 56.3611Z" fill="#1E1735"/>
<path d="M87.974 53.4826C87.974 53.4826 87.9944 53.4891 88.0143 53.4994C88.1406 53.565 88.2565 53.8043 88.2847 54.1017C88.2985 54.2483 88.2927 54.3556 88.2682 54.4926C88.1521 55.1415 87.3503 55.152 87.094 55.7735C86.8777 56.2983 86.6907 56.008 86.6332 55.7939C86.3854 54.8704 86.3122 54.1489 87.6198 53.5134C87.7024 53.4733 87.8821 53.4534 87.974 53.4826Z" fill="#1E1735"/>
<path d="M88.1654 53.4938C88.2986 53.4394 89.1277 53.1663 89.9519 54.0735C90.4127 54.5808 90.3396 55.2924 90.3162 55.5621C90.2979 55.7727 90.1547 55.9024 90.1301 55.9034C90.0853 55.9052 90.4045 55.1358 88.8251 54.6484C88.3767 54.51 88.2223 54.2049 88.1867 54.1676C88.0647 54.0397 87.8951 53.7822 87.9873 53.6182C88.025 53.5511 88.0934 53.5232 88.1654 53.4938Z" fill="#1E1735"/>
<path d="M88.2715 57.7896C88.2602 57.7717 88.2719 57.7483 88.2931 57.7464C88.384 57.7384 88.6049 57.7238 88.8569 57.7427C89.0295 57.7555 89.1921 57.7958 89.2596 57.8142C89.2774 57.8191 89.2856 57.8391 89.2768 57.8553C89.2315 57.939 89.0829 58.1573 88.7752 58.1313C88.4986 58.1078 88.3295 57.8818 88.2715 57.7896Z" fill="#D65B5B"/>
<path d="M86.8749 56.0073C86.8295 55.923 86.7097 55.795 86.5067 55.9003C86.3442 55.9846 86.325 56.2248 86.3712 56.5124C86.4174 56.8 86.613 57.1371 86.7777 57.1846C86.9423 57.232 86.943 57.1212 86.9754 56.9777C87.0077 56.8343 86.9896 56.2206 86.8749 56.0073Z" fill="#F79556"/>
<path d="M90.7555 56.7515C90.7543 56.7888 90.7538 56.8261 90.7521 56.8635C90.748 56.9381 90.744 57.0126 90.7367 57.0868C90.724 57.2355 90.7047 57.3836 90.6781 57.53C90.6654 57.6033 90.6504 57.6761 90.6334 57.748L90.6201 57.8019L90.6059 57.8574L90.5776 57.9675C90.5398 58.1139 90.4975 58.2579 90.4507 58.4002C90.4387 58.4356 90.4265 58.4709 90.4139 58.5061C90.4989 58.4809 90.5849 58.4542 90.6718 58.4261C90.7203 58.2951 90.7632 58.1624 90.8018 58.0294C90.8127 57.9923 90.8234 57.9551 90.8336 57.918L90.849 57.8625L90.8642 57.8052C90.884 57.7286 90.9013 57.6517 90.9162 57.5745C90.9455 57.42 90.9667 57.2644 90.9809 57.1083C91.0086 56.796 91.0039 56.4813 90.9713 56.1698L90.9563 56.0534C90.9513 56.0146 90.9466 55.9758 90.9394 55.9372C90.9265 55.8601 90.9133 55.7824 90.8978 55.7078C90.8683 55.5569 90.8352 55.4051 90.7958 55.2545C90.7157 54.9539 90.6079 54.6553 90.4448 54.3866C90.3649 54.2517 90.2685 54.1266 90.1624 54.0128C90.0569 53.8978 89.933 53.8021 89.8054 53.7172L89.8879 53.7974C89.9016 53.8108 89.9155 53.8237 89.9289 53.8373L89.9666 53.8803C89.9916 53.909 90.0178 53.9364 90.0418 53.9656L90.1105 54.056C90.1978 54.179 90.2781 54.3061 90.3393 54.4433C90.4682 54.7137 90.5492 55.0035 90.6087 55.2979C90.6382 55.4455 90.6621 55.5946 90.6855 55.7451C90.6979 55.821 90.7064 55.8948 90.7169 55.9689C90.7226 56.0058 90.7259 56.0431 90.7295 56.0803L90.7403 56.1918C90.75 56.341 90.7595 56.4902 90.7569 56.6396C90.757 56.6768 90.7571 56.7142 90.7555 56.7515Z" fill="#1E1735"/>
<path d="M87.6406 53.1269C87.5514 53.1266 87.4621 53.1445 87.3772 53.1707C87.292 53.1968 87.2108 53.2327 87.1312 53.2709L87.014 53.3324C86.9749 53.3531 86.9351 53.3727 86.8984 53.3976L86.7861 53.4698C86.767 53.4812 86.7494 53.4949 86.7318 53.5087L86.6787 53.5497C86.6056 53.6019 86.543 53.6669 86.4764 53.728C86.3517 53.8588 86.2439 54.0075 86.1592 54.1677C86.1386 54.2079 86.1164 54.2477 86.0992 54.2892C86.0815 54.3303 86.0614 54.3712 86.0462 54.4129C86.0131 54.4959 85.9843 54.5797 85.9563 54.6622C85.9002 54.8269 85.8508 54.9893 85.7767 55.1275C85.7721 55.1363 85.7681 55.1449 85.7631 55.1539L85.747 55.181L85.715 55.2356C85.6942 55.2722 85.6718 55.3077 85.6491 55.3432L85.6153 55.3965L85.5799 55.4488C85.5563 55.4836 85.5328 55.5185 85.5076 55.5523C85.4099 55.6896 85.3033 55.8209 85.1924 55.9529C85.0826 56.0853 84.9675 56.2207 84.8655 56.3719C84.8158 56.4484 84.7679 56.5275 84.7287 56.6117C84.719 56.6325 84.7082 56.6537 84.6994 56.6741L84.6733 56.7355C84.6558 56.7766 84.6401 56.8183 84.6241 56.8599C84.5655 57.0185 84.5167 57.1815 84.4829 57.348C84.5401 57.4108 84.6004 57.4737 84.664 57.536C84.6713 57.4974 84.6792 57.4589 84.688 57.4206C84.7267 57.2584 84.7778 57.0991 84.8404 56.9436C84.8564 56.9049 84.8727 56.8663 84.8895 56.8278L84.9152 56.7702C84.9238 56.751 84.9331 56.7339 84.942 56.7156C84.977 56.6432 85.0203 56.5746 85.066 56.5068C85.1591 56.3717 85.2686 56.2426 85.3808 56.1093C85.492 55.9757 85.6034 55.8373 85.7053 55.6917C85.7312 55.6556 85.7555 55.6183 85.7799 55.5811L85.8163 55.5252L85.851 55.4682C85.8743 55.4303 85.8975 55.3924 85.9188 55.3534L85.9515 55.2953L85.9677 55.2662C85.9729 55.256 85.978 55.245 85.9831 55.2345C86.0674 55.064 86.1139 54.8915 86.1625 54.727C86.211 54.5622 86.2616 54.403 86.3318 54.2533C86.4013 54.1035 86.49 53.9641 86.5957 53.836C86.6527 53.7759 86.7063 53.7117 86.7706 53.6577L86.8171 53.6152C86.8325 53.6009 86.848 53.5867 86.8651 53.5744L86.9656 53.4972C86.9981 53.47 87.0343 53.4476 87.0698 53.4242L87.1767 53.354C87.2493 53.3096 87.324 53.2689 87.401 53.234C87.4782 53.1998 87.5588 53.1737 87.6428 53.1636C87.6848 53.1579 87.7277 53.1567 87.7713 53.1556C87.8148 53.1545 87.8592 53.1513 87.9014 53.1404C87.8144 53.1488 87.7303 53.1265 87.6406 53.1269Z" fill="#1E1735"/>
<path d="M88.0667 55.1238C88.0667 55.1238 89.1729 55.7583 90.1611 55.3692C90.8738 55.0886 90.0275 53.8349 89.0985 53.6059C88.753 53.5207 88.101 53.6634 88.2189 53.9575C88.4628 54.5656 88.0667 55.1238 88.0667 55.1238Z" fill="#1E1735"/>
</g>
</g>
<defs>
<filter id="filter0_d_20:3" x="79.5205" y="23.7549" width="58.0991" height="30.8871" filterUnits="userSpaceOnUse" color-interpolation-filters="sRGB">
<feFlood flood-opacity="0" result="BackgroundImageFix"/>
<feColorMatrix in="SourceAlpha" type="matrix" values="0 0 0 0 0 0 0 0 0 0 0 0 0 0 0 0 0 0 127 0" result="hardAlpha"/>
<feOffset dy="4"/>
<feGaussianBlur stdDeviation="2"/>
<feComposite in2="hardAlpha" operator="out"/>
<feColorMatrix type="matrix" values="0 0 0 0 0 0 0 0 0 0 0 0 0 0 0 0 0 0 0.07 0"/>
<feBlend mode="normal" in2="BackgroundImageFix" result="effect1_dropShadow_20:3"/>
<feBlend mode="normal" in="SourceGraphic" in2="effect1_dropShadow_20:3" result="shape"/>
</filter>
<filter id="filter1_d_20:3" x="77.7097" y="50.8367" width="39.0405" height="22.1805" filterUnits="userSpaceOnUse" color-interpolation-filters="sRGB">
<feFlood flood-opacity="0" result="BackgroundImageFix"/>
<feColorMatrix in="SourceAlpha" type="matrix" values="0 0 0 0 0 0 0 0 0 0 0 0 0 0 0 0 0 0 127 0" result="hardAlpha"/>
<feOffset dy="4"/>
<feGaussianBlur stdDeviation="2"/>
<feComposite in2="hardAlpha" operator="out"/>
<feColorMatrix type="matrix" values="0 0 0 0 0 0 0 0 0 0 0 0 0 0 0 0 0 0 0.07 0"/>
<feBlend mode="normal" in2="BackgroundImageFix" result="effect1_dropShadow_20:3"/>
<feBlend mode="normal" in="SourceGraphic" in2="effect1_dropShadow_20:3" result="shape"/>
</filter>
<clipPath id="clip0_20:3">
<rect width="143.232" height="167.265" fill="white"/>
</clipPath>
</defs>
</svg>
