<svg width="64" height="64" viewBox="0 0 64 64" fill="none" xmlns="http://www.w3.org/2000/svg">
<circle cx="32" cy="32" r="32" fill="#FFCF03"/>
<mask id="path-2-inside-1_1:2675" fill="white">
<path d="M43.6428 22.8596C42.1356 22.3419 40.9282 21.1277 40.4128 19.6116C40.085 18.6475 39.1826 18 38.1668 18H25.0793C24.0638 18 23.1611 18.6475 22.8333 19.6116C22.3179 21.1277 21.1105 22.3419 19.6033 22.8596C18.6443 23.1892 18 24.0944 18 25.1123V28.423C18 32.7434 19.2946 36.9034 21.7438 40.4533C23.9848 43.7014 27.0729 46.2431 30.6746 47.8041C30.976 47.9348 31.2994 48 31.623 48C31.9465 48 32.2699 47.9348 32.5713 47.8041C36.173 46.2433 39.2611 43.7014 41.502 40.4533C43.9513 36.9034 45.2461 32.7432 45.2461 28.423V25.1123C45.2461 24.0944 44.6018 23.1892 43.6428 22.8596ZM43.4883 28.423C43.4883 32.385 42.3011 36.1998 40.0551 39.4552C38.0013 42.432 35.1716 44.7613 31.8723 46.1911C31.7141 46.2598 31.5322 46.26 31.3736 46.1911C28.074 44.7613 25.2446 42.432 23.1908 39.4552C20.945 36.2 19.7578 32.3852 19.7578 28.423V25.1123C19.7578 24.8449 19.9254 24.6078 20.1746 24.5222C22.1922 23.8289 23.8083 22.2048 24.4975 20.1774C24.5829 19.9265 24.8166 19.7578 25.0793 19.7578H38.1668C38.4293 19.7578 38.6632 19.9265 38.7486 20.1774C39.4378 22.2048 41.0539 23.8289 43.0715 24.5222C43.3207 24.6078 43.4883 24.8449 43.4883 25.1123V28.423Z"/>
</mask>
<path d="M40.4128 19.6116L44.1999 18.324L44.1999 18.324L40.4128 19.6116ZM22.8333 19.6116L19.0462 18.324L19.0462 18.324L22.8333 19.6116ZM19.6033 22.8596L18.3038 19.0766L18.3033 19.0768L19.6033 22.8596ZM21.7438 40.4533L18.4514 42.7249L18.4514 42.7249L21.7438 40.4533ZM30.6746 47.8041L32.2657 44.1342L32.2652 44.1339L30.6746 47.8041ZM32.5713 47.8041L30.9809 44.1339L30.9802 44.1342L32.5713 47.8041ZM41.502 40.4533L44.7945 42.7249L44.7945 42.7249L41.502 40.4533ZM40.0551 39.4552L36.7626 37.1836L36.7626 37.1836L40.0551 39.4552ZM31.8723 46.1911L30.2818 42.521L30.2793 42.522L31.8723 46.1911ZM31.3736 46.1911L32.9671 42.5223L32.964 42.5209L31.3736 46.1911ZM23.1908 39.4552L26.4833 37.1836L26.4833 37.1836L23.1908 39.4552ZM20.1746 24.5222L21.4739 28.3053L21.4745 28.3051L20.1746 24.5222ZM24.4975 20.1774L20.7108 18.8886L20.7103 18.89L24.4975 20.1774ZM38.7486 20.1774L42.5358 18.89L42.5353 18.8886L38.7486 20.1774ZM43.0715 24.5222L41.7716 28.3051L41.7722 28.3053L43.0715 24.5222ZM44.9423 19.0766C44.6126 18.9633 44.3193 18.6751 44.1999 18.324L36.6257 20.8991C37.5372 23.5802 39.6586 25.7204 42.3433 26.6426L44.9423 19.0766ZM44.1999 18.324C43.3226 15.7434 40.901 14 38.1668 14V22C37.4641 22 36.8475 21.5516 36.6257 20.8991L44.1999 18.324ZM38.1668 14H25.0793V22H38.1668V14ZM25.0793 14C22.3455 14 19.9236 15.7432 19.0462 18.324L26.6204 20.8991C26.3985 21.5518 25.782 22 25.0793 22V14ZM19.0462 18.324C18.9268 18.6751 18.6335 18.9633 18.3038 19.0766L20.9028 26.6426C23.5875 25.7204 25.7089 23.5802 26.6204 20.8991L19.0462 18.324ZM18.3033 19.0768C15.7208 19.9643 14 22.395 14 25.1123H22C22 25.7939 21.5679 26.4141 20.9034 26.6425L18.3033 19.0768ZM14 25.1123V28.423H22V25.1123H14ZM14 28.423C14 33.5533 15.5405 38.5058 18.4514 42.7249L25.0362 38.1817C23.0486 35.3009 22 31.9335 22 28.423H14ZM18.4514 42.7249C21.1152 46.5858 24.7915 49.6138 29.0839 51.4742L32.2652 44.1339C29.3543 42.8724 26.8544 40.817 25.0362 38.1817L18.4514 42.7249ZM29.0834 51.474C29.8972 51.8268 30.7632 52 31.623 52V44C31.8356 44 32.0548 44.0427 32.2657 44.1342L29.0834 51.474ZM31.623 52C32.4829 52 33.3488 51.8267 34.1624 51.474L30.9802 44.1342C31.1909 44.0428 31.41 44 31.623 44V52ZM34.1617 51.4743C38.4545 49.6141 42.1307 46.5857 44.7945 42.7249L38.2096 38.1817C36.3914 40.8171 33.8915 42.8726 30.9809 44.1339L34.1617 51.4743ZM44.7945 42.7249C47.7053 38.5059 49.2461 33.5532 49.2461 28.423H41.2461C41.2461 31.9332 40.1973 35.3008 38.2096 38.1817L44.7945 42.7249ZM49.2461 28.423V25.1123H41.2461V28.423H49.2461ZM49.2461 25.1123C49.2461 22.395 47.5253 19.9643 44.9428 19.0768L42.3427 26.6425C41.6782 26.4141 41.2461 25.7939 41.2461 25.1123H49.2461ZM39.4883 28.423C39.4883 31.575 38.547 34.5973 36.7626 37.1836L43.3475 41.7267C46.0551 37.8022 47.4883 33.1949 47.4883 28.423H39.4883ZM36.7626 37.1836C35.1315 39.5479 32.8899 41.3907 30.2818 42.521L33.4628 49.8613C37.4534 48.132 40.8711 45.3161 43.3475 41.7267L36.7626 37.1836ZM30.2793 42.522C31.1353 42.1504 32.1072 42.1488 32.9671 42.5223L29.78 49.86C30.9571 50.3713 32.293 50.3692 33.4653 49.8603L30.2793 42.522ZM32.964 42.5209C30.3558 41.3907 28.1144 39.548 26.4833 37.1836L19.8984 41.7267C22.3747 45.316 25.7922 48.132 29.7831 49.8614L32.964 42.5209ZM26.4833 37.1836C24.6991 34.5976 23.7578 31.5753 23.7578 28.423H15.7578C15.7578 33.1951 17.1909 37.8024 19.8984 41.7267L26.4833 37.1836ZM23.7578 28.423V25.1123H15.7578V28.423H23.7578ZM23.7578 25.1123C23.7578 26.5206 22.8711 27.8255 21.4739 28.3053L18.8754 20.7391C16.9797 21.3902 15.7578 23.1692 15.7578 25.1123H23.7578ZM21.4745 28.3051C24.6675 27.2079 27.1988 24.6592 28.2847 21.4647L20.7103 18.89C20.4178 19.7504 19.7169 20.4499 18.8747 20.7393L21.4745 28.3051ZM28.2842 21.4661C27.8253 22.8146 26.5519 23.7578 25.0793 23.7578V15.7578C23.0812 15.7578 21.3405 17.0384 20.7108 18.8886L28.2842 21.4661ZM25.0793 23.7578H38.1668V15.7578H25.0793V23.7578ZM38.1668 23.7578C36.6948 23.7578 35.4211 22.8154 34.9619 21.4661L42.5353 18.8886C41.9053 17.0376 40.1638 15.7578 38.1668 15.7578V23.7578ZM34.9614 21.4647C36.0473 24.6592 38.5786 27.2079 41.7716 28.3051L44.3714 20.7393C43.5292 20.4499 42.8282 19.7504 42.5358 18.89L34.9614 21.4647ZM41.7722 28.3053C40.375 27.8255 39.4883 26.5206 39.4883 25.1123H47.4883C47.4883 23.1692 46.2664 21.3902 44.3707 20.7391L41.7722 28.3053ZM39.4883 25.1123V28.423H47.4883V25.1123H39.4883Z" fill="white" mask="url(#path-2-inside-1_1:2675)"/>
<mask id="path-4-inside-2_1:2675" fill="white">
<path d="M35.358 29.3956H35.2982V26.8925C35.2982 24.8662 33.6496 23.2176 31.6233 23.2176C29.597 23.2176 27.9484 24.8662 27.9484 26.8925V29.3956H27.8886C26.7216 29.3956 25.7722 30.3452 25.7722 31.5123V36.5706C25.7722 38.744 27.5405 40.5126 29.7137 40.5126H33.5329C35.7063 40.5126 37.4744 38.744 37.4744 36.5706V31.5123C37.4744 30.3452 36.525 29.3956 35.358 29.3956ZM29.7062 26.8925C29.7062 25.8355 30.5663 24.9754 31.6233 24.9754C32.6803 24.9754 33.5404 25.8355 33.5404 26.8925V29.3958H29.7062V26.8925ZM35.7166 36.5706C35.7166 37.7749 34.737 38.7545 33.5329 38.7545H29.7137C28.5096 38.7545 27.53 37.7749 27.53 36.5706V31.5123C27.53 31.3145 27.6909 31.1536 27.8886 31.1536H35.358C35.5557 31.1536 35.7166 31.3145 35.7166 31.5123V36.5706Z"/>
</mask>
<path d="M35.2982 29.3956H31.2982V33.3956H35.2982V29.3956ZM27.9484 29.3956V33.3956H31.9484V29.3956H27.9484ZM33.5404 29.3958V33.3958H37.5404V29.3958H33.5404ZM29.7062 29.3958H25.7062V33.3958H29.7062V29.3958ZM35.358 25.3956H35.2982V33.3956H35.358V25.3956ZM39.2982 29.3956V26.8925H31.2982V29.3956H39.2982ZM39.2982 26.8925C39.2982 22.6571 35.8587 19.2176 31.6233 19.2176V27.2176C31.4405 27.2176 31.2982 27.0754 31.2982 26.8925H39.2982ZM31.6233 19.2176C27.3879 19.2176 23.9484 22.6571 23.9484 26.8925H31.9484C31.9484 27.0754 31.8061 27.2176 31.6233 27.2176V19.2176ZM23.9484 26.8925V29.3956H31.9484V26.8925H23.9484ZM27.9484 25.3956H27.8886V33.3956H27.9484V25.3956ZM27.8886 25.3956C24.5119 25.3956 21.7722 28.1366 21.7722 31.5123H29.7722C29.7722 32.5538 28.9313 33.3956 27.8886 33.3956V25.3956ZM21.7722 31.5123V36.5706H29.7722V31.5123H21.7722ZM21.7722 36.5706C21.7722 40.9527 25.3309 44.5126 29.7137 44.5126V36.5126C29.7136 36.5126 29.7147 36.5126 29.7168 36.5128C29.7189 36.513 29.7215 36.5134 29.7245 36.514C29.7307 36.5153 29.7367 36.5172 29.7418 36.5193C29.7514 36.5234 29.7554 36.5272 29.7566 36.5284C29.7578 36.5295 29.7615 36.5335 29.7655 36.543C29.7676 36.5481 29.7695 36.5539 29.7708 36.56C29.7714 36.563 29.7718 36.5656 29.772 36.5676C29.7722 36.5697 29.7722 36.5707 29.7722 36.5706H21.7722ZM29.7137 44.5126H33.5329V36.5126H29.7137V44.5126ZM33.5329 44.5126C37.9161 44.5126 41.4744 40.9526 41.4744 36.5706H33.4744C33.4744 36.5707 33.4744 36.5697 33.4746 36.5677C33.4748 36.5656 33.4752 36.5631 33.4758 36.5601C33.4771 36.554 33.4789 36.5482 33.4811 36.5431C33.4851 36.5336 33.4888 36.5296 33.49 36.5284C33.4913 36.5272 33.4953 36.5234 33.505 36.5193C33.5101 36.5172 33.516 36.5153 33.5222 36.514C33.5252 36.5134 33.5278 36.513 33.5298 36.5128C33.5319 36.5126 33.533 36.5126 33.5329 36.5126V44.5126ZM41.4744 36.5706V31.5123H33.4744V36.5706H41.4744ZM41.4744 31.5123C41.4744 28.1366 38.7347 25.3956 35.358 25.3956V33.3956C34.3153 33.3956 33.4744 32.5538 33.4744 31.5123H41.4744ZM33.7062 26.8925C33.7062 28.0447 32.7755 28.9754 31.6233 28.9754V20.9754C28.3572 20.9754 25.7062 23.6264 25.7062 26.8925H33.7062ZM31.6233 28.9754C30.4711 28.9754 29.5404 28.0447 29.5404 26.8925H37.5404C37.5404 23.6264 34.8894 20.9754 31.6233 20.9754V28.9754ZM29.5404 26.8925V29.3958H37.5404V26.8925H29.5404ZM33.5404 25.3958H29.7062V33.3958H33.5404V25.3958ZM33.7062 29.3958V26.8925H25.7062V29.3958H33.7062ZM31.7166 36.5706C31.7166 35.5661 32.5276 34.7545 33.5329 34.7545V42.7545C36.9464 42.7545 39.7166 39.9838 39.7166 36.5706H31.7166ZM33.5329 34.7545H29.7137V42.7545H33.5329V34.7545ZM29.7137 34.7545C30.719 34.7545 31.53 35.5661 31.53 36.5706H23.53C23.53 39.9838 26.3002 42.7545 29.7137 42.7545V34.7545ZM31.53 36.5706V31.5123H23.53V36.5706H31.53ZM31.53 31.5123C31.53 33.5237 29.9 35.1536 27.8886 35.1536V27.1536C25.4817 27.1536 23.53 29.1054 23.53 31.5123H31.53ZM27.8886 35.1536H35.358V27.1536H27.8886V35.1536ZM35.358 35.1536C33.3466 35.1536 31.7166 33.5237 31.7166 31.5123H39.7166C39.7166 29.1054 37.7649 27.1536 35.358 27.1536V35.1536ZM31.7166 31.5123V36.5706H39.7166V31.5123H31.7166Z" fill="white" mask="url(#path-4-inside-2_1:2675)"/>
<path d="M32.3763 34.954C32.1773 35.1347 31.913 35.2448 31.623 35.2448C31.3331 35.2448 31.0688 35.1347 30.8697 34.954C31.0688 34.7733 31.3331 34.6632 31.623 34.6632C31.913 34.6632 32.1773 34.7733 32.3763 34.954Z" stroke="white" stroke-width="4"/>
</svg>
