<svg width="64" height="64" viewBox="0 0 64 64" fill="none" xmlns="http://www.w3.org/2000/svg">
<circle cx="32" cy="32" r="32" fill="#2ACD92"/>
<path d="M27.3387 34.2908L26.5836 35.0237C26.4769 35.1273 26.4168 35.2695 26.4168 35.4181V35.7308C26.4168 36.0344 26.663 36.2806 26.9666 36.2806H31.4755C31.7795 36.2806 32.0255 36.0344 32.0255 35.7308V35.326C32.0255 35.0224 31.7795 34.7762 31.4755 34.7762H28.9842L29.0529 34.713C30.6811 33.1443 31.8336 31.9096 31.8336 30.3019C31.8336 29.0165 30.9982 27.7195 29.1312 27.7195C28.3162 27.7195 27.518 27.9811 26.8835 28.4557C26.6774 28.6103 26.6059 28.8873 26.712 29.1223L26.8507 29.429C26.918 29.5781 27.048 29.6895 27.206 29.7329C27.363 29.7763 27.5325 29.747 27.6665 29.6534C28.0745 29.3685 28.4945 29.2239 28.9152 29.2239C29.7341 29.2239 30.1491 29.631 30.1491 30.4283C30.1382 31.5088 29.2419 32.4788 27.3387 34.2908Z" fill="white"/>
<path d="M35.5564 27.8534C35.5417 27.8521 35.5269 27.8515 35.5122 27.8515H35.3443C35.1645 27.8515 34.9964 27.9393 34.8936 28.0864L31.5262 32.9054C31.4617 32.9977 31.4272 33.1077 31.4272 33.2203V33.6066C31.4272 33.9102 31.6732 34.1564 31.9768 34.1564H35.0514V35.7308C35.0514 36.0344 35.2974 36.2806 35.6011 36.2806H36.1261C36.4295 36.2806 36.676 36.0344 36.676 35.7308V34.1564H37.218C37.5216 34.1564 37.7679 33.9102 37.7679 33.6066V33.2496C37.7679 32.9462 37.5216 32.6999 37.218 32.6999H36.676V28.4013C36.676 28.0979 36.4295 27.8516 36.1261 27.8516H35.6011C35.586 27.8516 35.571 27.8522 35.5564 27.8534ZM35.0514 32.6999H33.3912C33.813 32.0875 34.5342 31.0364 35.0514 30.2597V32.6999Z" fill="white"/>
<path d="M32.1132 44.622C25.6426 44.622 20.3782 39.3576 20.3782 32.887C20.3782 26.7599 25.0987 21.7153 31.0937 21.1967V23.0673C31.0937 23.2002 31.167 23.3224 31.2842 23.3848C31.3373 23.4131 31.3954 23.427 31.4533 23.427C31.5234 23.427 31.5935 23.4064 31.6538 23.3658L35.9013 20.5121C36.0008 20.4453 36.0605 20.3334 36.0605 20.2135C36.0605 20.0937 36.0008 19.9817 35.9013 19.9149L31.6538 17.0612C31.5436 16.9871 31.4014 16.9797 31.2841 17.0424C31.1669 17.1048 31.0936 17.227 31.0936 17.3598V18.8108C23.7858 19.3351 18 25.4477 18 32.8869C18 40.6689 24.3313 47 32.1131 47C35.716 47 39.146 45.6425 41.7712 43.1776L40.1436 41.4439C37.9609 43.4933 35.109 44.622 32.1132 44.622Z" fill="white"/>
<path d="M44.1604 25.5319C43.6742 24.7367 43.1056 23.9859 42.4711 23.3007L40.7261 24.9163C41.2542 25.4866 41.727 26.1113 42.1317 26.7727L44.1604 25.5319Z" fill="white"/>
<path d="M43.7415 31.2931L46.098 30.9732C45.9723 30.0467 45.7532 29.1304 45.4468 28.2496L43.2007 29.0307C43.4551 29.7621 43.637 30.5233 43.7415 31.2931Z" fill="white"/>
<path d="M40.2082 21.3243C39.4429 20.7875 38.6217 20.3259 37.7673 19.952L36.814 22.1306C37.524 22.4414 38.2066 22.8251 38.8427 23.2712L40.2082 21.3243Z" fill="white"/>
<path d="M41.1792 40.3391L43.0154 41.8503C43.6094 41.1286 44.1331 40.3457 44.5719 39.5234L42.474 38.4037C42.1091 39.0874 41.6735 39.7387 41.1792 40.3391Z" fill="white"/>
<path d="M43.8132 33.7944C43.7541 34.5704 43.6172 35.3415 43.4068 36.0863L45.6952 36.7333C45.9488 35.8367 46.1133 34.9088 46.1847 33.9756L43.8132 33.7944Z" fill="white"/>
</svg>
